<svg width="36" height="36" viewBox="0 0 36 36" fill="none" xmlns="http://www.w3.org/2000/svg">
<path d="M36 18C36 8.05888 27.9411 0 18 0C8.05888 0 0 8.05888 0 18C0 27.9411 8.05888 36 18 36C27.9411 36 36 27.9411 36 18Z" fill="white"/>
<path fill-rule="evenodd" clip-rule="evenodd" d="M26.809 18.2047C26.809 17.5665 26.7517 16.9529 26.6453 16.3638H18.1689V19.8451H23.0126C22.804 20.9701 22.1699 21.9233 21.2167 22.5615V24.8197H24.1253C25.8271 23.2529 26.809 20.9456 26.809 18.2047Z" fill="#4285F4"/>
<path fill-rule="evenodd" clip-rule="evenodd" d="M18.1687 27C20.5987 27 22.636 26.1941 24.1251 24.8195L21.2165 22.5613C20.4105 23.1013 19.3796 23.4204 18.1687 23.4204C15.8246 23.4204 13.8405 21.8372 13.1328 19.71H10.126V22.0418C11.6069 24.9832 14.6505 27 18.1687 27Z" fill="#34A853"/>
<path fill-rule="evenodd" clip-rule="evenodd" d="M13.133 19.7098C12.953 19.1698 12.8508 18.593 12.8508 17.9998C12.8508 17.4067 12.953 16.8298 13.133 16.2898V13.958H10.1262C9.51667 15.173 9.16895 16.5476 9.16895 17.9998C9.16895 19.4521 9.51667 20.8267 10.1262 22.0417L13.133 19.7098Z" fill="#FBBC05"/>
<path fill-rule="evenodd" clip-rule="evenodd" d="M18.1687 12.5796C19.4901 12.5796 20.6765 13.0336 21.6092 13.9255L24.1906 11.3441C22.6319 9.89182 20.5946 9 18.1687 9C14.6505 9 11.6069 11.0168 10.126 13.9582L13.1328 16.29C13.8405 14.1627 15.8246 12.5796 18.1687 12.5796Z" fill="#EA4335"/>
</svg>
