<svg width="26" height="26" viewBox="0 0 26 26" fill="none" xmlns="http://www.w3.org/2000/svg">
<path d="M8.66667 7.58333V5.41667C8.66667 4.84203 8.89494 4.29093 9.30127 3.8846C9.7076 3.47827 10.2587 3.25 10.8333 3.25H15.1667C15.7413 3.25 16.2924 3.47827 16.6987 3.8846C17.1051 4.29093 17.3333 4.84203 17.3333 5.41667V7.58333M13 13V13.0108M3.25 14.0833C6.27421 15.6072 9.61353 16.401 13 16.401C16.3865 16.401 19.7258 15.6072 22.75 14.0833M3.25 9.75C3.25 9.17536 3.47827 8.62426 3.8846 8.21793C4.29093 7.81161 4.84203 7.58333 5.41667 7.58333H20.5833C21.158 7.58333 21.7091 7.81161 22.1154 8.21793C22.5217 8.62426 22.75 9.17536 22.75 9.75V19.5C22.75 20.0746 22.5217 20.6257 22.1154 21.0321C21.7091 21.4384 21.158 21.6667 20.5833 21.6667H5.41667C4.84203 21.6667 4.29093 21.4384 3.8846 21.0321C3.47827 20.6257 3.25 20.0746 3.25 19.5V9.75Z" stroke="#595959" stroke-width="2" stroke-linecap="round" stroke-linejoin="round"/>
</svg>
