<?xml version="1.0" standalone="no"?>
<!DOCTYPE svg PUBLIC "-//W3C//DTD SVG 20010904//EN"
 "http://www.w3.org/TR/2001/REC-SVG-20010904/DTD/svg10.dtd">
<svg version="1.0" xmlns="http://www.w3.org/2000/svg"
 width="32.000000pt" height="32.000000pt" viewBox="0 0 32.000000 32.000000"
 preserveAspectRatio="xMidYMid meet">

<g transform="translate(0.000000,32.000000) scale(0.100000,-0.100000)"
fill="#000000" stroke="none">
<path d="M70 301 c0 -10 -9 -21 -20 -24 -19 -5 -20 -14 -20 -135 0 -95 -3
-132 -12 -135 -7 -3 57 -5 142 -5 85 0 149 2 143 5 -10 3 -13 40 -13 135 0
121 -1 130 -20 135 -11 3 -20 14 -20 24 0 17 -9 19 -90 19 -81 0 -90 -2 -90
-19z m160 -6 c0 -12 -14 -15 -70 -15 -56 0 -70 3 -70 15 0 12 14 15 70 15 56
0 70 -3 70 -15z m40 -155 l0 -130 -35 0 c-34 0 -35 1 -35 40 l0 40 -40 0 -40
0 0 -40 c0 -39 -1 -40 -35 -40 l-35 0 0 130 0 130 110 0 110 0 0 -130z m-91
-97 c-1 -21 -3 -30 -6 -20 -6 22 -20 22 -26 0 -3 -10 -5 -1 -6 20 -1 31 2 37
19 37 17 0 20 -6 19 -37z"/>
<path d="M60 215 c0 -20 5 -25 25 -25 20 0 25 5 25 25 0 20 -5 25 -25 25 -20
0 -25 -5 -25 -25z m38 4 c-2 -6 -8 -10 -13 -10 -5 0 -11 4 -13 10 -2 6 4 11
13 11 9 0 15 -5 13 -11z"/>
<path d="M134 225 c-4 -9 -2 -21 4 -27 16 -16 47 -5 47 17 0 26 -42 34 -51 10z
m36 -10 c0 -8 -4 -15 -10 -15 -5 0 -10 7 -10 15 0 8 5 15 10 15 6 0 10 -7 10
-15z"/>
<path d="M210 215 c0 -20 5 -25 25 -25 20 0 25 5 25 25 0 20 -5 25 -25 25 -20
0 -25 -5 -25 -25z m38 4 c-2 -6 -8 -10 -13 -10 -5 0 -11 4 -13 10 -2 6 4 11
13 11 9 0 15 -5 13 -11z"/>
<path d="M67 164 c-4 -4 -7 -16 -7 -26 0 -13 7 -18 26 -18 21 0 25 4 22 22 -3
23 -27 35 -41 22z m33 -24 c0 -5 -7 -10 -15 -10 -8 0 -15 5 -15 10 0 6 7 10
15 10 8 0 15 -4 15 -10z"/>
<path d="M134 155 c-4 -9 -2 -21 4 -27 16 -16 47 -5 47 17 0 26 -42 34 -51 10z
m36 -15 c0 -5 -4 -10 -10 -10 -5 0 -10 5 -10 10 0 6 5 10 10 10 6 0 10 -4 10
-10z"/>
<path d="M217 164 c-4 -4 -7 -16 -7 -26 0 -13 7 -18 26 -18 21 0 25 4 22 22
-3 23 -27 35 -41 22z m33 -24 c0 -5 -7 -10 -15 -10 -8 0 -15 5 -15 10 0 6 7
10 15 10 8 0 15 -4 15 -10z"/>
<path d="M60 65 c0 -20 5 -25 25 -25 20 0 25 5 25 25 0 20 -5 25 -25 25 -20 0
-25 -5 -25 -25z m38 4 c-2 -6 -8 -10 -13 -10 -5 0 -11 4 -13 10 -2 6 4 11 13
11 9 0 15 -5 13 -11z"/>
<path d="M210 65 c0 -20 5 -25 25 -25 20 0 25 5 25 25 0 20 -5 25 -25 25 -20
0 -25 -5 -25 -25z m38 4 c-2 -6 -8 -10 -13 -10 -5 0 -11 4 -13 10 -2 6 4 11
13 11 9 0 15 -5 13 -11z"/>
</g>
</svg>
