<svg width="26" height="26" viewBox="0 0 26 26" fill="none" xmlns="http://www.w3.org/2000/svg">
<path d="M17.334 3.25V7.58333M8.66732 3.25V7.58333M4.33398 11.9167H21.6673M11.9173 16.25H13.0007V19.5M4.33398 7.58333C4.33398 7.0087 4.56226 6.4576 4.96859 6.05127C5.37492 5.64494 5.92602 5.41667 6.50065 5.41667H19.5007C20.0753 5.41667 20.6264 5.64494 21.0327 6.05127C21.439 6.4576 21.6673 7.0087 21.6673 7.58333V20.5833C21.6673 21.158 21.439 21.7091 21.0327 22.1154C20.6264 22.5217 20.0753 22.75 19.5007 22.75H6.50065C5.92602 22.75 5.37492 22.5217 4.96859 22.1154C4.56226 21.7091 4.33398 21.158 4.33398 20.5833V7.58333Z" stroke="black" stroke-width="2" stroke-linecap="round" stroke-linejoin="round"/>
</svg>
