<svg xmlns="http://www.w3.org/2000/svg" width="281.273" height="281.274" viewBox="0 0 281.273 281.274">
  <path id="Download-Icon-SVG-psofd" d="M37.133,280.274A36.933,36.933,0,0,1,0,243.141v-49.08a11.624,11.624,0,0,1,23.249,0v49.08a13.782,13.782,0,0,0,13.884,13.885H243.14A13.715,13.715,0,0,0,256.7,243.141v-49.08a11.854,11.854,0,0,1,11.948-11.624,11.576,11.576,0,0,1,11.624,11.624v49.08a37.138,37.138,0,0,1-37.133,37.133Zm96.7-66.741a11.572,11.572,0,0,1-3.357-3.292L45.851,126.253a11.692,11.692,0,0,1,0-16.468,11.147,11.147,0,0,1,16.467,0L128.513,175.7V11.624a11.624,11.624,0,1,1,23.249,0V175.656l65.87-65.871a11.149,11.149,0,0,1,16.468,0,11.694,11.694,0,0,1,0,16.468L149.815,210.22a11.571,11.571,0,0,1-3.382,3.321,11.742,11.742,0,0,1-12.6-.008Z" transform="translate(0.5 0.5)" stroke="rgba(0,0,0,0)" stroke-miterlimit="10" stroke-width="1"/>
</svg>
