<svg width="27" height="27" viewBox="0 0 27 27" fill="none" xmlns="http://www.w3.org/2000/svg">
<g clip-path="url(#clip0_108_439)">
<g clip-path="url(#clip1_108_439)">
<path d="M18.2637 3.67749V8.01082M9.597 3.67749V8.01082M5.26367 12.3442H22.597M12.847 16.6775H13.9303V19.9275M5.26367 8.01082C5.26367 7.43619 5.49194 6.88509 5.89827 6.47876C6.3046 6.07243 6.8557 5.84416 7.43034 5.84416H20.4303C21.005 5.84416 21.5561 6.07243 21.9624 6.47876C22.3687 6.88509 22.597 7.43619 22.597 8.01082V21.0108C22.597 21.5855 22.3687 22.1366 21.9624 22.5429C21.5561 22.9492 21.005 23.1775 20.4303 23.1775H7.43034C6.8557 23.1775 6.3046 22.9492 5.89827 22.5429C5.49194 22.1366 5.26367 21.5855 5.26367 21.0108V8.01082Z" stroke="#595959" stroke-width="2.22901" stroke-linecap="round" stroke-linejoin="round"/>
</g>
</g>
<defs>
<clipPath id="clip0_108_439">
<rect width="26" height="26" fill="white" transform="translate(0.931641 0.42749)"/>
</clipPath>
<clipPath id="clip1_108_439">
<rect width="26" height="26" fill="white" transform="translate(0.931641 0.42749)"/>
</clipPath>
</defs>
</svg>
