<?xml version="1.0" standalone="no"?>
<!DOCTYPE svg PUBLIC "-//W3C//DTD SVG 20010904//EN"
 "http://www.w3.org/TR/2001/REC-SVG-20010904/DTD/svg10.dtd">
<svg version="1.0" xmlns="http://www.w3.org/2000/svg"
 width="32.000000pt" height="32.000000pt" viewBox="0 0 32.000000 32.000000"
 preserveAspectRatio="xMidYMid meet">

<g transform="translate(0.000000,32.000000) scale(0.100000,-0.100000)"
fill="#000000" stroke="none">
<path d="M136 257 c-22 -16 -18 -55 7 -71 39 -24 79 44 41 71 -10 7 -21 13
-24 13 -3 0 -14 -6 -24 -13z"/>
<path d="M37 224 c-15 -15 -7 -53 13 -59 27 -8 52 12 48 39 -3 21 -46 35 -61
20z m41 -26 c-6 -18 -28 -21 -28 -4 0 9 7 16 16 16 9 0 14 -5 12 -12z"/>
<path d="M223 214 c-8 -22 10 -49 32 -49 22 0 40 27 32 49 -8 21 -56 21 -64 0z
m45 -15 c-2 -6 -8 -10 -13 -10 -5 0 -11 4 -13 10 -2 6 4 11 13 11 9 0 15 -5
13 -11z"/>
<path d="M104 115 c-25 -61 -22 -65 56 -65 78 0 80 3 55 64 -14 33 -19 36 -56
36 -36 0 -41 -3 -55 -35z"/>
<path d="M35 132 c-15 -11 -36 -62 -30 -73 8 -12 65 -12 65 1 0 6 -9 10 -20
10 -21 0 -24 8 -14 34 4 10 18 16 36 16 17 0 27 4 23 10 -7 12 -45 13 -60 2z"/>
<path d="M225 130 c-3 -6 4 -10 17 -10 26 0 48 -17 48 -37 0 -7 -9 -13 -20
-13 -11 0 -20 -4 -20 -10 0 -13 57 -13 65 -1 6 11 -15 62 -30 73 -15 11 -53
10 -60 -2z"/>
</g>
</svg>
