<svg width="36" height="36" viewBox="0 0 36 36" fill="none" xmlns="http://www.w3.org/2000/svg">
<path d="M13.5 16.5C13.5 17.6935 13.9741 18.8381 14.818 19.682C15.6619 20.5259 16.8065 21 18 21C19.1935 21 20.3381 20.5259 21.182 19.682C22.0259 18.8381 22.5 17.6935 22.5 16.5C22.5 15.3065 22.0259 14.1619 21.182 13.318C20.3381 12.4741 19.1935 12 18 12C16.8065 12 15.6619 12.4741 14.818 13.318C13.9741 14.1619 13.5 15.3065 13.5 16.5Z" stroke="white" stroke-width="2" stroke-linecap="round" stroke-linejoin="round"/>
<path d="M26.4855 24.9851L20.121 31.3496C19.5585 31.9115 18.7959 32.2272 18.0008 32.2272C17.2056 32.2272 16.443 31.9115 15.8805 31.3496L9.51451 24.9851C7.83634 23.3068 6.69351 21.1686 6.23054 18.8409C5.76756 16.5131 6.00524 14.1003 6.91351 11.9077C7.82178 9.71498 9.35985 7.84087 11.3332 6.52232C13.3066 5.20377 15.6267 4.5 18 4.5C20.3734 4.5 22.6934 5.20377 24.6668 6.52232C26.6402 7.84087 28.1782 9.71498 29.0865 11.9077C29.9948 14.1003 30.2324 16.5131 29.7695 18.8409C29.3065 21.1686 28.1637 23.3068 26.4855 24.9851Z" stroke="white" stroke-width="2" stroke-linecap="round" stroke-linejoin="round"/>
</svg>
