<svg width="36" height="36" viewBox="0 0 36 36" fill="none" xmlns="http://www.w3.org/2000/svg">
<path d="M36 0H0V36H36V0Z" fill="#F00073"/>
<path d="M17.9996 10.3501C20.4746 10.3501 20.8121 10.3501 21.8246 10.3501C22.7246 10.3501 23.1746 10.5751 23.5121 10.6876C23.9621 10.9126 24.2996 11.0251 24.6371 11.3626C24.9746 11.7001 25.1996 12.0376 25.3121 12.4876C25.4246 12.8251 25.5371 13.2751 25.6496 14.1751C25.6496 15.1876 25.6496 15.4126 25.6496 18.0001C25.6496 20.5876 25.6496 20.8126 25.6496 21.8251C25.6496 22.7251 25.4246 23.1751 25.3121 23.5126C25.0871 23.9626 24.9746 24.3001 24.6371 24.6376C24.2996 24.9751 23.9621 25.2001 23.5121 25.3126C23.1746 25.4251 22.7246 25.5376 21.8246 25.6501C20.8121 25.6501 20.5871 25.6501 17.9996 25.6501C15.4121 25.6501 15.1871 25.6501 14.1746 25.6501C13.2746 25.6501 12.8246 25.4251 12.4871 25.3126C12.0371 25.0876 11.6996 24.9751 11.3621 24.6376C11.0246 24.3001 10.7996 23.9626 10.6871 23.5126C10.5746 23.1751 10.4621 22.7251 10.3496 21.8251C10.3496 20.8126 10.3496 20.5876 10.3496 18.0001C10.3496 15.4126 10.3496 15.1876 10.3496 14.1751C10.3496 13.2751 10.5746 12.8251 10.6871 12.4876C10.9121 12.0376 11.0246 11.7001 11.3621 11.3626C11.6996 11.0251 12.0371 10.8001 12.4871 10.6876C12.8246 10.5751 13.2746 10.4626 14.1746 10.3501C15.1871 10.3501 15.5246 10.3501 17.9996 10.3501ZM17.9996 8.6626C15.4121 8.6626 15.1871 8.6626 14.1746 8.6626C13.1621 8.6626 12.4871 8.8876 11.9246 9.1126C11.3621 9.3376 10.7996 9.6751 10.2371 10.2376C9.67461 10.8001 9.44961 11.2501 9.11211 11.9251C8.88711 12.4876 8.77461 13.1626 8.66211 14.1751C8.66211 15.1876 8.66211 15.5251 8.66211 18.0001C8.66211 20.5876 8.66211 20.8126 8.66211 21.8251C8.66211 22.8376 8.88711 23.5126 9.11211 24.0751C9.33711 24.6376 9.67461 25.2001 10.2371 25.7626C10.7996 26.3251 11.2496 26.5501 11.9246 26.8876C12.4871 27.1126 13.1621 27.2251 14.1746 27.3376C15.1871 27.3376 15.5246 27.3376 17.9996 27.3376C20.4746 27.3376 20.8121 27.3376 21.8246 27.3376C22.8371 27.3376 23.5121 27.1126 24.0746 26.8876C24.6371 26.6626 25.1996 26.3251 25.7621 25.7626C26.3246 25.2001 26.5496 24.7501 26.8871 24.0751C27.1121 23.5126 27.2246 22.8376 27.3371 21.8251C27.3371 20.8126 27.3371 20.4751 27.3371 18.0001C27.3371 15.5251 27.3371 15.1876 27.3371 14.1751C27.3371 13.1626 27.1121 12.4876 26.8871 11.9251C26.6621 11.3626 26.3246 10.8001 25.7621 10.2376C25.1996 9.6751 24.7496 9.4501 24.0746 9.1126C23.5121 8.8876 22.8371 8.7751 21.8246 8.6626C20.8121 8.6626 20.5871 8.6626 17.9996 8.6626Z" fill="white"/>
<path d="M17.9996 13.1626C15.2996 13.1626 13.1621 15.3001 13.1621 18.0001C13.1621 20.7001 15.2996 22.8376 17.9996 22.8376C20.6996 22.8376 22.8371 20.7001 22.8371 18.0001C22.8371 15.3001 20.6996 13.1626 17.9996 13.1626ZM17.9996 21.1501C16.3121 21.1501 14.8496 19.8001 14.8496 18.0001C14.8496 16.3126 16.1996 14.8501 17.9996 14.8501C19.6871 14.8501 21.1496 16.2001 21.1496 18.0001C21.1496 19.6876 19.6871 21.1501 17.9996 21.1501Z" fill="white"/>
<path d="M22.9496 14.1751C23.5709 14.1751 24.0746 13.6714 24.0746 13.0501C24.0746 12.4288 23.5709 11.9251 22.9496 11.9251C22.3283 11.9251 21.8246 12.4288 21.8246 13.0501C21.8246 13.6714 22.3283 14.1751 22.9496 14.1751Z" fill="white"/>
</svg>
