<svg width="36" height="36" viewBox="0 0 36 36" fill="none" xmlns="http://www.w3.org/2000/svg">
<rect width="36" height="36" fill="#D9D9D9"/>
<path d="M36 0H0V36H36V0Z" fill="#2867B2"/>
<path d="M13.05 27H9.225V14.9625H13.05V27ZM11.1375 13.275C9.9 13.275 9 12.375 9 11.1375C9 9.9 10.0125 9 11.1375 9C12.375 9 13.275 9.9 13.275 11.1375C13.275 12.375 12.375 13.275 11.1375 13.275ZM27 27H23.175V20.475C23.175 18.5625 22.3875 18 21.2625 18C20.1375 18 19.0125 18.9 19.0125 20.5875V27H15.1875V14.9625H18.7875V16.65C19.125 15.8625 20.475 14.625 22.3875 14.625C24.525 14.625 26.775 15.8625 26.775 19.575V27H27Z" fill="white"/>
</svg>
