<svg width="26" height="26" viewBox="0 0 26 26" fill="none" xmlns="http://www.w3.org/2000/svg">
<path d="M9.75065 11.9164C9.75065 12.7784 10.0931 13.605 10.7026 14.2145C11.312 14.824 12.1387 15.1664 13.0007 15.1664C13.8626 15.1664 14.6893 14.824 15.2987 14.2145C15.9082 13.605 16.2507 12.7784 16.2507 11.9164C16.2507 11.0544 15.9082 10.2278 15.2987 9.6183C14.6893 9.00881 13.8626 8.6664 13.0007 8.6664C12.1387 8.6664 11.312 9.00881 10.7026 9.6183C10.0931 10.2278 9.75065 11.0544 9.75065 11.9164Z" stroke="black" stroke-width="2" stroke-linecap="round" stroke-linejoin="round"/>
<path d="M19.1291 18.0448L14.5325 22.6413C14.1262 23.0472 13.5755 23.2752 13.0012 23.2752C12.4269 23.2752 11.8762 23.0472 11.4699 22.6413L6.87224 18.0448C5.66023 16.8327 4.83485 15.2884 4.50048 13.6073C4.16611 11.9261 4.33777 10.1836 4.99374 8.59997C5.64971 7.01637 6.76054 5.66285 8.18576 4.71057C9.61098 3.75828 11.2866 3.25 13.0007 3.25C14.7147 3.25 16.3903 3.75828 17.8156 4.71057C19.2408 5.66285 20.3516 7.01637 21.0076 8.59997C21.6635 10.1836 21.8352 11.9261 21.5008 13.6073C21.1665 15.2884 20.3411 16.8327 19.1291 18.0448Z" stroke="black" stroke-width="2" stroke-linecap="round" stroke-linejoin="round"/>
</svg>
