<svg width="27" height="27" viewBox="0 0 27 27" fill="none" xmlns="http://www.w3.org/2000/svg">
<path d="M3.49414 13.4275C3.49414 16.0134 4.52137 18.4933 6.34985 20.3218C8.17833 22.1503 10.6583 23.1775 13.2441 23.1775C15.83 23.1775 18.31 22.1503 20.1384 20.3218C21.9669 18.4933 22.9941 16.0134 22.9941 13.4275C22.9941 10.8416 21.9669 8.36168 20.1384 6.5332C18.31 4.70472 15.83 3.67749 13.2441 3.67749C10.6583 3.67749 8.17833 4.70472 6.34985 6.5332C4.52137 8.36168 3.49414 10.8416 3.49414 13.4275Z" stroke="#595959" stroke-width="2.22901" stroke-linecap="round" stroke-linejoin="round"/>
<path d="M9.99414 8.55249L9.99414 18.3025L18.6608 13.4275L9.99414 8.55249Z" stroke="#595959" stroke-width="2.22901" stroke-linecap="round" stroke-linejoin="round"/>
</svg>
