<svg width="27" height="27" viewBox="0 0 27 27" fill="none" xmlns="http://www.w3.org/2000/svg">
<g clip-path="url(#clip0_108_430)">
<path d="M20.2031 13.4275H20.214M7.20313 13.4275H7.21396M10.4531 13.4275C10.4531 14.2894 10.7955 15.1161 11.405 15.7256C12.0145 16.3351 12.8412 16.6775 13.7031 16.6775C14.5651 16.6775 15.3917 16.3351 16.0012 15.7256C16.6107 15.1161 16.9531 14.2894 16.9531 13.4275C16.9531 12.5655 16.6107 11.7389 16.0012 11.1294C15.3917 10.5199 14.5651 10.1775 13.7031 10.1775C12.8412 10.1775 12.0145 10.5199 11.405 11.1294C10.7955 11.7389 10.4531 12.5655 10.4531 13.4275ZM3.95312 9.09416C3.95312 8.51952 4.1814 7.96842 4.58773 7.56209C4.99406 7.15576 5.54516 6.92749 6.11979 6.92749H21.2865C21.8611 6.92749 22.4122 7.15576 22.8185 7.56209C23.2249 7.96842 23.4531 8.51952 23.4531 9.09416V17.7608C23.4531 18.3355 23.2249 18.8866 22.8185 19.2929C22.4122 19.6992 21.8611 19.9275 21.2865 19.9275H6.11979C5.54516 19.9275 4.99406 19.6992 4.58773 19.2929C4.1814 18.8866 3.95313 18.3355 3.95312 17.7608V9.09416Z" stroke="#595959" stroke-width="2.22901" stroke-linecap="round" stroke-linejoin="round"/>
</g>
<defs>
<clipPath id="clip0_108_430">
<rect width="26" height="26" fill="white" transform="translate(0.703125 0.42749)"/>
</clipPath>
</defs>
</svg>
