<svg width="36" height="36" viewBox="0 0 36 36" fill="none" xmlns="http://www.w3.org/2000/svg">
<path d="M12 13.5H24M12 19.5H21M13.5 27H9C7.80653 27 6.66193 26.5259 5.81802 25.682C4.97411 24.8381 4.5 23.6935 4.5 22.5V10.5C4.5 9.30653 4.97411 8.16193 5.81802 7.31802C6.66193 6.47411 7.80653 6 9 6H27C28.1935 6 29.3381 6.47411 30.182 7.31802C31.0259 8.16193 31.5 9.30653 31.5 10.5V22.5C31.5 23.6935 31.0259 24.8381 30.182 25.682C29.3381 26.5259 28.1935 27 27 27H22.5L18 31.5L13.5 27Z" stroke="black" stroke-width="3" stroke-linecap="round" stroke-linejoin="round"/>
</svg>
