<svg width="36" height="36" viewBox="0 0 36 36" fill="none" xmlns="http://www.w3.org/2000/svg">
<path d="M9.25195 28.2735C9.62322 27.0378 10.3829 25.9548 11.4183 25.185C12.4537 24.4152 13.7097 23.9996 15 24H21C22.2918 23.9996 23.5494 24.4161 24.5855 25.1877C25.6217 25.9593 26.3811 27.0447 26.751 28.2825M4.5 18C4.5 19.7728 4.84919 21.5283 5.52763 23.1662C6.20606 24.8041 7.20047 26.2923 8.45406 27.5459C9.70765 28.7995 11.1959 29.7939 12.8338 30.4724C14.4717 31.1508 16.2272 31.5 18 31.5C19.7728 31.5 21.5283 31.1508 23.1662 30.4724C24.8041 29.7939 26.2923 28.7995 27.5459 27.5459C28.7995 26.2923 29.7939 24.8041 30.4724 23.1662C31.1508 21.5283 31.5 19.7728 31.5 18C31.5 16.2272 31.1508 14.4717 30.4724 12.8338C29.7939 11.1959 28.7995 9.70765 27.5459 8.45406C26.2923 7.20047 24.8041 6.20607 23.1662 5.52763C21.5283 4.84919 19.7728 4.5 18 4.5C16.2272 4.5 14.4717 4.84919 12.8338 5.52763C11.1959 6.20607 9.70765 7.20047 8.45406 8.45406C7.20047 9.70765 6.20606 11.1959 5.52763 12.8338C4.84919 14.4717 4.5 16.2272 4.5 18ZM13.5 15C13.5 16.1935 13.9741 17.3381 14.818 18.182C15.6619 19.0259 16.8065 19.5 18 19.5C19.1935 19.5 20.3381 19.0259 21.182 18.182C22.0259 17.3381 22.5 16.1935 22.5 15C22.5 13.8065 22.0259 12.6619 21.182 11.818C20.3381 10.9741 19.1935 10.5 18 10.5C16.8065 10.5 15.6619 10.9741 14.818 11.818C13.9741 12.6619 13.5 13.8065 13.5 15Z" stroke="#212121" stroke-width="3" stroke-linecap="round" stroke-linejoin="round"/>
</svg>
