<svg width="26" height="26" viewBox="0 0 26 26" fill="none" xmlns="http://www.w3.org/2000/svg">
<path d="M5.41602 22.75V20.5833C5.41602 19.4341 5.87256 18.3319 6.68522 17.5192C7.49788 16.7065 8.60008 16.25 9.74935 16.25H14.0827M15.166 20.5833L17.3327 22.75L21.666 18.4167M7.58268 7.58333C7.58268 8.73261 8.03923 9.83481 8.85189 10.6475C9.66454 11.4601 10.7667 11.9167 11.916 11.9167C13.0653 11.9167 14.1675 11.4601 14.9801 10.6475C15.7928 9.83481 16.2493 8.73261 16.2493 7.58333C16.2493 6.43406 15.7928 5.33186 14.9801 4.5192C14.1675 3.70655 13.0653 3.25 11.916 3.25C10.7667 3.25 9.66454 3.70655 8.85189 4.5192C8.03923 5.33186 7.58268 6.43406 7.58268 7.58333Z" stroke="#595959" stroke-width="2" stroke-linecap="round" stroke-linejoin="round"/>
</svg>
