<svg width="453" height="453" viewBox="0 0 453 453" fill="none" xmlns="http://www.w3.org/2000/svg">
<path d="M396.724 349.096C397.798 352.987 398.503 356.97 398.83 360.993C398.721 361.19 398.743 361.932 398.83 361.725C398.83 362.38 399.845 362.26 399.845 361.616C399.845 361.201 399.845 360.775 399.845 360.371C402.17 357.479 405.543 355.656 408.272 353.146C410.466 351.176 412.065 348.632 412.888 345.8C415.148 338.007 413.03 329.745 415.748 321.962C418.095 315.261 422.297 309.432 425.855 303.353C429.621 296.935 432.404 290.179 432.666 282.615C432.884 276.852 432.197 269.179 427.809 264.857C423.159 260.272 417.396 263.711 413.827 267.793C403.502 279.646 398.732 294.621 396.8 309.934C395.709 318.415 394.617 326.94 394.879 335.497C395.042 340.08 395.659 344.636 396.724 349.096Z" fill="#FFC727"/>
<path d="M398.785 364.104C398.219 356.106 398.314 348.075 399.069 340.092C399.069 340.092 399.069 340.092 399.069 340.005C398.938 333.521 398.425 327.049 398.676 320.554C399 313.526 399.957 306.542 401.536 299.686C401.536 299.609 401.678 299.631 401.667 299.686C400.396 306.422 399.641 313.245 399.408 320.096C399.277 323.752 399.298 327.431 399.495 331.087C399.56 332.288 399.67 333.488 399.746 334.689C402.446 316.466 409.034 299.038 419.065 283.586C419.196 283.379 419.567 283.586 419.436 283.816C412.276 295.563 406.975 308.345 403.719 321.711C408.609 312.521 416.14 304.946 421.706 296.106C421.706 296.106 421.816 296.106 421.794 296.106C416.795 305.929 408.532 313.711 403.239 323.392C402.322 327.351 401.594 331.353 401.056 335.399C400.313 340.902 399.912 346.447 399.855 352C403.019 346.47 405.9 340.783 408.489 334.962C408.554 334.798 408.783 334.907 408.729 335.071C406.633 341.282 403.795 347.972 399.833 353.266C399.833 357.206 399.932 361.135 400.161 365.065C400.783 375.543 402.573 385.89 403.435 396.335C403.442 396.399 403.424 396.463 403.384 396.513C403.344 396.563 403.286 396.596 403.222 396.603C403.159 396.61 403.095 396.592 403.045 396.552C402.994 396.512 402.962 396.454 402.955 396.39C400.836 385.735 399.443 374.948 398.785 364.104Z" fill="#263238"/>
<path d="M409.919 283.259C409.919 283.182 410.061 283.259 410.039 283.313C408.118 288.607 407.037 293.966 405.673 299.402C405.669 299.427 405.659 299.452 405.645 299.474C405.632 299.497 405.614 299.516 405.592 299.531C405.571 299.546 405.547 299.557 405.521 299.563C405.496 299.569 405.47 299.57 405.444 299.565C405.418 299.561 405.393 299.552 405.371 299.538C405.349 299.524 405.33 299.506 405.314 299.485C405.299 299.463 405.288 299.439 405.282 299.414C405.277 299.388 405.276 299.362 405.28 299.336C406.04 293.781 407.603 288.365 409.919 283.259Z" fill="#263238"/>
<path d="M361.293 305.449C362.556 308.554 364.014 311.576 365.659 314.497C369.108 320.762 372.699 326.503 373.353 333.783C373.458 337.048 373.923 340.291 374.74 343.454C375.645 346.151 376.943 348.699 378.593 351.018C382.325 356.475 386.997 361.146 390.457 366.8C394.059 372.69 396.721 379.105 398.348 385.814C398.436 386.185 399.014 386.087 398.927 385.716C398.917 385.691 398.917 385.664 398.927 385.639C398.933 385.614 398.933 385.588 398.927 385.563C399.472 369.922 398.228 354.172 393.469 339.197C391.362 332.612 388.832 326.17 385.895 319.911C383.493 314.378 380.016 309.377 375.667 305.198C372.764 302.578 366.455 297.612 362.308 300.242C360.365 301.508 360.507 303.495 361.293 305.449Z" fill="#FFC727"/>
<path d="M377.009 340.888C379.761 345.439 382.794 349.813 386.09 353.986C387.608 355.962 389.136 357.915 390.653 359.902C391.362 360.829 392.159 361.768 392.836 362.761C392.432 361.124 392.028 359.487 391.602 357.839C389.594 349.937 387.651 341.969 384.65 334.372C381.574 327.016 377.943 319.905 373.789 313.099C373.68 312.914 373.975 312.783 374.084 312.958C377.359 318.415 380.742 323.818 383.514 329.548C385.048 332.738 386.386 336.018 387.52 339.371C386.246 332.246 384.466 325.221 382.194 318.349C382.194 318.284 382.259 318.24 382.281 318.349C385.261 325.29 387.128 332.657 387.815 340.179C388.492 342.209 389.114 344.261 389.703 346.324C392.159 355.056 394.32 363.907 396.328 372.77C396.361 366.944 395.857 361.127 394.822 355.394C394.829 355.372 394.843 355.353 394.862 355.34C394.88 355.326 394.903 355.319 394.926 355.319C394.949 355.319 394.971 355.326 394.99 355.34C395.008 355.353 395.022 355.372 395.03 355.394C396.553 361.375 397.062 367.57 396.536 373.72C397.289 377.092 398.031 380.476 398.719 383.849C400.258 391.052 402.146 398.387 403.085 405.678C403.076 405.71 403.057 405.739 403.03 405.759C403.003 405.779 402.971 405.79 402.937 405.79C402.904 405.79 402.871 405.779 402.845 405.759C402.818 405.739 402.799 405.71 402.79 405.678C401.698 401.738 401.076 397.645 400.203 393.672C399.33 389.699 398.413 385.671 397.485 381.666C396.125 375.845 394.713 370.042 393.25 364.257C392.279 362.128 390.413 360.24 389.005 358.461C387.466 356.507 385.927 354.554 384.431 352.567C381.623 348.888 379.109 344.994 376.911 340.921C376.824 340.866 376.955 340.812 377.009 340.888Z" fill="#263238"/>
<path d="M376.342 334.198C379.782 338.611 382.759 343.365 385.227 348.387C385.227 348.452 385.161 348.518 385.118 348.452C382.127 343.77 379.191 339.044 376.2 334.35C376.146 334.198 376.277 334.132 376.342 334.198Z" fill="#263238"/>
<path d="M442.891 320.271C440.861 323.764 438.526 327.911 439.421 332.146C439.966 334.798 441.909 336.949 442.258 339.655C443.044 345.626 437.096 349.566 432.784 352.393C422.055 359.433 407.331 365.709 405.378 380.095C405.312 380.608 404.428 380.477 404.493 379.974C404.49 379.945 404.49 379.916 404.493 379.887C404.493 379.887 404.439 379.887 404.439 379.8C403.03 372.537 403.097 365.065 404.635 357.828C406.24 350.417 409.471 343.759 413.291 337.243C419.752 326.219 426.596 314.934 436.364 306.497C439.071 304.161 444.605 299.948 446.755 305.23C448.905 310.513 445.369 316.025 442.891 320.271Z" fill="#FFC727"/>
<path d="M433.058 343.639C425.942 351.345 414.634 355.645 408.5 364.29C411.926 351.155 418.395 339.011 427.382 328.839C427.612 328.577 427.251 328.195 426.99 328.446C420.435 334.811 415.195 342.403 411.567 350.788C413.256 344.936 415.477 339.251 418.203 333.805C418.22 333.764 418.221 333.718 418.206 333.676C418.192 333.634 418.163 333.598 418.125 333.576C418.086 333.554 418.041 333.546 417.998 333.553C417.954 333.561 417.915 333.585 417.887 333.619C414.508 339.58 412.091 346.038 410.727 352.753C402.661 372.29 401.907 395.211 403.599 415.807C403.599 416.102 404.079 416.113 404.069 415.807C403.599 399.577 403.861 383.063 407.758 367.215C407.834 366.876 407.932 366.549 408.009 366.222C414.678 356.933 425.942 352.633 433.189 343.803C433.255 343.672 433.145 343.552 433.058 343.639Z" fill="#263238"/>
<path d="M434.717 337.025C430.973 340.452 427.295 343.956 423.551 347.383C423.551 347.383 423.551 347.481 423.616 347.448C427.849 344.594 431.659 341.159 434.935 337.243C434.964 337.214 434.98 337.175 434.98 337.134C434.98 337.093 434.964 337.054 434.935 337.025C434.906 336.996 434.867 336.979 434.826 336.979C434.785 336.979 434.746 336.996 434.717 337.025Z" fill="#263238"/>
<path d="M435.304 322.192C431.999 327.61 428.261 332.753 424.127 337.57C424.073 337.636 424.127 337.723 424.215 337.658C428.856 333.252 432.678 328.055 435.5 322.312C435.566 322.192 435.38 322.039 435.304 322.192Z" fill="#263238"/>
<path d="M418.487 430.291H385.754L390.163 386.261H413.445L418.487 430.291Z" fill="#455A64"/>
<path d="M414.261 393.421H389.441L390.162 386.261H413.443L414.261 393.421Z" fill="#263238"/>
<path d="M417.448 381.382H386.777V388.411H417.448V381.382Z" fill="#455A64"/>
<path d="M5.24609 430.291L60.5182 430.029L115.79 429.931L226.335 429.745L336.879 429.931L392.151 430.029L447.423 430.291L392.151 430.564L336.879 430.662L226.335 430.837L115.79 430.651L60.5182 430.564L5.24609 430.291Z" fill="#263238"/>
<path d="M350.391 23.7939H170.91C168.497 23.8153 166.113 24.3127 163.894 25.2576C161.674 26.2025 159.663 27.5763 157.976 29.3001C156.288 31.024 154.958 33.0641 154.061 35.3033C153.164 37.5426 152.717 39.9369 152.748 42.349V411.801C152.718 416.653 154.614 421.319 158.018 424.776C161.422 428.234 166.058 430.201 170.91 430.247H350.391C355.254 430.204 359.9 428.232 363.31 424.766C366.719 421.299 368.613 416.62 368.575 411.758V42.2944C368.597 39.8854 368.144 37.4958 367.241 35.2622C366.339 33.0285 365.005 30.9945 363.317 29.2764C361.628 27.5583 359.617 26.1898 357.399 25.2491C355.182 24.3084 352.8 23.8139 350.391 23.7939ZM357.224 400.352C357.224 410.077 349.944 417.946 340.961 417.946H180.373C171.368 417.946 164.088 410.077 164.088 400.352V56.298C164.088 36.4878 171.368 35.56 180.373 35.56H212.538C214.405 35.56 215.933 37.743 215.933 40.3188V41.4103C215.933 47.5771 219.305 47.599 223.464 47.599H297.848C302.028 47.599 305.379 47.599 305.379 41.4103V40.3188C305.379 37.6884 306.885 35.56 308.784 35.56H340.939C349.922 35.56 357.202 38.2014 357.202 56.298L357.224 400.352Z" fill="#263238"/>
<path d="M270.803 39.8935H250.513C250.182 39.8935 249.864 39.7628 249.629 39.5297C249.394 39.2967 249.261 38.9802 249.258 38.6492C249.258 38.3163 249.39 37.9971 249.625 37.7617C249.861 37.5263 250.18 37.394 250.513 37.394H270.803C271.136 37.394 271.456 37.5263 271.691 37.7617C271.926 37.9971 272.059 38.3163 272.059 38.6492C272.056 38.9802 271.922 39.2967 271.687 39.5297C271.452 39.7628 271.134 39.8935 270.803 39.8935Z" fill="white"/>
<path d="M357.222 56.2981V400.374C357.222 410.099 349.942 417.968 340.959 417.968H180.382C171.377 417.968 164.086 410.099 164.086 400.374V56.2981C164.086 36.4878 171.377 35.5601 180.382 35.5601H212.536C214.403 35.5601 215.931 37.743 215.931 40.3189V41.4104C215.931 47.5772 219.314 47.599 223.462 47.599H297.846C302.037 47.599 305.377 47.599 305.377 41.4104V40.3189C305.377 37.6885 306.883 35.5601 308.782 35.5601H340.937C349.942 35.5164 357.222 38.1578 357.222 56.2981Z" fill="white"/>
<path d="M181.258 67.6387L177.82 64.4189L181.258 61.21L181.793 61.7775L178.955 64.4189L181.793 67.0712L181.258 67.6387Z" fill="#DBDBDB"/>
<path d="M334.392 63.3057C334.608 63.3057 334.819 63.3697 334.999 63.4896C335.178 63.6095 335.318 63.78 335.401 63.9794C335.483 64.1789 335.505 64.3983 335.463 64.6101C335.421 64.8218 335.317 65.0163 335.164 65.1689C335.011 65.3216 334.817 65.4255 334.605 65.4676C334.393 65.5098 334.174 65.4881 333.975 65.4055C333.775 65.3229 333.605 65.183 333.485 65.0035C333.365 64.824 333.301 64.613 333.301 64.3971C333.301 64.1077 333.416 63.83 333.62 63.6253C333.825 63.4207 334.103 63.3057 334.392 63.3057Z" fill="#DBDBDB"/>
<path d="M338.384 63.3057C338.6 63.3057 338.811 63.3697 338.991 63.4896C339.17 63.6095 339.31 63.78 339.393 63.9794C339.475 64.1789 339.497 64.3983 339.455 64.6101C339.413 64.8218 339.309 65.0163 339.156 65.1689C339.004 65.3216 338.809 65.4255 338.597 65.4676C338.386 65.5098 338.166 65.4881 337.967 65.4055C337.767 65.3229 337.597 65.183 337.477 65.0035C337.357 64.824 337.293 64.613 337.293 64.3971C337.293 64.1077 337.408 63.83 337.613 63.6253C337.817 63.4207 338.095 63.3057 338.384 63.3057Z" fill="#DBDBDB"/>
<path d="M342.381 63.3057C342.596 63.3057 342.807 63.3697 342.987 63.4896C343.166 63.6095 343.306 63.78 343.389 63.9794C343.472 64.1789 343.493 64.3983 343.451 64.6101C343.409 64.8218 343.305 65.0163 343.152 65.1689C343 65.3216 342.805 65.4255 342.593 65.4676C342.382 65.5098 342.162 65.4881 341.963 65.4055C341.763 65.3229 341.593 65.183 341.473 65.0035C341.353 64.824 341.289 64.613 341.289 64.3971C341.289 64.1077 341.404 63.83 341.609 63.6253C341.813 63.4207 342.091 63.3057 342.381 63.3057Z" fill="#DBDBDB"/>
<path d="M206.996 43.2443L206.679 43.5608C206.625 43.5608 206.559 43.6699 206.504 43.7354C206.112 43.3404 205.645 43.0269 205.131 42.813C204.617 42.5991 204.065 42.4889 203.508 42.4889C202.951 42.4889 202.4 42.5991 201.886 42.813C201.372 43.0269 200.905 43.3404 200.512 43.7354L200.349 43.5608L200.043 43.2552C200.174 43.1351 200.294 43.015 200.436 42.9059C200.714 42.6781 201.018 42.484 201.342 42.3274C201.722 42.1394 202.126 42.0036 202.542 41.9236L203.154 41.8472H203.678C203.809 41.8472 203.95 41.8472 204.081 41.8472C204.455 41.8872 204.822 41.9752 205.173 42.1091C205.429 42.2054 205.677 42.3222 205.915 42.4584C206.171 42.6018 206.412 42.77 206.635 42.9605C206.745 43.0478 206.854 43.1569 206.963 43.2552L206.996 43.2443Z" fill="#C7C7C7"/>
<path d="M201.495 44.7065L201.004 44.2263C201.538 43.6763 202.241 43.3226 203.001 43.2221C203.546 43.1391 204.103 43.1857 204.626 43.3583C205.15 43.5309 205.625 43.8245 206.014 44.2154L205.523 44.7065C204.987 44.1753 204.263 43.8772 203.509 43.8772C202.754 43.8772 202.031 44.1753 201.495 44.7065Z" fill="#C7C7C7"/>
<path d="M205.03 45.1978L204.539 45.6889C204.265 45.4163 203.894 45.2633 203.508 45.2633C203.121 45.2633 202.75 45.4163 202.476 45.6889L201.996 45.2087C202.402 44.8138 202.945 44.5919 203.511 44.5899C204.077 44.5878 204.622 44.8058 205.03 45.1978Z" fill="#C7C7C7"/>
<path d="M203.952 46.1368C203.935 46.2421 203.882 46.338 203.801 46.4073C203.72 46.4766 203.617 46.5146 203.51 46.5146C203.403 46.5146 203.3 46.4766 203.219 46.4073C203.138 46.338 203.085 46.2421 203.068 46.1368C203.058 46.0729 203.062 46.0076 203.079 45.9454C203.097 45.8832 203.128 45.8255 203.17 45.7764C203.212 45.7272 203.264 45.6878 203.323 45.6607C203.381 45.6336 203.445 45.6196 203.51 45.6196C203.575 45.6196 203.639 45.6336 203.697 45.6607C203.756 45.6878 203.808 45.7272 203.85 45.7764C203.892 45.8255 203.923 45.8832 203.941 45.9454C203.958 46.0076 203.962 46.0729 203.952 46.1368Z" fill="#C7C7C7"/>
<path d="M176.684 44.1826C176.686 43.9305 176.763 43.6847 176.904 43.4761C177.046 43.2676 177.246 43.1056 177.479 43.0106C177.713 42.9156 177.969 42.8919 178.216 42.9424C178.463 42.9929 178.69 43.1154 178.867 43.2944C179.045 43.4734 179.166 43.701 179.214 43.9484C179.262 44.1958 179.236 44.452 179.139 44.6847C179.042 44.9174 178.879 45.1162 178.669 45.2561C178.459 45.3959 178.213 45.4705 177.961 45.4705C177.792 45.4706 177.625 45.4372 177.469 45.3723C177.314 45.3074 177.173 45.2124 177.054 45.0927C176.935 44.9729 176.841 44.8309 176.778 44.6747C176.714 44.5185 176.682 44.3512 176.684 44.1826Z" fill="#C7C7C7"/>
<path d="M180.711 44.183C180.711 43.9282 180.786 43.6792 180.928 43.4674C181.07 43.2556 181.271 43.0905 181.506 42.9931C181.741 42.8956 182 42.8701 182.25 42.9198C182.5 42.9695 182.729 43.0921 182.91 43.2722C183.09 43.4524 183.212 43.6819 183.262 43.9317C183.312 44.1815 183.286 44.4405 183.189 44.6758C183.091 44.9112 182.926 45.1123 182.714 45.2538C182.503 45.3954 182.254 45.4709 181.999 45.4709C181.657 45.4709 181.33 45.3352 181.088 45.0937C180.847 44.8521 180.711 44.5245 180.711 44.183Z" fill="#C7C7C7"/>
<path d="M184.75 44.1826C184.752 43.9305 184.829 43.6847 184.971 43.4761C185.112 43.2676 185.312 43.1056 185.546 43.0106C185.779 42.9156 186.036 42.8919 186.283 42.9424C186.53 42.9929 186.756 43.1154 186.934 43.2944C187.111 43.4734 187.232 43.701 187.28 43.9484C187.329 44.1958 187.303 44.452 187.206 44.6847C187.109 44.9174 186.945 45.1162 186.735 45.2561C186.526 45.3959 186.279 45.4705 186.027 45.4705C185.858 45.4706 185.691 45.4372 185.536 45.3723C185.38 45.3074 185.239 45.2124 185.12 45.0927C185.001 44.9729 184.908 44.8309 184.844 44.6747C184.781 44.5185 184.749 44.3512 184.75 44.1826Z" fill="#C7C7C7"/>
<path d="M188.777 44.1829C188.777 43.9277 188.853 43.6783 188.995 43.4662C189.137 43.2542 189.339 43.0892 189.575 42.992C189.811 42.8948 190.07 42.87 190.321 42.9206C190.571 42.9712 190.8 43.0949 190.98 43.2761C191.16 43.4573 191.281 43.6879 191.33 43.9384C191.378 44.189 191.351 44.4482 191.252 44.6834C191.153 44.9185 190.986 45.1189 190.773 45.2591C190.56 45.3993 190.31 45.473 190.054 45.4708C189.715 45.468 189.39 45.331 189.151 45.0898C188.912 44.8486 188.777 44.5226 188.777 44.1829Z" fill="#C7C7C7"/>
<path d="M192.805 44.183C192.805 43.9282 192.88 43.6792 193.022 43.4674C193.163 43.2556 193.364 43.0905 193.6 42.9931C193.835 42.8956 194.094 42.8701 194.344 42.9198C194.594 42.9695 194.823 43.0921 195.003 43.2722C195.183 43.4524 195.306 43.6819 195.356 43.9317C195.406 44.1815 195.38 44.4405 195.283 44.6758C195.185 44.9112 195.02 45.1123 194.808 45.2538C194.596 45.3954 194.347 45.4709 194.093 45.4709C193.923 45.4709 193.756 45.4376 193.6 45.3729C193.443 45.3081 193.302 45.2133 193.182 45.0937C193.062 44.9741 192.967 44.8321 192.903 44.6758C192.838 44.5196 192.805 44.3521 192.805 44.183Z" fill="#C7C7C7"/>
<path d="M342.739 46.9877H332.305V42.1416H342.739V46.9877ZM332.85 46.442H342.193V42.6873H332.85V46.442Z" fill="#C7C7C7"/>
<path d="M339.892 42.9712H333.18V46.1583H339.892V42.9712Z" fill="#C7C7C7"/>
<path d="M343.666 43.2769H342.738V45.8636H343.666V43.2769Z" fill="#C7C7C7"/>
<path d="M255.543 115.969C255.543 117.102 255.879 118.21 256.509 119.153C257.138 120.095 258.033 120.829 259.08 121.263C260.127 121.697 261.28 121.81 262.391 121.589C263.503 121.368 264.524 120.822 265.325 120.021C266.126 119.219 266.672 118.198 266.893 117.087C267.114 115.975 267.001 114.823 266.567 113.776C266.134 112.729 265.399 111.834 264.457 111.204C263.514 110.575 262.407 110.239 261.273 110.239C259.753 110.239 258.296 110.842 257.221 111.917C256.147 112.992 255.543 114.449 255.543 115.969Z" fill="#FFC727"/>
<path opacity="0.9" d="M228.07 123.38C228.07 124.46 228.39 125.515 228.99 126.412C229.59 127.31 230.442 128.009 231.439 128.422C232.436 128.835 233.534 128.943 234.592 128.733C235.651 128.522 236.623 128.002 237.387 127.239C238.15 126.476 238.67 125.504 238.88 124.445C239.091 123.386 238.983 122.289 238.57 121.292C238.157 120.295 237.457 119.442 236.56 118.843C235.662 118.243 234.607 117.923 233.528 117.923C232.08 117.923 230.692 118.498 229.669 119.521C228.645 120.545 228.07 121.933 228.07 123.38Z" fill="#FFC727"/>
<path opacity="0.8" d="M210.988 142.295C210.986 143.319 211.288 144.321 211.855 145.173C212.422 146.025 213.229 146.69 214.174 147.083C215.12 147.476 216.16 147.58 217.164 147.382C218.169 147.183 219.092 146.692 219.816 145.969C220.541 145.245 221.035 144.324 221.235 143.32C221.436 142.316 221.334 141.275 220.943 140.329C220.551 139.383 219.888 138.574 219.037 138.005C218.186 137.437 217.186 137.133 216.162 137.133C214.792 137.133 213.477 137.676 212.507 138.644C211.538 139.612 210.991 140.925 210.988 142.295Z" fill="#FFC727"/>
<path opacity="0.7" d="M210.227 172.583C212.921 172.583 215.105 170.399 215.105 167.705C215.105 165.01 212.921 162.826 210.227 162.826C207.532 162.826 205.348 165.01 205.348 167.705C205.348 170.399 207.532 172.583 210.227 172.583Z" fill="#FFC727"/>
<path opacity="0.6" d="M211.109 191.685C211.109 192.596 211.38 193.486 211.886 194.244C212.392 195.001 213.111 195.591 213.953 195.94C214.794 196.289 215.72 196.38 216.614 196.202C217.507 196.024 218.328 195.586 218.972 194.942C219.616 194.297 220.055 193.477 220.233 192.583C220.411 191.69 220.319 190.764 219.971 189.922C219.622 189.08 219.032 188.361 218.274 187.855C217.517 187.349 216.626 187.079 215.715 187.079C214.494 187.079 213.322 187.564 212.458 188.428C211.595 189.291 211.109 190.463 211.109 191.685Z" fill="#FFC727"/>
<path opacity="0.5" d="M228.203 211.298C228.203 212.162 228.459 213.006 228.939 213.724C229.419 214.442 230.1 215.001 230.898 215.332C231.696 215.662 232.574 215.748 233.421 215.58C234.268 215.412 235.046 214.996 235.656 214.385C236.267 213.775 236.683 212.997 236.851 212.15C237.019 211.303 236.933 210.425 236.603 209.627C236.272 208.83 235.713 208.148 234.995 207.668C234.277 207.188 233.433 206.932 232.569 206.932C231.411 206.932 230.301 207.392 229.482 208.211C228.663 209.03 228.203 210.14 228.203 211.298Z" fill="#FFC727"/>
<path opacity="0.4" d="M257.41 219.495C257.41 220.294 257.647 221.075 258.091 221.739C258.535 222.403 259.165 222.92 259.903 223.226C260.641 223.532 261.453 223.612 262.236 223.456C263.02 223.3 263.739 222.915 264.304 222.351C264.869 221.786 265.254 221.066 265.409 220.283C265.565 219.499 265.485 218.687 265.18 217.95C264.874 217.212 264.356 216.581 263.692 216.137C263.028 215.693 262.247 215.457 261.449 215.457C260.378 215.457 259.35 215.882 258.593 216.639C257.836 217.397 257.41 218.424 257.41 219.495Z" fill="#FFC727"/>
<path opacity="0.3" d="M286.988 210.665C286.986 211.411 287.205 212.14 287.618 212.76C288.03 213.381 288.617 213.865 289.305 214.152C289.993 214.439 290.751 214.515 291.482 214.371C292.213 214.227 292.885 213.869 293.413 213.343C293.94 212.817 294.3 212.146 294.446 211.415C294.592 210.684 294.519 209.926 294.234 209.238C293.949 208.549 293.467 207.96 292.847 207.546C292.228 207.132 291.499 206.911 290.754 206.911C290.26 206.909 289.77 207.005 289.314 207.193C288.857 207.381 288.442 207.658 288.092 208.006C287.742 208.355 287.464 208.77 287.275 209.226C287.086 209.682 286.988 210.171 286.988 210.665Z" fill="#FFC727"/>
<path opacity="0.2" d="M303.961 190.124C303.959 190.813 304.161 191.487 304.542 192.061C304.924 192.635 305.467 193.083 306.103 193.348C306.739 193.613 307.439 193.684 308.115 193.551C308.791 193.418 309.413 193.087 309.901 192.6C310.389 192.114 310.722 191.494 310.857 190.818C310.992 190.142 310.924 189.442 310.661 188.805C310.397 188.168 309.951 187.623 309.378 187.24C308.805 186.857 308.132 186.653 307.443 186.653C306.521 186.653 305.637 187.018 304.985 187.669C304.332 188.319 303.964 189.202 303.961 190.124Z" fill="#FFC727"/>
<path opacity="0.1" d="M309.582 167.202C309.582 167.835 309.77 168.453 310.121 168.979C310.472 169.505 310.972 169.915 311.556 170.157C312.141 170.399 312.784 170.462 313.404 170.339C314.024 170.216 314.594 169.911 315.041 169.464C315.489 169.016 315.793 168.447 315.917 167.826C316.04 167.206 315.977 166.563 315.735 165.979C315.493 165.394 315.083 164.895 314.557 164.543C314.031 164.192 313.413 164.004 312.78 164.004C311.932 164.004 311.118 164.341 310.519 164.941C309.919 165.541 309.582 166.354 309.582 167.202Z" fill="#FFC727"/>
<path opacity="0.05" d="M304.508 140.625C306.117 140.625 307.422 139.321 307.422 137.711C307.422 136.102 306.117 134.797 304.508 134.797C302.898 134.797 301.594 136.102 301.594 137.711C301.594 139.321 302.898 140.625 304.508 140.625Z" fill="#FFC727"/>
<path opacity="0.01" d="M282 121.142C282 121.665 282.155 122.175 282.445 122.61C282.735 123.044 283.148 123.383 283.631 123.583C284.113 123.783 284.644 123.835 285.157 123.733C285.669 123.631 286.14 123.379 286.509 123.01C286.879 122.641 287.13 122.17 287.232 121.658C287.334 121.145 287.282 120.614 287.082 120.132C286.882 119.649 286.543 119.236 286.109 118.946C285.674 118.656 285.164 118.501 284.641 118.501C284.294 118.5 283.95 118.567 283.629 118.699C283.308 118.831 283.016 119.026 282.77 119.271C282.525 119.517 282.33 119.809 282.198 120.13C282.066 120.451 281.999 120.795 282 121.142Z" fill="#FFC727"/>
<path d="M260.268 179.929C262.791 179.916 265.252 179.156 267.343 177.745C269.433 176.333 271.058 174.334 272.013 172C272.967 169.665 273.209 167.1 272.707 164.628C272.204 162.157 270.981 159.89 269.19 158.113C267.4 156.336 265.123 155.13 262.648 154.647C260.173 154.164 257.61 154.425 255.282 155.397C252.955 156.37 250.969 158.011 249.574 160.112C248.178 162.213 247.437 164.68 247.444 167.202C247.448 168.881 247.783 170.542 248.431 172.09C249.078 173.639 250.024 175.044 251.215 176.227C252.407 177.409 253.82 178.344 255.373 178.98C256.927 179.615 258.59 179.938 260.268 179.929ZM248.994 167.202C248.981 164.988 249.625 162.819 250.844 160.97C252.064 159.121 253.805 157.676 255.846 156.816C257.887 155.957 260.138 155.722 262.312 156.141C264.487 156.561 266.489 157.615 268.064 159.172C269.639 160.729 270.717 162.718 271.162 164.888C271.607 167.058 271.398 169.311 270.563 171.362C269.727 173.413 268.302 175.17 266.468 176.412C264.634 177.653 262.472 178.322 260.258 178.335C257.288 178.35 254.435 177.186 252.323 175.099C250.211 173.011 249.014 170.172 248.994 167.202ZM260.268 179.896C262.792 179.883 265.255 179.122 267.346 177.709C269.437 176.297 271.062 174.296 272.016 171.959C272.97 169.623 273.209 167.056 272.704 164.584C272.199 162.111 270.972 159.844 269.179 158.069C267.385 156.293 265.105 155.09 262.628 154.61C260.15 154.131 257.586 154.397 255.26 155.374C252.933 156.352 250.949 157.997 249.558 160.103C248.166 162.208 247.431 164.679 247.444 167.202C247.448 168.881 247.783 170.542 248.431 172.09C249.078 173.639 250.024 175.044 251.215 176.227C252.407 177.409 253.82 178.344 255.373 178.98C256.927 179.615 258.59 179.938 260.268 179.929V179.896ZM248.994 167.202C248.981 164.988 249.625 162.819 250.844 160.97C252.064 159.121 253.805 157.676 255.846 156.816C257.887 155.957 260.138 155.722 262.312 156.141C264.487 156.561 266.489 157.615 268.064 159.172C269.639 160.729 270.717 162.718 271.162 164.888C271.607 167.058 271.398 169.311 270.563 171.362C269.727 173.413 268.302 175.17 266.468 176.412C264.634 177.653 262.472 178.322 260.258 178.335C257.288 178.35 254.435 177.186 252.323 175.099C250.211 173.011 249.014 170.172 248.994 167.202ZM260.268 179.896C262.792 179.883 265.255 179.122 267.346 177.709C269.437 176.297 271.062 174.296 272.016 171.959C272.97 169.623 273.209 167.056 272.704 164.584C272.199 162.111 270.972 159.844 269.179 158.069C267.385 156.293 265.105 155.09 262.628 154.61C260.15 154.131 257.586 154.397 255.26 155.374C252.933 156.352 250.949 157.997 249.558 160.103C248.166 162.208 247.431 164.679 247.444 167.202C247.448 168.881 247.783 170.542 248.431 172.09C249.078 173.639 250.024 175.044 251.215 176.227C252.407 177.409 253.82 178.344 255.373 178.98C256.927 179.615 258.59 179.938 260.268 179.929V179.896ZM248.994 167.202C248.981 164.988 249.625 162.819 250.844 160.97C252.064 159.121 253.805 157.676 255.846 156.816C257.887 155.957 260.138 155.722 262.312 156.141C264.487 156.561 266.489 157.615 268.064 159.172C269.639 160.729 270.717 162.718 271.162 164.888C271.607 167.058 271.398 169.311 270.563 171.362C269.727 173.413 268.302 175.17 266.468 176.412C264.634 177.653 262.472 178.322 260.258 178.335C257.288 178.35 254.435 177.186 252.323 175.099C250.211 173.011 249.014 170.172 248.994 167.202ZM260.345 194.02C265.662 193.99 270.851 192.383 275.255 189.403C279.659 186.424 283.081 182.205 285.087 177.281C287.094 172.357 287.595 166.948 286.527 161.739C285.459 156.53 282.87 151.754 279.088 148.017C275.306 144.279 270.501 141.747 265.28 140.74C260.058 139.734 254.656 140.299 249.756 142.363C244.855 144.427 240.677 147.898 237.75 152.337C234.822 156.776 233.277 161.983 233.309 167.301C233.326 170.833 234.039 174.327 235.408 177.583C236.776 180.84 238.772 183.795 241.283 186.279C243.794 188.764 246.77 190.729 250.04 192.063C253.311 193.397 256.813 194.073 260.345 194.053V194.02ZM245.457 167.224C245.44 164.31 246.287 161.456 247.892 159.024C249.497 156.591 251.787 154.689 254.473 153.558C257.158 152.426 260.119 152.117 262.981 152.669C265.842 153.22 268.476 154.608 270.549 156.656C272.622 158.705 274.041 161.322 274.626 164.177C275.212 167.032 274.938 169.996 273.838 172.695C272.739 175.394 270.864 177.707 268.451 179.34C266.037 180.973 263.194 181.854 260.279 181.872C256.379 181.889 252.63 180.362 249.852 177.623C247.075 174.884 245.495 171.157 245.457 167.257V167.224ZM247.444 167.224C247.454 169.747 248.213 172.21 249.623 174.301C251.033 176.393 253.031 178.02 255.365 178.976C257.7 179.933 260.265 180.176 262.738 179.675C265.21 179.174 267.478 177.951 269.256 176.161C271.033 174.371 272.241 172.094 272.725 169.619C273.209 167.143 272.949 164.579 271.976 162.252C271.004 159.924 269.363 157.937 267.262 156.541C265.161 155.145 262.693 154.404 260.17 154.41C256.787 154.422 253.547 155.775 251.161 158.174C248.775 160.572 247.438 163.819 247.444 167.202V167.224ZM248.994 167.224C248.981 165.009 249.625 162.841 250.844 160.992C252.064 159.143 253.805 157.698 255.846 156.838C257.887 155.979 260.138 155.744 262.312 156.163C264.487 156.582 266.489 157.637 268.064 159.194C269.639 160.751 270.717 162.74 271.162 164.91C271.607 167.08 271.398 169.333 270.563 171.384C269.727 173.435 268.302 175.192 266.468 176.434C264.634 177.675 262.472 178.344 260.258 178.357C258.785 178.364 257.326 178.082 255.964 177.525C254.601 176.968 253.361 176.149 252.315 175.113C251.269 174.077 250.438 172.845 249.868 171.488C249.298 170.131 249.001 168.674 248.994 167.202V167.224ZM260.268 179.918C262.791 179.905 265.253 179.145 267.344 177.733C269.434 176.321 271.059 174.321 272.014 171.986C272.968 169.651 273.209 167.085 272.706 164.614C272.202 162.142 270.978 159.874 269.186 158.098C267.395 156.322 265.117 155.117 262.641 154.635C260.165 154.153 257.602 154.415 255.275 155.39C252.948 156.364 250.962 158.006 249.568 160.109C248.174 162.211 247.435 164.68 247.444 167.202C247.448 168.881 247.783 170.542 248.431 172.09C249.078 173.639 250.024 175.044 251.215 176.227C252.407 177.409 253.82 178.344 255.373 178.98C256.927 179.615 258.59 179.938 260.268 179.929V179.918ZM248.994 167.202C248.981 164.988 249.625 162.819 250.844 160.97C252.064 159.121 253.805 157.676 255.846 156.816C257.887 155.957 260.138 155.722 262.312 156.141C264.487 156.561 266.489 157.615 268.064 159.172C269.639 160.729 270.717 162.718 271.162 164.888C271.607 167.058 271.398 169.311 270.563 171.362C269.727 173.413 268.302 175.17 266.468 176.412C264.634 177.653 262.472 178.322 260.258 178.335C257.288 178.35 254.435 177.186 252.323 175.099C250.211 173.011 249.014 170.172 248.994 167.202ZM260.268 179.896C262.792 179.883 265.255 179.122 267.346 177.709C269.437 176.297 271.062 174.296 272.016 171.959C272.97 169.623 273.209 167.056 272.704 164.584C272.199 162.111 270.972 159.844 269.179 158.069C267.385 156.293 265.105 155.09 262.628 154.61C260.15 154.131 257.586 154.397 255.26 155.374C252.933 156.352 250.949 157.997 249.558 160.103C248.166 162.208 247.431 164.679 247.444 167.202C247.448 168.881 247.783 170.542 248.431 172.09C249.078 173.639 250.024 175.044 251.215 176.227C252.407 177.409 253.82 178.344 255.373 178.98C256.927 179.615 258.59 179.938 260.268 179.929V179.896ZM248.994 167.202C248.981 164.988 249.625 162.819 250.844 160.97C252.064 159.121 253.805 157.676 255.846 156.816C257.887 155.957 260.138 155.722 262.312 156.141C264.487 156.561 266.489 157.615 268.064 159.172C269.639 160.729 270.717 162.718 271.162 164.888C271.607 167.058 271.398 169.311 270.563 171.362C269.727 173.413 268.302 175.17 266.468 176.412C264.634 177.653 262.472 178.322 260.258 178.335C257.288 178.35 254.435 177.186 252.323 175.099C250.211 173.011 249.014 170.172 248.994 167.202Z" fill="#FFC727"/>
<path d="M254.879 141.433L265.215 141.368L264.604 134.055L255.403 134.109L254.879 141.433Z" fill="#FFC727"/>
<path d="M274.566 144.795L281.923 152.064L286.66 146.454L280.122 139.992L274.566 144.795Z" fill="#FFC727"/>
<path d="M286.113 161.101L286.179 171.437L293.492 170.826L293.437 161.636L286.113 161.101Z" fill="#FFC727"/>
<path d="M282.754 180.802L275.484 188.159L281.095 192.896L287.556 186.347L282.754 180.802Z" fill="#FFC727"/>
<path d="M266.446 192.351L256.109 192.416L256.721 199.729L265.911 199.674L266.446 192.351Z" fill="#FFC727"/>
<path d="M246.746 188.988L239.389 181.719L234.652 187.329L241.201 193.791L246.746 188.988Z" fill="#FFC727"/>
<path d="M235.199 172.671L235.133 162.335L227.82 162.957L227.875 172.147L235.199 172.671Z" fill="#FFC727"/>
<path d="M238.561 152.981L245.83 145.624L240.231 140.887L233.77 147.425L238.561 152.981Z" fill="#FFC727"/>
<path d="M325.067 255.863H196.273V245.123H325.067V255.863ZM196.786 255.317H324.565V245.669H196.863L196.786 255.317Z" fill="#FFC727"/>
<path d="M203.5 247.338H198.883V253.658H203.5V247.338Z" fill="#FFC727"/>
<path d="M209.875 247.338H205.258V253.658H209.875V247.338Z" fill="#FFC727"/>
<path d="M216.261 247.338H211.645V253.658H216.261V247.338Z" fill="#FFC727"/>
<path d="M222.633 247.338H218.016V253.658H222.633V247.338Z" fill="#FFC727"/>
<path d="M229.019 247.338H224.402V253.658H229.019V247.338Z" fill="#FFC727"/>
<path d="M235.394 247.338H230.777V253.658H235.394V247.338Z" fill="#FFC727"/>
<path d="M241.777 247.338H237.16V253.658H241.777V247.338Z" fill="#FFC727"/>
<path d="M248.156 247.338H243.539V253.658H248.156V247.338Z" fill="#FFC727"/>
<path d="M254.539 247.338H249.922V253.658H254.539V247.338Z" fill="#FFC727"/>
<path d="M260.914 247.338H256.297V253.658H260.914V247.338Z" fill="#FFC727"/>
<path d="M267.297 247.338H262.68V253.658H267.297V247.338Z" fill="#FFC727"/>
<path d="M273.672 247.338H269.055V253.658H273.672V247.338Z" fill="#FFC727"/>
<path d="M310.128 248.954L308.523 252.752C308.496 252.816 308.451 252.87 308.392 252.907C308.333 252.945 308.265 252.963 308.196 252.96H308.065C307.978 252.921 307.91 252.851 307.873 252.764C307.837 252.677 307.835 252.579 307.868 252.49L309.254 249.216H307.595C307.502 249.213 307.413 249.174 307.348 249.107C307.282 249.039 307.246 248.949 307.246 248.856C307.246 248.763 307.283 248.674 307.348 248.609C307.414 248.543 307.503 248.506 307.595 248.506H309.866L309.997 248.561V248.703L310.128 248.954Z" fill="#FFC727"/>
<path d="M310.891 250.711C310.879 250.17 311.031 249.637 311.328 249.183C311.442 248.969 311.613 248.789 311.822 248.664C312.03 248.539 312.269 248.473 312.512 248.473C312.755 248.473 312.994 248.539 313.203 248.664C313.411 248.789 313.582 248.969 313.696 249.183C313.993 249.637 314.145 250.17 314.133 250.711C314.145 251.257 313.993 251.793 313.696 252.25C313.582 252.465 313.411 252.644 313.203 252.769C312.994 252.894 312.755 252.96 312.512 252.96C312.269 252.96 312.03 252.894 311.822 252.769C311.613 252.644 311.442 252.465 311.328 252.25C311.031 251.793 310.879 251.257 310.891 250.711ZM313.424 250.711C313.423 250.325 313.313 249.947 313.107 249.62C313.051 249.509 312.967 249.415 312.864 249.346C312.761 249.277 312.641 249.236 312.518 249.227C312.391 249.237 312.269 249.277 312.162 249.346C312.056 249.415 311.968 249.509 311.906 249.62C311.71 249.95 311.605 250.327 311.601 250.711C311.602 251.096 311.707 251.474 311.906 251.803C311.968 251.915 312.056 252.01 312.162 252.08C312.269 252.151 312.391 252.194 312.518 252.207C312.642 252.194 312.761 252.151 312.864 252.08C312.967 252.01 313.051 251.914 313.107 251.803C313.314 251.477 313.424 251.098 313.424 250.711Z" fill="#FFC727"/>
<path d="M315.376 249.576C315.376 249.287 315.491 249.009 315.696 248.804C315.901 248.6 316.178 248.485 316.468 248.485C316.757 248.485 317.035 248.6 317.24 248.804C317.444 249.009 317.559 249.287 317.559 249.576C317.567 249.724 317.544 249.872 317.492 250.011C317.441 250.149 317.362 250.276 317.26 250.383C317.157 250.491 317.035 250.576 316.899 250.634C316.762 250.692 316.616 250.722 316.468 250.722C316.32 250.722 316.173 250.692 316.037 250.634C315.901 250.576 315.778 250.491 315.676 250.383C315.574 250.276 315.495 250.149 315.443 250.011C315.392 249.872 315.369 249.724 315.376 249.576ZM316.915 249.576C316.915 249.216 316.708 248.921 316.424 248.921C316.14 248.921 315.944 249.216 315.944 249.565C315.944 249.936 316.151 250.22 316.435 250.22C316.719 250.22 316.926 249.925 316.926 249.576H316.915ZM316.108 252.578L319.055 248.55C319.077 248.513 319.109 248.483 319.148 248.464C319.187 248.445 319.23 248.437 319.273 248.441C319.34 248.441 319.403 248.468 319.45 248.515C319.498 248.562 319.524 248.626 319.524 248.692C319.524 248.751 319.505 248.809 319.469 248.856L316.522 252.872C316.5 252.91 316.468 252.94 316.429 252.961C316.391 252.983 316.348 252.993 316.304 252.992C316.271 252.992 316.239 252.986 316.208 252.973C316.178 252.961 316.15 252.942 316.127 252.919C316.103 252.896 316.085 252.868 316.072 252.838C316.06 252.807 316.053 252.774 316.053 252.741C316.053 252.682 316.072 252.625 316.108 252.578ZM318.083 251.879C318.043 251.718 318.04 251.55 318.074 251.388C318.108 251.226 318.179 251.073 318.281 250.942C318.384 250.812 318.514 250.706 318.663 250.633C318.812 250.56 318.976 250.522 319.142 250.522C319.308 250.522 319.472 250.56 319.621 250.633C319.77 250.706 319.9 250.812 320.002 250.942C320.105 251.073 320.175 251.226 320.21 251.388C320.244 251.55 320.241 251.718 320.201 251.879C320.241 252.04 320.244 252.208 320.21 252.37C320.175 252.533 320.105 252.685 320.002 252.816C319.9 252.947 319.77 253.053 319.621 253.125C319.472 253.198 319.308 253.236 319.142 253.236C318.976 253.236 318.812 253.198 318.663 253.125C318.514 253.053 318.384 252.947 318.281 252.816C318.179 252.685 318.108 252.533 318.074 252.37C318.04 252.208 318.043 252.04 318.083 251.879ZM319.633 251.879C319.633 251.519 319.426 251.224 319.131 251.224C318.836 251.224 318.651 251.519 318.651 251.857C318.651 252.218 318.858 252.512 319.153 252.512C319.448 252.512 319.633 252.218 319.633 251.879Z" fill="#FFC727"/>
<path d="M228.844 267.705C228.842 267.634 228.855 267.564 228.881 267.497C228.908 267.431 228.947 267.371 228.997 267.32C229.046 267.269 229.106 267.229 229.171 267.201C229.237 267.174 229.308 267.16 229.379 267.16C229.524 267.16 229.664 267.217 229.768 267.319C229.873 267.421 229.932 267.56 229.935 267.705V273.501C229.932 273.647 229.873 273.786 229.768 273.888C229.664 273.99 229.524 274.047 229.379 274.047C229.308 274.047 229.237 274.033 229.171 274.005C229.106 273.978 229.046 273.937 228.997 273.886C228.947 273.836 228.908 273.775 228.881 273.709C228.855 273.643 228.842 273.572 228.844 273.501V267.705Z" fill="#C7C7C7"/>
<path d="M232.883 273.501C232.88 273.643 232.823 273.778 232.724 273.88C232.624 273.981 232.49 274.041 232.348 274.047C232.277 274.047 232.206 274.032 232.141 274.005C232.075 273.977 232.016 273.937 231.966 273.886C231.916 273.835 231.877 273.775 231.851 273.709C231.825 273.643 231.812 273.572 231.813 273.501V267.792C231.809 267.705 231.826 267.619 231.864 267.54C231.903 267.462 231.96 267.395 232.032 267.345C232.088 267.303 232.152 267.273 232.22 267.256C232.288 267.24 232.359 267.237 232.428 267.248C232.497 267.259 232.563 267.284 232.623 267.321C232.682 267.359 232.734 267.407 232.774 267.465L235.95 271.831V267.781C235.95 267.641 236.005 267.507 236.103 267.407C236.201 267.307 236.334 267.249 236.474 267.247C236.616 267.249 236.751 267.306 236.853 267.406C236.954 267.505 237.014 267.639 237.02 267.781V273.49C237.017 273.634 236.958 273.771 236.857 273.873C236.755 273.974 236.618 274.033 236.474 274.036C236.397 274.031 236.321 274.012 236.252 273.978C236.183 273.944 236.121 273.897 236.07 273.839V273.774L232.927 269.408L232.883 273.501Z" fill="#C7C7C7"/>
<path d="M239.126 272.333C239.168 272.281 239.22 272.237 239.28 272.205C239.339 272.173 239.405 272.154 239.472 272.147C239.539 272.141 239.607 272.149 239.671 272.17C239.736 272.19 239.795 272.224 239.846 272.268C240.374 272.715 241.033 272.979 241.723 273.021C242.158 273.031 242.586 272.906 242.946 272.661C243.068 272.585 243.17 272.481 243.244 272.358C243.318 272.234 243.362 272.095 243.371 271.951C243.372 271.84 243.342 271.73 243.284 271.635C243.206 271.519 243.106 271.419 242.989 271.34C242.562 271.109 242.096 270.958 241.614 270.893C241.175 270.818 240.746 270.69 240.337 270.511C239.967 270.345 239.652 270.076 239.431 269.736C239.277 269.499 239.197 269.221 239.202 268.939C239.213 268.654 239.29 268.376 239.426 268.126C239.562 267.876 239.755 267.661 239.988 267.498C240.488 267.152 241.083 266.969 241.691 266.974C242.481 267.01 243.242 267.284 243.874 267.76C243.983 267.835 244.059 267.95 244.086 268.081C244.112 268.211 244.087 268.346 244.015 268.459C243.98 268.515 243.934 268.564 243.879 268.602C243.825 268.64 243.763 268.667 243.698 268.681C243.633 268.695 243.566 268.697 243.501 268.685C243.435 268.673 243.373 268.648 243.317 268.611C242.867 268.243 242.314 268.022 241.734 267.978C241.344 267.974 240.962 268.093 240.643 268.317C240.536 268.383 240.446 268.474 240.381 268.582C240.317 268.691 240.279 268.813 240.272 268.939C240.264 269.034 240.287 269.13 240.337 269.212C240.408 269.311 240.497 269.396 240.599 269.463C240.979 269.685 241.397 269.833 241.833 269.899C242.299 269.982 242.753 270.121 243.186 270.314C243.582 270.486 243.923 270.766 244.168 271.122C244.318 271.377 244.397 271.667 244.397 271.962C244.389 272.264 244.308 272.559 244.162 272.823C244.016 273.087 243.808 273.312 243.557 273.479C243.029 273.858 242.394 274.056 241.745 274.047C240.82 274.002 239.936 273.657 239.224 273.065C239.114 272.98 239.043 272.856 239.024 272.719C239.006 272.582 239.042 272.444 239.126 272.333Z" fill="#C7C7C7"/>
<path d="M249.955 268.251H248.394V273.501C248.394 273.646 248.337 273.785 248.234 273.887C248.132 273.989 247.993 274.047 247.848 274.047C247.704 274.047 247.565 273.989 247.463 273.887C247.36 273.785 247.303 273.646 247.303 273.501V268.251H245.742C245.671 268.251 245.6 268.237 245.535 268.209C245.469 268.182 245.41 268.141 245.36 268.091C245.31 268.04 245.271 267.98 245.245 267.913C245.218 267.847 245.206 267.777 245.207 267.705C245.206 267.634 245.218 267.564 245.245 267.497C245.271 267.431 245.31 267.371 245.36 267.32C245.41 267.269 245.469 267.229 245.535 267.201C245.6 267.174 245.671 267.16 245.742 267.16H249.944C250.015 267.16 250.086 267.174 250.151 267.201C250.217 267.229 250.276 267.269 250.326 267.32C250.376 267.371 250.415 267.431 250.441 267.497C250.468 267.564 250.48 267.634 250.479 267.705C250.479 267.846 250.425 267.982 250.327 268.084C250.229 268.186 250.096 268.245 249.955 268.251Z" fill="#C7C7C7"/>
<path d="M254.716 272.421H252.325L251.845 273.698C251.804 273.8 251.733 273.888 251.642 273.95C251.55 274.013 251.443 274.046 251.332 274.047C251.271 274.058 251.208 274.058 251.147 274.047C251.011 273.993 250.902 273.889 250.841 273.757C250.78 273.625 250.772 273.475 250.819 273.337L253.002 267.553C253.043 267.447 253.115 267.357 253.209 267.295C253.302 267.232 253.413 267.2 253.526 267.203C253.638 267.202 253.749 267.234 253.842 267.297C253.936 267.359 254.008 267.448 254.05 267.553L256.233 273.337C256.283 273.474 256.278 273.624 256.219 273.756C256.16 273.889 256.051 273.993 255.916 274.047C255.855 274.058 255.792 274.058 255.731 274.047C255.621 274.049 255.514 274.016 255.423 273.953C255.333 273.89 255.265 273.801 255.229 273.698L254.716 272.421ZM254.312 271.329L253.515 269.223L252.718 271.329H254.312Z" fill="#C7C7C7"/>
<path d="M257.527 273.501V267.705C257.526 267.634 257.539 267.564 257.565 267.497C257.591 267.431 257.63 267.371 257.68 267.32C257.73 267.269 257.789 267.229 257.855 267.201C257.921 267.174 257.991 267.16 258.062 267.16C258.207 267.16 258.346 267.217 258.448 267.32C258.551 267.422 258.608 267.561 258.608 267.705V272.955H261.26C261.405 272.955 261.544 273.013 261.646 273.115C261.749 273.218 261.806 273.356 261.806 273.501C261.803 273.645 261.745 273.782 261.643 273.884C261.541 273.986 261.404 274.044 261.26 274.047H258.051C257.981 274.045 257.912 274.03 257.848 274.002C257.783 273.974 257.725 273.933 257.676 273.883C257.628 273.832 257.59 273.772 257.564 273.707C257.538 273.641 257.526 273.571 257.527 273.501Z" fill="#C7C7C7"/>
<path d="M263.055 273.501V267.705C263.055 267.561 263.112 267.422 263.215 267.32C263.317 267.217 263.456 267.16 263.6 267.16C263.745 267.16 263.884 267.217 263.986 267.32C264.089 267.422 264.146 267.561 264.146 267.705V272.955H266.809C266.953 272.958 267.09 273.017 267.192 273.118C267.294 273.22 267.352 273.357 267.355 273.501C267.352 273.645 267.294 273.782 267.192 273.884C267.09 273.986 266.953 274.044 266.809 274.047H263.6C263.456 274.047 263.317 273.989 263.215 273.887C263.112 273.785 263.055 273.646 263.055 273.501Z" fill="#C7C7C7"/>
<path d="M268.707 267.705C268.706 267.634 268.718 267.564 268.745 267.497C268.771 267.431 268.81 267.371 268.86 267.32C268.91 267.269 268.969 267.229 269.035 267.201C269.1 267.174 269.171 267.16 269.242 267.16C269.388 267.16 269.528 267.217 269.632 267.319C269.736 267.421 269.796 267.56 269.799 267.705V273.501C269.796 273.647 269.736 273.786 269.632 273.888C269.528 273.99 269.388 274.047 269.242 274.047C269.171 274.047 269.1 274.033 269.035 274.005C268.969 273.978 268.91 273.937 268.86 273.886C268.81 273.836 268.771 273.775 268.745 273.709C268.718 273.643 268.706 273.572 268.707 273.501V267.705Z" fill="#C7C7C7"/>
<path d="M272.711 273.501C272.708 273.643 272.651 273.778 272.552 273.88C272.453 273.981 272.318 274.041 272.176 274.047C272.105 274.047 272.035 274.032 271.969 274.005C271.903 273.977 271.844 273.937 271.794 273.886C271.744 273.835 271.705 273.775 271.679 273.709C271.653 273.643 271.64 273.572 271.641 273.501V267.792C271.637 267.705 271.654 267.619 271.693 267.54C271.731 267.462 271.788 267.395 271.86 267.345C271.916 267.303 271.98 267.273 272.048 267.256C272.116 267.24 272.187 267.237 272.256 267.248C272.325 267.259 272.392 267.284 272.451 267.321C272.51 267.359 272.562 267.407 272.602 267.465L275.778 271.831V267.781C275.778 267.641 275.833 267.507 275.931 267.407C276.029 267.307 276.162 267.249 276.302 267.247C276.444 267.249 276.58 267.306 276.681 267.406C276.782 267.505 276.842 267.639 276.848 267.781V273.49C276.854 273.602 276.825 273.713 276.763 273.807C276.702 273.9 276.612 273.972 276.507 274.011C276.402 274.05 276.288 274.055 276.18 274.024C276.072 273.993 275.977 273.928 275.909 273.839L275.854 273.774L272.711 269.408V273.501Z" fill="#C7C7C7"/>
<path d="M278.41 270.51C278.425 269.837 278.626 269.181 278.992 268.616C279.359 268.051 279.875 267.6 280.484 267.312C281.092 267.024 281.769 266.911 282.438 266.987C283.107 267.062 283.742 267.322 284.271 267.738C284.332 267.782 284.383 267.838 284.422 267.902C284.461 267.967 284.486 268.038 284.496 268.113C284.506 268.187 284.501 268.263 284.481 268.336C284.462 268.408 284.427 268.476 284.381 268.535C284.285 268.649 284.148 268.722 284 268.739C283.851 268.755 283.702 268.713 283.584 268.622C283.142 268.275 282.596 268.087 282.034 268.087C281.706 268.081 281.38 268.142 281.076 268.266C280.772 268.39 280.496 268.574 280.266 268.807C280.035 269.026 279.851 269.289 279.725 269.581C279.599 269.873 279.535 270.187 279.535 270.505C279.535 270.822 279.599 271.137 279.725 271.429C279.851 271.721 280.035 271.984 280.266 272.202C280.496 272.436 280.772 272.62 281.076 272.744C281.38 272.867 281.706 272.928 282.034 272.922C282.51 272.918 282.976 272.79 283.387 272.551V271.198H282.001C281.852 271.198 281.71 271.14 281.604 271.035C281.497 270.931 281.436 270.79 281.434 270.641C281.435 270.568 281.451 270.496 281.48 270.429C281.509 270.362 281.552 270.301 281.604 270.251C281.657 270.2 281.719 270.16 281.787 270.134C281.855 270.107 281.928 270.094 282.001 270.095H283.955C284.028 270.092 284.102 270.104 284.17 270.131C284.239 270.157 284.302 270.196 284.355 270.247C284.408 270.298 284.45 270.359 284.479 270.427C284.508 270.495 284.522 270.568 284.522 270.641V272.824C284.529 272.878 284.529 272.933 284.522 272.988C284.486 273.085 284.417 273.166 284.326 273.217C283.706 273.713 282.937 273.986 282.143 273.992C281.668 274.012 281.194 273.938 280.749 273.774C280.303 273.609 279.894 273.357 279.547 273.033C279.2 272.709 278.92 272.319 278.725 271.886C278.53 271.453 278.423 270.985 278.41 270.51Z" fill="#C7C7C7"/>
<path d="M287.216 272.649C287.41 272.649 287.596 272.726 287.733 272.864C287.87 273.001 287.947 273.187 287.947 273.381C287.947 273.575 287.87 273.761 287.733 273.898C287.596 274.035 287.41 274.112 287.216 274.112C287.022 274.112 286.836 274.035 286.699 273.898C286.561 273.761 286.484 273.575 286.484 273.381C286.484 273.187 286.561 273.001 286.699 272.864C286.836 272.726 287.022 272.649 287.216 272.649Z" fill="#C7C7C7"/>
<path d="M289.477 272.649C289.671 272.649 289.857 272.726 289.994 272.864C290.132 273.001 290.209 273.187 290.209 273.381C290.209 273.575 290.132 273.761 289.994 273.898C289.857 274.035 289.671 274.112 289.477 274.112C289.283 274.112 289.097 274.035 288.96 273.898C288.823 273.761 288.746 273.575 288.746 273.381C288.746 273.187 288.823 273.001 288.96 272.864C289.097 272.726 289.283 272.649 289.477 272.649Z" fill="#C7C7C7"/>
<path d="M291.735 272.649C291.929 272.649 292.115 272.726 292.252 272.864C292.389 273.001 292.466 273.187 292.466 273.381C292.466 273.575 292.389 273.761 292.252 273.898C292.115 274.035 291.929 274.112 291.735 274.112C291.541 274.112 291.355 274.035 291.218 273.898C291.081 273.761 291.004 273.575 291.004 273.381C291.004 273.187 291.081 273.001 291.218 272.864C291.355 272.726 291.541 272.649 291.735 272.649Z" fill="#C7C7C7"/>
<path d="M45.2814 430.652L202.846 431.328C241.146 401.258 245.097 356.704 217.778 329.701C201.242 313.329 180.253 316.658 160.257 314.061H160.192C153.129 313.313 146.259 311.298 139.912 308.112C119.327 297.252 107.724 271.624 90.4028 250.078C88.2199 247.372 86.0369 244.752 83.6248 242.22C69.4356 227.005 41.0574 226.514 26.2024 247.896C-11.4752 302.207 5.78099 383.063 45.2814 430.652Z" fill="#FFC727"/>
<path opacity="0.5" d="M45.2814 430.652L202.846 431.328C241.146 401.258 245.097 356.704 217.778 329.701C201.242 313.329 180.253 316.658 160.257 314.061H160.192C153.129 313.313 146.259 311.298 139.912 308.112C119.327 297.252 107.724 271.624 90.4028 250.078C88.2199 247.372 86.0369 244.752 83.6248 242.22C69.4356 227.005 41.0574 226.514 26.2024 247.896C-11.4752 302.207 5.78099 383.063 45.2814 430.652Z" fill="white"/>
<path d="M41.7888 306.355C45.9145 370.992 120.571 395.124 167.199 375.761C207.736 358.92 194.486 320.489 160.257 314.06H160.192C153.129 313.313 146.259 311.298 139.912 308.112C119.327 297.252 107.725 271.624 90.4029 250.078C64.6005 236.664 38.7654 259.018 41.7888 306.355Z" fill="#FFC727"/>
<path d="M187.13 440.835C184.696 439.94 129.795 396.084 128.758 393.061C128.354 391.97 134.281 383.554 141.724 373.644C143.329 371.461 144.999 369.278 146.723 367.095C157.813 352.633 169.928 337.549 169.928 337.549L206.743 366.8L182.524 395.539L177.219 401.869C177.219 401.869 190.732 428.065 191.517 431.481C192.303 434.897 189.564 441.73 187.13 440.835Z" fill="#AD6359"/>
<path d="M188.809 441.501C186.288 440.627 128.844 396.368 127.687 393.29C127.25 392.133 133.209 383.38 140.719 373.022L140.948 372.705L178.331 400.843L177.829 401.465C177.829 401.465 192.236 428.239 193.109 431.754C193.983 435.268 191.33 442.374 188.809 441.501Z" fill="#263238"/>
<path d="M189.881 438.772C180.386 431.066 141.344 400.909 131.368 394.022C131.291 393.967 131.247 394.022 131.368 394.087C140.612 401.924 179.894 431.765 189.805 438.925C189.969 439.078 190.078 438.98 189.881 438.772Z" fill="white"/>
<path d="M180.897 403.976C177.622 400.33 172.525 397.318 167.526 397.787C167.33 397.787 167.362 398.082 167.526 398.136C172.061 399.77 176.408 401.885 180.493 404.445C180.555 404.499 180.636 404.525 180.718 404.519C180.8 404.513 180.876 404.475 180.929 404.412C180.983 404.35 181.009 404.269 181.003 404.187C180.997 404.105 180.959 404.029 180.897 403.976Z" fill="white"/>
<path d="M182.369 407.752C179.095 404.107 173.998 401.094 168.999 401.563C168.802 401.563 168.835 401.858 168.999 401.913C173.545 403.544 177.903 405.659 181.998 408.221C182.061 408.253 182.133 408.262 182.201 408.246C182.27 408.231 182.331 408.193 182.374 408.138C182.418 408.083 182.441 408.014 182.44 407.944C182.439 407.874 182.414 407.806 182.369 407.752Z" fill="white"/>
<path d="M183.842 411.529C180.567 407.883 175.47 404.871 170.471 405.34C170.275 405.34 170.308 405.635 170.471 405.689C175.018 407.32 179.376 409.435 183.471 411.998C183.534 412.029 183.605 412.038 183.674 412.023C183.742 412.007 183.803 411.969 183.847 411.914C183.891 411.859 183.914 411.791 183.913 411.72C183.912 411.65 183.887 411.582 183.842 411.529Z" fill="white"/>
<path d="M191.275 440.071C191.996 441.261 189.092 444.546 188.165 444.24C187.237 443.935 124.826 395.452 123.91 394.393C122.993 393.334 126.365 389.82 127.752 390.573C129.138 391.326 191.275 440.071 191.275 440.071Z" fill="#FFC727"/>
<path d="M145.568 386.447C143.013 381.153 134.784 385.115 137.349 390.42C139.914 395.724 148.089 391.74 145.568 386.447Z" fill="white"/>
<path d="M243.929 310.546C241.407 329.679 194.267 384.897 188.82 391.227L187.576 392.668L148.588 362.696L149.036 362.118L183.374 317.16C183.374 317.16 126.617 350.297 98.2388 335.257C85.4795 328.501 76.0273 316.505 76.0273 316.505L113.137 296.728C113.137 296.728 123.397 300.002 129.957 299.085C152.55 295.811 203.206 276.557 215.223 277.038C230.634 277.671 246.242 292.995 243.929 310.546Z" fill="#263238"/>
<path d="M195.707 300.45C194.431 301.888 193.246 303.404 192.16 304.99C190.948 306.584 189.715 308.156 188.503 309.749L189.147 308.352C189.911 306.769 190.523 305.132 191.429 303.626C191.429 303.528 191.341 303.44 191.287 303.539C190.359 305.034 189.278 306.464 188.482 308.046C188.111 308.8 187.75 309.553 187.39 310.317C187.215 310.731 187.03 311.157 186.866 311.583C186.779 311.782 186.702 311.986 186.637 312.194C186.091 312.936 185.546 313.678 185.043 314.432C183.886 316.102 182.861 317.87 181.693 319.54C181.627 319.627 181.769 319.703 181.835 319.627C183.024 318.066 184.345 316.604 185.556 315.054C186.768 313.504 187.936 311.856 189.093 310.218C190.25 308.581 191.276 307.01 192.422 305.416C193.652 303.844 194.782 302.196 195.805 300.483C195.805 300.483 195.773 300.362 195.707 300.45Z" fill="#37474F"/>
<path d="M156.391 355.897C158.574 357.872 160.845 359.717 163.104 361.562C165.363 363.406 167.644 365.262 169.936 367.095C174.51 370.763 179.072 374.452 183.7 378.01C186.243 379.996 188.808 381.95 191.449 383.784C191.569 383.871 191.7 383.686 191.591 383.587C187.225 379.647 182.63 376.034 178.057 372.378C173.484 368.722 168.878 365.065 164.239 361.463C161.707 359.488 159.185 357.468 156.522 355.657C156.479 355.635 156.304 355.809 156.391 355.897Z" fill="#37474F"/>
<path d="M95.5659 259.4C103.883 279.112 129.849 298.813 138.275 299.337C148.098 299.948 173.202 287.975 182.622 274.058C184.859 270.784 163.641 255.929 160.192 258.428C153.108 263.58 139.694 270.664 138.537 270.784C136.223 271.024 119.982 262.227 107.397 253.932C91.7785 243.606 92.2478 251.541 95.5659 259.4Z" fill="#AD6359"/>
<path d="M179.731 277.758C179.731 277.758 188.462 268.219 189.183 259.443C189.674 253.375 188.615 237.341 173.76 226.874C170.235 224.385 163.446 223.348 167.735 229.493C170.77 233.859 174.022 235.704 175.376 238.574C175.376 238.574 166.589 238.269 164.243 241.903C162.185 245.07 160.361 248.382 158.785 251.814C159.344 252.249 159.931 252.646 160.542 253.003C160.542 253.003 158.676 256.605 160.204 262.576L179.731 277.758Z" fill="#AD6359"/>
<path d="M156.667 221.111L147.564 253.08C147.193 254.019 147.64 254.804 148.568 254.826L165.191 255.339C165.701 255.313 166.193 255.145 166.611 254.854C167.03 254.563 167.358 254.16 167.56 253.691L176.663 221.776C177.034 220.838 176.586 220.052 175.659 220.03L159.024 219.517C158.522 219.536 158.035 219.696 157.618 219.977C157.202 220.259 156.872 220.652 156.667 221.111Z" fill="#455A64"/>
<path d="M158.664 221.154L149.561 253.124C149.179 254.062 149.637 254.848 150.565 254.87L167.188 255.383C167.696 255.359 168.188 255.191 168.605 254.9C169.022 254.608 169.348 254.204 169.546 253.735L178.638 221.776C179.009 220.838 178.561 220.052 177.633 220.03L160.999 219.517C160.496 219.543 160.009 219.71 159.596 220C159.183 220.289 158.86 220.69 158.664 221.154Z" fill="#37474F"/>
<path d="M163.15 222.759C163.134 223.037 163.037 223.304 162.87 223.526C162.702 223.749 162.473 223.917 162.211 224.009C161.948 224.101 161.664 224.113 161.394 224.044C161.125 223.975 160.882 223.828 160.696 223.621C160.51 223.413 160.39 223.156 160.35 222.88C160.311 222.605 160.354 222.324 160.474 222.073C160.594 221.822 160.786 221.612 161.025 221.47C161.264 221.328 161.54 221.26 161.818 221.274C162.004 221.283 162.186 221.328 162.353 221.407C162.521 221.487 162.671 221.599 162.795 221.737C162.919 221.875 163.015 222.037 163.075 222.212C163.136 222.388 163.162 222.574 163.15 222.759Z" fill="#263238"/>
<path d="M188.068 250.864C186.169 248.299 182.054 242.929 177.154 239.709C171.696 236.129 160.279 230.694 157.682 234.732C155.772 237.69 159.952 240.19 159.952 240.19C159.952 240.19 154.757 238.945 153.621 242.001C152.585 244.785 155.935 246.487 155.935 246.487C155.935 246.487 152.661 246.269 152.159 249.14C151.58 252.6 158.566 252.48 161 256.485C161.556 257.348 188.068 250.864 188.068 250.864Z" fill="#AD6359"/>
<path d="M174.335 246.083C170.307 242.678 165.333 240.587 160.081 240.091C159.95 240.091 159.873 240.179 159.994 240.211C164.984 241.601 169.788 243.587 174.303 246.127C174.303 246.127 174.357 246.105 174.335 246.083Z" fill="#263238"/>
<path d="M170.562 251.464C168.499 249.827 161.951 246.455 155.98 246.334C155.849 246.334 155.773 246.433 155.904 246.455C160.955 247.583 165.862 249.282 170.53 251.519C170.53 251.519 170.595 251.486 170.562 251.464Z" fill="#263238"/>
<path d="M159.843 255.066C159.919 256.998 159.996 258.865 160.214 260.731C160.323 261.659 160.498 262.565 160.694 263.482C160.92 264.402 161.197 265.309 161.524 266.199C160.297 264.656 159.539 262.792 159.341 260.829C159.237 259.862 159.215 258.887 159.275 257.915C159.348 256.946 159.539 255.99 159.843 255.066Z" fill="#263238"/>
<path d="M106.676 279.734L121.553 262.161C121.553 262.161 109.077 252.054 100.138 248.343C91.1991 244.632 90.1076 250.362 94.2224 258.854C98.3373 267.345 106.676 279.734 106.676 279.734Z" fill="#455A64"/>
<path d="M109.133 253.265L108.118 252.632C108.459 253.344 108.88 254.014 109.373 254.63C109.327 254.17 109.247 253.714 109.133 253.265ZM119.939 260.906C119.084 261.079 118.247 261.331 117.439 261.659C116.38 262.079 115.384 262.645 114.481 263.34C115.607 263.205 116.709 262.915 117.756 262.477C118.635 262.127 119.474 261.681 120.255 261.146L119.939 260.906ZM100.379 263.547C99.9287 264.591 99.6274 265.693 99.4844 266.821C100.189 265.927 100.766 264.939 101.198 263.885C101.649 262.841 101.95 261.739 102.093 260.611C101.387 261.512 100.81 262.508 100.379 263.569V263.547Z" fill="white"/>
<path d="M117.591 266.832L106.676 279.734C106.676 279.734 98.3158 267.356 94.2009 258.876C91.1012 252.491 90.9265 247.666 94.8667 247.251L117.591 266.832Z" fill="#263238"/>
<path d="M117.079 259.705C112.462 264.309 108.159 269.217 104.199 274.396C104.199 274.396 104.297 274.527 104.319 274.505C108.063 270.707 114.95 262.597 117.242 259.858C117.286 259.814 117.122 259.661 117.079 259.705Z" fill="#263238"/>
<path d="M58.1719 325.139C60.3548 325.838 122.34 307.905 122.34 307.905L115.005 286.381C115.005 286.381 118.618 279.461 116.937 272.803C114.699 263.907 98.2398 249.282 96.941 248.43C91.7456 244.981 86.8776 245.047 82.5772 247.339C64.6661 256.856 58.1719 325.139 58.1719 325.139Z" fill="#455A64"/>
<path d="M117.373 275.837C116.882 275.564 116.369 275.324 115.856 275.095C114.814 274.636 113.711 274.331 112.582 274.189C113.476 274.894 114.465 275.47 115.518 275.903C116.13 276.153 116.757 276.364 117.395 276.536C117.395 276.35 117.395 276.066 117.373 275.837ZM88.0346 272.705C86.9929 272.246 85.8898 271.94 84.7602 271.799C85.6615 272.505 86.6571 273.082 87.7181 273.512C88.7621 273.963 89.8644 274.264 90.9925 274.407C90.0908 273.705 89.0952 273.131 88.0346 272.705ZM102.366 311.594C101.324 311.135 100.221 310.829 99.0912 310.688C99.9843 311.395 100.973 311.972 102.027 312.402C102.735 312.694 103.465 312.927 104.21 313.1L104.832 312.926C104.061 312.393 103.234 311.947 102.366 311.594ZM70.833 310.186C69.79 309.73 68.6875 309.425 67.5586 309.28C68.4451 309.99 69.4305 310.568 70.4837 310.994C71.526 311.451 72.6288 311.757 73.7582 311.9C72.8685 311.194 71.8837 310.617 70.833 310.186ZM87.4998 297.525C87.0397 298.566 86.7345 299.669 86.5939 300.799C87.9921 298.996 88.8951 296.859 89.2134 294.6C88.5059 295.488 87.9288 296.473 87.4998 297.525ZM100.379 263.569C99.9285 264.613 99.6272 265.715 99.4842 266.844C100.189 265.949 100.765 264.961 101.198 263.907C101.648 262.863 101.95 261.761 102.093 260.633C101.388 261.528 100.812 262.516 100.379 263.569ZM111.643 295.626C110.584 296.046 109.589 296.612 108.685 297.307C109.811 297.172 110.913 296.882 111.96 296.444C113.021 296.028 114.017 295.462 114.918 294.763C113.791 294.898 112.689 295.188 111.643 295.626ZM71.0731 290.539C70.014 290.96 69.0185 291.526 68.1152 292.22C69.2414 292.086 70.3434 291.796 71.3897 291.358C72.4509 290.942 73.447 290.376 74.3476 289.677C73.2214 289.812 72.1194 290.102 71.0731 290.539ZM81.9005 254.685C80.8397 255.097 79.8436 255.659 78.9426 256.354C80.0688 256.22 81.1708 255.93 82.2171 255.492C83.2779 255.08 84.274 254.518 85.175 253.822C84.048 253.939 82.9446 254.223 81.9005 254.663V254.685ZM85.3278 317.357C85.3619 317.694 85.4128 318.029 85.4806 318.361L85.9499 318.23C85.7605 317.92 85.5527 317.621 85.3278 317.335V317.357ZM71.6407 272.956C71.224 271.901 70.6619 270.909 69.9707 270.009C70.0948 271.137 70.3854 272.24 70.833 273.283C71.2453 274.341 71.8077 275.333 72.503 276.23C72.3811 275.095 72.0904 273.984 71.6407 272.934V272.956ZM101.198 284.154C100.782 283.097 100.215 282.104 99.5169 281.207C99.6489 282.334 99.9392 283.436 100.379 284.482C100.793 285.544 101.359 286.541 102.06 287.44C101.929 286.302 101.638 285.189 101.198 284.132V284.154Z" fill="white"/>
<path d="M90.6884 290.736C92.7655 289.914 94.8861 289.207 97.0407 288.618C98.1322 288.334 99.2237 288.105 100.315 287.909L101.898 287.658C102.487 287.57 103.077 287.559 103.655 287.472C103.721 287.472 103.742 287.549 103.655 287.559C103.12 287.669 102.564 287.865 102.051 287.996L100.424 288.411L97.1499 289.229C94.967 289.764 92.784 290.321 90.6775 290.921C90.612 290.954 90.5792 290.779 90.6884 290.736Z" fill="#263238"/>
<path d="M86.2665 248.201C86.594 249.292 92.4115 256.212 97.5087 255.634C99.1677 255.448 98.5347 246.345 98.5347 246.345L98.6438 245.658L100.128 236.107L86.9432 228.893C86.9432 228.893 86.1246 247.731 86.2665 248.201Z" fill="#AD6359"/>
<path d="M100.127 236.097L98.6312 245.658C96.0159 244.879 93.5946 243.557 91.5257 241.777C89.4567 239.998 87.7867 237.802 86.625 235.333C86.7451 232.058 86.8651 229.352 86.876 228.948L88.546 229.788L100.127 236.097Z" fill="#263238"/>
<path d="M80.7543 219.965C81.0239 220.163 81.2199 220.445 81.3114 220.767C81.4029 221.089 81.3846 221.432 81.2595 221.742C81.1344 222.052 80.9096 222.312 80.6205 222.48C80.3313 222.649 79.9944 222.716 79.6628 222.672C79.7063 222.884 79.7063 223.103 79.6628 223.316C79.5687 223.719 79.3273 224.072 78.986 224.306C78.6448 224.541 78.2282 224.639 77.8182 224.582C77.8563 224.758 77.8563 224.94 77.8182 225.116C77.7202 225.5 77.4752 225.829 77.1361 226.034C76.7971 226.238 76.3912 226.301 76.0064 226.208C75.6723 226.133 75.3749 225.944 75.1659 225.673C75.0498 226.033 74.8023 226.337 74.4726 226.523C74.143 226.709 73.7553 226.764 73.3868 226.677C73.1816 226.624 72.9887 226.532 72.8193 226.404V226.535C72.772 226.726 72.6877 226.905 72.571 227.064C72.4544 227.222 72.3077 227.355 72.1395 227.456C71.9712 227.558 71.7846 227.625 71.5904 227.654C71.3962 227.684 71.1981 227.674 71.0074 227.627C70.7659 227.583 70.5394 227.479 70.3486 227.324C70.1579 227.17 70.0091 226.97 69.916 226.743C69.7715 227.056 69.5231 227.31 69.2127 227.461C68.9023 227.613 68.5492 227.652 68.2133 227.572C67.9508 227.504 67.7114 227.366 67.5196 227.174C67.3278 226.983 67.1905 226.743 67.1218 226.481C66.7814 226.641 66.3974 226.683 66.0303 226.601C65.8146 226.551 65.6113 226.457 65.433 226.326C65.2547 226.194 65.1051 226.028 64.9934 225.837C64.75 225.992 64.4701 226.081 64.1817 226.094C63.8933 226.107 63.6066 226.044 63.3502 225.911C63.0938 225.778 62.8767 225.581 62.7207 225.338C62.5647 225.095 62.4752 224.815 62.4612 224.527C62.2624 224.56 62.0597 224.56 61.8609 224.527C61.5049 224.444 61.1911 224.234 60.9783 223.937C60.7654 223.64 60.6679 223.275 60.7039 222.912C60.4306 222.975 60.1457 222.968 59.8761 222.89C59.6064 222.812 59.3611 222.667 59.1633 222.468C58.9654 222.269 58.8217 222.023 58.7456 221.753C58.6694 221.483 58.6635 221.198 58.7284 220.925C58.761 220.745 58.8317 220.574 58.9357 220.423H58.6738C58.2933 220.32 57.9673 220.074 57.7639 219.737C57.5605 219.399 57.4954 218.996 57.5823 218.611C57.6462 218.34 57.7819 218.091 57.9753 217.891C57.5846 217.76 57.2565 217.489 57.0548 217.13C56.853 216.771 56.7921 216.35 56.8838 215.948C56.9526 215.645 57.108 215.368 57.3313 215.151C57.0457 214.965 56.8244 214.696 56.6974 214.379C56.5705 214.063 56.5441 213.715 56.6218 213.383C56.6821 213.142 56.7972 212.918 56.9581 212.729C57.119 212.54 57.3214 212.39 57.5496 212.292C57.429 212.119 57.3462 211.923 57.3067 211.716C57.2672 211.509 57.2719 211.296 57.3204 211.091C57.3652 210.883 57.4549 210.688 57.5831 210.518C57.7113 210.348 57.8749 210.209 58.0626 210.109C57.896 209.915 57.7776 209.684 57.7169 209.436C57.6562 209.187 57.655 208.928 57.7133 208.679C57.7938 208.334 57.9824 208.025 58.2514 207.795C58.5204 207.565 58.8558 207.427 59.2086 207.402C59.143 207.166 59.143 206.917 59.2086 206.681C59.2891 206.325 59.4962 206.011 59.7913 205.796C60.0865 205.581 60.4495 205.481 60.8131 205.514C60.753 205.281 60.753 205.037 60.8131 204.804C60.8607 204.591 60.95 204.39 61.0759 204.212C61.2018 204.034 61.3618 203.883 61.5466 203.767C61.7313 203.652 61.9372 203.574 62.1523 203.538C62.3674 203.502 62.5874 203.51 62.7996 203.56C62.924 203.59 63.0448 203.634 63.1597 203.691C63.1545 203.604 63.1545 203.516 63.1597 203.429C63.2585 203.001 63.5232 202.629 63.8956 202.396C64.2681 202.163 64.7178 202.087 65.1462 202.185C65.2831 202.214 65.4153 202.261 65.5392 202.326C65.5125 202.171 65.5125 202.012 65.5392 201.857C65.6165 201.535 65.7882 201.242 66.0322 201.018C66.2763 200.793 66.5817 200.646 66.9096 200.596C67.2374 200.546 67.5728 200.594 67.8731 200.735C68.1733 200.876 68.4247 201.103 68.5953 201.388C68.7931 201.182 69.0406 201.031 69.3141 200.948C69.5875 200.866 69.8775 200.856 70.1561 200.918C70.572 201.018 70.9346 201.272 71.1711 201.628C71.3123 201.371 71.5249 201.161 71.7831 201.022C72.0413 200.883 72.3341 200.823 72.6262 200.847C72.9183 200.871 73.1971 200.979 73.4289 201.159C73.6608 201.338 73.8357 201.581 73.9326 201.857C74.1496 201.697 74.4055 201.598 74.6737 201.569C74.9419 201.541 75.2128 201.585 75.4586 201.696C75.7043 201.807 75.9159 201.982 76.0717 202.202C76.2275 202.422 76.3217 202.68 76.3447 202.949C76.5337 202.814 76.7492 202.721 76.9769 202.676C77.2046 202.63 77.4393 202.634 77.6654 202.687C78.0366 202.776 78.3663 202.989 78.6004 203.29C78.8345 203.592 78.959 203.964 78.9534 204.346C79.1338 204.313 79.3186 204.313 79.4991 204.346C79.8826 204.444 80.2121 204.689 80.4164 205.028C80.6206 205.367 80.6832 205.773 80.5906 206.158C80.5473 206.336 80.4734 206.506 80.3723 206.66H80.4705C80.6837 206.708 80.8851 206.799 81.0632 206.926C81.2412 207.053 81.3924 207.214 81.5081 207.4C81.6237 207.585 81.7015 207.792 81.737 208.008C81.7725 208.223 81.7649 208.444 81.7148 208.657C81.6814 208.815 81.6224 208.966 81.5401 209.105C81.6739 209.084 81.8102 209.084 81.944 209.105C82.3251 209.203 82.6528 209.446 82.8567 209.783C83.0607 210.119 83.1249 210.522 83.0355 210.905C82.941 211.298 82.6985 211.638 82.3587 211.855C82.56 212.035 82.7089 212.266 82.7896 212.523C82.8703 212.781 82.8798 213.055 82.8172 213.318C82.7272 213.7 82.4924 214.033 82.1623 214.245C82.4662 214.419 82.7073 214.685 82.8509 215.005C82.9946 215.324 83.0334 215.681 82.9619 216.024C82.8905 216.367 82.7123 216.678 82.453 216.913C82.1937 217.149 81.8665 217.296 81.5183 217.334C81.7017 217.512 81.8363 217.734 81.9089 217.978C81.9816 218.223 81.9899 218.482 81.9331 218.731C81.8829 219.031 81.7437 219.309 81.5335 219.529C81.3233 219.749 81.0518 219.901 80.7543 219.965Z" fill="#263238"/>
<path d="M105.246 203.571C105.516 203.769 105.712 204.051 105.803 204.373C105.895 204.694 105.877 205.038 105.752 205.348C105.627 205.658 105.402 205.918 105.113 206.086C104.823 206.255 104.486 206.322 104.155 206.278C104.198 206.49 104.198 206.709 104.155 206.921C104.061 207.325 103.819 207.678 103.478 207.912C103.137 208.147 102.72 208.245 102.31 208.188C102.348 208.364 102.348 208.546 102.31 208.722C102.212 209.106 101.967 209.435 101.628 209.64C101.289 209.844 100.883 209.906 100.498 209.814C100.163 209.742 99.865 209.552 99.658 209.279C99.5419 209.639 99.2944 209.943 98.9647 210.129C98.6351 210.315 98.2474 210.37 97.8789 210.283C97.6703 210.23 97.4739 210.138 97.3004 210.01C97.3057 210.054 97.3057 210.098 97.3004 210.141C97.2532 210.332 97.1688 210.511 97.0522 210.669C96.9356 210.828 96.7889 210.961 96.6207 211.062C96.4524 211.164 96.2658 211.231 96.0716 211.26C95.8773 211.289 95.6792 211.28 95.4886 211.233C95.2471 211.189 95.0205 211.085 94.8298 210.93C94.6391 210.776 94.4903 210.576 94.3971 210.349C94.2511 210.661 94.0024 210.914 93.6925 211.065C93.3826 211.216 93.0303 211.256 92.6944 211.178C92.432 211.11 92.1926 210.972 92.0008 210.78C91.8089 210.589 91.6716 210.349 91.603 210.087C91.2626 210.247 90.8785 210.289 90.5115 210.207C90.2864 210.162 90.0731 210.072 89.8851 209.94C89.6972 209.808 89.5388 209.639 89.42 209.443C89.2374 209.56 89.0334 209.639 88.8198 209.677C88.6062 209.714 88.3873 209.709 88.1757 209.661C87.825 209.579 87.5101 209.386 87.278 209.111C87.0459 208.836 86.909 208.493 86.8878 208.133C86.6927 208.165 86.4935 208.165 86.2984 208.133C85.9424 208.05 85.6287 207.84 85.4158 207.543C85.2029 207.246 85.1054 206.881 85.1414 206.518C84.8678 206.58 84.5828 206.572 84.3131 206.494C84.0434 206.417 83.7978 206.272 83.5993 206.073C83.4009 205.875 83.256 205.629 83.1783 205.36C83.1006 205.09 83.0925 204.805 83.155 204.531C83.1962 204.352 83.2702 204.182 83.3733 204.029H83.1113C82.7293 203.929 82.4016 203.683 82.1978 203.345C81.9939 203.006 81.9301 202.602 82.0198 202.217C82.0837 201.946 82.2195 201.697 82.4128 201.497C82.0221 201.366 81.694 201.095 81.4923 200.736C81.2905 200.377 81.2296 199.956 81.3213 199.554C81.3904 199.253 81.5415 198.977 81.7579 198.757C81.4754 198.569 81.2572 198.298 81.1324 197.982C81.0076 197.666 80.9821 197.32 81.0593 196.989C81.1196 196.748 81.2347 196.524 81.3956 196.335C81.5565 196.146 81.7589 195.996 81.9871 195.898C81.8661 195.724 81.783 195.527 81.7433 195.319C81.7036 195.111 81.708 194.898 81.7564 194.692C81.8048 194.486 81.8961 194.292 82.0242 194.124C82.1523 193.956 82.3145 193.816 82.5001 193.715C82.3335 193.521 82.2151 193.29 82.1544 193.042C82.0938 192.793 82.0925 192.534 82.1508 192.285C82.2313 191.94 82.4199 191.631 82.6889 191.401C82.9579 191.171 83.2933 191.033 83.6461 191.008C83.5861 190.771 83.5861 190.524 83.6461 190.287C83.729 189.931 83.9382 189.616 84.2351 189.401C84.532 189.186 84.8966 189.086 85.2615 189.12C85.2071 188.886 85.2071 188.643 85.2615 188.41C85.3104 188.197 85.4009 187.996 85.5279 187.817C85.6548 187.639 85.8158 187.488 86.0014 187.373C86.187 187.257 86.3937 187.179 86.6095 187.144C86.8253 187.108 87.046 187.116 87.2589 187.166C87.3829 187.198 87.5035 187.242 87.6191 187.297C87.6086 187.21 87.6086 187.122 87.6191 187.035C87.6667 186.822 87.756 186.621 87.8819 186.443C88.0078 186.265 88.1678 186.114 88.3526 185.998C88.5373 185.882 88.7432 185.804 88.9583 185.769C89.1734 185.733 89.3934 185.741 89.6056 185.791C89.7395 185.818 89.8684 185.866 89.9876 185.932C89.9611 185.777 89.9611 185.618 89.9876 185.463C90.0649 185.141 90.2366 184.848 90.4807 184.624C90.7247 184.399 91.0302 184.252 91.358 184.202C91.6859 184.152 92.0213 184.2 92.3215 184.341C92.6217 184.482 92.8731 184.709 93.0437 184.994C93.2415 184.788 93.4891 184.636 93.7625 184.554C94.0359 184.472 94.326 184.462 94.6045 184.524C95.0204 184.624 95.3831 184.878 95.6196 185.234C95.7736 184.94 96.0218 184.706 96.3245 184.569C96.6273 184.432 96.9671 184.401 97.2895 184.481C97.5402 184.538 97.772 184.658 97.9631 184.83C98.1541 185.002 98.298 185.22 98.381 185.463C98.5971 185.302 98.8523 185.202 99.1201 185.174C99.388 185.145 99.6586 185.189 99.9038 185.3C100.149 185.412 100.36 185.587 100.514 185.807C100.669 186.028 100.761 186.286 100.782 186.555C100.972 186.42 101.187 186.328 101.415 186.283C101.642 186.237 101.877 186.241 102.103 186.293C102.476 186.38 102.808 186.592 103.045 186.893C103.281 187.195 103.407 187.569 103.402 187.952C103.582 187.919 103.767 187.919 103.948 187.952C104.331 188.05 104.661 188.295 104.865 188.634C105.069 188.973 105.132 189.379 105.039 189.764C105.004 189.943 104.934 190.114 104.832 190.266H104.93C105.156 190.303 105.373 190.386 105.566 190.511C105.758 190.636 105.923 190.8 106.049 190.991C106.175 191.183 106.26 191.399 106.299 191.626C106.337 191.852 106.328 192.084 106.272 192.307C106.234 192.463 106.175 192.613 106.098 192.754C106.228 192.733 106.361 192.733 106.491 192.754C106.873 192.85 107.203 193.093 107.407 193.43C107.612 193.767 107.674 194.172 107.582 194.555C107.487 194.95 107.24 195.291 106.895 195.505C107.099 195.682 107.25 195.913 107.333 196.171C107.416 196.428 107.426 196.704 107.364 196.967C107.274 197.35 107.039 197.682 106.709 197.895C107.013 198.069 107.254 198.335 107.398 198.654C107.541 198.974 107.58 199.33 107.509 199.673C107.437 200.016 107.259 200.328 107 200.563C106.74 200.798 106.413 200.946 106.065 200.984C106.248 201.161 106.383 201.383 106.456 201.628C106.528 201.873 106.537 202.132 106.48 202.381C106.417 202.68 106.265 202.953 106.046 203.165C105.826 203.377 105.547 203.518 105.246 203.571Z" fill="#263238"/>
<path d="M111.032 218.906C116.184 235.07 107.081 239.993 103.599 241.095C100.423 242.1 89.5191 245.123 82.7192 229.569C75.9193 214.016 81.8024 206.507 88.9297 203.822C96.057 201.137 105.88 202.73 111.032 218.906Z" fill="#AD6359"/>
<path d="M108.118 217.171C107.725 217.171 107.343 217.171 106.95 217.171C106.541 217.243 106.118 217.177 105.75 216.985C105.646 216.901 105.572 216.785 105.541 216.654C105.509 216.524 105.521 216.387 105.575 216.265C105.718 216.039 105.919 215.856 106.157 215.735C106.395 215.614 106.662 215.559 106.928 215.577C107.473 215.528 108.016 215.679 108.456 216.003C108.56 216.083 108.636 216.193 108.677 216.317C108.717 216.442 108.719 216.575 108.682 216.701C108.646 216.827 108.573 216.939 108.472 217.022C108.372 217.106 108.248 217.158 108.118 217.171Z" fill="#263238"/>
<path d="M97.1382 221.209C97.5124 221.065 97.877 220.897 98.2297 220.707C98.6266 220.58 98.9714 220.327 99.212 219.986C99.2641 219.863 99.2752 219.727 99.2437 219.597C99.2123 219.468 99.1399 219.351 99.0374 219.266C98.8071 219.132 98.5454 219.061 98.2788 219.061C98.0123 219.061 97.7505 219.132 97.5202 219.266C97.0111 219.471 96.598 219.861 96.3633 220.357C96.3204 220.469 96.3093 220.59 96.3314 220.708C96.3534 220.825 96.4077 220.934 96.4881 221.022C96.5685 221.111 96.6719 221.175 96.7867 221.208C96.9015 221.241 97.0232 221.241 97.1382 221.209Z" fill="#263238"/>
<path d="M100.073 223.119C100.073 223.119 100.008 223.195 100.073 223.239C100.412 224.33 100.608 225.662 99.6914 226.306C99.6914 226.306 99.6914 226.382 99.6914 226.371C100.816 225.869 100.576 224.112 100.073 223.119Z" fill="#263238"/>
<path d="M98.7624 222.213C96.9397 222.562 97.7583 226.197 99.461 225.88C101.164 225.564 100.301 221.929 98.7624 222.213Z" fill="#263238"/>
<path d="M98.0986 222.573C97.8257 222.846 97.5965 223.283 97.2254 223.403C96.8543 223.523 96.3632 223.25 95.9921 222.945C95.9921 222.945 95.9375 222.945 95.9375 222.999C96.0903 223.698 96.516 224.353 97.2909 224.287C98.0659 224.222 98.3824 223.501 98.3824 222.759C98.3606 222.628 98.2078 222.453 98.0986 222.573Z" fill="#263238"/>
<path d="M106.664 221.318C106.664 221.318 106.762 221.318 106.773 221.406C106.981 222.497 107.417 223.807 108.52 223.96V224.025C107.232 224.123 106.675 222.432 106.664 221.318Z" fill="#263238"/>
<path d="M107.364 219.921C109.154 219.386 110.093 222.999 108.456 223.49C106.819 223.981 105.913 220.369 107.364 219.921Z" fill="#263238"/>
<path d="M108.227 219.965C108.566 220.085 108.937 220.358 109.319 220.292C109.701 220.227 109.908 219.746 110.061 219.31C110.061 219.255 110.116 219.31 110.127 219.31C110.323 219.998 110.29 220.772 109.657 221.078C109.024 221.384 108.489 220.882 108.14 220.238C108.042 220.139 108.096 219.91 108.227 219.965Z" fill="#263238"/>
<path d="M105.846 227.234C105.846 227.234 106.435 228.871 106.599 229.668C106.599 229.744 106.435 229.821 106.163 229.886C105.505 230.154 104.787 230.236 104.086 230.122C103.385 230.009 102.729 229.704 102.19 229.242C102.18 229.227 102.175 229.21 102.176 229.192C102.176 229.174 102.183 229.157 102.193 229.142C102.204 229.128 102.219 229.118 102.236 229.112C102.253 229.106 102.271 229.106 102.288 229.111C103.451 229.589 104.736 229.681 105.955 229.373C105.955 229.144 104.864 226.601 104.984 226.557C105.611 226.476 106.245 226.476 106.872 226.557C105.781 223.108 104.078 219.866 103.008 216.406C103.008 216.286 103.15 216.21 103.205 216.308C105.102 219.732 106.653 223.337 107.833 227.07C107.964 227.594 106.195 227.343 105.846 227.234Z" fill="#263238"/>
<path d="M106.067 229.624C105.784 230.389 105.31 231.069 104.691 231.6C104.343 231.872 103.921 232.031 103.48 232.058C102.519 232.113 102.236 231.294 102.181 230.541C102.151 230.14 102.173 229.736 102.247 229.34C103.457 229.839 104.796 229.938 106.067 229.624Z" fill="#263238"/>
<path d="M104.69 231.6C104.342 231.871 103.919 232.031 103.479 232.058C102.518 232.113 102.234 231.294 102.18 230.541C102.656 230.407 103.164 230.438 103.62 230.631C104.076 230.823 104.454 231.165 104.69 231.6Z" fill="#FF9CBD"/>
<path d="M95.5651 206.19C96.2564 207.554 96.5225 209.094 96.3291 210.611C95.3795 214.78 90.6098 214.802 89.3983 216.646C88.1867 218.491 89.3983 221.143 88.405 222.835C87.0189 225.182 85.469 224.068 85.4581 225.444C85.4472 226.819 85.4581 231.152 83.9737 232.058C82.4893 232.964 68.6276 207.085 90.5225 203.079C90.5225 203.079 93.2839 201.017 98.3702 202.49C105.618 204.586 108.641 212.87 108.641 212.87C107.86 212.872 107.087 212.713 106.371 212.401C105.115 211.713 104.45 211.135 103.544 210.709C102.125 210.043 101.535 210.873 100.073 210.24C97.8572 209.268 95.5651 206.19 95.5651 206.19Z" fill="#263238"/>
<path d="M95.1597 205.317C95.7401 206.319 96.2017 207.385 96.5349 208.494C96.914 209.542 97.0045 210.673 96.7969 211.768C96.4369 212.822 95.7029 213.707 94.734 214.257C93.7953 214.868 92.682 215.239 91.667 215.926C91.1393 216.278 90.7198 216.769 90.4554 217.345C90.2475 217.926 90.1584 218.542 90.1935 219.157C90.3222 220.277 90.1371 221.411 89.6587 222.432C89.3829 222.917 89.0047 223.336 88.5504 223.66C88.0962 223.985 87.5767 224.206 87.0282 224.309C85.8647 224.375 84.7291 224.691 83.6992 225.237C84.7143 224.593 85.8822 224.735 87.0719 224.571C87.6738 224.486 88.2498 224.27 88.7591 223.938C89.2684 223.606 89.6984 223.167 90.0188 222.65C90.5784 221.576 90.8135 220.362 90.6956 219.157C90.6659 218.612 90.7476 218.066 90.9357 217.553C91.1856 217.068 91.563 216.66 92.0271 216.374C92.9331 215.73 94.0464 215.337 95.0505 214.682C95.5615 214.355 96.0213 213.954 96.4149 213.493C96.8212 213.026 97.1095 212.468 97.2553 211.866C97.4388 210.678 97.2915 209.462 96.8296 208.352C96.395 207.278 95.8345 206.259 95.1597 205.317Z" fill="#263238"/>
<path d="M95.7969 206.212C96.2431 207.204 96.8234 208.129 97.5214 208.963C98.2159 209.852 99.1576 210.517 100.228 210.873C100.766 211.002 101.314 211.083 101.865 211.113C102.354 211.154 102.821 211.336 103.208 211.637C103.58 212.043 103.993 212.409 104.441 212.728C104.918 213.007 105.452 213.175 106.002 213.22C105.491 213.077 105.013 212.836 104.594 212.51C104.195 212.159 103.83 211.772 103.503 211.353C103.071 210.954 102.525 210.698 101.942 210.622C101.418 210.588 100.899 210.504 100.392 210.371C99.4146 210.037 98.5391 209.458 97.8488 208.69C97.1091 207.912 96.4235 207.084 95.7969 206.212Z" fill="#263238"/>
<path d="M85.6751 229.995C85.6751 229.995 80.8945 225.629 78.8425 227.463C76.7905 229.297 81.2001 236.195 84.1798 236.555C84.5589 236.634 84.95 236.635 85.3296 236.558C85.7092 236.482 86.0694 236.33 86.3886 236.11C86.7077 235.891 86.9792 235.61 87.1867 235.283C87.3943 234.956 87.5335 234.59 87.5961 234.208L85.6751 229.995Z" fill="#AD6359"/>
<path d="M80.1641 229.416V229.493C82.2706 229.842 83.6895 231.403 84.8246 233.095C84.6674 232.928 84.4759 232.797 84.2635 232.711C84.051 232.625 83.8225 232.586 83.5935 232.596C83.3646 232.607 83.1405 232.666 82.9367 232.771C82.7329 232.876 82.5541 233.024 82.4125 233.204C82.4125 233.204 82.4125 233.313 82.4889 233.291C82.8035 233.106 83.168 233.023 83.5319 233.054C83.8957 233.085 84.2407 233.229 84.519 233.466C84.9839 233.863 85.4047 234.31 85.7742 234.797C85.9052 234.939 86.189 234.797 86.0798 234.601C85.5341 232.058 82.86 229.045 80.1641 229.416Z" fill="#263238"/>
<path d="M78.5507 262.303C82.7966 288.291 94.7373 307.271 99.6926 308.09C113.019 310.273 135.558 288.444 142.26 283.379C144.978 281.305 122.81 262.75 120.19 265.293C114.013 271.275 105.827 279.286 105.379 279.286C104.44 279.286 101.264 272.825 89.6619 257.588C79.9697 244.828 76.8044 251.683 78.5507 262.303Z" fill="#AD6359"/>
<path d="M154.626 240.244C156.46 243.049 149.169 247.011 149.169 247.011C150.614 247.02 152.012 247.534 153.12 248.463C154.997 250.198 153.12 253.92 153.12 253.92C154.615 254.239 155.98 255 157.038 256.103C158.664 257.937 157.278 261.942 157.278 261.942C158.457 263.018 159.228 264.468 159.461 266.046C160.323 273.152 144.814 283.303 139.815 285.256L119.48 266.898C119.48 266.898 127.023 250.045 133.168 245.69C136.551 243.267 151.81 235.965 154.626 240.244Z" fill="#AD6359"/>
<path d="M149.046 246.968C144.716 248.457 140.584 250.473 136.746 252.971C136.736 252.975 136.727 252.981 136.719 252.989C136.712 252.997 136.706 253.007 136.703 253.017C136.7 253.027 136.699 253.038 136.7 253.049C136.701 253.06 136.704 253.07 136.71 253.079C136.715 253.089 136.722 253.097 136.731 253.103C136.74 253.109 136.75 253.114 136.761 253.116C136.771 253.118 136.782 253.118 136.793 253.115C136.803 253.113 136.813 253.108 136.822 253.102C140.653 250.744 145.215 249.358 149.134 247.164C149.155 247.15 149.171 247.128 149.178 247.104C149.185 247.079 149.183 247.053 149.173 247.029C149.162 247.006 149.144 246.987 149.121 246.975C149.098 246.964 149.071 246.961 149.046 246.968Z" fill="#263238"/>
<path d="M152.789 253.68C151.826 254.074 150.919 254.595 150.094 255.23C149.177 255.841 148.271 256.463 147.376 257.107C145.579 258.395 143.814 259.727 142.082 261.102C142.006 261.168 142.082 261.299 142.169 261.244C143.959 259.956 145.779 258.708 147.627 257.5C148.544 256.9 149.471 256.311 150.41 255.721C151.324 255.219 152.181 254.619 152.964 253.931C152.997 253.908 153.02 253.873 153.027 253.833C153.034 253.793 153.026 253.752 153.002 253.718C152.991 253.702 152.976 253.688 152.959 253.677C152.942 253.666 152.924 253.659 152.904 253.655C152.864 253.648 152.823 253.657 152.789 253.68Z" fill="#263238"/>
<path d="M157.166 261.997C156.299 262.364 155.502 262.877 154.808 263.514L152.374 265.315C150.759 266.505 149.1 267.694 147.463 268.819C147.451 268.833 147.443 268.85 147.442 268.869C147.44 268.887 147.445 268.906 147.454 268.922C147.464 268.937 147.479 268.95 147.496 268.957C147.513 268.964 147.532 268.965 147.55 268.96C149.242 267.814 150.955 266.701 152.647 265.544L155.125 263.82C155.925 263.367 156.638 262.776 157.231 262.073C157.231 262.073 157.21 261.975 157.166 261.997Z" fill="#263238"/>
<path d="M158.665 263.732C159.418 264.827 159.755 266.155 159.614 267.476C159.446 268.805 158.939 270.068 158.141 271.144C156.643 273.293 154.899 275.26 152.945 277.005C151.009 278.759 148.94 280.361 146.757 281.796C144.58 283.233 142.274 284.464 139.869 285.475C138.341 286.73 128.3 295.407 126.695 296.062C128.114 294.687 138.101 286.446 139.553 285.147C141.862 284.011 144.084 282.705 146.2 281.24C148.324 279.791 150.355 278.208 152.279 276.503C154.208 274.806 155.976 272.935 157.562 270.914C158.356 269.931 158.899 268.77 159.145 267.531C159.433 266.247 159.263 264.904 158.665 263.732Z" fill="#263238"/>
<path d="M81.9536 284.176L102.004 272.923C102.004 272.923 93.8506 259.094 86.7233 252.491C79.596 245.887 76.6272 250.886 77.5222 260.273C78.4172 269.659 81.9536 284.176 81.9536 284.176Z" fill="#455A64"/>
<path d="M81.8993 254.662C80.8385 255.074 79.8423 255.637 78.9414 256.332C80.0675 256.198 81.1695 255.907 82.2158 255.47C83.2766 255.058 84.2728 254.495 85.1737 253.8C84.0456 253.924 82.9422 254.214 81.8993 254.662ZM88.0334 272.704C86.9916 272.245 85.8886 271.94 84.759 271.798C85.6603 272.504 86.6559 273.081 87.7168 273.512C88.7609 273.962 89.8632 274.264 90.9913 274.407C90.0896 273.704 89.094 273.131 88.0334 272.704Z" fill="white"/>
<path d="M98.6313 269.048C92.6979 271.752 86.9513 274.847 81.4297 278.315C81.4297 278.315 81.4297 278.468 81.5061 278.457C86.3413 276.208 95.6297 271.013 98.7295 269.256C98.7841 269.223 98.6313 269.016 98.6313 269.048Z" fill="#263238"/>
<path d="M83.9066 283.084C83.2954 283.51 82.6623 283.914 82.0402 284.318L81.8546 284.449L81.7891 284.209C80.9742 281.189 80.2465 278.144 79.6062 275.073C79.3006 273.545 78.995 272.006 78.7548 270.467C78.5147 268.928 78.2528 267.378 78.0781 265.817C78.5365 267.324 78.9513 268.841 79.3224 270.358C79.6935 271.875 80.0646 273.392 80.4139 274.92C81.0833 277.969 81.6509 281.04 82.1166 284.132L81.8655 284.023C82.5532 283.707 83.219 283.379 83.9066 283.084Z" fill="#263238"/>
<path d="M79.2259 271.646C78.8408 271.124 78.4977 270.573 78.1999 269.998C77.8893 269.431 77.6265 268.84 77.4141 268.229C78.1789 269.275 78.7892 270.426 79.2259 271.646Z" fill="#263238"/>
<path d="M101.254 273.479C101.461 273.239 101.69 273.021 101.908 272.781V273.01C100.5 270.893 99.1361 268.764 97.75 266.647L93.6133 260.262C95.4098 262.077 97.0221 264.066 98.4267 266.199C99.8537 268.315 101.116 270.537 102.203 272.846L102.28 272.999L102.16 273.065C101.821 273.207 101.548 273.359 101.254 273.479Z" fill="#263238"/>
<path d="M97.2588 264.911C96.9328 264.352 96.6518 263.769 96.4183 263.165C96.1813 262.561 95.988 261.941 95.8398 261.31C96.1658 261.869 96.4468 262.452 96.6803 263.056C96.9173 263.66 97.1106 264.28 97.2588 264.911Z" fill="#263238"/>
<path d="M329.48 391.096C328.585 393.53 284.523 448.29 281.521 449.326C280.43 449.719 272.036 443.76 262.147 436.229C259.965 434.613 257.782 432.954 255.599 431.219C241.18 420.075 226.129 407.916 226.129 407.916L255.5 371.188L284.184 395.561L290.471 400.898C290.471 400.898 316.721 387.473 320.137 386.709C323.554 385.945 330.375 388.673 329.48 391.096Z" fill="#AD6359"/>
<path d="M329.293 390.114C328.311 392.603 281.574 448.039 278.452 449.054C277.273 449.447 268.793 443.105 258.806 435.148L258.5 434.897L288.254 398.791L288.843 399.315C288.843 399.315 316.228 386.097 319.775 385.388C323.323 384.679 330.275 387.68 329.293 390.114Z" fill="#263238"/>
<path d="M326.608 388.924C318.499 398.082 286.661 435.76 279.348 445.419C279.282 445.506 279.348 445.539 279.402 445.474C287.643 436.578 319.176 398.639 326.761 389.055C326.925 388.859 326.75 388.772 326.608 388.924Z" fill="white"/>
<path d="M291.454 396.412C287.666 399.512 284.446 404.489 284.697 409.51C284.697 409.706 284.981 409.684 285.047 409.51C286.873 405.037 289.175 400.774 291.912 396.794C291.944 396.732 291.954 396.661 291.94 396.593C291.926 396.525 291.889 396.464 291.836 396.419C291.783 396.374 291.716 396.349 291.646 396.348C291.577 396.347 291.509 396.369 291.454 396.412Z" fill="white"/>
<path d="M295.293 395.07C291.505 398.159 288.274 403.136 288.525 408.167C288.525 408.364 288.82 408.342 288.875 408.167C290.706 403.697 293.007 399.435 295.74 395.452C295.768 395.391 295.775 395.323 295.761 395.258C295.747 395.193 295.712 395.134 295.661 395.091C295.61 395.048 295.547 395.022 295.48 395.019C295.414 395.015 295.348 395.033 295.293 395.07Z" fill="white"/>
<path d="M299.136 393.76C295.349 396.86 292.118 401.837 292.369 406.858C292.369 407.054 292.653 407.043 292.718 406.858C294.545 402.386 296.847 398.123 299.584 394.142C299.612 394.082 299.619 394.014 299.605 393.949C299.591 393.884 299.555 393.825 299.505 393.782C299.454 393.738 299.391 393.713 299.324 393.709C299.258 393.705 299.192 393.723 299.136 393.76Z" fill="white"/>
<path d="M328.015 387.593C329.237 386.916 332.38 389.94 332.053 390.867C331.726 391.795 280.481 451.99 279.389 452.863C278.298 453.736 274.925 450.211 275.744 448.857C276.563 447.504 328.015 387.593 328.015 387.593Z" fill="#FFC727"/>
<path d="M272.395 430.946C266.992 433.271 270.594 441.664 276.008 439.339C281.421 437.014 277.798 428.621 272.395 430.946Z" fill="white"/>
<path d="M282.624 390.016L252.063 431.252L148.94 359.695L139.019 352.753C139.019 352.753 136.203 354.652 131.957 356.999C126.074 360.274 117.44 364.367 109.811 365.491C97.0081 367.39 75.6262 367.183 64.8424 352.753C55.7505 340.605 60.6839 324.757 60.6839 324.757L74.7421 318.721C74.7421 318.721 108.01 290.998 129.556 290.168C138.713 289.808 152.04 296.717 164.385 303.986C176.729 311.256 282.624 390.016 282.624 390.016Z" fill="#263238"/>
<path d="M139.017 352.753C139.017 352.753 136.201 354.652 131.955 356.999C124.467 348.027 108.597 331.731 108.117 331.153L139.017 352.753Z" fill="#37474F"/>
<path d="M86.9111 309.476C84.9246 310.852 83.0036 312.325 81.039 313.744C79.0743 315.163 77.1206 316.44 75.2869 317.968C73.4533 319.496 71.6523 321.166 69.8951 322.836C69.0437 323.644 68.2033 324.451 67.3847 325.281C66.52 326.085 65.7173 326.953 64.9834 327.879C64.9733 327.9 64.9702 327.923 64.9746 327.946C64.9789 327.969 64.9905 327.99 65.0075 328.006C65.0246 328.022 65.0463 328.032 65.0695 328.034C65.0926 328.037 65.116 328.032 65.1362 328.02C66.0678 327.348 66.9572 326.619 67.7994 325.838L70.5827 323.469C72.3618 321.952 74.1845 320.467 75.9746 318.939C77.7646 317.411 79.3909 315.774 81.1372 314.235C82.8836 312.696 85.001 311.07 86.9548 309.52C86.9875 309.509 86.9548 309.444 86.9111 309.476Z" fill="#37474F"/>
<path d="M272.179 385.814C270.323 388.073 268.631 390.485 266.929 392.854C265.226 395.222 263.512 397.623 261.821 400.014C258.437 404.805 255.032 409.586 251.714 414.421C249.891 417.084 248.101 419.759 246.42 422.509C246.354 422.629 246.54 422.749 246.638 422.64C250.306 418.078 253.624 413.242 256.996 408.451C260.369 403.659 263.731 398.846 267.038 394C268.85 391.348 270.716 388.695 272.364 385.945C272.371 385.921 272.371 385.895 272.362 385.871C272.354 385.848 272.339 385.827 272.318 385.813C272.298 385.799 272.273 385.791 272.248 385.791C272.223 385.791 272.199 385.799 272.179 385.814Z" fill="#37474F"/>
<path d="M190.809 388.957C185.679 384.918 180.364 381.098 175.037 377.311C169.711 373.523 164.461 369.747 159.091 366.091C157.541 365.043 155.987 364.006 154.43 362.98C152.88 361.943 151.265 360.993 149.748 359.924C149.66 359.858 149.584 360.011 149.671 360.066C151.068 361.07 152.378 362.194 153.753 363.231C155.129 364.268 156.362 365.228 157.683 366.2C160.259 368.11 162.856 369.976 165.454 371.864C170.73 375.677 176.045 379.425 181.4 383.107C184.446 385.191 187.469 387.287 190.58 389.273C190.765 389.393 190.995 389.099 190.809 388.957Z" fill="#37474F"/>
<path d="M223.79 346.412C219.054 342.482 213.967 338.957 209.001 335.322C204.035 331.688 198.97 327.933 193.928 324.288L178.898 313.46C174.052 309.957 169.217 306.387 164.098 303.288C161.293 301.585 158.411 300.013 155.453 298.583C152.584 297.121 149.598 295.901 146.525 294.938C146.507 294.936 146.488 294.94 146.472 294.95C146.457 294.959 146.444 294.973 146.437 294.99C146.429 295.007 146.428 295.026 146.432 295.044C146.436 295.062 146.446 295.079 146.46 295.091C148.992 296.51 151.644 297.688 154.198 299.053C156.752 300.417 159.219 301.814 161.664 303.299C166.761 306.387 171.564 309.847 176.388 313.362C186.418 320.577 196.416 327.813 206.512 334.919C212.166 338.902 217.7 343.105 223.561 346.761C223.747 346.837 223.965 346.554 223.79 346.412Z" fill="#37474F"/>
<path d="M22.4879 176.12C22.9593 180.602 24.6662 184.864 27.4182 188.433C30.1702 192.001 33.8593 194.735 38.074 196.33C42.2888 197.925 46.8636 198.317 51.2885 197.464C55.7134 196.611 59.8144 194.546 63.1344 191.499L75.2934 193.289L69.2139 182.767C70.6099 179.342 71.2066 175.644 70.9585 171.953C70.7105 168.263 69.6243 164.678 67.7826 161.47C65.9408 158.263 63.3919 155.517 60.3297 153.443C57.2676 151.368 53.7727 150.019 50.1108 149.498C46.449 148.977 42.7166 149.298 39.1974 150.437C35.6781 151.575 32.4648 153.5 29.8016 156.067C27.1384 158.634 25.0955 161.774 23.8282 165.249C22.5608 168.724 22.1025 172.442 22.4879 176.12Z" fill="white"/>
<path d="M29.7685 156.026C32.4306 153.435 35.6374 151.47 39.1552 150.274C43.6212 148.797 48.4172 148.63 52.9749 149.795C57.5326 150.959 61.6608 153.406 64.8703 156.846C68.0798 160.285 70.2359 164.572 71.0832 169.199C71.9305 173.827 71.4335 178.6 69.6509 182.953V182.527L75.7086 193.071L76.1452 193.846L75.272 193.715L63.113 191.848L63.3968 191.761C60.0222 194.815 55.8655 196.87 51.3906 197.699C50.2779 197.908 49.1498 198.025 48.0179 198.048C46.8936 198.108 45.7664 198.086 44.6453 197.983C42.3999 197.772 40.1953 197.247 38.0965 196.422C35.993 195.616 34.0156 194.513 32.2243 193.147C31.3273 192.471 30.4709 191.742 29.6594 190.964C28.8799 190.163 28.1508 189.313 27.4764 188.421C23.8327 183.666 22.061 177.738 22.4976 171.763C22.9342 165.787 25.5486 160.18 29.8449 156.005L29.7685 156.026ZM27.4764 188.389C28.8199 190.179 30.4325 191.752 32.2571 193.049C34.0473 194.382 36.0217 195.448 38.1183 196.214C41.2503 197.398 44.6022 197.886 47.9415 197.644C49.0419 197.595 50.1367 197.46 51.2159 197.24C55.5949 196.362 59.6405 194.274 62.8947 191.215L63.0148 191.095H63.1785L75.3593 192.798L74.9227 193.442L68.7996 182.942L68.6795 182.746L68.7777 182.527C70.1241 179.165 70.7057 175.544 70.4804 171.929C70.2449 168.31 69.1926 164.791 67.4025 161.637C65.5783 158.496 63.0945 155.789 60.1224 153.702C57.1187 151.627 53.68 150.268 50.0699 149.729C46.4497 149.177 42.7515 149.453 39.2534 150.536C35.7457 151.678 32.5383 153.592 29.8668 156.136C25.5209 160.246 22.8659 165.831 22.4218 171.797C21.9776 177.763 23.7763 183.679 27.4655 188.389H27.4764Z" fill="#263238"/>
<path d="M43.0742 187.024L32.9453 176.764L36.3507 173.403L42.2665 179.395L54.5674 160.108L58.6058 162.684L43.0742 187.024Z" fill="#FFC727"/>
</svg>
