<svg width="358" height="388" viewBox="0 0 358 388" fill="none" xmlns="http://www.w3.org/2000/svg">
<path d="M36.6254 184.524L25.1158 184.761L19.2733 184.866C17.317 184.866 15.3519 184.866 13.3957 184.91H13.0097V184.524L12.957 174.707V174.26H13.3957L25.0106 174.312C28.888 174.312 32.7567 174.409 36.6254 174.453H36.8711V174.69C36.8711 176.348 36.7921 178.006 36.757 179.646L36.6254 184.524ZM36.6254 184.524L36.5026 179.558C36.5026 177.927 36.4061 176.313 36.3886 174.707L36.6254 174.944C32.7567 174.988 28.888 175.084 25.0106 175.084L13.3957 175.146L13.8343 174.707V184.524L13.4395 184.129C15.3519 184.129 17.2644 184.129 19.1856 184.129L24.9579 184.234L36.6254 184.524Z" fill="#EBEBEB"/>
<path d="M23.6684 196.902L12.1588 197.139L6.31626 197.244C4.35997 197.244 2.39491 197.244 0.438629 197.288H0.0526367V196.902L0 187.085V186.664H0.438629L12.0535 186.717C15.9222 186.717 19.7997 186.813 23.6684 186.857H23.914V187.094C23.914 188.752 23.8439 190.41 23.8 192.05L23.6684 196.902ZM23.6684 196.902L23.5456 191.928C23.5017 190.296 23.4491 188.682 23.4316 187.076L23.6684 187.313C19.7997 187.357 15.9222 187.454 12.0535 187.454L0.438629 187.541L0.877258 187.111L0.833396 196.928L0.438629 196.533C2.35105 196.533 4.26347 196.533 6.18467 196.577L11.957 196.682L23.6684 196.902Z" fill="#EBEBEB"/>
<path d="M278.741 290.979L267.231 291.216L261.389 291.321C259.432 291.321 257.467 291.321 255.511 291.365H255.125V290.979L255.072 281.162V280.715H255.511L267.126 280.767C271.003 280.767 274.872 280.864 278.741 280.908H278.986V281.145C278.986 282.803 278.907 284.461 278.863 286.101L278.741 290.979ZM278.741 290.979L278.618 286.013C278.618 284.382 278.521 282.768 278.504 281.162L278.741 281.399C274.872 281.443 271.003 281.539 267.126 281.539L255.511 281.601L255.95 281.162L255.906 290.979L255.511 290.584C257.423 290.584 259.336 290.584 261.257 290.628L267.029 290.733L278.741 290.979Z" fill="#EBEBEB"/>
<path d="M265.783 303.339L254.273 303.576L248.422 303.681C246.474 303.681 244.509 303.681 242.553 303.681H242.167V303.339L242.123 293.523V293.075H242.562L254.177 293.128C258.045 293.128 261.923 293.224 265.791 293.268H266.037V293.505C266.037 295.163 265.967 296.821 265.923 298.462L265.783 303.339ZM265.783 303.339L265.66 298.374C265.616 296.742 265.563 295.128 265.546 293.523L265.783 293.759C261.914 293.759 258.037 293.9 254.168 293.9L242.553 293.961L242.992 293.523L242.948 303.339L242.553 302.944C244.465 302.944 246.378 302.944 248.299 302.988L254.063 303.093L265.783 303.339Z" fill="#EBEBEB"/>
<path d="M357.764 196.902L346.246 197.139L340.403 197.244C338.456 197.244 336.491 197.244 334.534 197.288H334.14V196.902L334.096 187.085V186.664H334.534L346.149 186.717C350.018 186.717 353.895 186.813 357.764 186.857H358.001V187.094C358.001 188.752 357.931 190.41 357.887 192.05L357.764 196.902ZM357.764 196.902L357.641 191.936C357.641 190.305 357.536 188.691 357.527 187.085L357.764 187.322C353.895 187.366 350.018 187.462 346.149 187.462L334.534 187.515L334.973 187.085L334.92 196.902L334.534 196.507C336.447 196.507 338.359 196.507 340.272 196.551L346.044 196.656L357.764 196.902Z" fill="#EBEBEB"/>
<path d="M344.806 22.7923L333.288 23.0379L327.445 23.1344C325.498 23.1344 323.533 23.1344 321.576 23.187H321.217V22.7923V12.9757V12.5371H321.664L333.279 12.5897C337.148 12.5897 341.016 12.695 344.894 12.7389H345.131V12.967C345.131 14.6338 345.052 16.2918 345.017 17.9235L344.806 22.7923ZM344.806 22.7923L344.683 17.8357C344.64 16.1953 344.578 14.5811 344.561 12.9757L344.806 13.2126C340.929 13.2126 337.06 13.353 333.191 13.3617L321.576 13.4144L322.015 12.9757L321.962 22.7923L321.576 22.3975C323.489 22.3975 325.393 22.3975 327.314 22.4501L333.086 22.5466L344.806 22.7923Z" fill="#EBEBEB"/>
<path d="M357.764 35.1702L346.246 35.4158L340.403 35.5123C338.456 35.5123 336.491 35.5123 334.534 35.5649H334.14V35.1702L334.096 25.3537V24.915H334.534L346.149 24.9677C350.018 24.9677 353.895 25.0729 357.764 25.1168H358.001V25.3537C358.001 27.0205 357.931 28.6785 357.887 30.3102L357.764 35.1702ZM357.764 35.1702L357.641 30.2137C357.641 28.5732 357.536 26.959 357.527 25.3537L357.764 25.5905C353.895 25.5905 350.018 25.7309 346.149 25.7397L334.534 25.7923L334.973 25.3537L334.92 35.1702L334.534 34.7754C336.447 34.7754 338.359 34.7754 340.272 34.828L346.044 34.9245L357.764 35.1702Z" fill="#EBEBEB"/>
<path d="M36.6254 22.7922L25.1158 23.0379L19.2733 23.1344C17.317 23.1344 15.3519 23.1344 13.3957 23.187H13.0097V22.7922L12.957 12.9669V12.5283H13.3957L25.0106 12.581C28.888 12.581 32.7567 12.6862 36.6254 12.7301H36.8711V12.9669C36.8711 14.6337 36.7921 16.2918 36.757 17.9235L36.6254 22.7922ZM36.6254 22.7922L36.5026 17.8357C36.5026 16.1953 36.4061 14.5811 36.3886 12.9757L36.6254 13.2126C32.7567 13.2126 28.888 13.3529 25.0106 13.3617L13.3957 13.4143L13.8343 12.9757V22.7922L13.4395 22.3975C15.3519 22.3975 17.2644 22.3975 19.1856 22.4501L24.9579 22.5466L36.6254 22.7922Z" fill="#EBEBEB"/>
<path d="M170.617 130.747L159.107 130.984L153.265 131.089C151.308 131.089 149.343 131.089 147.387 131.089H147.001V130.703L146.957 120.887V120.439H147.396L159.011 120.492C162.879 120.492 166.757 120.589 170.625 120.632H170.871V120.869C170.871 122.527 170.801 124.185 170.757 125.826L170.617 130.747ZM170.617 130.747L170.494 125.782C170.45 124.15 170.397 122.536 170.38 120.931L170.617 121.168C166.748 121.168 162.87 121.308 159.002 121.308L147.387 121.369L147.826 120.931V130.747L147.431 130.352C149.343 130.352 151.256 130.352 153.177 130.405L158.923 130.519L170.617 130.747Z" fill="#EBEBEB"/>
<path d="M47.8883 32.8633H1.95508V88.5779H47.8883V32.8633Z" fill="#EBEBEB"/>
<path d="M42.6434 37.9424H7.21094V83.4896H42.6434V37.9424Z" fill="white"/>
<path d="M8.597 37.9424H7.21094V83.4896H8.597V37.9424Z" fill="#DBDBDB"/>
<path d="M49.2747 32.8633H47.8887V88.5779H49.2747V32.8633Z" fill="#DBDBDB"/>
<path d="M27.4316 44.2236H19.0801V69.1202H27.4316V44.2236Z" fill="#DBDBDB"/>
<path d="M38.1508 73.8045H15V60.7334H38.1508V73.8045ZM15.8773 72.9273H37.2736V61.6107H15.8773V72.9273Z" fill="#EBEBEB"/>
<path d="M47.8883 104.202H1.95508V159.916H47.8883V104.202Z" fill="#EBEBEB"/>
<path d="M42.6434 109.29H7.21094V154.837H42.6434V109.29Z" fill="white"/>
<path d="M8.597 109.29H7.21094V154.837H8.597V109.29Z" fill="#DBDBDB"/>
<path d="M49.2747 104.202H47.8887V159.916H49.2747V104.202Z" fill="#DBDBDB"/>
<path d="M28.6506 121.062H21.4922V139.16H28.6506V121.062Z" fill="#EBEBEB"/>
<path d="M36.6243 144.977H16.5176V131.625H36.6243V144.977ZM17.3948 144.1H35.7471V132.502H17.3948V144.1Z" fill="#DBDBDB"/>
<path d="M199.426 300.181H353.586L356.797 236.931H196.215L199.426 300.181Z" fill="#EBEBEB"/>
<path d="M346.279 265.88H281.827L280.625 243.949H347.691L346.279 265.88ZM282.564 265.108H345.551L346.867 244.703H281.441L282.564 265.108Z" fill="#DBDBDB"/>
<path d="M345.095 291.145H284.371L283.389 271.328H346.349L345.095 291.145ZM285.091 290.373H344.358L345.507 272.1H284.187L285.091 290.373Z" fill="#DBDBDB"/>
<path d="M320.262 257.283H309.436L308.752 252.02H320.946L320.262 257.283ZM310.12 256.502H319.577L320.06 252.765H309.638L310.12 256.502Z" fill="#DBDBDB"/>
<path d="M320.262 283.882H309.436L308.752 278.618H320.946L320.262 283.882ZM310.12 283.11H319.577L320.06 279.364H309.638L310.12 283.11Z" fill="#DBDBDB"/>
<path d="M270.466 265.88H206.014L204.812 243.949H271.879L270.466 265.88ZM206.751 265.108H269.738L271.054 244.703H205.628L206.751 265.108Z" fill="#DBDBDB"/>
<path d="M269.284 291.145H208.543L207.561 271.328H270.521L269.284 291.145ZM209.289 290.373H268.583L269.723 272.1H208.403L209.289 290.373Z" fill="#DBDBDB"/>
<path d="M244.447 257.283H233.622L232.938 252.02H245.131L244.447 257.283ZM234.306 256.502H243.763L244.245 252.765H233.824L234.306 256.502Z" fill="#DBDBDB"/>
<path d="M244.447 283.882H233.622L232.938 278.618H245.131L244.447 283.882ZM234.306 283.11H243.763L244.245 279.364H233.824L234.306 283.11Z" fill="#DBDBDB"/>
<path d="M213.254 300.181L212.28 307.076L210.333 320.92H206.525V300.181H213.254Z" fill="#EBEBEB"/>
<path d="M213.254 300.181L212.28 307.076H206.525V300.181H213.254Z" fill="#DBDBDB"/>
<path d="M339.762 300.181L340.735 307.076L342.683 320.92H346.49V300.181H339.762Z" fill="#EBEBEB"/>
<path d="M339.762 300.181L340.735 307.076H346.49V300.181H339.762Z" fill="#DBDBDB"/>
<path d="M179.101 387.801C268.573 387.801 341.104 377.684 341.104 365.203C341.104 352.723 268.573 342.605 179.101 342.605C89.629 342.605 17.0977 352.723 17.0977 365.203C17.0977 377.684 89.629 387.801 179.101 387.801Z" fill="#EBEBEB"/>
<path d="M347.059 103.333L329.558 22.5466L313.381 103.333L312.609 103.219L329.532 18.7393L347.831 103.21L347.059 103.333Z" fill="#DBDBDB"/>
<path d="M342.384 184.041L329.742 137.643L318.057 184.032L317.303 183.839L329.716 134.563L343.129 183.83L342.384 184.041Z" fill="#DBDBDB"/>
<path d="M331.146 20.204C331.146 20.5216 331.052 20.8319 330.876 21.0959C330.699 21.3599 330.449 21.5657 330.155 21.6872C329.862 21.8087 329.539 21.8405 329.228 21.7786C328.916 21.7166 328.63 21.5637 328.406 21.3392C328.181 21.1147 328.028 20.8286 327.966 20.5172C327.904 20.2058 327.936 19.883 328.058 19.5897C328.179 19.2963 328.385 19.0456 328.649 18.8692C328.913 18.6928 329.223 18.5987 329.541 18.5987C329.752 18.5975 329.961 18.6382 330.157 18.7185C330.352 18.7988 330.529 18.917 330.679 19.0663C330.828 19.2156 330.946 19.393 331.026 19.5883C331.107 19.7836 331.147 19.9929 331.146 20.204Z" fill="#A6A6A6"/>
<path d="M346.822 189.208L346.243 196.778L344.874 214.797H315.846L314.477 196.778L313.898 189.208H346.822Z" fill="#FFC727"/>
<path opacity="0.1" d="M346.822 189.208L346.243 196.778H314.477L313.898 189.208H346.822Z" fill="black"/>
<path d="M348.806 186.787H311.908V192.664H348.806V186.787Z" fill="#FFC727"/>
<path d="M349.815 185.567C349.799 185.805 349.735 186.037 349.626 186.249C349.517 186.462 349.366 186.649 349.182 186.801C348.998 186.953 348.785 187.066 348.556 187.133C348.327 187.2 348.087 187.219 347.85 187.19C347.606 187.501 347.271 187.727 346.892 187.837C346.513 187.948 346.108 187.936 345.736 187.804C345.556 188.206 345.256 188.542 344.878 188.767C344.499 188.991 344.061 189.093 343.622 189.058C343.778 189.575 343.735 190.13 343.503 190.617C343.271 191.104 342.866 191.486 342.367 191.69C342.28 191.983 342.094 192.237 341.842 192.409C341.59 192.582 341.286 192.663 340.981 192.638C340.64 192.589 340.315 192.461 340.032 192.264C339.749 192.068 339.515 191.808 339.35 191.506C339.208 191.693 339.028 191.848 338.823 191.961C338.617 192.075 338.39 192.144 338.157 192.165C337.923 192.185 337.688 192.157 337.465 192.081C337.243 192.006 337.039 191.884 336.867 191.725C336.676 191.532 336.545 191.287 336.492 191.02C336.439 190.753 336.466 190.477 336.569 190.225C336.455 190.164 336.346 190.094 336.244 190.015C336.022 189.785 335.854 189.508 335.756 189.204C335.657 188.899 335.629 188.577 335.674 188.26C335.189 188.453 334.649 188.453 334.165 188.26C334.106 188.498 333.973 188.711 333.786 188.869C333.598 189.026 333.365 189.12 333.121 189.137C333.214 189.452 333.23 189.783 333.169 190.105C333.108 190.427 332.971 190.73 332.77 190.988C332.537 191.251 332.244 191.454 331.915 191.577C331.586 191.701 331.232 191.743 330.884 191.699C331.095 192.69 331.138 193.822 330.235 194.48C330.024 194.635 329.774 194.731 329.513 194.755C329.252 194.78 328.989 194.733 328.752 194.62C328.704 194.874 328.605 195.114 328.459 195.327C328.314 195.54 328.127 195.721 327.909 195.859C327.691 195.996 327.447 196.087 327.192 196.126C326.937 196.165 326.677 196.151 326.428 196.085C326.576 196.677 326.498 197.303 326.208 197.84C326.076 198.059 325.894 198.246 325.678 198.384C325.462 198.522 325.217 198.609 324.963 198.638C324.963 199.603 324.541 200.665 323.41 200.647C323.243 200.641 323.079 200.598 322.931 200.521C322.782 200.445 322.652 200.337 322.55 200.204C322.448 200.072 322.376 199.919 322.34 199.756C322.304 199.593 322.303 199.424 322.34 199.261C322.092 199.207 321.864 199.089 321.677 198.917C321.491 198.746 321.353 198.529 321.278 198.287C321.203 198.045 321.194 197.788 321.251 197.541C321.308 197.295 321.429 197.068 321.603 196.884C321.355 196.69 321.154 196.442 321.016 196.16C320.878 195.877 320.807 195.566 320.807 195.252C320.807 194.937 320.878 194.627 321.016 194.344C321.154 194.061 321.355 193.814 321.603 193.62C321.468 193.489 321.363 193.331 321.292 193.156C321.222 192.982 321.189 192.795 321.195 192.607C321.2 192.419 321.245 192.234 321.326 192.064C321.407 191.894 321.522 191.743 321.664 191.62C321.449 191.444 321.278 191.221 321.162 190.969C321.047 190.717 320.99 190.441 320.997 190.164C321.025 189.829 321.136 189.505 321.32 189.224C321.503 188.942 321.754 188.71 322.05 188.55C321.934 188.506 321.829 188.438 321.741 188.35C321.653 188.262 321.585 188.157 321.541 188.041C321.536 187.988 321.536 187.935 321.541 187.883C321.372 187.956 321.19 187.994 321.006 187.994C320.822 187.994 320.64 187.956 320.471 187.883C320.246 187.778 320.06 187.606 319.936 187.392C319.659 187.655 319.319 187.841 318.948 187.933C318.578 188.026 318.19 188.02 317.822 187.918C317.703 188.16 317.531 188.371 317.318 188.536C317.105 188.7 316.857 188.814 316.594 188.867C316.33 188.92 316.058 188.912 315.797 188.844C315.537 188.775 315.296 188.647 315.093 188.471C314.427 189.067 313.523 189.646 312.655 189.102C312.492 188.997 312.36 188.851 312.272 188.678C312.184 188.506 312.144 188.313 312.155 188.12C311.929 188.125 311.707 188.067 311.513 187.953C311.319 187.838 311.162 187.671 311.058 187.471C310.943 187.238 310.91 186.973 310.966 186.719C311.022 186.466 311.163 186.239 311.365 186.076C311.154 185.924 311.007 185.699 310.953 185.444C310.932 185.268 310.948 185.09 311 184.921C311.053 184.752 311.14 184.596 311.257 184.463C311.373 184.329 311.517 184.222 311.677 184.148C311.838 184.074 312.013 184.034 312.19 184.032C312.085 183.735 312.063 183.415 312.125 183.106C312.186 182.798 312.33 182.511 312.541 182.277C312.809 182.008 313.134 181.802 313.492 181.675C313.851 181.547 314.233 181.501 314.611 181.54C314.534 181.087 314.598 180.621 314.794 180.206C314.99 179.79 315.309 179.444 315.707 179.216C316.086 179.031 316.517 178.983 316.926 179.08C317.336 179.178 317.699 179.415 317.953 179.751C318.202 179.376 318.534 179.065 318.923 178.84C319.313 178.615 319.749 178.484 320.197 178.456C320.646 178.428 321.095 178.504 321.509 178.678C321.923 178.853 322.292 179.121 322.585 179.461C322.739 179.134 323.009 178.875 323.344 178.737C323.678 178.599 324.052 178.592 324.392 178.716C324.836 178.924 325.204 179.264 325.447 179.69C325.69 180.115 325.797 180.605 325.752 181.093C326.21 180.865 326.721 180.766 327.231 180.807C327.741 180.847 328.23 181.025 328.647 181.321C329.009 181.605 329.298 181.971 329.49 182.389C329.683 182.807 329.772 183.265 329.752 183.725C330.172 183.49 330.651 183.381 331.131 183.409C331.611 183.437 332.073 183.601 332.463 183.883C333.154 182.849 334.17 182.074 335.349 181.681C335.753 181.581 336.175 181.574 336.582 181.661C336.989 181.747 337.372 181.925 337.7 182.181C337.873 181.576 338.22 181.035 338.698 180.625C339.175 180.216 339.763 179.955 340.387 179.877C341.011 179.798 341.645 179.905 342.209 180.184C342.773 180.462 343.243 180.9 343.56 181.444C343.888 181.171 344.285 180.997 344.708 180.941C345.13 180.885 345.56 180.95 345.947 181.128C346.469 181.414 346.925 181.806 347.286 182.279C347.647 182.752 347.905 183.295 348.043 183.874C348.501 183.869 348.943 184.043 349.274 184.36C349.605 184.676 349.799 185.109 349.815 185.567Z" fill="#455A64"/>
<path d="M352.358 105.482L351.586 115.606L349.761 139.678H310.96L309.135 115.606L308.363 105.482H352.358Z" fill="#FFC727"/>
<path opacity="0.1" d="M352.358 105.482L351.586 115.606H309.135L308.363 105.482H352.358Z" fill="black"/>
<path d="M355.016 102.245H305.705V110.097H355.016V102.245Z" fill="#FFC727"/>
<path d="M353.893 104.201C354.21 104.563 354.431 104.998 354.535 105.467C354.64 105.936 354.624 106.424 354.49 106.886C354.191 107.512 353.772 108.074 353.255 108.537C352.739 109.001 352.136 109.358 351.481 109.588C351.75 109.96 351.936 110.385 352.027 110.835C352.119 111.284 352.113 111.749 352.011 112.196C351.909 112.643 351.713 113.064 351.435 113.43C351.158 113.795 350.805 114.097 350.402 114.316C351.577 115.693 352.06 117.255 350.542 118.273C350.821 118.668 351.015 119.116 351.112 119.589C351.209 120.063 351.207 120.551 351.107 121.024C351.006 121.497 350.809 121.944 350.528 122.337C350.246 122.73 349.887 123.06 349.472 123.308C349.805 124.396 348.753 127.642 346.524 127.633C346.114 127.633 345.71 127.525 345.354 127.32C344.998 127.115 344.702 126.82 344.495 126.465C344.288 126.11 344.178 125.707 344.175 125.296C344.173 124.886 344.278 124.481 344.48 124.124C344.102 123.918 343.777 123.628 343.531 123.274C343.285 122.921 343.125 122.515 343.064 122.089C343.002 121.663 343.041 121.229 343.178 120.82C343.314 120.412 343.544 120.041 343.849 119.738C343.849 119.738 342.471 120.036 341.814 119.334C341.636 119.06 341.532 118.745 341.512 118.419C341.492 118.093 341.557 117.768 341.699 117.474C341.426 117.133 341.226 116.739 341.114 116.317C341.001 115.894 340.978 115.453 341.045 115.021C341.113 114.589 341.27 114.176 341.507 113.809C341.743 113.441 342.054 113.127 342.419 112.886C342.147 112.64 341.931 112.339 341.782 112.003C341.634 111.668 341.557 111.305 341.557 110.939C341.557 110.572 341.634 110.209 341.782 109.874C341.931 109.538 342.147 109.238 342.419 108.991C341.794 108.709 341.262 108.256 340.884 107.684C339.761 108.219 339.085 107.745 338.462 106.684C338.118 107.07 337.666 107.346 337.166 107.477C336.665 107.608 336.136 107.589 335.646 107.421C335.518 107.876 335.287 108.296 334.971 108.649C334.655 109.001 334.263 109.276 333.824 109.453C333.386 109.63 332.912 109.704 332.44 109.67C331.968 109.635 331.511 109.493 331.102 109.254C331.042 110.093 330.737 110.895 330.225 111.562C330.067 111.772 329.883 111.93 329.707 112.123C329.513 112.375 329.348 112.649 329.216 112.939C328.957 113.396 328.608 113.796 328.19 114.114C327.823 114.412 327.361 114.565 326.889 114.546C326.417 114.526 325.969 114.335 325.628 114.009C325.452 113.803 325.337 113.551 325.296 113.283C325.256 113.015 325.292 112.74 325.4 112.491C324.905 112.324 324.496 111.966 324.264 111.497C324.032 111.028 323.996 110.487 324.163 109.991C323.677 110.027 323.191 109.915 322.769 109.669C322.348 109.423 322.011 109.055 321.803 108.614C321.573 108.911 321.28 109.152 320.944 109.32C320.609 109.489 320.24 109.58 319.865 109.588C320.105 110.279 320.07 111.035 319.768 111.702C319.466 112.368 318.92 112.892 318.242 113.167C318.456 113.518 318.593 113.91 318.646 114.318C318.698 114.726 318.664 115.141 318.546 115.535C318.427 115.928 318.227 116.293 317.959 116.604C317.69 116.916 317.359 117.168 316.987 117.343C317.25 117.791 317.333 118.322 317.221 118.83C317.109 119.337 316.809 119.784 316.382 120.08C316.549 120.452 316.628 120.859 316.611 121.267C316.594 121.675 316.483 122.073 316.285 122.431C316.116 122.694 315.877 122.905 315.596 123.041C315.314 123.177 315 123.233 314.689 123.203C314.497 123.154 314.319 123.06 314.17 122.93C314.021 122.8 313.905 122.636 313.83 122.453C313.756 122.269 313.726 122.071 313.742 121.873C313.759 121.676 313.822 121.485 313.925 121.317C313.419 121.134 312.967 120.826 312.612 120.421C312.257 120.016 312.011 119.527 311.897 119.001C311.783 118.475 311.804 117.928 311.96 117.412C312.115 116.896 312.399 116.429 312.785 116.053C312.389 115.945 312.023 115.745 311.718 115.47C311.412 115.195 311.175 114.853 311.026 114.47C310.877 114.087 310.819 113.675 310.858 113.266C310.897 112.856 311.031 112.462 311.25 112.114C310.814 112.027 310.409 111.827 310.073 111.536C309.737 111.245 309.482 110.872 309.334 110.453C309.185 110.034 309.148 109.584 309.226 109.146C309.303 108.709 309.493 108.298 309.776 107.956C309.517 107.995 309.253 107.968 309.008 107.877C308.762 107.787 308.544 107.636 308.372 107.438C308.18 107.187 308.078 106.878 308.083 106.561C307.668 106.653 307.235 106.61 306.845 106.44C306.456 106.27 306.131 105.981 305.916 105.614C305.731 105.241 305.669 104.819 305.74 104.409C305.811 103.998 306.011 103.622 306.311 103.333C306.04 103.245 305.796 103.089 305.603 102.88C305.409 102.671 305.273 102.416 305.206 102.14C305.133 101.802 305.177 101.45 305.328 101.14C305.069 101.194 304.801 101.194 304.541 101.14C304.282 101.086 304.036 100.979 303.819 100.826C303.603 100.673 303.42 100.477 303.283 100.25C303.146 100.023 303.057 99.7708 303.021 99.508C302.987 99.1571 303.072 98.8049 303.263 98.5086C303.454 98.2124 303.74 97.9895 304.074 97.8763C303.879 97.4886 303.826 97.0445 303.925 96.6218C304.214 95.42 305.6 95.0515 306.697 94.9199C306.559 94.5163 306.528 94.0839 306.608 93.6649C306.687 93.2458 306.874 92.8545 307.149 92.5292C307.425 92.2039 307.781 91.9557 308.181 91.8089C308.582 91.6621 309.013 91.6217 309.434 91.6916C309.396 91.2275 309.486 90.7617 309.695 90.3454C309.904 89.9291 310.223 89.5784 310.618 89.3318C311.03 89.1083 311.497 89.0084 311.964 89.0442C312.431 89.08 312.877 89.25 313.25 89.5336H313.32C314.018 89.6429 314.655 89.995 315.119 90.5278C315.582 91.0605 315.843 91.7398 315.855 92.4461C316.305 92.2019 316.809 92.074 317.32 92.074C317.832 92.074 318.336 92.2019 318.785 92.4461C319.319 92.7668 319.777 93.1997 320.127 93.7147C320.476 94.2296 320.71 94.8145 320.812 95.4288C321.192 95.0295 321.661 94.7256 322.181 94.5415C322.701 94.3574 323.257 94.2985 323.804 94.3694C324.351 94.4403 324.873 94.6391 325.329 94.9497C325.784 95.2602 326.16 95.6738 326.426 96.1569C326.843 95.7084 327.38 95.3888 327.973 95.236C328.566 95.0832 329.19 95.1036 329.771 95.2947C330.353 95.4858 330.868 95.8396 331.254 96.3143C331.641 96.789 331.884 97.3645 331.953 97.9728C332.977 97.126 334.196 96.5484 335.5 96.2926C336.804 96.0367 338.151 96.1107 339.419 96.5078C339.604 96.0091 339.901 95.5591 340.286 95.192C340.672 94.8249 341.135 94.5503 341.643 94.3888C342.15 94.2274 342.687 94.1834 343.213 94.2603C343.74 94.3371 344.242 94.5327 344.682 94.8322C344.975 94.1334 345.486 93.548 346.139 93.1638C346.792 92.7795 347.552 92.617 348.305 92.7005C350.147 92.8847 351.498 94.3673 352.253 95.9727C352.808 95.9912 353.351 96.1412 353.836 96.4103C354.322 96.6795 354.737 97.0601 355.047 97.5208C355.357 97.9815 355.553 98.5093 355.62 99.0606C355.686 99.612 355.62 100.171 355.429 100.692C355.577 101.021 355.655 101.378 355.657 101.739C355.66 102.1 355.586 102.457 355.441 102.788C355.296 103.119 355.084 103.416 354.817 103.659C354.551 103.902 354.236 104.087 353.893 104.201Z" fill="#455A64"/>
<path d="M1.40234 321.007L45.8267 320.796L90.251 320.717L179.1 320.568L267.948 320.717L312.373 320.788L356.797 321.007L312.373 321.218L267.948 321.296L179.1 321.446L90.251 321.296L45.8267 321.218L1.40234 321.007Z" fill="#263238"/>
<path d="M310.331 18.5986H47.873V361.019H310.331V18.5986Z" fill="white"/>
<path d="M310.33 361.027L47.8717 361.115H47.7752V361.019L47.6523 18.5987V18.3794H47.8717L310.33 18.4759H310.452V18.5987L310.33 361.027ZM310.33 361.027L310.207 18.5987L310.33 18.7215L47.8717 18.818L48.091 18.5987L47.9682 361.019L47.8717 360.931L310.33 361.027Z" fill="#263238"/>
<path d="M310.331 352.852H47.873V361.019H310.331V352.852Z" fill="#FFC727"/>
<path d="M76.2514 26.7661H57.25V194.586H76.2514V26.7661Z" fill="#EBEBEB"/>
<path d="M300.96 185.102H281.959V352.921H300.96V185.102Z" fill="#EBEBEB"/>
<path d="M310.331 18.5986H47.873V26.7659H310.331V18.5986Z" fill="#455A64"/>
<path d="M226.805 81.1738H131.395V176.584H226.805V81.1738Z" fill="#C7C7C7"/>
<path d="M291.661 40.2231H66.5391V66.6549H291.661V40.2231Z" fill="#FFC727"/>
<path d="M110.446 81.1738H66.5391V84.1477H110.446V81.1738Z" fill="#455A64"/>
<path d="M110.446 193.103H66.5391V196.076H110.446V193.103Z" fill="#455A64"/>
<path d="M110.446 311.927H66.5391V314.901H110.446V311.927Z" fill="#455A64"/>
<path d="M110.446 263.985H66.5391V266.959H110.446V263.985Z" fill="#455A64"/>
<path d="M279.204 81.1733H235.297V84.1472H279.204V81.1733Z" fill="#455A64"/>
<path d="M66.5391 91.3588C71.2324 91.2272 75.9345 91.1658 80.6278 91.1131L94.7166 91.0342L108.805 91.1131C113.507 91.1658 118.201 91.2272 122.903 91.3588C118.201 91.4991 113.507 91.5605 108.805 91.6132L94.7166 91.6921L80.6278 91.6132C75.9345 91.5605 71.1973 91.4991 66.5391 91.3588Z" fill="#A6A6A6"/>
<path d="M66.5391 95.4291C71.2324 95.2975 75.9345 95.2273 80.6278 95.1747L94.7166 95.1045L108.805 95.1747C113.507 95.2273 118.201 95.2887 122.903 95.4291C118.201 95.5694 113.507 95.6308 108.805 95.6835L94.7166 95.7537L80.6278 95.6835C75.9345 95.6221 71.1973 95.5519 66.5391 95.4291Z" fill="#A6A6A6"/>
<path d="M66.5391 99.4818C71.2324 99.3414 75.9345 99.28 80.6278 99.2274L94.7166 99.1484L108.805 99.2274C113.507 99.28 118.201 99.3414 122.903 99.4818C118.201 99.6134 113.507 99.6748 108.805 99.7274L94.7166 99.8064L80.6278 99.7274C75.9345 99.6748 71.1973 99.6134 66.5391 99.4818Z" fill="#A6A6A6"/>
<path d="M66.5391 103.535C71.2324 103.403 75.9345 103.333 80.6278 103.281L94.7166 103.21L108.805 103.281C113.507 103.333 118.201 103.403 122.903 103.535C118.201 103.675 113.507 103.737 108.805 103.789L94.7166 103.868L80.6278 103.789C75.9345 103.737 71.1973 103.675 66.5391 103.535Z" fill="#A6A6A6"/>
<path d="M66.5391 107.597C68.8901 107.456 71.2324 107.395 73.5571 107.342C75.8819 107.29 78.2505 107.29 80.5752 107.263C82.8999 107.237 85.2685 107.263 87.5932 107.342C89.918 107.421 92.2953 107.456 94.6113 107.597C92.269 107.728 89.918 107.798 87.5932 107.851C85.2685 107.904 82.8999 107.895 80.5752 107.921C78.2505 107.948 75.8819 107.921 73.5571 107.842C71.2324 107.763 68.8901 107.711 66.5391 107.597Z" fill="#A6A6A6"/>
<path d="M66.5391 115.711C71.2324 115.571 75.9345 115.51 80.6278 115.457L94.7166 115.378L108.805 115.457C113.507 115.51 118.201 115.571 122.903 115.711C118.201 115.843 113.507 115.913 108.805 115.966L94.7166 116.036L80.6278 115.966C75.9345 115.913 71.1973 115.843 66.5391 115.711Z" fill="#A6A6A6"/>
<path d="M66.5391 119.764C71.2324 119.632 75.9345 119.571 80.6278 119.518L94.7166 119.439L108.805 119.518C113.507 119.571 118.201 119.632 122.903 119.764C118.201 119.904 113.507 119.966 108.805 120.018L94.7166 120.097L80.6278 119.992C75.9345 119.992 71.1973 119.904 66.5391 119.764Z" fill="#A6A6A6"/>
<path d="M66.5391 123.826C71.2324 123.694 75.9345 123.624 80.6278 123.571L94.7166 123.501L108.805 123.571C113.507 123.624 118.201 123.685 122.903 123.826C118.201 123.966 113.507 124.027 108.805 124.08L94.7166 124.15L80.6278 124.08C75.9345 124.027 71.1973 123.957 66.5391 123.826Z" fill="#A6A6A6"/>
<path d="M66.5391 127.888C71.2324 127.747 75.9345 127.686 80.6278 127.633L94.7166 127.554L108.805 127.633C113.507 127.686 118.201 127.747 122.903 127.888C118.201 128.019 113.507 128.081 108.805 128.133L94.7166 128.212L80.6278 128.133C75.9345 128.081 71.1973 128.019 66.5391 127.888Z" fill="#A6A6A6"/>
<path d="M66.5391 131.941C68.8901 131.809 71.2324 131.739 73.5571 131.686C75.8819 131.634 78.2505 131.642 80.5752 131.616C82.8999 131.59 85.2685 131.616 87.5932 131.686C89.918 131.756 92.2953 131.809 94.6113 131.941C92.269 132.081 89.918 132.142 87.5932 132.195C85.2685 132.248 82.8999 132.248 80.5752 132.274C78.2505 132.3 75.8819 132.274 73.5571 132.195C71.2324 132.116 68.8901 132.081 66.5391 131.941Z" fill="#A6A6A6"/>
<path d="M66.5391 140.055C71.2324 139.923 75.9345 139.862 80.6278 139.809L94.7166 139.73L108.805 139.801C113.507 139.853 118.201 139.923 122.903 140.055C118.201 140.195 113.507 140.257 108.805 140.309L94.7166 140.388L80.6278 140.309C75.9345 140.257 71.1973 140.169 66.5391 140.055Z" fill="#A6A6A6"/>
<path d="M66.5391 144.117C71.2324 143.976 75.9345 143.915 80.6278 143.862L94.7166 143.783L108.805 143.862C113.507 143.915 118.201 143.976 122.903 144.117C118.201 144.248 113.507 144.318 108.805 144.371L94.7166 144.441L80.6278 144.371C75.9345 144.318 71.1973 144.248 66.5391 144.117Z" fill="#A6A6A6"/>
<path d="M66.5391 148.17C71.2324 148.038 75.9345 147.977 80.6278 147.924L94.7166 147.845L108.805 147.924C113.507 147.977 118.201 148.038 122.903 148.17C118.201 148.31 113.507 148.372 108.805 148.424L94.7166 148.503L80.6278 148.424C75.9345 148.372 71.1973 148.31 66.5391 148.17Z" fill="#A6A6A6"/>
<path d="M66.5391 152.231C68.8901 152.099 71.2324 152.029 73.5571 151.977C75.8819 151.924 78.2505 151.933 80.5752 151.906C82.8999 151.88 85.2685 151.906 87.5932 151.977C89.918 152.047 92.2953 152.091 94.6113 152.231C92.269 152.371 89.918 152.433 87.5932 152.485C85.2685 152.538 82.8999 152.529 80.5752 152.556C78.2505 152.582 75.8819 152.556 73.5571 152.485C71.2324 152.415 68.8901 152.363 66.5391 152.231Z" fill="#A6A6A6"/>
<path d="M66.5391 160.346C71.2324 160.214 75.9345 160.144 80.6278 160.092L94.7166 160.021L108.805 160.092C113.507 160.144 118.201 160.214 122.903 160.346C118.201 160.486 113.507 160.548 108.805 160.6L94.7166 160.679L80.6278 160.6C75.9345 160.548 71.1973 160.486 66.5391 160.346Z" fill="#A6A6A6"/>
<path d="M66.5391 164.408C71.2324 164.267 75.9345 164.206 80.6278 164.153L94.7166 164.074L108.805 164.153C113.507 164.206 118.201 164.267 122.903 164.408C118.201 164.539 113.507 164.601 108.805 164.662L94.7166 164.732L80.6278 164.653C75.9345 164.601 71.1973 164.539 66.5391 164.408Z" fill="#A6A6A6"/>
<path d="M66.5391 168.461C71.2324 168.329 75.9345 168.268 80.6278 168.215L94.7166 168.136L108.805 168.206C113.507 168.259 118.201 168.329 122.903 168.461C118.201 168.601 113.507 168.663 108.805 168.715L94.7166 168.794L80.6278 168.715C75.9345 168.663 71.1973 168.601 66.5391 168.461Z" fill="#A6A6A6"/>
<path d="M66.5391 172.522C71.2324 172.382 75.9345 172.321 80.6278 172.268L94.7166 172.189L108.805 172.268C113.507 172.321 118.201 172.382 122.903 172.522C118.201 172.654 113.507 172.724 108.805 172.777L94.7166 172.847L80.6278 172.777C75.9345 172.724 71.1973 172.628 66.5391 172.522Z" fill="#A6A6A6"/>
<path d="M66.5391 176.575C68.8901 176.444 71.2324 176.382 73.5571 176.33C75.8819 176.277 78.2505 176.277 80.5752 176.251C82.8999 176.224 85.2685 176.251 87.5932 176.33C89.918 176.408 92.2953 176.444 94.6113 176.575C92.269 176.716 89.918 176.777 87.5932 176.83C85.2685 176.882 82.8999 176.882 80.5752 176.909C78.2505 176.935 75.8819 176.909 73.5571 176.83C71.2324 176.751 68.8901 176.716 66.5391 176.575Z" fill="#A6A6A6"/>
<path d="M235.297 91.3588C239.999 91.2272 244.692 91.1658 249.394 91.1131L263.483 91.0342L277.572 91.1131C282.265 91.1658 286.967 91.2272 291.661 91.3588C286.967 91.4991 282.265 91.5605 277.572 91.6132L263.483 91.6921L249.394 91.6132C244.692 91.5605 239.999 91.4991 235.297 91.3588Z" fill="#A6A6A6"/>
<path d="M235.297 95.4291C239.999 95.2975 244.692 95.2273 249.394 95.1747L263.483 95.1045L277.572 95.1747C282.265 95.2273 286.967 95.2887 291.661 95.4291C286.967 95.5694 282.265 95.6308 277.572 95.6835L263.483 95.7537L249.394 95.6835C244.692 95.6221 239.999 95.5519 235.297 95.4291Z" fill="#A6A6A6"/>
<path d="M235.297 99.4818C239.999 99.3414 244.692 99.28 249.394 99.2274L263.483 99.1484L277.572 99.2274C282.265 99.28 286.967 99.3414 291.661 99.4818C286.967 99.6134 282.265 99.6748 277.572 99.7274L263.483 99.8064L249.394 99.7274C244.692 99.6748 239.999 99.6134 235.297 99.4818Z" fill="#A6A6A6"/>
<path d="M235.297 103.535C239.999 103.403 244.692 103.333 249.394 103.281L263.483 103.21L277.572 103.281C282.265 103.333 286.967 103.403 291.661 103.535C286.967 103.675 282.265 103.737 277.572 103.789L263.483 103.868L249.394 103.789C244.692 103.737 239.999 103.675 235.297 103.535Z" fill="#A6A6A6"/>
<path d="M235.297 107.597C237.648 107.456 239.999 107.395 242.315 107.342C244.631 107.29 247.008 107.29 249.333 107.263C251.658 107.237 254.026 107.263 256.351 107.342C258.676 107.421 261.044 107.456 263.369 107.597C261.018 107.728 258.667 107.798 256.351 107.851C254.035 107.904 251.649 107.895 249.333 107.921C247.017 107.948 244.631 107.921 242.315 107.842C239.999 107.763 237.648 107.711 235.297 107.597Z" fill="#A6A6A6"/>
<path d="M235.297 115.711C239.999 115.571 244.692 115.51 249.394 115.457L263.483 115.378L277.572 115.457C282.265 115.51 286.967 115.571 291.661 115.711C286.967 115.843 282.265 115.913 277.572 115.966L263.483 116.036L249.394 115.966C244.692 115.913 239.999 115.843 235.297 115.711Z" fill="#A6A6A6"/>
<path d="M235.297 119.764C239.999 119.632 244.692 119.571 249.394 119.518L263.483 119.439L277.572 119.518C282.265 119.571 286.967 119.632 291.661 119.764C286.967 119.904 282.265 119.966 277.572 120.018L263.483 120.097L249.394 119.992C244.692 119.992 239.999 119.904 235.297 119.764Z" fill="#A6A6A6"/>
<path d="M235.297 123.826C239.999 123.694 244.692 123.624 249.394 123.571L263.483 123.501L277.572 123.571C282.265 123.624 286.967 123.685 291.661 123.826C286.967 123.966 282.265 124.027 277.572 124.08L263.483 124.15L249.394 124.08C244.692 124.027 239.999 123.957 235.297 123.826Z" fill="#A6A6A6"/>
<path d="M235.297 127.888C239.999 127.747 244.692 127.686 249.394 127.633L263.483 127.554L277.572 127.633C282.265 127.686 286.967 127.747 291.661 127.888C286.967 128.019 282.265 128.081 277.572 128.133L263.483 128.212L249.394 128.133C244.692 128.081 239.999 128.019 235.297 127.888Z" fill="#A6A6A6"/>
<path d="M235.297 131.941C237.648 131.809 239.999 131.739 242.315 131.686C244.631 131.634 247.008 131.642 249.333 131.616C251.658 131.59 254.026 131.616 256.351 131.686C258.676 131.756 261.044 131.809 263.369 131.941C261.018 132.081 258.667 132.142 256.351 132.195C254.035 132.248 251.649 132.248 249.333 132.274C247.017 132.3 244.631 132.274 242.315 132.195C239.999 132.116 237.648 132.081 235.297 131.941Z" fill="#A6A6A6"/>
<path d="M235.297 140.055C239.999 139.923 244.692 139.862 249.394 139.809L263.483 139.73L277.572 139.801C282.265 139.853 286.967 139.923 291.661 140.055C286.967 140.195 282.265 140.257 277.572 140.309L263.483 140.388L249.394 140.309C244.692 140.257 239.999 140.169 235.297 140.055Z" fill="#A6A6A6"/>
<path d="M235.297 144.117C239.999 143.976 244.692 143.915 249.394 143.862L263.483 143.783L277.572 143.862C282.265 143.915 286.967 143.976 291.661 144.117C286.967 144.248 282.265 144.318 277.572 144.371L263.483 144.441L249.394 144.371C244.692 144.318 239.999 144.248 235.297 144.117Z" fill="#A6A6A6"/>
<path d="M235.297 148.17C239.999 148.038 244.692 147.977 249.394 147.924L263.483 147.845L277.572 147.924C282.265 147.977 286.967 148.038 291.661 148.17C286.967 148.31 282.265 148.372 277.572 148.424L263.483 148.503L249.394 148.424C244.692 148.372 239.999 148.31 235.297 148.17Z" fill="#A6A6A6"/>
<path d="M235.297 152.232C237.648 152.1 239.999 152.03 242.315 151.977C244.631 151.925 247.008 151.933 249.333 151.907C251.658 151.881 254.026 151.907 256.351 151.977C258.676 152.047 261.044 152.091 263.369 152.232C261.018 152.372 258.667 152.433 256.351 152.486C254.035 152.539 251.649 152.53 249.333 152.556C247.017 152.582 244.631 152.556 242.315 152.486C239.999 152.416 237.648 152.363 235.297 152.232Z" fill="#A6A6A6"/>
<path d="M235.297 160.346C239.999 160.214 244.692 160.144 249.394 160.092L263.483 160.021L277.572 160.092C282.265 160.144 286.967 160.214 291.661 160.346C286.967 160.486 282.265 160.548 277.572 160.6L263.483 160.679L249.394 160.6C244.692 160.548 239.999 160.486 235.297 160.346Z" fill="#A6A6A6"/>
<path d="M235.297 164.408C239.999 164.267 244.692 164.206 249.394 164.153L263.483 164.074L277.572 164.153C282.265 164.206 286.967 164.267 291.661 164.408C286.967 164.539 282.265 164.601 277.572 164.662L263.483 164.732L249.394 164.653C244.692 164.601 239.999 164.539 235.297 164.408Z" fill="#A6A6A6"/>
<path d="M235.297 168.461C239.999 168.329 244.692 168.268 249.394 168.215L263.483 168.136L277.572 168.206C282.265 168.259 286.967 168.329 291.661 168.461C286.967 168.601 282.265 168.663 277.572 168.715L263.483 168.794L249.394 168.715C244.692 168.663 239.999 168.601 235.297 168.461Z" fill="#A6A6A6"/>
<path d="M235.297 172.522C239.999 172.382 244.692 172.321 249.394 172.268L263.483 172.189L277.572 172.268C282.265 172.321 286.967 172.382 291.661 172.522C286.967 172.654 282.265 172.724 277.572 172.777L263.483 172.847L249.394 172.777C244.692 172.724 239.999 172.628 235.297 172.522Z" fill="#A6A6A6"/>
<path d="M235.297 176.575C237.648 176.444 239.999 176.382 242.315 176.33C244.631 176.277 247.008 176.277 249.333 176.251C251.658 176.224 254.026 176.251 256.351 176.33C258.676 176.408 261.044 176.444 263.369 176.575C261.018 176.716 258.667 176.777 256.351 176.83C254.035 176.882 251.649 176.882 249.333 176.909C247.017 176.935 244.631 176.909 242.315 176.83C239.999 176.751 237.648 176.716 235.297 176.575Z" fill="#A6A6A6"/>
<path d="M168.047 206.069H79.6367V210.174H168.047V206.069Z" fill="#EBEBEB"/>
<path d="M143.554 206.069H79.6367V210.174H143.554V206.069Z" fill="#FFC727"/>
<path d="M168.047 216.692H79.6367V220.798H168.047V216.692Z" fill="#EBEBEB"/>
<path d="M160.713 216.692H79.6367V220.798H160.713V216.692Z" fill="#FFC727"/>
<path d="M168.047 227.307H79.6367V231.413H168.047V227.307Z" fill="#EBEBEB"/>
<path d="M148.537 227.307H79.6367V231.413H148.537V227.307Z" fill="#FFC727"/>
<path d="M168.047 237.931H79.6367V242.036H168.047V237.931Z" fill="#EBEBEB"/>
<path d="M155.616 237.931H79.6367V242.036H155.616V237.931Z" fill="#FFC727"/>
<path d="M168.047 248.545H79.6367V252.651H168.047V248.545Z" fill="#EBEBEB"/>
<path d="M162.783 248.545H79.6367V252.651H162.783V248.545Z" fill="#FFC727"/>
<path d="M73.1711 204.806H66.5391V211.438H73.1711V204.806Z" fill="#FFC727"/>
<path d="M73.1711 215.429H66.5391V222.061H73.1711V215.429Z" fill="#455A64"/>
<path d="M73.1711 226.044H66.5391V232.676H73.1711V226.044Z" fill="#C7C7C7"/>
<path d="M73.1711 236.667H66.5391V243.3H73.1711V236.667Z" fill="#FFC727"/>
<path d="M73.1711 247.291H66.5391V253.923H73.1711V247.291Z" fill="#263238"/>
<path d="M248.246 193.103H191.908V196.077H248.246V193.103Z" fill="#455A64"/>
<path d="M213.322 204.639H191.908V207.613H213.322V204.639Z" fill="#C7C7C7"/>
<path d="M213.322 229.93H191.908V232.904H213.322V229.93Z" fill="#C7C7C7"/>
<path d="M213.322 255.213H191.908V258.187H213.322V255.213Z" fill="#C7C7C7"/>
<path d="M213.322 280.504H191.908V283.478H213.322V280.504Z" fill="#C7C7C7"/>
<path d="M235.166 206.13C239.859 205.99 244.553 205.928 249.255 205.876L263.344 205.797L277.432 205.876C282.134 205.928 286.828 205.99 291.521 206.13C286.828 206.262 282.134 206.332 277.432 206.385L263.344 206.455L249.281 206.385C244.553 206.332 239.859 206.262 235.166 206.13Z" fill="#A6A6A6"/>
<path d="M235.166 210.183C239.859 210.051 244.553 209.99 249.255 209.937L263.344 209.858L277.432 209.937C282.134 209.99 286.828 210.051 291.521 210.183C286.828 210.323 282.134 210.385 277.432 210.437L263.344 210.516L249.281 210.437C244.553 210.35 239.859 210.35 235.166 210.183Z" fill="#A6A6A6"/>
<path d="M235.166 214.245C239.859 214.113 244.553 214.043 249.255 213.99L263.344 213.92L277.432 213.99C282.134 214.043 286.828 214.104 291.521 214.245C286.828 214.385 282.134 214.446 277.432 214.499L263.344 214.569L249.281 214.499C244.553 214.446 239.859 214.376 235.166 214.245Z" fill="#A6A6A6"/>
<path d="M235.166 218.306C237.149 218.166 239.131 218.104 241.114 218.052C243.096 217.999 245.079 217.999 247.07 217.973C249.062 217.946 251.036 217.973 253.018 218.052C255.001 218.131 256.983 218.166 258.975 218.306C256.983 218.438 255.001 218.499 253.018 218.552C251.036 218.604 249.053 218.604 247.07 218.631C245.088 218.657 243.096 218.631 241.114 218.552C239.131 218.473 237.149 218.438 235.166 218.306Z" fill="#A6A6A6"/>
<path d="M235.166 231.483C239.859 231.351 244.553 231.29 249.255 231.237L263.344 231.158L277.432 231.237C282.134 231.29 286.828 231.351 291.521 231.483C286.828 231.623 282.134 231.685 277.432 231.737L263.344 231.816L249.281 231.737C244.553 231.685 239.859 231.623 235.166 231.483Z" fill="#A6A6A6"/>
<path d="M235.166 235.544C239.859 235.404 244.553 235.343 249.255 235.29L263.344 235.211L277.432 235.29C282.134 235.343 286.828 235.404 291.521 235.544C286.828 235.685 282.134 235.746 277.432 235.799L263.344 235.869L249.281 235.79C244.553 235.79 239.859 235.676 235.166 235.544Z" fill="#A6A6A6"/>
<path d="M235.166 239.606C239.859 239.466 244.553 239.405 249.255 239.352L263.317 239.299L277.406 239.378C282.108 239.431 286.801 239.492 291.495 239.633C286.801 239.764 282.108 239.826 277.406 239.878L263.317 239.957L249.281 239.852C244.553 239.799 239.859 239.738 235.166 239.606Z" fill="#A6A6A6"/>
<path d="M235.166 243.685C237.149 243.554 239.131 243.483 241.114 243.431C243.096 243.378 245.079 243.387 247.07 243.361C249.062 243.334 251.036 243.361 253.018 243.431C255.001 243.501 256.983 243.554 258.975 243.685C256.983 243.826 255.001 243.887 253.018 243.94C251.036 243.992 249.053 243.992 247.07 244.019C245.088 244.045 243.096 244.019 241.114 243.94C239.131 243.861 237.149 243.799 235.166 243.685Z" fill="#A6A6A6"/>
<path d="M235.166 256.844C239.859 256.704 244.553 256.642 249.255 256.59L263.344 256.511L277.432 256.59C282.134 256.642 286.828 256.704 291.521 256.844C286.828 256.984 282.134 257.046 277.432 257.099L263.344 257.169L249.281 257.099C244.553 257.046 239.859 256.976 235.166 256.844Z" fill="#A6A6A6"/>
<path d="M235.166 260.897C239.859 260.766 244.553 260.704 249.255 260.652L263.344 260.573L277.432 260.652C282.134 260.704 286.828 260.766 291.521 260.897C286.828 261.038 282.134 261.099 277.432 261.152L263.317 261.231L249.281 261.152C244.553 261.099 239.859 261.038 235.166 260.897Z" fill="#A6A6A6"/>
<path d="M235.166 264.959C239.859 264.827 244.553 264.757 249.255 264.704L263.344 264.634L277.432 264.704C282.134 264.757 286.828 264.818 291.521 264.959C286.828 265.099 282.134 265.161 277.432 265.213L263.344 265.292L249.281 265.213C244.553 265.161 239.859 265.099 235.166 264.959Z" fill="#A6A6A6"/>
<path d="M235.166 269.02C237.149 268.88 239.131 268.819 241.114 268.766C243.096 268.713 245.079 268.713 247.07 268.687C249.062 268.661 251.036 268.687 253.018 268.766C255.001 268.845 256.983 268.88 258.975 269.02C256.983 269.152 255.001 269.213 253.018 269.266C251.036 269.319 249.053 269.319 247.07 269.345C245.088 269.371 243.096 269.345 241.114 269.266C239.131 269.187 237.149 269.126 235.166 269.02Z" fill="#A6A6A6"/>
<path d="M235.166 282.197C239.859 282.066 244.553 282.004 249.255 281.952L263.344 281.873L277.432 281.952C282.134 282.004 286.828 282.066 291.521 282.197C286.828 282.338 282.134 282.399 277.432 282.452L263.344 282.531L249.281 282.452C244.553 282.399 239.859 282.338 235.166 282.197Z" fill="#A6A6A6"/>
<path d="M235.166 286.259C239.859 286.127 244.553 286.057 249.255 286.004L263.344 285.934L277.432 286.004C282.134 286.057 286.828 286.118 291.521 286.259C286.828 286.399 282.134 286.46 277.432 286.513L263.317 286.583L249.281 286.513C244.553 286.46 239.859 286.39 235.166 286.259Z" fill="#A6A6A6"/>
<path d="M235.166 290.321C239.859 290.18 244.553 290.119 249.255 290.066L263.344 289.987L277.432 290.066C282.134 290.119 286.828 290.18 291.521 290.321C286.828 290.452 282.134 290.514 277.432 290.566L263.344 290.645L249.281 290.566C244.553 290.514 239.859 290.452 235.166 290.321Z" fill="#A6A6A6"/>
<path d="M235.166 294.374C237.149 294.242 239.131 294.172 241.114 294.119C243.096 294.067 245.079 294.075 247.07 294.049C249.062 294.023 251.036 294.049 253.018 294.119C255.001 294.189 256.983 294.242 258.975 294.374C256.983 294.514 255.001 294.575 253.018 294.628C251.036 294.681 249.053 294.681 247.07 294.707C245.088 294.733 243.096 294.707 241.114 294.628C239.131 294.549 237.149 294.514 235.166 294.374Z" fill="#A6A6A6"/>
<path d="M223.876 205.121L224.043 217.92L224.139 230.728L224.218 256.335L224.139 257.914L224.043 270.714L223.876 283.522L223.701 270.714L223.604 257.914L223.525 256.335L223.613 230.728L223.71 217.92L223.876 205.121Z" fill="#FFC727"/>
<path d="M225.193 206.13C225.156 206.453 225.001 206.751 224.759 206.967C224.516 207.183 224.202 207.303 223.877 207.303C223.552 207.303 223.239 207.183 222.996 206.967C222.754 206.751 222.599 206.453 222.562 206.13C222.54 205.945 222.558 205.757 222.614 205.578C222.671 205.4 222.764 205.236 222.888 205.097C223.013 204.957 223.165 204.846 223.335 204.769C223.506 204.693 223.691 204.653 223.877 204.653C224.064 204.653 224.249 204.693 224.419 204.769C224.59 204.846 224.742 204.957 224.866 205.097C224.991 205.236 225.084 205.4 225.14 205.578C225.197 205.757 225.215 205.945 225.193 206.13Z" fill="#FFC727"/>
<path d="M225.192 231.483C225.194 231.746 225.118 232.003 224.973 232.222C224.828 232.441 224.621 232.612 224.379 232.714C224.136 232.815 223.869 232.842 223.611 232.791C223.354 232.74 223.117 232.614 222.931 232.428C222.745 232.243 222.619 232.006 222.568 231.748C222.517 231.49 222.544 231.223 222.645 230.981C222.747 230.738 222.918 230.531 223.137 230.387C223.356 230.242 223.614 230.165 223.876 230.167C224.225 230.169 224.558 230.309 224.804 230.555C225.051 230.801 225.19 231.135 225.192 231.483Z" fill="#FFC727"/>
<path d="M225.193 256.844C225.156 257.167 225.001 257.465 224.759 257.681C224.516 257.897 224.202 258.017 223.877 258.017C223.552 258.017 223.239 257.897 222.996 257.681C222.754 257.465 222.599 257.167 222.562 256.844C222.54 256.658 222.558 256.47 222.614 256.292C222.671 256.114 222.764 255.95 222.888 255.811C223.013 255.671 223.165 255.56 223.335 255.483C223.506 255.407 223.691 255.367 223.877 255.367C224.064 255.367 224.249 255.407 224.419 255.483C224.59 255.56 224.742 255.671 224.866 255.811C224.991 255.95 225.084 256.114 225.14 256.292C225.197 256.47 225.215 256.658 225.193 256.844Z" fill="#FFC727"/>
<path d="M225.192 282.197C225.194 282.46 225.118 282.717 224.973 282.936C224.828 283.156 224.621 283.327 224.379 283.428C224.136 283.529 223.869 283.556 223.611 283.506C223.354 283.455 223.117 283.328 222.931 283.143C222.745 282.957 222.619 282.72 222.568 282.462C222.517 282.205 222.544 281.937 222.645 281.695C222.747 281.453 222.918 281.246 223.137 281.101C223.356 280.956 223.614 280.88 223.876 280.881C224.225 280.881 224.56 281.02 224.807 281.267C225.054 281.514 225.192 281.848 225.192 282.197Z" fill="#FFC727"/>
<path d="M86.1117 284.601C86.1098 286.973 85.245 289.264 83.6787 291.046C82.1123 292.827 79.9514 293.978 77.5989 294.284C75.2464 294.59 72.863 294.03 70.8932 292.708C68.9234 291.386 67.5017 289.392 66.8933 287.099C66.2849 284.806 66.5313 282.37 67.5865 280.246C68.6418 278.121 70.4339 276.453 72.6285 275.552C74.8232 274.651 77.2705 274.58 79.5141 275.35C81.7577 276.121 83.6443 277.682 84.8221 279.741C85.6682 281.221 86.1127 282.896 86.1117 284.601Z" fill="#455A64"/>
<path d="M84.8043 279.741L76.3125 284.601V274.819C78.0359 274.82 79.7286 275.275 81.2197 276.139C82.7108 277.003 83.9473 278.246 84.8043 279.741Z" fill="#FFC727"/>
<path d="M82.9886 285.702C83.5981 282.017 81.1046 278.535 77.4191 277.925C73.7337 277.316 70.252 279.81 69.6426 283.495C69.0331 287.18 71.5267 290.662 75.2121 291.271C78.8975 291.881 82.3792 289.387 82.9886 285.702Z" fill="white"/>
<path d="M79.1281 283.092H73.4961V283.89H79.1281V283.092Z" fill="#263238"/>
<path d="M80.5311 285.303H72.1094V286.101H80.5311V285.303Z" fill="#A6A6A6"/>
<path d="M113.446 284.601C113.446 285.079 113.411 285.557 113.34 286.031C112.97 288.538 111.641 290.804 109.634 292.351C107.627 293.899 105.098 294.608 102.579 294.33C100.06 294.051 97.7475 292.807 96.1272 290.858C94.507 288.909 93.7056 286.408 93.8917 283.88C94.0778 281.352 95.2368 278.996 97.125 277.305C99.0131 275.614 101.483 274.722 104.016 274.815C106.549 274.909 108.947 275.98 110.705 277.805C112.464 279.63 113.446 282.066 113.446 284.601Z" fill="#455A64"/>
<path d="M113.447 284.601C113.447 285.079 113.412 285.557 113.341 286.031L103.691 284.601V274.819C104.976 274.819 106.247 275.072 107.433 275.564C108.62 276.056 109.697 276.776 110.605 277.685C111.512 278.593 112.232 279.672 112.723 280.858C113.213 282.045 113.465 283.317 113.464 284.601H113.447Z" fill="#FFC727"/>
<path d="M110.264 286.162C111.119 282.526 108.865 278.885 105.229 278.029C101.593 277.174 97.9515 279.428 97.096 283.064C96.2404 286.7 98.4946 290.342 102.131 291.197C105.767 292.053 109.408 289.798 110.264 286.162Z" fill="white"/>
<path d="M106.489 283.092H100.857V283.89H106.489V283.092Z" fill="#263238"/>
<path d="M107.885 285.303H99.4629V286.101H107.885V285.303Z" fill="#A6A6A6"/>
<path d="M140.993 284.601C140.991 286.973 140.126 289.264 138.56 291.046C136.993 292.827 134.832 293.978 132.48 294.284C130.127 294.59 127.744 294.03 125.774 292.708C123.804 291.386 122.383 289.392 121.774 287.099C121.166 284.806 121.412 282.37 122.467 280.246C123.523 278.121 125.315 276.453 127.509 275.552C129.704 274.651 132.151 274.58 134.395 275.35C136.639 276.121 138.525 277.682 139.703 279.741C140.55 281.221 140.994 282.896 140.993 284.601Z" fill="#455A64"/>
<path d="M140.992 284.601C140.993 286.578 140.394 288.508 139.274 290.138C138.154 291.767 136.566 293.017 134.72 293.724L131.211 284.601V274.819C132.495 274.819 133.767 275.072 134.953 275.564C136.139 276.056 137.217 276.776 138.124 277.685C139.032 278.593 139.752 279.672 140.242 280.858C140.733 282.045 140.985 283.317 140.984 284.601H140.992Z" fill="#FFC727"/>
<path d="M137.984 284.601C137.984 285.938 137.588 287.246 136.844 288.358C136.101 289.471 135.045 290.337 133.809 290.849C132.573 291.361 131.213 291.495 129.901 291.234C128.589 290.973 127.384 290.329 126.438 289.383C125.492 288.437 124.848 287.232 124.587 285.92C124.326 284.608 124.46 283.248 124.972 282.012C125.484 280.776 126.351 279.72 127.463 278.977C128.575 278.234 129.883 277.837 131.221 277.837C133.015 277.837 134.735 278.55 136.003 279.818C137.272 281.086 137.984 282.807 137.984 284.601Z" fill="white"/>
<path d="M134.036 283.092H128.404V283.89H134.036V283.092Z" fill="#263238"/>
<path d="M135.431 285.303H127.01V286.101H135.431V285.303Z" fill="#A6A6A6"/>
<path d="M168.389 284.601C168.387 286.973 167.522 289.264 165.956 291.046C164.39 292.827 162.229 293.978 159.876 294.284C157.524 294.59 155.14 294.03 153.171 292.708C151.201 291.386 149.779 289.392 149.171 287.099C148.562 284.806 148.809 282.37 149.864 280.246C150.919 278.121 152.711 276.453 154.906 275.552C157.101 274.651 159.548 274.58 161.791 275.35C164.035 276.121 165.922 277.682 167.1 279.741C167.947 281.22 168.392 282.896 168.389 284.601Z" fill="#455A64"/>
<path d="M168.391 284.601C168.39 286.467 167.854 288.295 166.848 289.867C165.841 291.439 164.405 292.689 162.71 293.471C161.015 294.253 159.131 294.532 157.282 294.277C155.433 294.022 153.696 293.243 152.275 292.031L158.618 284.601V274.819C159.902 274.819 161.174 275.072 162.36 275.564C163.546 276.056 164.624 276.776 165.531 277.685C166.439 278.593 167.159 279.672 167.649 280.858C168.14 282.045 168.392 283.317 168.391 284.601Z" fill="#FFC727"/>
<path d="M165.296 285.6C165.864 281.908 163.331 278.455 159.639 277.887C155.947 277.32 152.494 279.853 151.926 283.545C151.359 287.237 153.891 290.69 157.584 291.258C161.276 291.825 164.729 289.292 165.296 285.6Z" fill="white"/>
<path d="M161.433 283.092H155.801V283.89H161.433V283.092Z" fill="#263238"/>
<path d="M162.828 285.303H154.406V286.101H162.828V285.303Z" fill="#A6A6A6"/>
<path d="M177.135 192.901L177.293 206.27L177.39 219.64L177.468 246.379L177.39 273.126L177.293 286.495L177.135 299.874L176.977 286.495L176.881 273.126L176.811 246.379L176.881 219.64L176.977 206.27L177.135 192.901Z" fill="#455A64"/>
<path d="M72.5663 328.403C72.4478 328.51 72.3022 328.583 72.1452 328.613L71.9347 328.657H71.5662L71.1978 328.596C70.7122 328.489 70.2529 328.286 69.8468 327.999C68.8981 327.363 68.0842 326.546 67.4519 325.595C67.1714 325.193 66.9717 324.74 66.8641 324.262C66.8641 324.139 66.8641 324.008 66.8027 323.885V323.516C66.8027 323.402 66.8466 323.288 66.8817 323.174C66.9168 323.06 66.987 322.972 67.0396 322.867L67.101 322.92C67.601 323.429 68.1098 323.929 68.6187 324.437C68.6293 324.451 68.6351 324.468 68.6351 324.486C68.6351 324.503 68.6293 324.52 68.6187 324.534C68.5781 324.66 68.5713 324.794 68.599 324.924C68.6267 325.053 68.688 325.173 68.7766 325.271C69.2044 325.76 69.6646 326.22 70.1539 326.648C70.2521 326.737 70.3718 326.798 70.5012 326.826C70.6305 326.853 70.7649 326.847 70.8908 326.806C70.9037 326.797 70.919 326.793 70.9346 326.793C70.9502 326.793 70.9655 326.797 70.9785 326.806L72.5225 328.35L72.5663 328.403Z" fill="#FFC727"/>
<path d="M73.4619 327.516L72.9268 328.052L71.3652 326.499L71.4793 326.385L71.9442 325.929C71.9671 325.898 71.9968 325.873 72.0311 325.855C72.0654 325.838 72.1032 325.829 72.1416 325.829C72.18 325.829 72.2178 325.838 72.2521 325.855C72.2864 325.873 72.3161 325.898 72.339 325.929L73.497 327.095C73.5342 327.118 73.5644 327.151 73.5841 327.19C73.6039 327.229 73.6124 327.273 73.6087 327.317C73.6051 327.36 73.5895 327.402 73.5635 327.437C73.5376 327.472 73.5024 327.5 73.4619 327.516Z" fill="#FFC727"/>
<path d="M69.5048 323.516L68.9082 324.086L67.373 322.551L67.9169 321.998C67.9399 321.969 67.9692 321.946 68.0027 321.929C68.0361 321.913 68.0728 321.905 68.1099 321.905C68.1471 321.905 68.1838 321.913 68.2172 321.929C68.2506 321.946 68.28 321.969 68.3029 321.998L69.4785 323.174C69.5266 323.216 69.5564 323.276 69.5613 323.34C69.5662 323.404 69.5459 323.467 69.5048 323.516Z" fill="#FFC727"/>
<path d="M73.2512 336.298L73.0845 336.455L70.4527 338.929C70.4157 338.972 70.3699 339.006 70.3184 339.03C70.2669 339.053 70.211 339.065 70.1545 339.065C70.0979 339.065 70.042 339.053 69.9905 339.03C69.9391 339.006 69.8932 338.972 69.8562 338.929L67.2244 336.412L67.1191 336.306C67.1861 336.261 67.2665 336.239 67.3472 336.245H69.1544H72.9178C73.0317 336.225 73.1488 336.244 73.2512 336.298Z" fill="#FFC727"/>
<path d="M73.2403 340.895C73.1662 340.918 73.0897 340.932 73.0123 340.938H70.8542H67.3452C67.247 340.94 67.1501 340.916 67.0645 340.868C67.7838 340.175 68.5032 339.5 69.2225 338.815L69.6348 339.201L69.8103 339.368C69.899 339.456 70.0188 339.505 70.1436 339.505C70.2685 339.505 70.3883 339.456 70.477 339.368L71.0472 338.815C71.7666 339.5 72.4771 340.175 73.1965 340.842L73.2403 340.895Z" fill="#FFC727"/>
<path d="M68.9951 338.587C68.302 339.271 67.5915 339.929 66.8984 340.614C66.8984 340.614 66.8984 340.552 66.8984 340.508C66.8984 339.245 66.8984 337.973 66.8984 336.71C66.8984 336.666 66.8984 336.622 66.8984 336.587L68.9951 338.587Z" fill="#FFC727"/>
<path d="M73.4697 340.596L72.6801 339.841L71.4081 338.64L71.3555 338.596C72.0573 337.912 72.7679 337.254 73.4521 336.578C73.4872 336.675 73.496 340.491 73.4697 340.596Z" fill="#FFC727"/>
<path d="M177.075 323.56C176.886 324.041 176.776 324.551 176.751 325.068H175.417C175.413 325.033 175.413 324.998 175.417 324.963C175.434 324.786 175.463 324.61 175.505 324.437C175.574 324.155 175.674 323.881 175.803 323.621H177.04L177.075 323.56Z" fill="#FFC727"/>
<path d="M177.04 326.928H175.812C175.666 326.634 175.563 326.321 175.505 325.999C175.471 325.846 175.451 325.69 175.443 325.534V325.481H176.75V325.806C176.768 325.973 176.795 326.14 176.829 326.306C176.875 326.511 176.933 326.713 177.005 326.911L177.04 326.928Z" fill="#FFC727"/>
<path d="M182.189 327.314C182.082 327.471 181.965 327.62 181.838 327.762C181.686 327.937 181.516 328.096 181.33 328.236C181.147 328.372 180.954 328.492 180.751 328.595C180.553 328.692 180.348 328.772 180.137 328.832C179.971 328.885 179.801 328.92 179.628 328.937H179.549C179.923 328.68 180.252 328.363 180.523 327.999C180.671 327.79 180.803 327.57 180.917 327.341H182.172L182.189 327.314Z" fill="#FFC727"/>
<path d="M180.962 325.068H179.207V323.568H180.549C180.673 323.849 180.765 324.144 180.821 324.446C180.857 324.601 180.881 324.76 180.891 324.919C180.953 324.981 180.962 325.025 180.962 325.068Z" fill="#FFC727"/>
<path d="M180.951 325.472C180.955 325.507 180.955 325.542 180.951 325.577C180.955 325.659 180.955 325.741 180.951 325.823C180.951 325.946 180.951 326.06 180.89 326.174C180.838 326.423 180.765 326.666 180.67 326.902H179.293V325.446L180.951 325.472Z" fill="#FFC727"/>
<path d="M178.856 323.577V325.077H177.172C177.177 325.039 177.177 325.001 177.172 324.963V324.718C177.172 324.586 177.172 324.463 177.242 324.332C177.301 324.079 177.384 323.832 177.488 323.595H178.795L178.856 323.577Z" fill="#FFC727"/>
<path d="M178.855 325.489V326.928H177.513C177.408 326.683 177.328 326.427 177.276 326.165C177.276 326.033 177.276 325.893 177.215 325.761C177.153 325.63 177.215 325.586 177.215 325.498H178.882C178.882 325.498 178.855 325.472 178.855 325.489Z" fill="#FFC727"/>
<path d="M182.786 325.077H181.382C181.35 324.557 181.237 324.045 181.049 323.56H182.365C182.521 323.854 182.63 324.17 182.689 324.498C182.726 324.672 182.749 324.848 182.759 325.025L182.786 325.077Z" fill="#FFC727"/>
<path d="M182.785 325.455V325.56C182.785 325.683 182.785 325.814 182.785 325.937C182.735 326.24 182.646 326.534 182.522 326.814L182.46 326.946H181.153C181.149 326.902 181.149 326.858 181.153 326.814C181.229 326.588 181.288 326.356 181.329 326.121C181.329 325.955 181.329 325.788 181.39 325.613V325.49H182.785V325.455Z" fill="#FFC727"/>
<path d="M182.154 323.183H180.9C180.733 322.865 180.527 322.571 180.286 322.305C180.146 322.147 179.99 322.002 179.821 321.876L179.566 321.683C180.001 321.727 180.423 321.852 180.812 322.051C181.344 322.315 181.804 322.704 182.154 323.183Z" fill="#FFC727"/>
<path d="M178.62 328.946C178.484 328.929 178.349 328.903 178.217 328.867C177.682 328.736 177.187 328.48 176.769 328.122C176.49 327.89 176.25 327.614 176.059 327.306H177.217C177.332 327.548 177.473 327.778 177.638 327.99C177.785 328.188 177.949 328.373 178.129 328.543C178.277 328.68 178.435 328.807 178.603 328.92L178.62 328.946Z" fill="#FFC727"/>
<path d="M178.601 321.63L178.425 321.753C178.227 321.909 178.042 322.082 177.873 322.27C177.641 322.521 177.443 322.801 177.285 323.104V323.165H176.074C176.364 322.741 176.74 322.383 177.176 322.113C177.613 321.842 178.101 321.666 178.609 321.595L178.601 321.63Z" fill="#FFC727"/>
<path d="M180.454 327.314C180.292 327.591 180.101 327.85 179.884 328.086C179.688 328.294 179.47 328.479 179.234 328.639V327.314H180.454Z" fill="#FFC727"/>
<path d="M178.854 327.314V328.613C178.367 328.28 177.967 327.834 177.688 327.314H178.854Z" fill="#FFC727"/>
<path d="M180.409 323.174H179.242V321.937C179.482 322.095 179.703 322.28 179.9 322.49C180.092 322.7 180.262 322.93 180.409 323.174Z" fill="#FFC727"/>
<path d="M178.857 321.98V323.182H177.734C178.008 322.698 178.393 322.286 178.857 321.98Z" fill="#FFC727"/>
<path d="M181.95 336.324C181.631 335.662 181.091 335.132 180.423 334.826C179.755 334.52 179.001 334.457 178.291 334.648C177.599 334.806 176.986 335.21 176.567 335.783C176.148 336.357 175.95 337.063 176.011 337.771C176.069 338.248 176.208 338.711 176.423 339.14C176.876 340.077 177.467 340.94 178.177 341.701C178.458 342.017 178.765 342.324 179.055 342.64L179.16 342.552C179.537 342.14 179.932 341.745 180.3 341.324C180.992 340.546 181.547 339.656 181.941 338.692C182.105 338.319 182.19 337.917 182.192 337.509C182.194 337.101 182.111 336.698 181.95 336.324ZM181.011 337.473C181.003 337.856 180.882 338.227 180.661 338.541C180.441 338.854 180.132 339.094 179.775 339.23C179.417 339.367 179.026 339.393 178.654 339.306C178.281 339.219 177.943 339.023 177.682 338.742C177.422 338.461 177.251 338.109 177.192 337.731C177.133 337.353 177.188 336.966 177.351 336.619C177.513 336.273 177.776 335.982 178.104 335.786C178.433 335.59 178.813 335.496 179.195 335.517C179.692 335.544 180.159 335.763 180.498 336.128C180.837 336.493 181.021 336.975 181.011 337.473Z" fill="#FFC727"/>
<path d="M80.3828 323.042C85.0761 322.902 89.7782 322.841 94.4716 322.788L108.56 322.709L122.649 322.788C127.351 322.841 132.045 322.902 136.747 323.042C132.045 323.174 127.351 323.235 122.649 323.297L108.56 323.367L94.4716 323.288C89.7782 323.235 85.0761 323.174 80.3828 323.042Z" fill="#A6A6A6"/>
<path d="M80.3828 327.095C82.7339 326.964 85.0761 326.902 87.4009 326.85C89.7256 326.797 92.0942 326.797 94.4189 326.771C96.7437 326.744 99.1123 326.771 101.437 326.841C103.762 326.911 106.13 326.964 108.455 327.095C106.104 327.236 103.762 327.297 101.437 327.35C99.1123 327.402 96.7437 327.402 94.4189 327.429C92.0942 327.455 89.7256 327.429 87.4009 327.35C85.0761 327.271 82.7339 327.236 80.3828 327.095Z" fill="#A6A6A6"/>
<path d="M80.3828 336.552C85.0761 336.421 89.7782 336.359 94.4716 336.306L108.56 336.228L122.649 336.298C127.351 336.35 132.045 336.421 136.747 336.552C132.045 336.692 127.351 336.754 122.649 336.807L108.56 336.885L94.4716 336.807C89.7782 336.754 85.0761 336.675 80.3828 336.552Z" fill="#A6A6A6"/>
<path d="M80.3828 340.614C82.7339 340.473 85.0761 340.412 87.4009 340.359C89.7256 340.307 92.0942 340.315 94.4189 340.28C96.7437 340.245 99.1123 340.28 101.437 340.359C103.762 340.438 106.13 340.473 108.455 340.614C106.104 340.745 103.762 340.815 101.437 340.868C99.1123 340.921 96.7437 340.912 94.4189 340.938C92.0942 340.964 89.7256 340.938 87.4009 340.868C85.0761 340.798 82.7339 340.745 80.3828 340.614Z" fill="#A6A6A6"/>
<path d="M192.787 323.042C197.48 322.902 202.183 322.841 206.876 322.788L220.965 322.709L235.062 322.788C239.755 322.841 244.449 322.902 249.151 323.042C244.449 323.174 239.755 323.235 235.062 323.297L220.965 323.367L206.876 323.288C202.183 323.235 197.524 323.174 192.787 323.042Z" fill="#A6A6A6"/>
<path d="M192.787 327.095C195.138 326.964 197.48 326.902 199.805 326.85C202.13 326.797 204.507 326.797 206.823 326.771C209.139 326.744 211.525 326.771 213.841 326.841C216.157 326.911 218.543 326.964 220.859 327.095C218.517 327.236 216.166 327.297 213.841 327.35C211.517 327.402 209.148 327.402 206.823 327.429C204.498 327.455 202.13 327.429 199.805 327.35C197.48 327.271 195.138 327.236 192.787 327.095Z" fill="#A6A6A6"/>
<path d="M192.787 336.552C197.48 336.421 202.183 336.359 206.876 336.306L220.965 336.228L235.062 336.298C239.755 336.35 244.449 336.421 249.151 336.552C244.449 336.692 239.755 336.754 235.062 336.807L220.965 336.885L206.876 336.807C202.183 336.754 197.524 336.675 192.787 336.552Z" fill="#A6A6A6"/>
<path d="M192.787 340.614C195.138 340.473 197.48 340.412 199.805 340.359C202.13 340.307 204.507 340.315 206.823 340.28C209.139 340.245 211.525 340.28 213.841 340.359C216.157 340.438 218.543 340.473 220.859 340.614C218.517 340.745 216.166 340.815 213.841 340.868C211.517 340.921 209.148 340.912 206.823 340.938C204.498 340.964 202.13 340.938 199.805 340.868C197.48 340.798 195.138 340.745 192.787 340.614Z" fill="#A6A6A6"/>
<path d="M235.868 374.66C233.982 375.274 179.996 374.774 177.969 373.449C177.188 372.958 176.802 365.08 176.609 355.562V355.264C176.609 353.299 178.987 320.384 178.987 320.384L214.279 320.612L211.647 349.456L211.445 355.202V355.79C211.445 355.79 232.026 365.22 234.114 366.922C236.201 368.624 237.763 374.046 235.868 374.66Z" fill="#D3766A"/>
<path d="M176.715 360.501C176.934 367.677 177.311 373.046 177.952 373.449C179.996 374.765 233.982 375.274 235.851 374.651C237.719 374.028 236.123 368.607 234.044 366.923C231.324 365.28 228.509 363.801 225.613 362.492C227.727 364.791 228.798 367.326 223.131 367.326C213.077 367.326 195.497 365.668 176.715 360.501Z" fill="#263238"/>
<path d="M209.068 374.809C194.418 374.607 179.031 374.142 177.961 373.449C177.311 373.046 176.934 367.677 176.715 360.501C180.224 361.475 183.733 362.317 187.11 363.054L209.068 374.809Z" fill="#37474F"/>
<path d="M211.418 354.711H176.59C176.59 354.711 182.082 263.906 181.775 262.318C181.389 260.283 179.091 251.098 176.038 239.089C175.082 235.334 174.046 231.299 172.976 227.123C170.072 215.824 166.835 203.481 164.098 192.734C159.914 176.645 156.65 164.136 156.65 164.136H189.627C189.627 164.136 193.469 176.312 198.311 192.147C206.207 217.894 216.734 253.318 217.769 261.932C219.453 275.837 211.418 354.711 211.418 354.711Z" fill="#D3766A"/>
<path d="M193.953 374.66C192.067 375.274 138.08 374.774 136.054 373.449C135.273 372.958 134.887 365.08 134.694 355.562V355.264C134.65 353.299 136.343 320.384 136.343 320.384L170.741 320.612L169.758 348.36V349.456L169.556 355.202V355.79C169.556 355.79 190.137 365.22 192.225 366.922C194.313 368.624 195.848 374.046 193.953 374.66Z" fill="#D3766A"/>
<path d="M134.797 360.501C135.016 367.677 135.393 373.046 136.043 373.449C138.078 374.765 192.064 375.274 193.942 374.651C195.819 374.028 194.214 368.607 192.134 366.923C189.415 365.28 186.599 363.801 183.704 362.492C185.818 364.791 186.888 367.326 181.221 367.326C171.203 367.326 153.579 365.668 134.797 360.501Z" fill="#263238"/>
<path d="M188.54 164.136C188.54 164.136 187.776 179.926 184.153 192.392C183.864 193.419 183.548 194.436 183.215 195.41C179.906 196.747 176.726 198.383 173.714 200.296C173.714 200.296 172.1 260.573 172.188 264.336C172.521 278.372 169.486 355.299 169.486 355.299L134.781 355.457C134.781 355.457 138.597 269.486 138.545 264.38C138.466 256.134 140.431 219.71 141.94 193.138C142.476 183.415 143.69 173.742 145.572 164.188L188.54 164.136Z" fill="#D3766A"/>
<path d="M189.627 164.136C189.627 164.136 216.427 246.949 218.006 257.037C218.909 262.558 219.53 268.121 219.866 273.705C219.866 273.705 196.566 285.426 180.705 285.022C164.845 284.618 136.693 278.329 136.693 278.329C136.693 278.329 141.08 195.182 141.167 194.314C141.255 193.445 135.334 184.085 144.282 163.952L189.627 164.136Z" fill="#263238"/>
<path d="M177.968 259.265C177.968 267.81 177.81 276.345 177.565 284.881H177.416L177.486 275.521C177.486 270.108 177.539 264.687 177.486 259.283C177.433 256.572 177.398 253.879 177.109 251.194L176.31 243.115L174.714 226.938L171.678 194.559L170.213 178.382L168.977 164.021L170.503 178.356L172.179 194.559L175.363 226.886L176.881 243.054L177.644 251.142C177.887 253.843 177.996 256.554 177.968 259.265ZM211.611 264.178L211.234 256.669C211.167 255.411 210.994 254.16 210.716 252.931C210.48 251.695 210.208 250.475 209.936 249.247C207.699 239.474 205.111 229.798 202.567 220.104C200.023 210.411 197.303 200.805 194.619 191.155L190.504 176.663L186.864 164.135H186.82L201.9 220.28C204.532 229.93 207.076 239.632 209.418 249.361C209.699 250.58 209.988 251.8 210.243 253.019C210.531 254.229 210.716 255.462 210.795 256.704L211.269 264.195L212.146 277.161H212.19L211.611 264.178ZM146.299 169.504C146.747 167.644 147.247 165.793 147.817 163.96H147.773C147.168 165.776 146.642 167.609 146.15 169.46C145.482 171.964 144.958 174.503 144.58 177.066C144.18 179.631 144.015 182.227 144.089 184.821C144.13 187.421 144.632 189.993 145.571 192.418L144.054 215.937L142.606 239.527L141.246 263.116L140.369 279.118H140.501L141.624 263.116L143.168 239.536L144.641 215.946L146.027 192.357V192.295V192.243C145.075 189.865 144.553 187.338 144.483 184.777C144.383 182.206 144.515 179.631 144.878 177.084C145.212 174.533 145.686 172.003 146.299 169.504ZM200.83 261.888C200.875 259.271 200.687 256.655 200.268 254.072C198.452 243.799 196.347 233.597 194.312 223.368L187.943 192.804L184.679 177.522L181.732 164.109L187.478 192.883L193.671 223.508C195.759 233.72 197.856 243.922 199.768 254.151C200.215 256.708 200.43 259.301 200.409 261.897L200.549 269.705C200.608 273.6 200.648 277.501 200.672 281.407H200.76C200.812 277.512 200.85 273.617 200.874 269.722C200.874 267.099 200.865 264.494 200.83 261.888ZM189.504 257.037C189.431 254.362 189.176 251.695 188.741 249.054L187.645 241.159L185.381 225.368L180.653 193.681L178.223 177.891L176.038 164.135L177.907 177.891L180.153 193.734L184.732 225.394L187.048 241.229L188.18 249.124C188.62 251.736 188.893 254.373 188.996 257.019C189.162 262.344 189.241 267.678 189.329 273.012L189.522 284.206H189.627C189.627 275.161 189.671 266.108 189.504 257.037ZM166.046 249.826L165.731 241.86L165.064 225.912L163.66 194.067L162.906 178.154L162.169 164.021L162.625 178.163L163.204 194.085L164.459 225.929L165.152 241.843L165.494 249.808L165.582 251.791V253.782L165.538 257.765L165.362 273.696L165.301 283.557H165.424L165.687 273.679L166.046 257.748L166.134 253.765V251.765L166.046 249.826ZM153.984 183.821C153.984 181.426 154.125 179.031 154.247 176.628C154.484 172.426 154.809 168.215 155.221 164.021C154.724 168.209 154.309 172.405 153.975 176.61C153.8 179.014 153.677 181.409 153.616 183.821C153.511 186.24 153.635 188.663 153.984 191.058L153.739 214.955L153.581 238.913L153.519 250.887C153.519 252.888 153.431 254.879 153.353 256.87L153.089 262.862L152.352 281.477H152.449L153.519 262.862L153.844 256.879C153.94 254.879 154.089 252.888 154.072 250.896L154.186 238.913L154.361 214.955L154.458 190.988V190.936C154.079 188.575 153.92 186.185 153.984 183.795V183.821Z" fill="#455A64"/>
<path d="M187.969 121.799C188.513 131.572 188.899 141.625 187.969 151.38C187.224 158.969 184.031 165.223 176.135 167.083C168.819 168.838 158.388 168.68 152.195 163.829C149.309 161.565 148.309 158.372 148.502 154.793C148.765 149.819 152.712 122.58 153.888 114.079C154.503 108.869 155.515 103.713 156.914 98.6572C159.476 90.0249 165.547 88.3582 166.231 88.0423C169.483 86.6154 173.158 86.4836 176.504 87.6739C177.985 88.1445 179.351 88.9222 180.512 89.9561C181.673 90.99 182.603 92.2569 183.241 93.6743C187.276 102.096 187.452 112.649 187.969 121.799Z" fill="#263238"/>
<path d="M164.572 89.4984C158.326 92.4109 156.844 99.2359 155.326 105.342C153.229 113.851 151.264 122.387 149.72 131.019C148.975 135.168 148.326 139.327 147.808 143.511C147.299 147.511 146.518 151.784 146.79 155.793C147.238 162.477 153.352 165.513 159.274 166.469C159.332 166.478 159.392 166.465 159.441 166.431C159.489 166.397 159.523 166.346 159.534 166.288C159.545 166.23 159.534 166.169 159.502 166.12C159.469 166.07 159.419 166.035 159.361 166.022C155.993 165.355 152.545 164.416 150.036 161.907C146.808 158.696 147.185 154.512 147.562 150.336C148.211 143.23 149.264 136.177 150.571 129.159C151.878 122.141 153.431 115.176 155.098 108.228C156.677 101.622 157.835 92.9285 164.607 89.5686C164.678 89.5686 164.643 89.4633 164.572 89.4984Z" fill="#263238"/>
<path d="M186.118 100.806C184.934 95.7007 182.285 90.7179 176.898 89.2354C183.846 91.4548 185.539 99.0519 186.469 105.394C187.44 112.073 188.165 118.781 188.645 125.519C189.11 131.993 189.443 138.52 189.312 145.011C189.18 152.029 187.908 158.583 183.767 164.355C183.688 164.478 183.846 164.618 183.943 164.504C188.022 159.837 189.373 153.398 189.698 147.371C189.99 139.393 189.756 131.404 188.996 123.457C188.364 115.957 187.785 108.167 186.118 100.806Z" fill="#263238"/>
<path d="M173.451 132.089C185.39 145.985 196.259 160.653 206.155 160.934C215.568 161.197 231.595 134.204 233.499 126.028C234.148 123.212 213.155 116.474 211.217 118.887C207.567 123.422 202.067 136.309 200.61 136.344C199.154 136.379 188.373 128.554 175.635 122.141C167.915 118.238 165.178 122.457 173.451 132.089Z" fill="#D3766A"/>
<path d="M232.445 128.712C233.779 126.536 239.025 116.009 239.832 112.755C240.639 109.5 242.271 99.9731 239.832 99.0958C237.393 98.2185 236.7 100.982 236.7 100.982C236.7 100.982 236.753 96.85 234.226 96.1921C231.7 95.5341 230.717 99.859 230.717 99.859C230.717 99.859 230.463 95.6131 227.892 95.1394C225.322 94.6656 225.103 99.1748 225.103 99.1748C225.103 99.1748 225.05 95.271 222.769 95.7798C220.032 96.3851 220.936 103.552 219.778 107.079C219.515 107.886 213.295 122.94 213.295 122.94L232.445 128.712Z" fill="#D3766A"/>
<path d="M225.173 98.7889C225.822 104.052 225.173 106.491 222.971 111.228C222.961 111.247 222.958 111.269 222.964 111.29C222.97 111.31 222.983 111.328 223.002 111.338C223.021 111.348 223.043 111.351 223.063 111.345C223.084 111.34 223.101 111.326 223.112 111.307C225.743 106.868 226.936 103.947 225.428 98.745C225.349 98.4906 225.138 98.5344 225.173 98.7889Z" fill="#263238"/>
<path d="M230.701 99.4465C230.902 104.982 230.244 107.623 228.279 112.755C228.279 112.825 228.367 112.877 228.402 112.807C230.753 107.93 231.911 104.991 230.981 99.4729C230.937 99.2272 230.692 99.1921 230.701 99.4465Z" fill="#263238"/>
<path d="M236.604 101.245C236.411 106.623 235.814 109.535 233.261 114.273C233.247 114.295 233.243 114.321 233.249 114.347C233.254 114.372 233.27 114.395 233.292 114.409C233.314 114.422 233.341 114.427 233.366 114.421C233.392 114.416 233.414 114.4 233.428 114.378C236.498 109.799 237.27 106.167 236.762 101.263C236.727 100.929 236.612 100.903 236.604 101.245Z" fill="#263238"/>
<path d="M210.437 125.142C210.437 125.142 209.033 118.633 209.051 115.632C209.068 112.632 213.235 101.482 215.692 102.245C218.867 103.228 217.727 110.141 216.736 113.457C216.736 113.457 224.078 115.729 224.333 120.861C224.587 125.993 210.437 125.142 210.437 125.142Z" fill="#D3766A"/>
<path d="M216.48 102.798C218.726 105.789 217.129 110.053 216.401 113.325C216.388 113.373 216.387 113.423 216.398 113.471C216.409 113.52 216.431 113.565 216.463 113.603C216.495 113.641 216.535 113.67 216.581 113.689C216.627 113.708 216.677 113.715 216.726 113.711C219.744 114.869 223.665 117.378 224.481 120.729C224.486 120.744 224.496 120.758 224.51 120.767C224.523 120.777 224.539 120.782 224.555 120.782C224.572 120.782 224.588 120.777 224.601 120.767C224.615 120.758 224.625 120.744 224.63 120.729C224.235 117.053 220.595 114.272 217.208 113.22C218.007 109.86 219.419 105.517 216.507 102.824C216.489 102.763 216.463 102.78 216.48 102.798Z" fill="#263238"/>
<path d="M207.821 122.624L229.507 137.09C229.507 137.09 215.856 161.969 206.698 161.802C197.539 161.636 179.362 141.924 170.704 128.309C164.712 118.869 170.809 119.203 177.968 122.861C185.126 126.519 200.206 135.406 200.847 135.064C201.487 134.721 207.821 122.624 207.821 122.624Z" fill="#FF725E"/>
<path opacity="0.1" d="M170.696 128.317C179.354 141.958 197.575 161.583 206.716 161.758C210.751 161.828 215.681 157.012 219.875 151.608C208.97 144.59 183.969 127.966 171.082 120.51C167.976 120.246 166.88 122.29 170.696 128.317Z" fill="#FF725E"/>
<path d="M224.56 141.424C221.454 139.459 209.015 130.897 206.453 128.923C206.278 128.782 206.322 128.633 206.524 128.756C215.989 134.423 221.683 139.213 224.639 141.301C224.718 141.353 224.639 141.476 224.56 141.424Z" fill="#263238"/>
<path d="M143.334 166.101L190.487 166.873L186.793 152.757C188.022 150.989 188.848 148.973 189.215 146.852C189.582 144.73 189.48 142.554 188.916 140.476C187.785 136.318 182.416 130.089 179.126 126.133C171.117 116.483 164.151 120.869 161.932 123.334C153.449 132.774 143.334 166.101 143.334 166.101Z" fill="white"/>
<path d="M165.572 120.606C165.572 120.606 170.195 132.888 172.002 135.686C173.81 138.484 179.126 143.511 179.126 143.511C179.126 143.511 179.74 136.265 179.126 132.107C178.512 127.949 174.994 122.062 174.994 122.062C175.938 122.555 176.782 123.219 177.485 124.018C181.477 128.089 188.416 136.09 189.469 141.564C189.86 143.459 189.871 145.414 189.502 147.314C189.133 149.214 188.391 151.023 187.319 152.635L192.635 169.601L185.188 171.908L181.521 167.522L177.74 172.338L140.018 167.074L146.281 155.249C146.281 155.249 155.264 131.931 158.817 126.826C162.905 121.071 165.572 120.606 165.572 120.606Z" fill="#FF725E"/>
<path d="M169.59 154.573C171.193 154.104 172.822 153.726 174.468 153.442C175.292 153.301 176.117 153.214 176.95 153.143L178.143 153.064C178.582 153.064 179.021 153.064 179.468 153.064C179.512 153.064 179.521 153.126 179.468 153.135C179.056 153.178 178.652 153.284 178.24 153.345L177.003 153.538L174.538 153.924C172.889 154.17 171.248 154.424 169.608 154.722C169.529 154.722 169.511 154.6 169.59 154.573Z" fill="#263238"/>
<path d="M162.151 132.203C158.642 137.467 141.974 157.135 141.474 159.17C141.202 160.311 145.703 164.206 145.668 165.022C145.501 168.329 136.421 194.462 133.474 192.339C129.596 189.55 115.367 166.381 117.253 157.161C119.139 147.941 156.905 123.738 162.739 121.589C168.573 119.439 165.625 127.01 162.151 132.203Z" fill="#FF725E"/>
<path d="M156.88 140.423C155.283 142.538 153.616 144.582 151.932 146.626C150.248 148.67 148.423 150.556 146.668 152.53C145.791 153.503 144.914 154.486 144.089 155.503C143.241 156.463 142.505 157.517 141.896 158.644C141.837 158.762 141.798 158.89 141.782 159.021C141.783 159.144 141.803 159.265 141.843 159.381C141.946 159.683 142.072 159.976 142.221 160.258C142.54 160.824 142.892 161.372 143.273 161.899C144.001 162.986 144.835 164.013 145.659 165.048C144.694 164.138 143.78 163.174 142.922 162.162C142.501 161.643 142.109 161.101 141.747 160.539C141.562 160.242 141.401 159.931 141.264 159.609C141.186 159.416 141.142 159.211 141.133 159.004C141.151 158.806 141.195 158.611 141.264 158.425C141.833 157.192 142.565 156.041 143.44 155.003C144.265 153.959 145.133 152.959 146.01 151.968C147.765 149.985 149.695 148.178 151.432 146.196C153.169 144.213 155.011 142.301 156.88 140.423Z" fill="#263238"/>
<path d="M156.291 143.222C155.821 143.63 155.303 143.978 154.747 144.257C154.193 144.548 153.603 144.763 152.992 144.897C153.937 144.086 155.062 143.511 156.273 143.222H156.291Z" fill="#263238"/>
<path d="M130.896 183.023C132.352 179.646 138.791 166.031 140.423 163.189C140.528 162.987 140.686 163.013 140.598 163.189C136.466 173.505 132.606 179.839 131.027 183.076C130.983 183.155 130.852 183.155 130.896 183.023Z" fill="#263238"/>
<path d="M144.098 199.507C146.835 197.752 143.221 195.524 143.221 195.524C143.221 195.524 149.239 197.463 151.362 194.55C153.485 191.638 148.897 189.217 148.581 189.032C148.897 189.129 154.476 190.787 156.31 187.62C158.205 184.348 153.257 182.585 152.941 182.471C153.266 182.471 157.643 182.392 158.494 179.69C159.95 175.04 147.406 174.207 144.765 171.277C144.765 171.277 146.125 165.136 146.23 164.96C146.23 164.96 144.791 167.338 142.581 167.908C139.852 168.61 137.396 168.996 136.264 170.277C135.737 170.834 135.403 171.546 135.313 172.308C135.223 173.07 135.381 173.84 135.764 174.505C135.764 174.505 132.343 174.031 130.817 176.453C130.045 177.707 131.352 180.058 131.352 180.058C131.352 180.058 128.588 179.795 127.378 182.032C126.395 183.786 127.86 185.909 127.86 185.909C127.86 185.909 125.097 186.874 124.685 189.024C123.834 193.366 138.229 203.279 144.098 199.507Z" fill="#D3766A"/>
<path d="M128.009 186.269C128 186.261 127.988 186.257 127.975 186.257C127.963 186.258 127.951 186.264 127.943 186.273C127.935 186.283 127.931 186.295 127.932 186.307C127.933 186.319 127.938 186.331 127.948 186.339C132.026 190.941 137.408 194.194 143.379 195.664C143.572 195.708 143.721 195.419 143.519 195.331C137.936 193.08 132.711 190.027 128.009 186.269Z" fill="#263238"/>
<path d="M131.228 180.041C131.175 180.041 131.105 180.084 131.149 180.137C135.237 184.664 141.746 188.594 148.615 189.269C148.852 189.269 149.088 189.076 148.817 189.032C144.281 188.234 135.587 183.629 131.228 180.041Z" fill="#263238"/>
<path d="M153.404 182.356C146.842 181.479 141.227 178.532 135.859 174.707C135.788 174.654 135.727 174.759 135.78 174.821C137.876 177.4 141.534 179.488 144.552 180.865C147.289 182.214 150.333 182.82 153.377 182.62C153.491 182.576 153.544 182.374 153.404 182.356Z" fill="#263238"/>
<path d="M127.659 185.883C126.711 184.646 126.089 183.093 126.782 181.576C127.104 180.887 127.665 180.339 128.361 180.032C129.195 179.773 130.078 179.713 130.94 179.856C130.468 179.171 130.215 178.359 130.215 177.527C130.215 176.695 130.468 175.883 130.94 175.198C131.465 174.623 132.183 174.261 132.957 174.18C133.856 174.122 134.758 174.181 135.642 174.356C135.282 173.914 135.031 173.395 134.908 172.839C134.784 172.283 134.792 171.706 134.931 171.154C135.108 170.549 135.426 169.995 135.86 169.537C136.293 169.08 136.829 168.732 137.423 168.522C138.807 168.063 140.241 167.769 141.695 167.645C142.442 167.545 143.175 167.359 143.879 167.092C144.637 166.765 145.278 166.218 145.722 165.522C145.809 165.408 145.792 165.522 145.722 165.636C145.424 166.107 145.054 166.527 144.625 166.882C144.173 167.256 143.671 167.566 143.134 167.803C141.806 168.267 140.445 168.63 139.063 168.891C137.848 169.178 136.762 169.859 135.975 170.829C135.626 171.341 135.423 171.938 135.389 172.557C135.355 173.175 135.491 173.791 135.782 174.338C135.795 174.352 135.803 174.37 135.804 174.389C135.805 174.408 135.799 174.426 135.787 174.441C135.775 174.456 135.759 174.466 135.74 174.47C135.721 174.474 135.702 174.47 135.686 174.461C134.879 174.437 134.072 174.511 133.282 174.68C132.628 174.836 132.037 175.188 131.589 175.689C131.164 176.317 130.912 177.046 130.858 177.802C130.804 178.558 130.95 179.315 131.282 179.997C130.409 180.048 129.551 180.25 128.747 180.593C128.226 180.891 127.804 181.337 127.536 181.874C127.215 182.49 127.073 183.184 127.126 183.877C127.179 184.57 127.424 185.234 127.834 185.795C127.838 185.813 127.838 185.831 127.834 185.848C127.834 185.848 126.957 186.19 126.913 186.19C126.869 186.19 126.913 186.19 126.913 186.146C127.155 186.041 127.404 185.953 127.659 185.883Z" fill="#263238"/>
<path d="M166.546 122.097C166.774 122.922 171.02 128.238 174.854 127.861C176.1 127.747 175.784 120.913 175.784 120.913L175.871 120.395L177.152 113.255L168.573 108.272L167.345 107.623C167.345 107.623 167.125 109.596 166.871 112.061C166.871 112.176 166.871 112.29 166.871 112.412C166.871 112.535 166.871 112.684 166.827 112.816C166.827 113.184 166.739 113.562 166.704 113.939C166.669 114.316 166.651 114.5 166.634 114.816C166.616 115.132 166.634 115.413 166.573 115.693C166.415 117.825 166.406 119.965 166.546 122.097Z" fill="#D3766A"/>
<path d="M166.904 112.097C167.705 114.053 168.922 115.811 170.47 117.25C172.018 118.689 173.861 119.774 175.87 120.431L177.151 113.29L168.571 108.272L167.343 107.623C167.343 107.623 167.159 109.596 166.904 112.097Z" fill="#263238"/>
<path d="M186.741 101.701C189.434 114.149 182.285 117.167 179.592 117.746C177.162 118.272 168.793 119.746 164.827 107.64C160.862 95.5339 165.801 90.3406 171.31 88.8492C176.819 87.3579 184.048 89.2878 186.741 101.701Z" fill="#D3766A"/>
<path d="M183.083 100.473C182.79 100.47 182.497 100.45 182.206 100.412C181.896 100.435 181.588 100.354 181.329 100.183C181.258 100.114 181.212 100.023 181.198 99.9247C181.184 99.8266 181.202 99.7264 181.25 99.6395C181.371 99.4786 181.534 99.3542 181.721 99.2799C181.909 99.2056 182.113 99.1844 182.311 99.2184C182.72 99.2214 183.113 99.3743 183.417 99.6483C183.484 99.7153 183.53 99.8006 183.549 99.8936C183.568 99.9867 183.559 100.083 183.524 100.171C183.488 100.259 183.427 100.335 183.349 100.389C183.271 100.442 183.178 100.472 183.083 100.473Z" fill="#263238"/>
<path d="M174.556 103.105C174.836 103.017 175.111 102.915 175.381 102.798C175.688 102.734 175.965 102.57 176.17 102.333C176.219 102.245 176.237 102.143 176.223 102.043C176.209 101.944 176.162 101.851 176.091 101.78C175.927 101.664 175.734 101.594 175.534 101.577C175.334 101.56 175.132 101.597 174.951 101.684C174.561 101.802 174.227 102.057 174.012 102.403C173.97 102.486 173.952 102.579 173.961 102.672C173.97 102.764 174.005 102.853 174.062 102.926C174.119 103 174.196 103.055 174.283 103.087C174.37 103.119 174.465 103.125 174.556 103.105Z" fill="#263238"/>
<path d="M176.723 104.623C176.723 104.623 176.661 104.675 176.67 104.71C176.837 105.588 176.889 106.561 176.17 106.974C176.17 106.974 176.17 107.035 176.17 107.026C177.1 106.728 177.021 105.403 176.723 104.623Z" fill="#263238"/>
<path d="M175.808 103.859C174.414 103.982 174.773 106.763 176.063 106.64C177.352 106.517 176.975 103.754 175.808 103.859Z" fill="#263238"/>
<path d="M175.285 104.07C175.057 104.263 174.855 104.57 174.574 104.64C174.294 104.71 173.943 104.456 173.697 104.201C173.697 104.201 173.645 104.201 173.653 104.245C173.715 104.771 173.987 105.298 174.531 105.298C175.074 105.298 175.408 104.789 175.408 104.236C175.478 104.131 175.373 103.999 175.285 104.07Z" fill="#263238"/>
<path d="M181.732 103.421C181.732 103.421 181.803 103.421 181.811 103.482C181.925 104.36 182.206 105.307 183.031 105.456C183.031 105.456 183.031 105.456 183.031 105.509C182.066 105.535 181.732 104.254 181.732 103.421Z" fill="#263238"/>
<path d="M182.338 102.394C183.698 102.052 184.277 104.789 183.022 105.105C181.768 105.421 181.206 102.675 182.338 102.394Z" fill="#263238"/>
<path d="M182.951 102.447C183.197 102.543 183.468 102.763 183.732 102.719C183.995 102.675 184.188 102.333 184.319 102.008C184.319 102.008 184.363 102.008 184.372 102.008C184.495 102.526 184.442 103.105 183.96 103.315C183.477 103.526 183.082 103.122 182.854 102.631C182.811 102.579 182.846 102.447 182.951 102.447Z" fill="#263238"/>
<path d="M178.293 111.64C178.512 111.825 178.74 112.088 179.056 112.088C179.366 112.051 179.665 111.949 179.933 111.789C179.824 111.971 179.667 112.118 179.48 112.217C179.293 112.316 179.083 112.362 178.872 112.351C178.69 112.325 178.521 112.242 178.389 112.114C178.257 111.987 178.168 111.821 178.135 111.64C178.222 111.632 178.222 111.614 178.293 111.64Z" fill="#263238"/>
<path d="M181.45 108.026C181.45 108.026 181.801 109.289 181.889 109.895C181.889 109.947 181.757 110 181.547 110.035C181.04 110.202 180.497 110.226 179.977 110.106C179.457 109.985 178.981 109.724 178.599 109.351C178.547 109.298 178.599 109.228 178.678 109.254C179.523 109.673 180.479 109.808 181.407 109.64C181.407 109.465 180.731 107.5 180.819 107.482C181.296 107.461 181.774 107.502 182.24 107.605C181.573 104.973 180.485 102.447 179.863 99.8062C179.854 99.7864 179.854 99.7642 179.863 99.7445C179.871 99.7247 179.887 99.709 179.906 99.7009C179.926 99.6928 179.948 99.6928 179.968 99.701C179.988 99.7093 180.004 99.725 180.012 99.7448C181.258 102.405 182.236 105.182 182.933 108.035C183.012 108.377 181.731 108.096 181.45 108.026Z" fill="#263238"/>
<path d="M181.458 109.825C181.194 110.367 180.791 110.83 180.292 111.167C180.015 111.346 179.69 111.434 179.362 111.421C178.642 111.421 178.484 110.755 178.484 110.193C178.494 109.896 178.542 109.601 178.625 109.316C179.49 109.785 180.484 109.964 181.458 109.825Z" fill="#263238"/>
<path d="M180.292 111.167C180.015 111.345 179.69 111.434 179.362 111.421C178.642 111.421 178.484 110.754 178.484 110.193C178.851 110.126 179.231 110.185 179.559 110.362C179.888 110.539 180.146 110.823 180.292 111.167Z" fill="#FF9ABB"/>
<path d="M164.915 108.325C165.701 107.871 166.357 107.221 166.818 106.438C167.279 105.656 167.53 104.768 167.546 103.859C169.701 102.735 171.518 101.058 172.81 98.9994C172.748 99.2626 172.248 101.201 171.933 102.184C179.924 100.149 182.03 93.7973 182.03 93.7973C183.666 95.1203 184.985 96.7929 185.89 98.6924C185.89 98.6924 185.627 93.7271 182.854 90.569C181.953 89.4666 180.774 88.6245 179.438 88.1295C178.103 87.6345 176.66 87.5046 175.257 87.753C173.243 87.4171 171.175 87.6264 169.268 88.3591C167.362 89.0918 165.686 90.3213 164.414 91.92C159.528 97.973 164.915 108.325 164.915 108.325Z" fill="#263238"/>
<path d="M178.092 100.447C176.836 101.23 175.47 101.821 174.039 102.201C176.272 101.433 178.247 100.056 179.741 98.2274C180.374 97.4452 180.907 96.5878 181.329 95.6746C181.829 94.6907 182.127 93.617 182.206 92.5164C182.206 92.4375 182.329 92.4462 182.329 92.5164C182.367 93.609 182.222 94.7001 181.899 95.7447C181.531 96.765 180.981 97.7101 180.276 98.5344C179.641 99.2636 178.906 99.8987 178.092 100.421" fill="#263238"/>
<path d="M167.134 107.026C167.134 107.026 163.879 103.438 162.212 104.649C160.546 105.86 163.353 111.316 165.546 111.825C165.823 111.911 166.116 111.941 166.405 111.911C166.694 111.882 166.974 111.794 167.229 111.652C167.483 111.511 167.706 111.32 167.884 111.091C168.062 110.861 168.192 110.597 168.265 110.316L167.134 107.026Z" fill="#D3766A"/>
<path d="M163.055 106.193C163.055 106.193 163.055 106.193 163.055 106.246C163.772 106.499 164.429 106.898 164.983 107.419C165.538 107.941 165.977 108.572 166.274 109.272C166.169 109.136 166.036 109.024 165.884 108.944C165.732 108.864 165.564 108.818 165.393 108.809C165.221 108.8 165.05 108.828 164.89 108.891C164.73 108.954 164.586 109.051 164.467 109.176C164.467 109.176 164.467 109.263 164.52 109.246C164.768 109.131 165.046 109.096 165.315 109.146C165.583 109.197 165.83 109.33 166.02 109.526C166.353 109.851 166.648 110.213 166.897 110.605C166.985 110.728 167.213 110.605 167.143 110.483C166.888 108.588 165.064 106.123 163.055 106.193Z" fill="#263238"/>
<path d="M165.37 120.869C164.896 124.141 164.361 127.396 163.809 130.659L163.642 130.387C165.563 130.887 167.467 131.44 169.388 131.966L169.704 132.054L169.563 132.361C168.993 133.624 168.432 134.888 167.809 136.133L167.73 135.783C169.756 137.537 171.809 139.292 173.809 141.046C175.809 142.801 177.827 144.617 179.801 146.45C177.678 144.792 175.599 143.099 173.529 141.379C171.458 139.66 169.405 137.923 167.344 136.204L167.177 136.054L167.265 135.853C167.826 134.589 168.423 133.335 169.019 132.089L169.195 132.484C167.291 131.923 165.379 131.387 163.484 130.808L163.273 130.738V130.537C163.984 127.352 164.642 124.115 165.37 120.869Z" fill="#263238"/>
<path d="M175.994 122.817C177.056 123.922 177.801 124.712 178.836 125.852C179.872 126.993 180.924 128.107 181.933 129.265L182.135 129.502L181.863 129.668L179.872 130.905L179.933 130.458C180.749 131.282 181.582 132.098 182.381 132.932L182.486 133.046V133.195C182.074 135.414 181.696 137.643 181.249 139.862C180.802 142.081 180.372 144.301 179.863 146.503C180.135 144.257 180.468 142.02 180.81 139.783C181.152 137.546 181.538 135.327 181.898 133.09L181.986 133.353C181.152 132.537 180.354 131.695 179.547 130.861L179.293 130.607L179.6 130.423L181.617 129.212L181.547 129.616C180.547 128.458 179.582 127.265 178.6 126.107C177.617 124.949 176.942 124.028 175.994 122.817Z" fill="#263238"/>
<path d="M179.836 146.503C180.117 147.582 180.406 148.661 180.661 149.749C180.915 150.837 181.169 151.916 181.406 153.003C181.485 155.433 181.511 157.855 181.547 160.276C181.582 162.697 181.547 165.127 181.547 167.557C181.406 165.136 181.301 162.706 181.222 160.285C181.143 157.863 181.082 155.442 181.055 153.012C180.827 151.924 180.608 150.828 180.415 149.731C180.222 148.635 179.976 147.608 179.836 146.503Z" fill="#263238"/>
<path d="M179.198 149.398C179.203 149.547 179.164 149.695 179.088 149.823C179.011 149.952 178.899 150.056 178.765 150.122C178.631 150.189 178.48 150.215 178.332 150.199C178.183 150.182 178.042 150.124 177.926 150.029C177.831 149.954 177.754 149.858 177.701 149.748C177.648 149.639 177.621 149.519 177.621 149.398C177.621 149.276 177.648 149.156 177.701 149.047C177.754 148.938 177.831 148.842 177.926 148.766C178.042 148.672 178.183 148.613 178.332 148.597C178.48 148.58 178.631 148.607 178.765 148.673C178.899 148.74 179.011 148.843 179.088 148.972C179.164 149.1 179.203 149.248 179.198 149.398ZM179.198 149.398C179.195 149.317 179.174 149.237 179.136 149.166C179.098 149.094 179.044 149.033 178.978 148.985C178.918 148.943 178.849 148.914 178.776 148.902C178.703 148.89 178.628 148.894 178.557 148.915C178.46 148.953 178.377 149.019 178.319 149.105C178.261 149.192 178.231 149.294 178.233 149.398C178.227 149.502 178.256 149.606 178.314 149.693C178.373 149.78 178.458 149.846 178.557 149.88C178.628 149.9 178.702 149.905 178.775 149.895C178.847 149.884 178.917 149.858 178.978 149.819C179.044 149.769 179.097 149.705 179.135 149.633C179.173 149.56 179.194 149.48 179.198 149.398Z" fill="#263238"/>
<path d="M180.143 156.416C180.144 156.6 180.081 156.779 179.964 156.922C179.847 157.065 179.684 157.162 179.503 157.197C179.393 157.219 179.28 157.217 179.17 157.192C179.061 157.166 178.959 157.117 178.871 157.047C178.776 156.972 178.699 156.876 178.647 156.766C178.594 156.657 178.566 156.537 178.566 156.416C178.566 156.294 178.594 156.174 178.647 156.065C178.699 155.956 178.776 155.86 178.871 155.784C178.987 155.69 179.128 155.631 179.277 155.615C179.426 155.598 179.576 155.625 179.71 155.691C179.844 155.758 179.956 155.862 180.033 155.99C180.11 156.118 180.148 156.266 180.143 156.416ZM180.143 156.416C180.14 156.334 180.118 156.254 180.08 156.181C180.042 156.108 179.989 156.045 179.924 155.995C179.862 155.955 179.792 155.929 179.72 155.919C179.647 155.908 179.573 155.913 179.503 155.933C179.405 155.971 179.322 156.037 179.263 156.123C179.204 156.209 179.172 156.311 179.172 156.416C179.172 156.52 179.204 156.622 179.263 156.708C179.322 156.794 179.405 156.86 179.503 156.898C179.573 156.918 179.647 156.923 179.72 156.913C179.792 156.902 179.862 156.876 179.924 156.837C179.989 156.787 180.042 156.723 180.08 156.651C180.118 156.578 180.14 156.498 180.143 156.416Z" fill="#263238"/>
<path d="M180.468 162.838C180.468 163.021 180.406 163.2 180.291 163.343C180.176 163.487 180.016 163.587 179.836 163.627C179.724 163.646 179.61 163.642 179.5 163.615C179.389 163.588 179.286 163.538 179.196 163.469C179.102 163.393 179.027 163.296 178.975 163.187C178.923 163.078 178.896 162.958 178.896 162.838C178.896 162.717 178.923 162.597 178.975 162.488C179.027 162.379 179.102 162.282 179.196 162.206C179.286 162.137 179.389 162.087 179.5 162.06C179.61 162.033 179.724 162.029 179.836 162.048C180.016 162.088 180.176 162.188 180.291 162.332C180.406 162.475 180.468 162.654 180.468 162.838ZM180.468 162.838C180.468 162.756 180.448 162.676 180.409 162.604C180.371 162.532 180.316 162.471 180.249 162.425C180.19 162.382 180.122 162.354 180.05 162.344C179.978 162.333 179.905 162.34 179.836 162.364C179.738 162.398 179.654 162.463 179.594 162.547C179.534 162.632 179.503 162.734 179.503 162.838C179.499 162.943 179.53 163.047 179.59 163.134C179.65 163.221 179.736 163.286 179.836 163.32C179.905 163.34 179.978 163.345 180.049 163.334C180.12 163.324 180.188 163.298 180.249 163.259C180.315 163.21 180.369 163.146 180.407 163.073C180.445 163 180.466 162.92 180.468 162.838Z" fill="#263238"/>
</svg>
