<svg width="453" height="399" viewBox="0 0 453 399" fill="none" xmlns="http://www.w3.org/2000/svg">
<path d="M210.675 371.147L86.0838 143.692L0 172.826L27.9205 227.119L26.1526 224.085L20.9221 225.822C20.4013 225.996 19.9244 226.281 19.5241 226.657C19.1237 227.033 18.8094 227.491 18.6027 228C18.3961 228.508 18.3019 229.056 18.3266 229.605C18.3514 230.153 18.4945 230.69 18.7462 231.178L32.5129 257.948C33.3904 259.66 34.79 261.048 36.509 261.911C38.228 262.774 40.1772 263.068 42.0743 262.749L45.8925 262.111L112.948 392.508L210.675 371.147Z" fill="#2E353A"/>
<path d="M291.162 45.4843C289.823 46.2159 288.248 46.3868 286.783 45.9593C285.319 45.5318 284.083 44.5408 283.348 43.2037L280.157 37.377L86.084 143.692L210.675 371.147L404.758 264.842L336.929 141.014C336.198 139.677 336.027 138.104 336.455 136.641C336.882 135.177 337.873 133.944 339.21 133.21C339.873 132.847 340.458 132.357 340.931 131.768C341.405 131.178 341.757 130.502 341.969 129.776C342.181 129.05 342.248 128.29 342.165 127.538C342.083 126.787 341.854 126.059 341.49 125.396L298.966 47.7648C298.233 46.4284 296.999 45.4376 295.536 45.0101C294.073 44.5825 292.5 44.753 291.162 45.4843Z" fill="#FFC727" stroke="#2E353A" stroke-linecap="round" stroke-linejoin="round"/>
<path d="M300.817 53.8768L143.197 110.064L218.455 321.179L376.074 264.992L300.817 53.8768Z" fill="white" stroke="#2E353A" stroke-linecap="round" stroke-linejoin="round"/>
<path d="M300.826 53.8846L143.207 110.072L170.932 187.847L328.551 131.66L300.826 53.8846Z" fill="white" stroke="#2E353A" stroke-linecap="round" stroke-linejoin="round"/>
<path d="M288.625 133.787C300.395 126.315 303.878 110.717 296.406 98.9473C288.934 87.1778 273.336 83.694 261.566 91.166C249.797 98.638 246.313 114.236 253.785 126.006C261.257 137.775 276.856 141.259 288.625 133.787Z" fill="#2E353A" stroke="#2E353A" stroke-linecap="round" stroke-linejoin="round"/>
<path d="M283.567 136.286C287.067 135.043 290.248 133.041 292.883 130.424C295.518 127.807 297.541 124.64 298.809 121.149C294.426 111.337 283.714 106.221 274.069 109.642C264.424 113.063 259.371 123.827 262.185 134.194C265.375 136.097 268.946 137.271 272.642 137.633C276.339 137.995 280.069 137.535 283.567 136.286Z" fill="white" stroke="#2E353A" stroke-linecap="round" stroke-linejoin="round"/>
<path d="M281.877 117.377C287.172 112.699 287.673 104.614 282.994 99.3183C278.316 94.023 270.231 93.5228 264.936 98.2011C259.64 102.879 259.14 110.965 263.818 116.26C268.497 121.555 276.582 122.055 281.877 117.377Z" fill="white" stroke="#2E353A" stroke-linecap="round" stroke-linejoin="round"/>
<path d="M222.094 113.15L166.934 132.813L169.192 139.149L224.353 119.486L222.094 113.15Z" fill="white" stroke="#2E353A" stroke-linecap="round" stroke-linejoin="round"/>
<path d="M227.528 128.373L172.367 148.037L174.626 154.373L229.787 134.709L227.528 128.373Z" fill="white" stroke="#2E353A" stroke-linecap="round" stroke-linejoin="round"/>
<path d="M232.038 141.043L176.877 160.707L178.008 163.88L233.169 144.216L232.038 141.043Z" fill="#2E353A"/>
<path d="M234.751 148.657L179.59 168.32L180.721 171.493L235.882 151.83L234.751 148.657Z" fill="#2E353A"/>
<path d="M248.536 187.333L193.375 206.996L194.506 210.169L249.667 190.505L248.536 187.333Z" fill="#2E353A"/>
<path d="M251.018 194.313L195.857 213.977L196.988 217.15L252.149 197.486L251.018 194.313Z" fill="#2E353A"/>
<path d="M253.508 201.284L198.348 220.948L199.479 224.121L254.64 204.457L253.508 201.284Z" fill="#2E353A"/>
<path d="M323.352 160.658L268.191 180.322L269.322 183.495L324.483 163.831L323.352 160.658Z" fill="#2E353A"/>
<path d="M325.844 167.64L270.684 187.303L271.815 190.476L326.975 170.813L325.844 167.64Z" fill="#2E353A"/>
<path d="M328.325 174.614L273.164 194.277L274.295 197.45L329.456 177.787L328.325 174.614Z" fill="#2E353A"/>
<path d="M189.836 201.134L322.994 153.683" stroke="#2E353A" stroke-linecap="round" stroke-linejoin="round"/>
<path d="M261.421 223.472L206.26 243.136L207.391 246.309L262.552 226.645L261.421 223.472Z" fill="#2E353A"/>
<path d="M263.903 230.457L208.742 250.121L209.873 253.293L265.034 233.63L263.903 230.457Z" fill="#2E353A"/>
<path d="M266.395 237.428L211.234 257.091L212.365 260.264L267.526 240.601L266.395 237.428Z" fill="#2E353A"/>
<path d="M336.237 196.802L281.076 216.465L282.207 219.638L337.368 199.975L336.237 196.802Z" fill="#2E353A"/>
<path d="M338.729 203.783L283.568 223.447L284.699 226.62L339.86 206.956L338.729 203.783Z" fill="#2E353A"/>
<path d="M341.21 210.757L286.049 230.421L287.18 233.594L342.341 213.93L341.21 210.757Z" fill="#2E353A"/>
<path d="M202.715 237.277L335.873 189.826" stroke="#2E353A" stroke-linecap="round" stroke-linejoin="round"/>
<path d="M346.181 224.695L215.561 271.258L226.861 302.957L357.481 256.394L346.181 224.695Z" fill="#2E353A" stroke="#2E353A" stroke-linecap="round" stroke-linejoin="round"/>
<path d="M280.184 66.9427L126.393 132.89L214.722 338.878L368.513 272.931L280.184 66.9427Z" fill="white" stroke="#2E353A" stroke-linecap="round" stroke-linejoin="round"/>
<path d="M280.194 66.9461L126.402 132.893L158.943 208.779L312.735 142.832L280.194 66.9461Z" fill="white" stroke="#2E353A" stroke-linecap="round" stroke-linejoin="round"/>
<path d="M279.519 140.536C286.96 128.747 283.435 113.158 271.646 105.717C259.857 98.2755 244.268 101.8 236.827 113.589C229.386 125.378 232.91 140.967 244.699 148.409C256.488 155.85 272.078 152.325 279.519 140.536Z" fill="#2E353A" stroke="#2E353A" stroke-linecap="round" stroke-linejoin="round"/>
<path d="M268.127 150.272C271.541 148.811 274.589 146.612 277.054 143.834C279.519 141.056 281.34 137.768 282.385 134.204C277.405 124.695 266.39 120.249 256.986 124.287C247.581 128.325 243.208 139.361 246.66 149.53C249.963 151.226 253.6 152.173 257.31 152.301C261.021 152.43 264.715 151.737 268.127 150.272Z" fill="white" stroke="#2E353A" stroke-linecap="round" stroke-linejoin="round"/>
<path d="M264.923 131.797C270.089 126.977 270.371 118.881 265.551 113.714C260.731 108.547 252.635 108.266 247.469 113.086C242.302 117.906 242.02 126.001 246.84 131.168C251.66 136.335 259.756 136.616 264.923 131.797Z" fill="white" stroke="#2E353A" stroke-linecap="round" stroke-linejoin="round"/>
<path d="M205.325 131.037L151.504 154.116L154.155 160.298L207.976 137.219L205.325 131.037Z" fill="white" stroke="#2E353A" stroke-linecap="round" stroke-linejoin="round"/>
<path d="M211.694 145.882L157.873 168.961L160.524 175.143L214.345 152.064L211.694 145.882Z" fill="white" stroke="#2E353A" stroke-linecap="round" stroke-linejoin="round"/>
<path d="M217.001 158.25L163.18 181.329L164.507 184.425L218.329 161.346L217.001 158.25Z" fill="#2E353A"/>
<path d="M220.185 165.674L166.363 188.753L167.691 191.849L221.512 168.77L220.185 165.674Z" fill="#2E353A"/>
<path d="M236.372 203.411L182.551 226.49L183.878 229.586L237.7 206.507L236.372 203.411Z" fill="#2E353A"/>
<path d="M239.29 210.215L185.469 233.294L186.796 236.39L240.618 213.311L239.29 210.215Z" fill="#2E353A"/>
<path d="M242.198 217.033L188.377 240.112L189.704 243.208L243.526 220.129L242.198 217.033Z" fill="#2E353A"/>
<path d="M309.362 172.123L255.541 195.202L256.869 198.297L310.69 175.219L309.362 172.123Z" fill="#2E353A"/>
<path d="M312.278 178.917L258.457 201.996L259.785 205.091L313.606 182.012L312.278 178.917Z" fill="#2E353A"/>
<path d="M315.206 185.731L261.385 208.81L262.712 211.905L316.534 188.826L315.206 185.731Z" fill="#2E353A"/>
<path d="M178.645 220.863L308.571 165.158" stroke="#2E353A" stroke-linecap="round" stroke-linejoin="round"/>
<path d="M251.487 238.682L197.666 261.761L198.994 264.857L252.815 241.778L251.487 238.682Z" fill="#2E353A"/>
<path d="M254.411 245.476L200.59 268.555L201.917 271.651L255.739 248.572L254.411 245.476Z" fill="#2E353A"/>
<path d="M257.331 252.29L203.51 275.369L204.837 278.464L258.659 255.386L257.331 252.29Z" fill="#2E353A"/>
<path d="M324.497 207.38L270.676 230.458L272.003 233.554L325.825 210.475L324.497 207.38Z" fill="#2E353A"/>
<path d="M327.409 214.173L273.588 237.252L274.915 240.348L328.737 217.269L327.409 214.173Z" fill="#2E353A"/>
<path d="M330.317 220.991L276.496 244.07L277.824 247.166L331.645 224.087L330.317 220.991Z" fill="#2E353A"/>
<path d="M193.758 256.128L323.684 200.423" stroke="#2E353A" stroke-linecap="round" stroke-linejoin="round"/>
<path d="M336.159 234.591L208.711 289.242L221.974 320.171L349.422 265.52L336.159 234.591Z" fill="#2E353A" stroke="#2E353A" stroke-linecap="round" stroke-linejoin="round"/>
<path d="M245.017 65.5804L104.662 156.693L226.698 344.683L367.052 253.571L245.017 65.5804Z" fill="white" stroke="#2E353A" stroke-linecap="round" stroke-linejoin="round"/>
<path d="M245.022 65.5892L104.668 156.702L149.626 225.958L289.981 134.845L245.022 65.5892Z" fill="white" stroke="#2E353A" stroke-linecap="round" stroke-linejoin="round"/>
<path d="M237.574 153.457C251.334 151.221 260.677 138.253 258.441 124.492C256.205 110.732 243.237 101.389 229.476 103.625C215.716 105.862 206.373 118.829 208.609 132.59C210.846 146.35 223.813 155.693 237.574 153.457Z" fill="#2E353A" stroke="#2E353A" stroke-linecap="round" stroke-linejoin="round"/>
<path d="M247.288 149.645C250.405 147.625 253.037 144.941 254.995 141.785C256.954 138.629 258.191 135.08 258.617 131.39C252.089 122.854 240.478 120.364 231.9 125.93C223.322 131.495 220.874 143.127 226.01 152.563C229.552 153.676 233.297 153.992 236.976 153.487C240.655 152.983 244.176 151.671 247.288 149.645Z" fill="#FFC727" stroke="#2E353A" stroke-linecap="round" stroke-linejoin="round"/>
<path d="M239.096 134.038C244.475 129.455 245.12 121.381 240.538 116.002C235.956 110.623 227.881 109.978 222.502 114.56C217.124 119.143 216.478 127.218 221.061 132.596C225.643 137.975 233.718 138.62 239.096 134.038Z" fill="white" stroke="#2E353A" stroke-linecap="round" stroke-linejoin="round"/>
<path d="M182.125 141.457L133.006 173.343L136.668 178.985L185.787 147.099L182.125 141.457Z" fill="white" stroke="#2E353A" stroke-linecap="round" stroke-linejoin="round"/>
<path d="M190.918 155.008L141.799 186.894L145.461 192.535L194.58 160.65L190.918 155.008Z" fill="white" stroke="#2E353A" stroke-linecap="round" stroke-linejoin="round"/>
<path d="M197.369 167.689L148.178 199.312L149.997 202.141L199.188 170.518L197.369 167.689Z" fill="#2E353A"/>
<path d="M202.652 173.067L153.533 204.953L155.367 207.778L204.486 175.892L202.652 173.067Z" fill="#2E353A"/>
<path d="M225.017 207.506L175.898 239.392L177.733 242.217L226.851 210.331L225.017 207.506Z" fill="#2E353A"/>
<path d="M229.049 213.725L179.93 245.611L181.764 248.437L230.883 216.551L229.049 213.725Z" fill="#2E353A"/>
<path d="M233.078 219.946L183.959 251.832L185.793 254.657L234.912 222.771L233.078 219.946Z" fill="#2E353A"/>
<path d="M291.64 164.253L242.521 196.139L244.356 198.964L293.474 167.078L291.64 164.253Z" fill="#2E353A"/>
<path d="M295.679 170.468L246.561 202.354L248.395 205.179L297.513 173.293L295.679 170.468Z" fill="#2E353A"/>
<path d="M299.711 176.687L250.592 208.573L252.426 211.399L301.545 179.513L299.711 176.687Z" fill="#2E353A"/>
<path d="M171.111 234.463L289.677 157.48" stroke="#2E353A" stroke-linecap="round" stroke-linejoin="round"/>
<path d="M245.91 239.699L196.791 271.585L198.625 274.411L247.744 242.525L245.91 239.699Z" fill="#2E353A"/>
<path d="M249.937 245.911L200.818 277.797L202.652 280.622L251.771 248.736L249.937 245.911Z" fill="#2E353A"/>
<path d="M253.976 252.115L204.857 284.001L206.692 286.826L255.81 254.94L253.976 252.115Z" fill="#2E353A"/>
<path d="M312.535 196.447L263.416 228.333L265.25 231.158L314.369 199.272L312.535 196.447Z" fill="#2E353A"/>
<path d="M316.57 202.653L267.451 234.539L269.285 237.364L318.404 205.478L316.57 202.653Z" fill="#2E353A"/>
<path d="M320.59 208.873L271.471 240.759L273.305 243.584L322.424 211.698L320.59 208.873Z" fill="#2E353A"/>
<path d="M192.002 266.641L310.567 189.668" stroke="#2E353A" stroke-linecap="round" stroke-linejoin="round"/>
<path d="M328.67 221.291L212.357 296.797L230.681 325.024L346.994 249.518L328.67 221.291Z" fill="#2E353A" stroke="#2E353A" stroke-linecap="round" stroke-linejoin="round"/>
<path d="M86.0844 143.692L11.6855 86.0938L55.9566 169.144C57.0027 171.152 54.2306 171.529 51.4061 169.751C48.5502 167.962 45.7362 168.359 46.8555 170.389L69.8175 212.128C70.1824 212.723 70.6625 213.239 71.2297 213.645L82.444 222.098C83.0273 222.509 83.5159 223.041 83.8771 223.656L130.335 311.895L210.686 371.146L86.0844 143.692Z" fill="#FFC727" stroke="#2E353A" stroke-linecap="round" stroke-linejoin="round"/>
<path opacity="0.25" d="M86.0844 143.692L11.6855 86.0938L55.9566 169.144C57.0027 171.152 54.2306 171.529 51.4061 169.751C48.5502 167.962 45.7362 168.359 46.8555 170.389L69.8175 212.128C70.1824 212.723 70.6625 213.239 71.2297 213.645L82.444 222.098C83.0273 222.509 83.5159 223.041 83.8771 223.656L130.335 311.895L210.686 371.146L86.0844 143.692Z" fill="#2E353A" stroke="#2E353A" stroke-linecap="round" stroke-linejoin="round"/>
<path d="M402.978 270.49C402.962 270.453 402.932 270.423 402.895 270.407C401.671 269.873 391.387 269.967 391.115 270.574C391.115 270.647 391.168 270.741 391.325 270.846C391.544 270.984 391.775 271.103 392.015 271.202C392.308 271.327 392.664 271.463 393.061 271.599C393.459 271.735 393.835 271.871 394.243 271.997L395.99 272.541L396.911 272.813L397.518 272.98L386.868 283.284C384.65 285.309 382.321 287.209 379.891 288.975L379.41 288.494C378.713 287.821 377.976 287.192 377.202 286.611V286.339C376.301 286.913 375.361 287.423 374.388 287.866C370.748 289.697 360.538 294.279 356.897 301.622C355.073 305.349 353.047 308.974 350.83 312.481V312.962H350.537C347.012 312.659 340.296 315.002 335.358 317.439C331.142 319.771 327.081 322.374 323.202 325.233L319.374 326.582C317.982 326.781 315.43 327.105 315.074 327.534C314.719 327.963 312.239 327.534 311.141 327.806C310.042 328.078 310.356 328.852 310.356 328.852L312.448 329.051L298.65 333.853L309.75 342.661L324.803 337.075L325.608 337.274C327.214 337.767 328.948 337.613 330.441 336.845C330.973 336.645 331.493 336.418 332 336.165C334.783 335.799 343.246 333.936 346.185 333.288C348.393 336.28 354.69 341.311 355.768 343.487C355.818 343.603 355.86 343.722 355.893 343.843C355.893 343.843 355.893 343.895 355.893 343.927C355.915 344.016 355.915 344.109 355.893 344.199C355.395 345.416 354.745 346.565 353.958 347.62C352.524 347.028 351.044 346.555 349.533 346.207C343.811 344.889 340.683 350.831 339.689 351.124C338.695 351.417 337.482 352.296 338.643 353.132C339.804 353.969 338.047 354.743 337.335 355.873C336.893 356.766 336.593 357.723 336.446 358.708C332.67 359.033 329.437 360.591 328.6 362.893C327.554 365.832 337.084 367.987 337.084 367.987C337.084 367.987 350.276 373.144 360.339 369.912C370.403 366.68 370.016 361.292 370.8 358.405C371.585 355.518 379.797 348.415 389.013 343.466C398.229 338.518 402.236 334.052 393.469 327.346C387.716 322.942 382.652 320.829 378.479 320.661C378.583 320.41 378.698 320.159 378.813 319.919L379.022 319.458C379.148 319.197 379.294 318.946 379.43 318.684L379.64 318.308C379.859 317.931 380.09 317.565 380.341 317.199C380.777 316.578 381.159 315.92 381.481 315.232C382.498 313.106 382.767 310.699 382.244 308.401C382.066 307.739 381.967 307.057 381.952 306.372C382.161 305.001 384.441 299.614 385.027 297.218C385.049 297.052 385.049 296.883 385.027 296.716C384.943 296.04 384.73 295.387 384.399 294.791C386.753 293.39 391.492 290.837 393.668 288.421C395.844 286.004 400.604 277.395 402.382 272.98C402.455 272.802 402.518 272.624 402.581 272.457C402.644 272.3 402.696 272.133 402.748 271.986C402.79 271.84 402.832 271.704 402.874 271.578V271.526C402.874 271.421 402.936 271.306 402.957 271.212C402.952 271.195 402.952 271.177 402.957 271.16C402.957 271.066 402.957 270.982 402.957 270.909V270.836C402.962 270.78 402.962 270.724 402.957 270.668V270.584C402.957 270.584 402.989 270.522 402.978 270.49ZM347.399 329.375C344.166 330.275 336.718 332.629 332.753 333.947L325.431 327.241C327.209 326.321 331.153 324.605 335.63 322.68C339.782 321.126 344.089 320.021 348.476 319.385C348.84 320.058 349.077 320.792 349.177 321.551C349.595 322.847 350.12 324.107 350.746 325.317C349.905 326.875 348.768 328.253 347.399 329.375Z" fill="#2E353A"/>
<path d="M390.445 220.131C392.637 226.8 394.47 233.581 395.937 240.446C397.412 248.533 400.498 265.364 400.498 265.364C400.498 265.364 392.736 265.804 392.6 267.07C392.464 268.335 402.842 273.346 404.39 272.855C405.938 272.363 406.827 240.781 405.896 233.605C404.965 226.429 400.007 216.867 399.62 214.712C399.233 212.557 398.385 208.362 398.385 208.362L390.445 220.131Z" fill="white" stroke="#2E353A" stroke-linecap="round" stroke-linejoin="round"/>
<path d="M404.389 272.855C404.776 272.74 405.122 270.763 405.435 267.624C402.391 269.863 400.205 267.624 400.205 267.624L400.487 265.386C400.487 265.386 392.725 265.825 392.589 267.091C392.453 268.357 402.841 273.336 404.389 272.855Z" fill="#FF725E" stroke="#2E353A" stroke-linecap="round" stroke-linejoin="round"/>
<path d="M385.833 125.511C385.833 125.511 373.509 112.812 371.679 111.912C369.848 111.012 369.21 112.958 369.733 114.056C370.256 115.155 382.788 131.767 384.912 133.932C387.036 136.098 385.833 125.511 385.833 125.511Z" fill="white" stroke="#2E353A" stroke-linecap="round" stroke-linejoin="round"/>
<path d="M353.864 89.5356L337.346 101.44L356.887 129.633L371.993 116.923L353.864 89.5356Z" fill="#2E353A" stroke="#2E353A" stroke-linecap="round" stroke-linejoin="round"/>
<path d="M353.98 92.6006L340.004 102.675L356.543 126.536L369.326 115.782L353.98 92.6006Z" fill="#FF725E" stroke="#2E353A" stroke-linecap="round" stroke-linejoin="round"/>
<path d="M373.153 114.161C372.617 112.84 371.959 111.572 371.186 110.374C369.827 108.281 368.958 107.162 366.563 107.298C364.783 107.35 363.002 107.221 361.248 106.911C359.878 106.765 359.857 108.742 360.579 109.422C361.301 110.102 365.286 109.934 365.286 109.934C364.878 109.401 365.182 110.269 367.818 113.899C368.561 114.945 371.166 115.123 371.751 115.186" fill="white"/>
<path d="M373.153 114.161C372.617 112.84 371.959 111.572 371.186 110.374C369.827 108.281 368.958 107.162 366.563 107.298C364.783 107.35 363.002 107.221 361.248 106.911C359.878 106.765 359.857 108.742 360.579 109.422C361.301 110.102 365.286 109.934 365.286 109.934C364.878 109.401 365.182 110.269 367.818 113.899C368.561 114.945 371.166 115.123 371.751 115.186" stroke="#2E353A" stroke-linecap="round" stroke-linejoin="round"/>
<path d="M390.834 68.8332C390.208 71.4169 389.798 74.0482 389.61 76.6999C389.61 79.2106 390.97 81.5538 389.275 82.6209C387.58 83.6879 388.292 85.9684 389.118 86.9936C389.945 88.0188 389.516 101.001 396.096 101.095C402.676 101.189 409.005 97.7998 410.344 94.1803C411.683 90.5608 414.999 80.2567 410.825 75.4028C406.651 70.5489 394.684 62.3474 390.834 68.8332Z" fill="white" stroke="#2E353A" stroke-linecap="round" stroke-linejoin="round"/>
<path d="M391.085 80.853L392.121 82.7569L390.865 82.7988" stroke="#2E353A" stroke-linecap="round" stroke-linejoin="round"/>
<path d="M390.875 77.7983C390.875 77.7983 392.842 77.7983 392.967 81.0622" stroke="#2E353A" stroke-linecap="round" stroke-linejoin="round"/>
<path d="M401.326 99.1494C401.576 102.073 401.576 105.013 401.326 107.937C401.247 108.413 401.057 108.865 400.771 109.255C404.039 107.011 407.548 105.141 411.233 103.679L412.279 103.282C411.743 98.8418 411.478 94.3737 411.484 89.9019L401.326 99.1494Z" fill="white" stroke="#2E353A" stroke-linecap="round" stroke-linejoin="round"/>
<path d="M373.258 224.368C373.258 224.368 372.693 238.543 373.886 243.386C375.079 248.23 379.483 288.295 379.294 291.915C379.106 295.534 378.96 297.02 378.96 297.02C378.96 297.02 368.07 298.61 366.961 298.924C365.852 299.238 365.486 300.692 371.511 302.418C377.537 304.144 382.171 306.79 383.458 304.792C384.744 302.794 386.491 295.377 387.004 289.969C388.207 277.416 390.268 263.314 389.033 256.975C387.799 250.636 384.588 242.748 385.027 240.656C385.466 238.564 392.266 215.549 392.266 215.549L373.258 224.368Z" fill="white" stroke="#2E353A" stroke-linecap="round" stroke-linejoin="round"/>
<path d="M383.458 304.792C384.122 303.413 384.577 301.943 384.807 300.43C381.617 302.114 377.694 299.729 377.694 299.729L378.96 297.02C378.96 297.02 368.07 298.61 366.961 298.923C365.852 299.237 365.486 300.691 371.511 302.417C377.537 304.143 382.171 306.79 383.458 304.792Z" fill="#FF725E" stroke="#2E353A" stroke-linecap="round" stroke-linejoin="round"/>
<path d="M401.325 99.1494C401.575 102.073 401.575 105.013 401.325 107.937C400.886 111.964 382.653 123.775 383.113 128.221C383.573 132.667 385.718 138.859 384.515 144.059C383.312 149.258 376.637 167.355 375.309 173.799C373.98 180.243 368.928 229.243 371.208 231.398C373.489 233.553 382.715 232.643 387.36 230.017C392.005 227.391 401.597 217.464 402.445 212.537C403.292 207.609 404.244 196.102 404.861 193.341C405.479 190.579 410.28 183.926 409.747 171.603C409.213 159.279 413.659 144.404 414.705 134.811C415.751 125.218 414.705 112.215 413.042 107.016C411.379 101.817 411.462 89.9019 411.462 89.9019L401.325 99.1494Z" fill="#FF725E" stroke="#2E353A" stroke-linecap="round" stroke-linejoin="round"/>
<path d="M402.422 212.536C403.28 207.609 404.222 196.102 404.839 193.34C405.456 190.578 410.258 183.925 409.724 171.602C409.421 164.844 410.634 157.312 411.963 150.293C408.479 153.599 399.409 161.298 389.733 162.198C382.735 162.857 380.454 160.817 379.795 158.913C377.86 164.75 375.935 170.661 375.286 173.799C373.947 180.243 368.905 229.242 371.186 231.397C373.466 233.552 382.693 232.642 387.337 230.016C391.982 227.391 401.575 217.463 402.422 212.536Z" fill="#2E353A" stroke="#2E353A" stroke-linecap="round" stroke-linejoin="round"/>
<path d="M400.447 198.247L386.324 222.851" stroke="white" stroke-width="0.5" stroke-linecap="round" stroke-linejoin="round"/>
<path d="M393.992 213.98L387.537 226.889" stroke="white" stroke-width="0.5" stroke-linecap="round" stroke-linejoin="round"/>
<path d="M446.831 116.598C444.101 104.767 436.37 100.677 429.55 96.5863C426.411 94.7138 425.365 91.5127 425.219 88.5836L424.873 91.722C424.702 90.2379 424.702 88.7391 424.873 87.2551C424.989 86.5647 425.135 85.8219 425.302 85.0164C425.154 86.1855 425.119 87.366 425.198 88.5418L425.899 81.9932V82.0664C426.945 76.1978 427.415 68.3834 421.264 60.1924C413.052 49.2502 396.629 53.1103 396.629 53.1103C396.629 53.1103 385.676 52.8487 384.996 59.0521C384.316 65.2555 388.396 71.03 393.909 72.2644C393.909 72.2644 395.028 74.6495 396.304 78.2168C395.726 78.7611 395.278 79.43 394.997 80.173C394.997 80.173 396.817 81.0831 397.727 86.9936C398.637 92.904 389.536 103.825 390.404 111.054C391.273 118.283 399.045 118.377 398.585 122.425C398.125 126.473 392.674 125.563 393.135 130.606C393.459 134.194 399.641 138.723 403.596 142.008C403.352 145.49 403.327 148.984 403.522 152.469C401.084 156.426 399.838 161.003 399.934 165.65C400.206 172.387 406.431 174.783 412.341 173.203C413.967 172.759 415.549 172.171 417.07 171.445C422.635 173.684 436.171 171.958 442.678 161.11C449.499 149.739 443.128 146.098 442.678 137.918C442.228 129.737 449.561 128.419 446.831 116.598Z" fill="#2E353A" stroke="#2E353A" stroke-linecap="round" stroke-linejoin="round"/>
<path d="M393.104 63.0376C396.408 67.4394 400.429 71.2549 404.998 74.325C413.639 79.7857 407.728 96.1572 400.907 103.428C394.087 110.698 395.447 117.529 403.177 121.159C410.908 124.789 424.549 128.89 416.777 142.081C409.004 155.273 408.136 165.723 419.507 168.914" stroke="white" stroke-width="0.5" stroke-linecap="round" stroke-linejoin="round"/>
<path d="M390.445 59.3032C390.445 59.3032 391.073 60.3493 392.224 61.8662" stroke="white" stroke-width="0.5" stroke-linecap="round" stroke-linejoin="round"/>
<path d="M429.225 167.355C429.974 167.534 430.752 167.56 431.512 167.433C432.273 167.305 432.999 167.026 433.65 166.612" stroke="white" stroke-width="0.5" stroke-linecap="round" stroke-linejoin="round"/>
<path d="M420.877 117.446C427.928 119.977 435.522 122.111 436.37 129.33C437.74 141.15 421.818 146.611 421.818 156.152C421.818 160.639 423.524 163.82 425.752 165.65" stroke="white" stroke-width="0.5" stroke-linecap="round" stroke-linejoin="round"/>
<path d="M404.996 74.3252C404.996 74.3252 415.907 78.4155 418.595 85.236C421.284 92.0566 404.504 102.068 409.955 110.709C411.639 113.366 414.652 115.029 418.072 116.41" stroke="white" stroke-width="0.5" stroke-linecap="round" stroke-linejoin="round"/>
<path d="M420.207 64.7222C420.207 64.7222 429.622 74.3358 425.322 85.0584C421.023 95.781 419.046 100.624 422.184 103.449C425.322 106.273 441.966 107.487 446.025 120.354" stroke="white" stroke-width="0.5" stroke-linecap="round" stroke-linejoin="round"/>
<path d="M381.963 155.074C381.963 155.074 372.444 148.044 367.945 140.261C363.447 132.478 359.66 125.867 359.754 125.019C359.848 124.172 360.309 119.935 358.991 118.293C357.673 116.65 353.174 114.652 352.589 114.161C352.003 113.669 350.779 115.039 352.139 116.253C353.499 117.466 354.848 118.91 354.848 118.91L346.103 116.671C345.886 117.037 345.786 117.461 345.816 117.885C345.846 118.309 346.004 118.714 346.27 119.046C347.232 120.008 349.984 120.301 350.078 121.389C350.172 122.477 352.955 124.528 354.137 125.469C354.64 125.968 355.263 126.329 355.946 126.515C355.946 126.515 360.957 143.347 364.483 150.377C368.008 157.407 373.375 165.022 377.109 166.068C380.844 167.114 385.426 160.545 385.426 160.545L381.963 155.074Z" fill="white" stroke="#2E353A" stroke-linecap="round" stroke-linejoin="round"/>
<path d="M398.502 121.327C398.502 121.327 393.408 124.842 391.818 129.591C390.228 134.34 382.11 145.879 380.938 148.756C380.406 150.19 379.681 151.545 378.783 152.783C378.783 152.783 379.829 159.06 384.16 162.365C388.491 165.671 389.83 165.347 389.83 165.347C389.83 165.347 405.522 139.843 408.053 133.911C410.585 127.98 405.25 118.419 398.502 121.327Z" fill="#FF725E" stroke="#2E353A" stroke-linecap="round" stroke-linejoin="round"/>
</svg>
