<svg width="366" height="278" viewBox="0 0 366 278" fill="none" xmlns="http://www.w3.org/2000/svg">
<g clip-path="url(#clip0_108_3524)">
<path d="M329.327 247.697H305.082V247.88H329.327V247.697Z" fill="#EBEBEB"/>
<path d="M242.453 249.685H236.09V249.868H242.453V249.685Z" fill="#EBEBEB"/>
<path d="M304.349 240.9H290.301V241.083H304.349V240.9Z" fill="#EBEBEB"/>
<path d="M70.0196 242.13H38.4023V242.313H70.0196V242.13Z" fill="#EBEBEB"/>
<path d="M81.1709 242.13H76.5352V242.313H81.1709V242.13Z" fill="#EBEBEB"/>
<path d="M164.809 245.222H96.2383V245.405H164.809V245.222Z" fill="#EBEBEB"/>
<path d="M173.494 203.27H32.1451C29.8414 203.27 27.9668 201.395 27.9668 199.092V0.403354C27.9668 -1.90025 29.8414 -3.7749 32.1451 -3.7749H173.494C175.796 -3.7749 177.671 -1.90025 177.671 0.403354V199.092C177.671 201.395 175.796 203.27 173.494 203.27ZM32.1451 -3.59117C29.9417 -3.59117 28.1498 -1.79923 28.1498 0.404086V199.092C28.1498 201.296 29.9417 203.088 32.1451 203.088H173.494C175.696 203.088 177.488 201.296 177.488 199.092V0.403354C177.488 -1.79923 175.696 -3.5919 173.494 -3.5919L32.1451 -3.59117Z" fill="#EBEBEB"/>
<path d="M331.824 203.27H190.476C188.173 203.27 186.299 201.395 186.299 199.092V0.403354C186.299 -1.90025 188.173 -3.7749 190.476 -3.7749H331.824C334.128 -3.7749 336.002 -1.90025 336.002 0.403354V199.092C336.003 201.395 334.128 203.27 331.824 203.27ZM190.476 -3.59117C188.274 -3.59117 186.482 -1.79923 186.482 0.404086V199.092C186.482 201.296 188.274 203.088 190.476 203.088H331.824C334.027 203.088 335.819 201.296 335.819 199.092V0.403354C335.819 -1.79923 334.027 -3.5919 331.824 -3.5919L190.476 -3.59117Z" fill="#EBEBEB"/>
<path d="M366 235.915H0V236.098H366V235.915Z" fill="#EBEBEB"/>
<path d="M60.8408 196.276C60.8408 196.276 57.4348 158 39.6523 121.241C39.6523 121.241 65.9041 145.744 66.8242 196.276H60.8408Z" fill="#F5F5F5"/>
<path d="M82.3076 199.267C82.3076 199.267 85.7136 160.991 103.496 124.232C103.496 124.232 77.2443 148.736 76.3242 199.267H82.3076Z" fill="#F5F5F5"/>
<path d="M64.9829 202.202C64.9829 202.202 50.6987 135.566 53.238 100.28C53.238 100.28 72.3476 139.561 71.4267 198.938L64.9829 202.202Z" fill="#E6E6E6"/>
<path d="M75.5371 197.996C75.5371 197.996 76.8986 154.493 83.8826 133.008C83.8826 133.008 89.7072 160.29 80.0323 196.96L75.5371 197.996Z" fill="#F0F0F0"/>
<path d="M71.428 198.938C71.428 198.938 66.8252 140.928 79.7128 114.929C79.7128 114.929 81.0934 167.638 77.8718 198.938H71.428Z" fill="#F5F5F5"/>
<path d="M86.1414 236.036H57.0071L52.8398 193.045H90.308L86.1414 236.036Z" fill="#F0F0F0"/>
<path d="M174.949 236.037H172.021L171.289 156.927H175.681L174.949 236.037Z" fill="#EBEBEB"/>
<path d="M291.424 236.037H288.496L287.764 156.927H292.156L291.424 236.037Z" fill="#EBEBEB"/>
<path d="M301.042 158.792H162.404C160.344 158.792 158.674 157.122 158.674 155.062H304.772C304.772 157.122 303.102 158.792 301.042 158.792Z" fill="#F0F0F0"/>
<path d="M244.138 223.975V187.187H236.539V223.975L213.961 225.855V229.515L240.339 228.051L266.716 229.515V225.855L244.138 223.975Z" fill="#EBEBEB"/>
<path d="M216.976 233.019C216.976 234.686 215.625 236.037 213.959 236.037C212.292 236.037 210.941 234.685 210.941 233.019C210.941 231.352 212.293 230.002 213.959 230.002C215.625 230.001 216.976 231.352 216.976 233.019Z" fill="#E0E0E0"/>
<path d="M269.732 233.019C269.732 234.686 268.381 236.037 266.715 236.037C265.048 236.037 263.697 234.685 263.697 233.019C263.697 231.352 265.049 230.002 266.715 230.002C268.381 230.001 269.732 231.352 269.732 233.019Z" fill="#E0E0E0"/>
<path d="M243.353 233.019C243.353 234.686 242.002 236.037 240.336 236.037C238.67 236.037 237.318 234.685 237.318 233.019C237.318 231.352 238.67 230.002 240.336 230.002C242.002 230.002 243.353 231.352 243.353 233.019Z" fill="#E0E0E0"/>
<path d="M219.143 184.165L217.793 140.306C217.729 138.236 216.032 136.591 213.961 136.591V185.512C213.961 187.63 215.677 189.346 217.795 189.346H266.716C266.716 187.275 265.071 185.578 263.001 185.515L219.143 184.165Z" fill="#E6E6E6"/>
<path d="M251.914 144.131C251.895 143.007 250.978 142.102 249.853 142.102H237.562C236.436 142.102 235.519 143.007 235.501 144.131C235.5 144.183 235.499 144.232 235.499 144.283C235.048 144.139 234.584 144.057 234.13 144.057C232.114 144.057 230.76 145.631 230.76 147.974C230.76 150.215 233.116 151.891 235.223 151.891C235.445 151.891 235.654 151.864 235.858 151.827C236.354 153.349 237.26 154.685 238.452 155.698H248.963C250.807 154.132 251.981 151.803 251.981 149.193C251.98 148.381 251.953 146.475 251.914 144.131ZM235.221 150.577C233.794 150.577 232.071 149.416 232.071 147.973C232.071 147.362 232.219 145.368 234.128 145.368C234.569 145.368 235.037 145.48 235.475 145.675C235.45 147.294 235.434 148.568 235.434 149.192C235.434 149.658 235.483 150.11 235.555 150.555C235.45 150.57 235.34 150.577 235.221 150.577Z" fill="#F5F5F5"/>
<path d="M179.47 266.159C257.854 266.159 321.396 262.448 321.396 257.87C321.396 253.293 257.854 249.582 179.47 249.582C101.086 249.582 37.543 253.293 37.543 257.87C37.543 262.448 101.086 266.159 179.47 266.159Z" fill="#F5F5F5"/>
<path d="M190.198 212.124C185.724 212.124 181.227 211.823 176.83 211.228L176.904 210.684C188.32 212.227 200.207 211.747 211.444 209.275L211.562 209.811C204.59 211.345 197.403 212.124 190.198 212.124ZM168.236 209.679C164.932 208.931 161.633 208 158.429 206.915L158.604 206.395C161.79 207.475 165.071 208.399 168.357 209.143L168.236 209.679ZM219.998 207.557L219.833 207.034C225.339 205.298 230.728 203.054 235.852 200.367L236.108 200.853C230.955 203.556 225.535 205.812 219.998 207.557ZM150.287 203.746C144.972 201.401 139.831 198.565 135.005 195.315L135.312 194.859C140.11 198.091 145.224 200.912 150.509 203.244L150.287 203.746ZM243.653 196.459L243.357 195.997C246.185 194.179 248.954 192.19 251.585 190.087L251.928 190.516C249.282 192.631 246.498 194.63 243.653 196.459ZM127.981 190.126C118.866 182.748 111.199 173.915 105.195 163.871L105.666 163.589C111.638 173.578 119.262 182.363 128.326 189.699L127.981 190.126ZM258.505 184.77L258.126 184.373C266.572 176.316 273.454 166.939 278.583 156.501L279.076 156.743C273.918 167.239 266.997 176.668 258.505 184.77ZM101.05 156.186C99.5745 153.138 98.2438 149.979 97.0945 146.798L97.6106 146.611C98.754 149.775 100.077 152.916 101.543 155.948L101.05 156.186ZM282.576 148.74L282.064 148.542C284.142 143.151 285.749 137.539 286.842 131.861L287.381 131.966C286.282 137.674 284.666 143.317 282.576 148.74ZM94.4945 138.462C93.0165 132.857 92.0276 127.07 91.5569 121.263L92.1037 121.219C92.5722 126.993 93.5553 132.747 95.0259 138.321L94.4945 138.462ZM288.651 123.326L288.105 123.27C288.445 119.932 288.618 116.529 288.618 113.154V112.949H289.167V113.154C289.167 116.547 288.993 119.969 288.651 123.326ZM91.7795 112.541L91.2305 112.537C91.3022 100.769 93.4199 89.2647 97.5249 78.3418L98.0388 78.535C93.9572 89.3965 91.8512 100.838 91.7795 112.541ZM288.223 104.274C287.183 92.6531 284.122 81.4338 279.124 70.9274L279.62 70.6917C284.646 81.2574 287.724 92.5397 288.769 104.225L288.223 104.274ZM101.454 70.5467L100.959 70.3088C102.425 67.2601 104.069 64.2523 105.843 61.3675L106.311 61.6551C104.546 64.5231 102.912 67.5148 101.454 70.5467ZM275.051 63.2597C272.12 58.2857 268.725 53.5365 264.961 49.1438L265.378 48.7866C269.163 53.2035 272.577 57.979 275.524 62.9808L275.051 63.2597ZM111.185 54.4632L110.744 54.136C114.212 49.4754 118.115 45.0907 122.349 41.1028L122.725 41.5024C118.516 45.4684 114.633 49.8289 111.185 54.4632ZM259.025 42.8032C256.618 40.4484 254.063 38.1923 251.43 36.0973L251.772 35.6677C254.419 37.7744 256.988 40.0428 259.409 42.4108L259.025 42.8032ZM129.303 35.8302L128.962 35.399C138.183 28.1273 148.496 22.6103 159.615 19.0015L159.784 19.5234C148.728 23.1124 138.472 28.5987 129.303 35.8302ZM244.402 30.9924C234.665 24.5559 223.983 19.9509 212.654 17.3076L212.779 16.7733C224.172 19.4319 234.913 24.0625 244.705 30.5349L244.402 30.9924ZM168.155 17.2118L168.033 16.6767C171.326 15.9234 174.702 15.3327 178.067 14.9213L178.134 15.4659C174.788 15.8744 171.431 16.4622 168.155 17.2118ZM204.118 15.7112C199.542 15.0633 194.858 14.7339 190.198 14.7339C190.188 14.7339 190.178 14.7339 190.168 14.7339C189.045 14.7339 187.909 14.753 186.79 14.7918L186.772 14.2428C187.907 14.204 189.038 14.1791 190.198 14.1849C194.884 14.1849 199.594 14.5158 204.196 15.1673L204.118 15.7112Z" fill="#407BFF"/>
<g opacity="0.4">
<path d="M190.198 212.124C185.724 212.124 181.227 211.823 176.83 211.228L176.904 210.684C188.32 212.227 200.207 211.747 211.444 209.275L211.562 209.811C204.59 211.345 197.403 212.124 190.198 212.124ZM168.236 209.679C164.932 208.931 161.633 208 158.429 206.915L158.604 206.395C161.79 207.475 165.071 208.399 168.357 209.143L168.236 209.679ZM219.998 207.557L219.833 207.034C225.339 205.298 230.728 203.054 235.852 200.367L236.108 200.853C230.955 203.556 225.535 205.812 219.998 207.557ZM150.287 203.746C144.972 201.401 139.831 198.565 135.005 195.315L135.312 194.859C140.11 198.091 145.224 200.912 150.509 203.244L150.287 203.746ZM243.653 196.459L243.357 195.997C246.185 194.179 248.954 192.19 251.585 190.087L251.928 190.516C249.282 192.631 246.498 194.63 243.653 196.459ZM127.981 190.126C118.866 182.748 111.199 173.915 105.195 163.871L105.666 163.589C111.638 173.578 119.262 182.363 128.326 189.699L127.981 190.126ZM258.505 184.77L258.126 184.373C266.572 176.316 273.454 166.939 278.583 156.501L279.076 156.743C273.918 167.239 266.997 176.668 258.505 184.77ZM101.05 156.186C99.5745 153.138 98.2438 149.979 97.0945 146.798L97.6106 146.611C98.754 149.775 100.077 152.916 101.543 155.948L101.05 156.186ZM282.576 148.74L282.064 148.542C284.142 143.151 285.749 137.539 286.842 131.861L287.381 131.966C286.282 137.674 284.666 143.317 282.576 148.74ZM94.4945 138.462C93.0165 132.857 92.0276 127.07 91.5569 121.263L92.1037 121.219C92.5722 126.993 93.5553 132.747 95.0259 138.321L94.4945 138.462ZM288.651 123.326L288.105 123.27C288.445 119.932 288.618 116.529 288.618 113.154V112.949H289.167V113.154C289.167 116.547 288.993 119.969 288.651 123.326ZM91.7795 112.541L91.2305 112.537C91.3022 100.769 93.4199 89.2647 97.5249 78.3418L98.0388 78.535C93.9572 89.3965 91.8512 100.838 91.7795 112.541ZM288.223 104.274C287.183 92.6531 284.122 81.4338 279.124 70.9274L279.62 70.6917C284.646 81.2574 287.724 92.5397 288.769 104.225L288.223 104.274ZM101.454 70.5467L100.959 70.3088C102.425 67.2601 104.069 64.2523 105.843 61.3675L106.311 61.6551C104.546 64.5231 102.912 67.5148 101.454 70.5467ZM275.051 63.2597C272.12 58.2857 268.725 53.5365 264.961 49.1438L265.378 48.7866C269.163 53.2035 272.577 57.979 275.524 62.9808L275.051 63.2597ZM111.185 54.4632L110.744 54.136C114.212 49.4754 118.115 45.0907 122.349 41.1028L122.725 41.5024C118.516 45.4684 114.633 49.8289 111.185 54.4632ZM259.025 42.8032C256.618 40.4484 254.063 38.1923 251.43 36.0973L251.772 35.6677C254.419 37.7744 256.988 40.0428 259.409 42.4108L259.025 42.8032ZM129.303 35.8302L128.962 35.399C138.183 28.1273 148.496 22.6103 159.615 19.0015L159.784 19.5234C148.728 23.1124 138.472 28.5987 129.303 35.8302ZM244.402 30.9924C234.665 24.5559 223.983 19.9509 212.654 17.3076L212.779 16.7733C224.172 19.4319 234.913 24.0625 244.705 30.5349L244.402 30.9924ZM168.155 17.2118L168.033 16.6767C171.326 15.9234 174.702 15.3327 178.067 14.9213L178.134 15.4659C174.788 15.8744 171.431 16.4622 168.155 17.2118ZM204.118 15.7112C199.542 15.0633 194.858 14.7339 190.198 14.7339C190.188 14.7339 190.178 14.7339 190.168 14.7339C189.045 14.7339 187.909 14.753 186.79 14.7918L186.772 14.2428C187.907 14.204 189.038 14.1791 190.198 14.1849C194.884 14.1849 199.594 14.5158 204.196 15.1673L204.118 15.7112Z" fill="white"/>
</g>
<path d="M128.856 41.975L69.1992 48.2437L74.6074 99.7121L134.264 93.4435L128.856 41.975Z" fill="#407BFF"/>
<path opacity="0.6" d="M128.856 41.975L69.1992 48.2437L74.6074 99.7121L134.264 93.4435L128.856 41.975Z" fill="white"/>
<path d="M127.844 32.3457L68.1875 38.6143L69.1994 48.2439L128.856 41.9753L127.844 32.3457Z" fill="#407BFF"/>
<path d="M76.9575 34.4782C76.8653 33.6005 76.0784 32.9629 75.2007 33.0559C74.323 33.1481 73.6862 33.935 73.7784 34.8127C73.8377 35.3749 74.3874 40.6094 74.4467 41.1716C74.539 42.0492 75.3259 42.6861 76.2035 42.5938C77.0819 42.5016 77.7188 41.7147 77.6265 40.837C77.5782 40.3869 77.0043 34.9283 76.9575 34.4782Z" fill="#407BFF"/>
<path d="M88.4399 33.2707C88.3477 32.3931 87.5615 31.7555 86.6831 31.8477C85.8054 31.94 85.1686 32.7269 85.2608 33.6045C85.3201 34.1667 85.8699 39.4012 85.9291 39.9634C86.0214 40.8411 86.8083 41.4787 87.6859 41.3857C88.5643 41.2935 89.2012 40.5066 89.1082 39.6289C89.0614 39.1795 88.4875 33.7209 88.4399 33.2707Z" fill="#407BFF"/>
<path d="M99.9243 32.064C99.832 31.1863 99.0451 30.5495 98.1675 30.6417C97.2898 30.7339 96.653 31.5208 96.7452 32.3985C96.8045 32.9607 97.3542 38.1952 97.4135 38.7574C97.5058 39.635 98.2926 40.2726 99.1703 40.1797C100.049 40.0874 100.686 39.3005 100.593 38.4228C100.545 37.9734 99.9711 32.5141 99.9243 32.064Z" fill="#407BFF"/>
<path d="M111.405 30.8577C111.313 29.98 110.526 29.3424 109.648 29.4347C108.77 29.5269 108.133 30.3138 108.226 31.1915C108.285 31.7536 108.835 36.9882 108.894 37.5503C108.986 38.428 109.773 39.0648 110.651 38.9726C111.529 38.8804 112.166 38.0935 112.074 37.2158C112.026 36.7664 111.452 31.3071 111.405 30.8577Z" fill="#407BFF"/>
<path d="M122.887 29.6505C122.795 28.7728 122.008 28.1353 121.13 28.2282C120.253 28.3205 119.616 29.1074 119.708 29.985C119.767 30.5472 120.317 35.7818 120.376 36.3439C120.469 37.2216 121.256 37.8592 122.133 37.7669C123.012 37.6747 123.648 36.8878 123.556 36.0101C123.508 35.5592 122.934 30.1007 122.887 29.6505Z" fill="#407BFF"/>
<g opacity="0.7">
<path d="M76.9575 34.4782C76.8653 33.6005 76.0784 32.9629 75.2007 33.0559C74.323 33.1481 73.6862 33.935 73.7784 34.8127C73.8377 35.3749 74.3874 40.6094 74.4467 41.1716C74.539 42.0492 75.3259 42.6861 76.2035 42.5938C77.0819 42.5016 77.7188 41.7147 77.6265 40.837C77.5782 40.3869 77.0043 34.9283 76.9575 34.4782Z" fill="white"/>
<path d="M88.4399 33.2707C88.3477 32.3931 87.5615 31.7555 86.6831 31.8477C85.8054 31.94 85.1686 32.7269 85.2608 33.6045C85.3201 34.1667 85.8699 39.4012 85.9291 39.9634C86.0214 40.8411 86.8083 41.4787 87.6859 41.3857C88.5643 41.2935 89.2012 40.5066 89.1082 39.6289C89.0614 39.1795 88.4875 33.7209 88.4399 33.2707Z" fill="white"/>
<path d="M99.9243 32.064C99.832 31.1863 99.0451 30.5495 98.1675 30.6417C97.2898 30.7339 96.653 31.5208 96.7452 32.3985C96.8045 32.9607 97.3542 38.1952 97.4135 38.7574C97.5058 39.635 98.2926 40.2726 99.1703 40.1797C100.049 40.0874 100.686 39.3005 100.593 38.4228C100.545 37.9734 99.9711 32.5141 99.9243 32.064Z" fill="white"/>
<path d="M111.405 30.8577C111.313 29.98 110.526 29.3424 109.648 29.4347C108.77 29.5269 108.133 30.3138 108.226 31.1915C108.285 31.7536 108.835 36.9882 108.894 37.5503C108.986 38.428 109.773 39.0648 110.651 38.9726C111.529 38.8804 112.166 38.0935 112.074 37.2158C112.026 36.7664 111.452 31.3071 111.405 30.8577Z" fill="white"/>
<path d="M122.887 29.6505C122.795 28.7728 122.008 28.1353 121.13 28.2282C120.253 28.3205 119.616 29.1074 119.708 29.985C119.767 30.5472 120.317 35.7818 120.376 36.3439C120.469 37.2216 121.256 37.8592 122.133 37.7669C123.012 37.6747 123.648 36.8878 123.556 36.0101C123.508 35.5592 122.934 30.1007 122.887 29.6505Z" fill="white"/>
</g>
<path d="M135.864 91.8189L76.2064 98.0892L69.2012 48.2444L128.859 41.9741L135.864 91.8189Z" fill="#407BFF"/>
<path opacity="0.8" d="M135.864 91.8189L76.2064 98.0892L69.2012 48.2444L128.859 41.9741L135.864 91.8189Z" fill="white"/>
<path d="M116.821 55.6649L87.2893 58.7685L86.0566 49.9963L115.588 46.8926L116.821 55.6649Z" fill="#407BFF"/>
<path opacity="0.6" d="M116.821 55.6649L87.2893 58.7685L86.0566 49.9963L115.588 46.8926L116.821 55.6649Z" fill="white"/>
<path d="M83.9118 70.6217L76.0238 71.451L74.9199 63.5923L82.8072 62.7637L83.9118 70.6217Z" fill="white"/>
<path d="M95.102 69.4462L87.214 70.2748L86.1094 62.416L93.9974 61.5874L95.102 69.4462Z" fill="white"/>
<path d="M85.4001 81.222L77.5128 82.0507L76.4082 74.1926L84.2955 73.3633L85.4001 81.222Z" fill="#407BFF"/>
<path d="M86.8903 91.8221L79.003 92.6508L77.8984 84.792L85.7857 83.9634L86.8903 91.8221Z" fill="#407BFF"/>
<path d="M96.5895 80.0455L88.7015 80.8749L87.5977 73.0161L95.485 72.1875L96.5895 80.0455Z" fill="#407BFF"/>
<path opacity="0.2" d="M96.5895 80.0455L88.7015 80.8749L87.5977 73.0161L95.485 72.1875L96.5895 80.0455Z" fill="white"/>
<path d="M107.779 78.8695L99.8917 79.6981L98.7871 71.8394L106.675 71.0107L107.779 78.8695Z" fill="#407BFF"/>
<path opacity="0.2" d="M107.779 78.8695L99.8917 79.6981L98.7871 71.8394L106.675 71.0107L107.779 78.8695Z" fill="white"/>
<path d="M118.968 77.6937L111.081 78.5231L109.977 70.6643L117.865 69.835L118.968 77.6937Z" fill="#407BFF"/>
<path opacity="0.2" d="M118.968 77.6937L111.081 78.5231L109.977 70.6643L117.865 69.835L118.968 77.6937Z" fill="white"/>
<path d="M130.158 76.5177L122.271 77.347L121.166 69.4883L129.053 68.6597L130.158 76.5177Z" fill="#407BFF"/>
<path opacity="0.2" d="M130.158 76.5177L122.271 77.347L121.166 69.4883L129.053 68.6597L130.158 76.5177Z" fill="white"/>
<path d="M98.0778 90.6459L90.1905 91.4745L89.0859 83.6165L96.9732 82.7871L98.0778 90.6459Z" fill="#407BFF"/>
<path opacity="0.2" d="M98.0778 90.6459L90.1905 91.4745L89.0859 83.6165L96.9732 82.7871L98.0778 90.6459Z" fill="white"/>
<path d="M109.271 89.4693L101.383 90.2987L100.279 82.4399L108.167 81.6113L109.271 89.4693Z" fill="#407BFF"/>
<path opacity="0.2" d="M109.271 89.4693L101.383 90.2987L100.279 82.4399L108.167 81.6113L109.271 89.4693Z" fill="white"/>
<path d="M120.459 88.2938L112.571 89.1224L111.467 81.2644L119.355 80.4351L120.459 88.2938Z" fill="#407BFF"/>
<path opacity="0.2" d="M120.459 88.2938L112.571 89.1224L111.467 81.2644L119.355 80.4351L120.459 88.2938Z" fill="white"/>
<path d="M106.291 68.2699L98.4034 69.0992L97.2988 61.2405L105.187 60.4111L106.291 68.2699Z" fill="#407BFF"/>
<path opacity="0.2" d="M106.291 68.2699L98.4034 69.0992L97.2988 61.2405L105.187 60.4111L106.291 68.2699Z" fill="white"/>
<path d="M117.478 67.0939L109.591 67.9232L108.486 60.0645L116.374 59.2358L117.478 67.0939Z" fill="#407BFF"/>
<path opacity="0.2" d="M117.478 67.0939L109.591 67.9232L108.486 60.0645L116.374 59.2358L117.478 67.0939Z" fill="white"/>
<path d="M128.668 65.9183L120.78 66.7469L119.676 58.8889L127.563 58.0596L128.668 65.9183Z" fill="#407BFF"/>
<path opacity="0.2" d="M128.668 65.9183L120.78 66.7469L119.676 58.8889L127.563 58.0596L128.668 65.9183Z" fill="white"/>
<path d="M131.648 87.1173L123.761 87.9467L122.656 80.0879L130.544 79.2593L131.648 87.1173Z" fill="white"/>
<path d="M152.339 13.8128C152.525 14.585 152.049 15.3624 151.277 15.5476C150.505 15.7335 149.728 15.2577 149.542 14.4855C149.498 14.3047 149.323 13.5727 149.111 12.6943L141.805 14.4511C142.022 15.3522 142.2 16.0966 142.236 16.2423C142.422 17.0145 141.946 17.7919 141.174 17.9771C140.402 18.1631 139.625 17.6873 139.439 16.915C139.395 16.7342 139.219 16.0022 139.008 15.1238L131.703 16.8806C131.919 17.7817 132.099 18.5261 132.134 18.6718C132.32 19.444 131.844 20.2214 131.071 20.4066C130.299 20.5926 129.521 20.1168 129.336 19.3445C129.292 19.1637 129.116 18.4317 128.905 17.5533L121.6 19.3101C121.816 20.2112 121.996 20.9556 122.031 21.1013C122.217 21.8736 121.741 22.6509 120.969 22.8361C120.196 23.0221 119.419 22.5463 119.234 21.774C119.19 21.5932 119.014 20.8612 118.803 19.9828L111.496 21.7396C111.713 22.6407 111.892 23.3851 111.928 23.5308C112.114 24.3031 111.638 25.0805 110.865 25.2656C110.093 25.4516 109.317 24.9758 109.131 24.2035C109.087 24.0227 108.911 23.2907 108.699 22.4123L104.059 23.5286L115.56 71.3516L168.051 58.7283L156.55 10.9053L151.909 12.0216C152.125 12.9227 152.304 13.6671 152.339 13.8128Z" fill="#407BFF"/>
<path opacity="0.8" d="M152.339 13.8128C152.525 14.585 152.049 15.3624 151.277 15.5476C150.505 15.7335 149.728 15.2577 149.542 14.4855C149.498 14.3047 149.323 13.5727 149.111 12.6943L141.805 14.4511C142.022 15.3522 142.2 16.0966 142.236 16.2423C142.422 17.0145 141.946 17.7919 141.174 17.9771C140.402 18.1631 139.625 17.6873 139.439 16.915C139.395 16.7342 139.219 16.0022 139.008 15.1238L131.703 16.8806C131.919 17.7817 132.099 18.5261 132.134 18.6718C132.32 19.444 131.844 20.2214 131.071 20.4066C130.299 20.5926 129.521 20.1168 129.336 19.3445C129.292 19.1637 129.116 18.4317 128.905 17.5533L121.6 19.3101C121.816 20.2112 121.996 20.9556 122.031 21.1013C122.217 21.8736 121.741 22.6509 120.969 22.8361C120.196 23.0221 119.419 22.5463 119.234 21.774C119.19 21.5932 119.014 20.8612 118.803 19.9828L111.496 21.7396C111.713 22.6407 111.892 23.3851 111.928 23.5308C112.114 24.3031 111.638 25.0805 110.865 25.2656C110.093 25.4516 109.317 24.9758 109.131 24.2035C109.087 24.0227 108.911 23.2907 108.699 22.4123L104.059 23.5286L115.56 71.3516L168.051 58.7283L156.55 10.9053L151.909 12.0216C152.125 12.9227 152.304 13.6671 152.339 13.8128Z" fill="white"/>
<path d="M146.096 20.694L120.111 26.9424L121.974 34.6895L147.959 28.4411L146.096 20.694Z" fill="#407BFF"/>
<path opacity="0.6" d="M146.096 20.694L120.111 26.9424L121.974 34.6895L147.959 28.4411L146.096 20.694Z" fill="white"/>
<path d="M118.336 38.8083L111.396 40.4771L113.065 47.4171L120.005 45.7483L118.336 38.8083Z" fill="white"/>
<path d="M128.184 36.4401L121.244 38.1089L122.913 45.0489L129.853 43.3801L128.184 36.4401Z" fill="#407BFF"/>
<path d="M138.028 34.0724L131.088 35.7412L132.757 42.6812L139.697 41.0124L138.028 34.0724Z" fill="#407BFF"/>
<path d="M147.874 31.7042L140.934 33.373L142.602 40.3131L149.542 38.6443L147.874 31.7042Z" fill="#407BFF"/>
<path d="M157.719 29.3375L150.779 31.0063L152.448 37.9464L159.388 36.2776L157.719 29.3375Z" fill="#407BFF"/>
<path d="M120.588 48.1701L113.648 49.8389L115.317 56.7789L122.257 55.1101L120.588 48.1701Z" fill="#407BFF"/>
<path d="M130.432 45.8009L123.492 47.4697L125.161 54.4097L132.101 52.7409L130.432 45.8009Z" fill="#407BFF"/>
<path d="M140.28 43.4347L133.34 45.1035L135.009 52.0435L141.949 50.3747L140.28 43.4347Z" fill="#407BFF"/>
<path d="M150.124 41.0656L143.184 42.7344L144.852 49.6744L151.792 48.0056L150.124 41.0656Z" fill="#407BFF"/>
<path d="M159.969 38.6989L153.029 40.3677L154.698 47.3077L161.638 45.6389L159.969 38.6989Z" fill="#407BFF"/>
<path d="M122.838 57.5294L115.898 59.1982L117.567 66.1383L124.507 64.4695L122.838 57.5294Z" fill="#407BFF"/>
<path d="M132.686 55.1618L125.746 56.8306L127.415 63.7706L134.355 62.1018L132.686 55.1618Z" fill="#407BFF"/>
<path d="M142.53 52.796L135.59 54.4648L137.259 61.4049L144.199 59.7361L142.53 52.796Z" fill="#407BFF"/>
<path opacity="0.2" d="M128.182 36.4401L121.242 38.1089L122.911 45.0489L129.851 43.3801L128.182 36.4401Z" fill="white"/>
<path opacity="0.2" d="M138.026 34.0729L131.086 35.7417L132.755 42.6817L139.695 41.0129L138.026 34.0729Z" fill="white"/>
<path opacity="0.2" d="M147.874 31.7047L140.934 33.3735L142.602 40.3136L149.542 38.6448L147.874 31.7047Z" fill="white"/>
<path opacity="0.2" d="M157.717 29.338L150.777 31.0068L152.446 37.9469L159.386 36.2781L157.717 29.338Z" fill="white"/>
<path opacity="0.2" d="M130.432 45.8014L123.492 47.4702L125.161 54.4102L132.101 52.7414L130.432 45.8014Z" fill="white"/>
<path opacity="0.2" d="M140.276 43.4357L133.336 45.1045L135.005 52.0445L141.945 50.3757L140.276 43.4357Z" fill="white"/>
<path opacity="0.2" d="M150.124 41.0656L143.184 42.7344L144.852 49.6744L151.792 48.0056L150.124 41.0656Z" fill="white"/>
<path opacity="0.2" d="M159.969 38.6989L153.029 40.3677L154.698 47.3077L161.638 45.6389L159.969 38.6989Z" fill="white"/>
<path opacity="0.2" d="M132.684 55.1623L125.744 56.8311L127.413 63.7711L134.353 62.1023L132.684 55.1623Z" fill="white"/>
<path opacity="0.2" d="M142.53 52.796L135.59 54.4648L137.259 61.4049L144.199 59.7361L142.53 52.796Z" fill="white"/>
<path d="M152.374 50.4264L145.434 52.0952L147.102 59.0352L154.042 57.3664L152.374 50.4264Z" fill="white"/>
<path d="M162.219 48.0597L155.279 49.7285L156.948 56.6685L163.888 54.9997L162.219 48.0597Z" fill="white"/>
<path d="M104.059 23.5298L114.234 73.2165L168.051 58.7295L115.56 71.3528L104.059 23.5298Z" fill="#407BFF"/>
<path opacity="0.5" d="M104.059 23.5298L114.234 73.2165L168.051 58.7295L115.56 71.3528L104.059 23.5298Z" fill="white"/>
<path d="M152.062 -5.40953C152.464 -4.72438 152.234 -3.84305 151.549 -3.44045C150.864 -3.03858 149.983 -3.26843 149.581 -3.95358C149.486 -4.11462 149.106 -4.76318 148.649 -5.54276L142.168 -1.74075C142.637 -0.941406 143.024 -0.28114 143.1 -0.151577C143.501 0.533575 143.272 1.4149 142.586 1.8175C141.901 2.21937 141.02 1.98952 140.618 1.30437C140.524 1.14333 140.143 0.49478 139.686 -0.284801L133.205 3.51721C133.674 4.31655 134.062 4.97681 134.137 5.10638C134.539 5.79153 134.31 6.67286 133.624 7.07546C132.939 7.47733 132.057 7.24748 131.655 6.56233C131.561 6.40202 131.18 5.75274 130.724 4.97316L124.242 8.77516C124.712 9.57451 125.099 10.2348 125.174 10.3643C125.576 11.0495 125.346 11.9308 124.661 12.3334C123.976 12.7353 123.095 12.5054 122.693 11.8203C122.598 11.66 122.218 11.0107 121.761 10.2311L115.28 14.0331C115.749 14.8325 116.136 15.4927 116.212 15.6223C116.614 16.3074 116.384 17.1888 115.699 17.5914C115.013 17.9932 114.132 17.7634 113.73 17.0782C113.636 16.9172 113.255 16.2686 112.798 15.4891L108.682 17.9039L133.569 60.3299L180.137 33.0139L155.249 -9.41211L151.133 -6.99724C151.599 -6.19936 151.986 -5.5391 152.062 -5.40953Z" fill="#407BFF"/>
<path opacity="0.8" d="M152.062 -5.40953C152.464 -4.72438 152.234 -3.84305 151.549 -3.44045C150.864 -3.03858 149.983 -3.26843 149.581 -3.95358C149.486 -4.11462 149.106 -4.76318 148.649 -5.54276L142.168 -1.74075C142.637 -0.941406 143.024 -0.28114 143.1 -0.151577C143.501 0.533575 143.272 1.4149 142.586 1.8175C141.901 2.21937 141.02 1.98952 140.618 1.30437C140.524 1.14333 140.143 0.49478 139.686 -0.284801L133.205 3.51721C133.674 4.31655 134.062 4.97681 134.137 5.10638C134.539 5.79153 134.31 6.67286 133.624 7.07546C132.939 7.47733 132.057 7.24748 131.655 6.56233C131.561 6.40202 131.18 5.75274 130.724 4.97316L124.242 8.77516C124.712 9.57451 125.099 10.2348 125.174 10.3643C125.576 11.0495 125.346 11.9308 124.661 12.3334C123.976 12.7353 123.095 12.5054 122.693 11.8203C122.598 11.66 122.218 11.0107 121.761 10.2311L115.28 14.0331C115.749 14.8325 116.136 15.4927 116.212 15.6223C116.614 16.3074 116.384 17.1888 115.699 17.5914C115.013 17.9932 114.132 17.7634 113.73 17.0782C113.636 16.9172 113.255 16.2686 112.798 15.4891L108.682 17.9039L133.569 60.3299L180.137 33.0139L155.249 -9.41211L151.133 -6.99724C151.599 -6.19936 151.986 -5.5391 152.062 -5.40953Z" fill="white"/>
<path d="M148.09 2.98139L125.037 16.5044L129.069 23.3774L152.122 9.85443L148.09 2.98139Z" fill="#407BFF"/>
<path opacity="0.6" d="M148.09 2.98139L125.037 16.5044L129.069 23.3774L152.122 9.85443L148.09 2.98139Z" fill="white"/>
<path d="M126.786 28.3742L120.629 31.9858L124.241 38.1428L130.398 34.5312L126.786 28.3742Z" fill="white"/>
<path d="M135.518 23.2506L129.361 26.8623L132.973 33.0193L139.13 29.4076L135.518 23.2506Z" fill="white"/>
<path d="M144.255 18.1246L138.098 21.7363L141.709 27.8933L147.866 24.2816L144.255 18.1246Z" fill="#407BFF"/>
<path d="M152.985 13.0006L146.828 16.6123L150.44 22.7693L156.597 19.1576L152.985 13.0006Z" fill="#407BFF"/>
<path d="M161.707 7.87415L155.551 11.4858L159.162 17.6421L165.319 14.0304L161.707 7.87415Z" fill="#407BFF"/>
<path d="M131.643 36.6715L125.486 40.2832L129.098 46.4395L135.254 42.8278L131.643 36.6715Z" fill="#407BFF"/>
<path d="M140.377 31.5475L134.221 35.1592L137.832 41.3155L143.989 37.7038L140.377 31.5475Z" fill="#407BFF"/>
<path d="M149.111 26.4244L142.955 30.0361L146.567 36.1924L152.723 32.5807L149.111 26.4244Z" fill="#407BFF"/>
<path d="M157.86 21.3063L151.703 24.918L155.315 31.075L161.472 27.4633L157.86 21.3063Z" fill="#407BFF"/>
<path d="M166.595 16.1818L160.438 19.7935L164.049 25.9505L170.206 22.3388L166.595 16.1818Z" fill="#407BFF"/>
<path d="M136.528 44.9835L130.371 48.5952L133.983 54.7522L140.14 51.1405L136.528 44.9835Z" fill="#407BFF"/>
<path d="M145.262 39.859L139.105 43.4707L142.717 49.6277L148.874 46.016L145.262 39.859Z" fill="#407BFF"/>
<path d="M153.999 34.7355L147.842 38.3472L151.453 44.5042L157.61 40.8925L153.999 34.7355Z" fill="#407BFF"/>
<path opacity="0.2" d="M144.255 18.1246L138.098 21.7363L141.709 27.8933L147.866 24.2816L144.255 18.1246Z" fill="white"/>
<path opacity="0.2" d="M152.989 13.0001L146.832 16.6118L150.444 22.7688L156.601 19.1571L152.989 13.0001Z" fill="white"/>
<path opacity="0.2" d="M161.707 7.87415L155.551 11.4858L159.162 17.6421L165.319 14.0304L161.707 7.87415Z" fill="white"/>
<path opacity="0.2" d="M140.377 31.5475L134.221 35.1592L137.832 41.3155L143.989 37.7038L140.377 31.5475Z" fill="white"/>
<path opacity="0.2" d="M149.113 26.4244L142.957 30.0361L146.569 36.1924L152.725 32.5807L149.113 26.4244Z" fill="white"/>
<path opacity="0.2" d="M157.86 21.3063L151.703 24.918L155.315 31.075L161.472 27.4633L157.86 21.3063Z" fill="white"/>
<path opacity="0.2" d="M166.595 16.1818L160.438 19.7935L164.049 25.9505L170.206 22.3388L166.595 16.1818Z" fill="white"/>
<path opacity="0.2" d="M145.262 39.8595L139.105 43.4712L142.717 49.6282L148.874 46.0165L145.262 39.8595Z" fill="white"/>
<path opacity="0.2" d="M153.997 34.735L147.84 38.3467L151.452 44.5037L157.609 40.892L153.997 34.735Z" fill="white"/>
<path d="M162.731 29.6124L156.574 33.2241L160.186 39.3811L166.343 35.7694L162.731 29.6124Z" fill="white"/>
<path d="M171.466 24.4865L165.309 28.0981L168.92 34.2552L175.077 30.6435L171.466 24.4865Z" fill="white"/>
<path d="M108.629 17.9331L132.788 62.5273L180.083 33.043L133.516 60.3591L108.629 17.9331Z" fill="#407BFF"/>
<path opacity="0.5" d="M108.629 17.9331L132.788 62.5273L180.083 33.043L133.516 60.3591L108.629 17.9331Z" fill="white"/>
<path d="M292.844 167.404L270.733 164.062C263.183 162.921 257.989 155.877 259.13 148.328L262.471 126.217C263.612 118.668 270.656 113.474 278.206 114.614L300.317 117.956C307.866 119.097 313.061 126.141 311.92 133.69L308.578 155.801C307.437 163.35 300.393 168.545 292.844 167.404Z" fill="#407BFF"/>
<path opacity="0.6" d="M292.844 167.404L270.733 164.062C263.183 162.921 257.989 155.877 259.13 148.328L262.471 126.217C263.612 118.668 270.656 113.474 278.206 114.614L300.317 117.956C307.866 119.097 313.061 126.141 311.92 133.69L308.578 155.801C307.437 163.35 300.393 168.545 292.844 167.404Z" fill="white"/>
<path d="M271.324 133.009C271.324 133.009 268.342 128.265 271.369 125.416L273.644 126.916C273.644 126.916 271.476 129.802 272.737 132.733L271.324 133.009Z" fill="#407BFF"/>
<path d="M276.451 129.645C274.671 129.994 273.071 130.759 271.698 131.816C270.027 131.357 268.257 131.255 266.477 131.605C259.796 132.918 255.55 139.931 256.992 147.27C258.435 154.609 265.019 159.494 271.7 158.181C273.48 157.831 275.08 157.067 276.453 156.009C278.124 156.469 279.894 156.57 281.674 156.221C288.355 154.907 292.601 147.894 291.159 140.555C289.716 133.216 283.131 128.331 276.451 129.645Z" fill="#407BFF"/>
<path opacity="0.1" d="M276.451 129.645C274.671 129.994 273.071 130.759 271.698 131.816C270.027 131.357 268.257 131.255 266.477 131.605C259.796 132.918 255.55 139.931 256.992 147.27C258.435 154.609 265.019 159.494 271.7 158.181C273.48 157.831 275.08 157.067 276.453 156.009C278.124 156.469 279.894 156.57 281.674 156.221C288.355 154.907 292.601 147.894 291.159 140.555C289.716 133.216 283.131 128.331 276.451 129.645Z" fill="white"/>
<path d="M276.45 129.645C274.67 129.994 273.07 130.759 271.697 131.816L276.452 156.009C278.123 156.469 279.893 156.57 281.674 156.221C288.354 154.907 292.6 147.894 291.158 140.555C289.715 133.216 283.13 128.331 276.45 129.645Z" fill="#407BFF"/>
<path opacity="0.3" d="M276.45 129.645C274.67 129.994 273.07 130.759 271.697 131.816L276.452 156.009C278.123 156.469 279.893 156.57 281.674 156.221C288.354 154.907 292.6 147.894 291.158 140.555C289.715 133.216 283.13 128.331 276.45 129.645Z" fill="white"/>
<path d="M267.733 141.084L268.832 141.609L271.153 141.153L266.862 136.654L264.594 142.442L266.915 141.986L267.733 141.084Z" fill="white"/>
<path d="M279.386 138.794L280.484 139.319L282.806 138.863L278.515 134.364L276.246 140.153L278.567 139.696L279.386 138.794Z" fill="white"/>
<path d="M272.691 147.247L272.665 148.84L269.191 148.497L269.702 147.315C267.138 147.22 265.445 146.772 265.445 146.772C265.445 146.772 268.397 153.06 275.615 151.744C276.827 151.523 277.845 151.126 278.723 150.633L277.365 149.145L280.292 146.827L281.171 148.637C283.31 146.157 283.657 143.193 283.657 143.193C280.005 145.958 276.009 146.972 272.691 147.247Z" fill="white"/>
<path d="M294.59 129.018L291.385 131.257L297.733 131.962C298.944 132.096 299.967 131.072 299.833 129.862L299.129 123.514L296.889 126.719L295.073 127.202L294.59 129.018Z" fill="#407BFF"/>
<path d="M307.213 141.641L304.974 144.847L304.27 138.499C304.135 137.287 305.159 136.264 306.37 136.399L312.718 137.103L309.512 139.342L309.029 141.159L307.213 141.641Z" fill="#407BFF"/>
<path d="M304.817 136.943C303.29 138.469 300.816 138.469 299.289 136.943C297.763 135.416 297.763 132.942 299.289 131.415C300.815 129.889 303.29 129.889 304.817 131.415C306.343 132.942 306.343 135.416 304.817 136.943Z" fill="#407BFF"/>
<g opacity="0.2">
<path d="M294.59 129.018L291.385 131.257L297.733 131.961C298.944 132.096 299.967 131.072 299.833 129.861L299.129 123.513L296.889 126.719L295.073 127.202L294.59 129.018Z" fill="white"/>
<path d="M307.213 141.641L304.974 144.847L304.27 138.499C304.135 137.287 305.159 136.264 306.37 136.399L312.718 137.103L309.512 139.342L309.029 141.159L307.213 141.641Z" fill="white"/>
<path d="M304.817 136.943C303.29 138.469 300.816 138.469 299.289 136.943C297.763 135.416 297.763 132.942 299.289 131.415C300.815 129.889 303.29 129.889 304.817 131.415C306.343 132.942 306.343 135.416 304.817 136.943Z" fill="white"/>
</g>
<g opacity="0.7">
<path d="M303.217 130.45C301.874 130.032 300.351 130.352 299.287 131.415C298.688 132.014 298.328 132.76 298.199 133.536L303.217 130.45Z" fill="white"/>
<path d="M299.287 136.943C299.644 137.3 300.054 137.57 300.489 137.759L305.948 134.402C305.982 133.803 305.88 133.198 305.639 132.637L299.055 136.685C299.129 136.774 299.205 136.861 299.287 136.943Z" fill="white"/>
</g>
<path d="M292.927 151.473L292.361 154.659L296.489 151.356C297.276 150.725 297.276 149.527 296.489 148.897L292.361 145.593L292.927 148.78L292.146 150.126L292.927 151.473Z" fill="#407BFF"/>
<path d="M307.703 151.473L308.269 154.66L304.142 151.356C303.354 150.726 303.354 149.528 304.142 148.897L308.269 145.594L307.703 148.78L308.484 150.126L307.703 151.473Z" fill="#407BFF"/>
<path d="M303.552 150.127C303.552 151.914 302.104 153.363 300.317 153.363C298.53 153.363 297.082 151.914 297.082 150.127C297.082 148.34 298.531 146.893 300.317 146.893C302.103 146.893 303.552 148.34 303.552 150.127Z" fill="#407BFF"/>
<g opacity="0.9">
<path d="M292.927 151.473L292.361 154.659L296.489 151.356C297.276 150.725 297.276 149.527 296.489 148.897L292.361 145.593L292.927 148.78L292.146 150.126L292.927 151.473Z" fill="white"/>
<path d="M307.705 151.473L308.271 154.659L304.143 151.356C303.356 150.725 303.356 149.527 304.143 148.897L308.271 145.593L307.705 148.78L308.486 150.126L307.705 151.473Z" fill="white"/>
<path d="M303.552 150.127C303.552 151.914 302.104 153.362 300.317 153.362C298.53 153.362 297.082 151.914 297.082 150.127C297.082 148.34 298.531 146.892 300.317 146.892C302.103 146.892 303.552 148.34 303.552 150.127Z" fill="white"/>
</g>
<path d="M298.818 147.262C297.786 147.803 297.082 148.882 297.082 150.127C297.082 150.829 297.308 151.476 297.687 152.006L298.818 147.262Z" fill="#407BFF"/>
<path d="M300.316 153.363C300.733 153.363 301.13 153.281 301.497 153.137L302.727 147.977C302.397 147.606 301.983 147.312 301.514 147.125L300.029 153.349C300.124 153.356 300.219 153.363 300.316 153.363Z" fill="#407BFF"/>
<path d="M297.983 73.2701L263.702 80.2651C256.222 81.7913 248.92 76.9645 247.394 69.4842L240.399 35.2031C238.873 27.7228 243.7 20.4211 251.18 18.8949L285.461 11.8999C292.941 10.3737 300.243 15.2005 301.769 22.6808L308.764 56.9618C310.29 64.4422 305.463 71.7439 297.983 73.2701Z" fill="#407BFF"/>
<path opacity="0.5" d="M297.983 73.2701L263.702 80.2651C256.222 81.7913 248.92 76.9645 247.394 69.4842L240.399 35.2031C238.873 27.7228 243.7 20.4211 251.18 18.8949L285.461 11.8999C292.941 10.3737 300.243 15.2005 301.769 22.6808L308.764 56.9618C310.29 64.4422 305.463 71.7439 297.983 73.2701Z" fill="white"/>
<path d="M295.07 26.509C293.615 26.7052 292.161 26.9021 290.705 27.0983C291.49 26.0691 292.275 25.0392 293.059 24.01C293.358 23.6176 292.749 23.1535 292.45 23.5459C291.51 24.7786 290.571 26.0105 289.632 27.2432C288.226 27.4328 286.82 27.6231 285.414 27.8127C285.499 27.6831 285.574 27.5653 285.623 27.5016C286.156 26.8018 286.689 26.1027 287.222 25.403C288.023 24.3533 288.823 23.3036 289.622 22.2539C289.921 21.8615 289.312 21.3974 289.013 21.7898C287.445 23.8475 285.877 25.9044 284.31 27.962C283.728 28.0403 283.147 28.1194 282.565 28.1977C282.486 27.6158 282.407 27.0346 282.329 26.4534C283.897 24.3957 285.465 22.3388 287.032 20.2811C287.331 19.8888 286.722 19.4247 286.424 19.8171C285.668 20.8082 284.913 21.8 284.158 22.7912C283.58 23.5488 283.002 24.3071 282.425 25.0648C282.374 25.1314 282.281 25.2346 282.18 25.3481C281.991 23.9419 281.801 22.5364 281.611 21.1303C282.55 19.8976 283.489 18.6656 284.428 17.4329C284.728 17.0406 284.119 16.5765 283.819 16.9688C283.035 17.998 282.251 19.028 281.466 20.0572C281.27 18.6027 281.073 17.1475 280.877 15.6922C280.811 15.204 280.052 15.3057 280.118 15.7947C280.315 17.2499 280.511 18.7044 280.708 20.1596C279.678 19.3749 278.649 18.5902 277.619 17.8063C277.227 17.5076 276.763 18.1159 277.155 18.4153C278.388 19.3544 279.62 20.2936 280.853 21.2327C281.042 22.6389 281.232 24.0451 281.422 25.4513C281.292 25.3663 281.175 25.291 281.111 25.2426C280.411 24.7097 279.712 24.1761 279.012 23.6432C277.963 22.8431 276.913 22.0431 275.863 21.2437C275.471 20.9451 275.007 21.5534 275.399 21.8527C277.457 23.4207 279.514 24.9886 281.571 26.5559C281.65 27.1378 281.728 27.719 281.807 28.3002C281.226 28.3785 280.644 28.4576 280.063 28.5359C278.005 26.968 275.948 25.4 273.891 23.8328C273.499 23.5334 273.035 24.1424 273.427 24.4418C274.418 25.1973 275.41 25.9527 276.401 26.7081C277.159 27.2857 277.917 27.8632 278.674 28.4407C278.741 28.492 278.844 28.5842 278.957 28.6852C277.551 28.8748 276.146 29.0651 274.74 29.2547C273.507 28.3156 272.275 27.3764 271.042 26.4373C270.65 26.1386 270.186 26.7469 270.578 27.0463C271.607 27.831 272.637 28.6157 273.667 29.3997C272.211 29.5958 270.757 29.7928 269.302 29.9889C268.813 30.0548 268.915 30.8132 269.404 30.7473C270.859 30.5511 272.314 30.3542 273.769 30.158C272.984 31.1872 272.2 32.2171 271.416 33.2463C271.116 33.6387 271.725 34.1028 272.025 33.7104C272.964 32.4777 273.903 31.2458 274.842 30.0131C276.248 29.8235 277.654 29.6332 279.061 29.4436C278.976 29.5732 278.9 29.691 278.851 29.7547C278.318 30.4545 277.785 31.1535 277.252 31.8533C276.452 32.903 275.652 33.9527 274.852 35.0024C274.553 35.3948 275.162 35.8588 275.461 35.4665C277.029 33.4088 278.597 31.3519 280.165 29.2943C280.746 29.2159 281.328 29.1369 281.91 29.0586C281.988 29.6405 282.066 30.2217 282.145 30.8029C280.577 32.8606 279.009 34.9175 277.441 36.9751C277.143 37.3675 277.751 37.8316 278.05 37.4392C278.806 36.4481 279.561 35.4562 280.317 34.4651C280.894 33.7075 281.472 32.9499 282.049 32.1915C282.101 32.1249 282.193 32.0217 282.294 31.9082C282.483 33.3144 282.674 34.7198 282.863 36.126C281.924 37.358 280.985 38.5907 280.046 39.8234C279.747 40.2157 280.356 40.6798 280.655 40.2874C281.44 39.2583 282.224 38.2283 283.008 37.1991C283.204 38.6536 283.401 40.1088 283.598 41.564C283.663 42.0523 284.422 41.9505 284.356 41.4616C284.16 40.0064 283.963 38.5519 283.767 37.0967C284.796 37.8814 285.826 38.6661 286.855 39.45C287.247 39.7487 287.711 39.1404 287.319 38.841C286.087 37.9019 284.854 36.9627 283.622 36.0235C283.432 34.6174 283.242 33.2112 283.052 31.805C283.182 31.8899 283.3 31.9653 283.363 32.0136C284.063 32.5465 284.762 33.0802 285.462 33.6131C286.512 34.4131 287.561 35.2132 288.611 36.0126C289.003 36.3119 289.467 35.7029 289.075 35.4035C287.018 33.8356 284.961 32.2676 282.904 30.7004C282.825 30.1185 282.746 29.5373 282.668 28.9553C283.249 28.877 283.831 28.798 284.412 28.7196C286.47 30.2876 288.527 31.8555 290.585 33.4235C290.977 33.7221 291.441 33.1138 291.049 32.8145C290.057 32.059 289.066 31.3036 288.074 30.5482C287.317 29.9706 286.559 29.3931 285.801 28.8155C285.734 28.7643 285.631 28.6721 285.518 28.571C286.924 28.3815 288.329 28.1911 289.735 28.0016C290.967 28.9407 292.2 29.8799 293.433 30.819C293.825 31.1177 294.289 30.5094 293.897 30.21C292.868 29.4253 291.838 28.6406 290.809 27.8566C292.264 27.6604 293.718 27.4635 295.173 27.2674C295.661 27.2022 295.559 26.4431 295.07 26.509Z" fill="white"/>
<path d="M304.141 47.6685C303.446 47.1392 302.752 46.61 302.058 46.0815C302.821 45.9783 303.584 45.8758 304.346 45.7726C304.636 45.7338 304.576 45.2821 304.285 45.3217C303.372 45.4447 302.459 45.5684 301.546 45.6913C300.875 45.1804 300.204 44.6687 299.533 44.1571C299.624 44.138 299.704 44.1205 299.752 44.1139C300.27 44.0436 300.788 43.9741 301.307 43.9038C302.084 43.7991 302.862 43.6937 303.639 43.589C303.93 43.5502 303.869 43.0986 303.579 43.1381C302.055 43.3438 300.531 43.5495 299.007 43.7552C298.729 43.5436 298.452 43.3321 298.174 43.1206C298.386 42.8431 298.597 42.5657 298.809 42.2883C300.333 42.0826 301.857 41.8769 303.381 41.6712C303.672 41.6317 303.611 41.1807 303.32 41.2203C302.586 41.3191 301.851 41.4187 301.117 41.5175C300.555 41.5936 299.994 41.669 299.433 41.7451C299.383 41.7517 299.301 41.7561 299.211 41.7612C299.722 41.0907 300.233 40.4195 300.744 39.749C301.657 39.626 302.571 39.5023 303.483 39.3793C303.774 39.3398 303.713 38.8889 303.423 38.9284C302.66 39.0316 301.897 39.1341 301.135 39.2373C301.664 38.5434 302.194 37.8487 302.722 37.1547C302.899 36.922 302.538 36.6453 302.36 36.8788C301.831 37.5735 301.301 38.2674 300.772 38.9613C300.669 38.1986 300.566 37.4358 300.463 36.6738C300.424 36.3832 299.973 36.444 300.012 36.7346C300.135 37.6474 300.259 38.5602 300.382 39.4737C299.87 40.145 299.359 40.8155 298.848 41.4867C298.829 41.3967 298.811 41.3154 298.805 41.2679C298.734 40.7496 298.665 40.2313 298.594 39.7131C298.49 38.9357 298.384 38.1576 298.28 37.3802C298.24 37.0896 297.789 37.1504 297.829 37.441C298.034 38.965 298.24 40.489 298.446 42.013C298.234 42.2905 298.023 42.5679 297.811 42.8453C297.534 42.6338 297.256 42.4222 296.979 42.2107C296.773 40.6867 296.568 39.1626 296.362 37.6386C296.322 37.348 295.871 37.4088 295.911 37.6994C296.01 38.4336 296.109 39.1685 296.208 39.9027C296.284 40.4641 296.36 41.0256 296.436 41.587C296.442 41.6368 296.447 41.7188 296.452 41.8088C295.781 41.2979 295.11 40.7862 294.44 40.2753C294.317 39.3625 294.193 38.4497 294.07 37.5361C294.03 37.2455 293.58 37.3063 293.619 37.5969C293.722 38.3596 293.825 39.1224 293.928 39.8844C293.233 39.3551 292.539 38.8259 291.845 38.2974C291.613 38.1195 291.336 38.4819 291.569 38.659C292.263 39.1882 292.958 39.7175 293.652 40.246C292.889 40.3492 292.127 40.4517 291.364 40.5549C291.073 40.5944 291.134 41.0453 291.425 41.0058C292.337 40.8828 293.25 40.7591 294.164 40.6361C294.835 41.1478 295.505 41.6587 296.177 42.1704C296.087 42.1894 296.005 42.207 295.958 42.2136C295.44 42.2839 294.921 42.3534 294.403 42.4237C293.626 42.5291 292.848 42.6338 292.07 42.7384C291.78 42.778 291.84 43.2289 292.131 43.1894C293.655 42.9837 295.179 42.778 296.703 42.5723C296.98 42.7838 297.258 42.9954 297.535 43.2069C297.324 43.4844 297.112 43.7618 296.901 44.0392C295.377 44.2449 293.853 44.4506 292.329 44.6563C292.038 44.6958 292.099 45.1467 292.389 45.1072C293.124 45.0084 293.858 44.9088 294.593 44.81C295.154 44.7339 295.715 44.6585 296.277 44.5824C296.327 44.5758 296.409 44.5714 296.499 44.5662C295.988 45.2368 295.476 45.908 294.965 46.5785C294.052 46.7015 293.14 46.8252 292.226 46.9482C291.935 46.9877 291.996 47.4386 292.287 47.3991C293.05 47.2959 293.812 47.1934 294.574 47.0902C294.045 47.7849 293.516 48.4788 292.987 49.1727C292.81 49.4055 293.172 49.6822 293.35 49.4487C293.879 48.7548 294.408 48.0601 294.937 47.3662C295.04 48.1289 295.142 48.8916 295.246 49.6544C295.285 49.945 295.736 49.8842 295.696 49.5936C295.573 48.6808 295.45 47.768 295.327 46.8545C295.838 46.1832 296.349 45.5127 296.861 44.8415C296.88 44.9315 296.898 45.0128 296.904 45.0604C296.975 45.5786 297.044 46.0969 297.114 46.6151C297.219 47.3925 297.324 48.1706 297.429 48.948C297.468 49.2386 297.92 49.1778 297.88 48.8872C297.674 47.3632 297.469 45.8392 297.263 44.3152C297.475 44.0377 297.686 43.7603 297.898 43.4829C298.175 43.6944 298.452 43.906 298.73 44.1175C298.936 45.6416 299.141 47.1656 299.347 48.6896C299.386 48.9802 299.837 48.9195 299.798 48.6289C299.699 47.8947 299.6 47.1597 299.501 46.4255C299.425 45.8641 299.349 45.3026 299.273 44.7412C299.266 44.6914 299.262 44.6094 299.257 44.5187C299.928 45.0303 300.599 45.5413 301.27 46.0522C301.393 46.965 301.517 47.8778 301.64 48.7914C301.679 49.082 302.13 49.0212 302.09 48.7306C301.987 47.9679 301.885 47.2051 301.782 46.4431C302.476 46.9723 303.17 47.5016 303.864 48.0301C304.098 48.208 304.374 47.8463 304.141 47.6685Z" fill="white"/>
<path d="M284.741 57.5591C284.811 57.0445 284.881 56.5307 284.95 56.0161C284.586 56.2935 284.222 56.5709 283.859 56.8483C283.72 56.9538 283.556 56.7385 283.695 56.6331C284.13 56.3015 284.566 55.9692 285.002 55.6369C285.069 55.1399 285.136 54.6428 285.203 54.1458C285.157 54.1758 285.115 54.2022 285.094 54.2197C284.846 54.4079 284.599 54.5967 284.352 54.7848C283.981 55.0674 283.61 55.3507 283.239 55.6332C283.1 55.7394 282.936 55.5234 283.075 55.418C283.802 54.8639 284.529 54.3098 285.257 53.7556C285.285 53.55 285.312 53.3443 285.34 53.1386C285.135 53.1108 284.929 53.0829 284.723 53.0551C283.996 53.6092 283.269 54.1634 282.541 54.7175C282.402 54.8236 282.238 54.6077 282.377 54.5023C282.728 54.2351 283.078 53.9679 283.428 53.7007C283.696 53.4965 283.964 53.2923 284.232 53.0881C284.255 53.0698 284.292 53.0376 284.332 53.0017C283.835 52.9343 283.338 52.8677 282.841 52.8004C282.406 53.1327 281.97 53.4643 281.535 53.7966C281.396 53.902 281.231 53.6868 281.371 53.5814C281.734 53.304 282.098 53.0266 282.463 52.7491C281.948 52.6796 281.434 52.6101 280.92 52.5405C280.747 52.5171 280.783 52.2492 280.956 52.2726C281.47 52.3422 281.984 52.4117 282.499 52.4812C282.221 52.1174 281.944 51.7536 281.666 51.3898C281.561 51.2515 281.776 51.0868 281.882 51.2259C282.213 51.6614 282.545 52.0969 282.878 52.5325C283.375 52.5998 283.872 52.6664 284.369 52.7338C284.339 52.6877 284.312 52.6459 284.295 52.624C284.107 52.3766 283.918 52.1291 283.73 51.8817C283.447 51.5106 283.164 51.1395 282.881 50.7684C282.776 50.63 282.99 50.4653 283.097 50.6044C283.651 51.332 284.205 52.0589 284.76 52.7865C284.965 52.8143 285.171 52.8421 285.377 52.8699C285.405 52.6642 285.432 52.4585 285.46 52.2528C284.906 51.5252 284.352 50.7984 283.797 50.0708C283.692 49.9324 283.907 49.7684 284.012 49.9068C284.28 50.2574 284.547 50.608 284.814 50.9579C285.018 51.2259 285.222 51.4938 285.427 51.7617C285.445 51.7851 285.477 51.8217 285.513 51.862C285.58 51.3649 285.647 50.8679 285.714 50.3709C285.382 49.9353 285.05 49.4998 284.718 49.0643C284.613 48.9252 284.828 48.7612 284.933 48.9003C285.211 49.2641 285.488 49.6279 285.765 49.9924C285.835 49.4778 285.905 48.964 285.974 48.4494C285.998 48.2766 286.265 48.3125 286.242 48.486C286.172 49.0006 286.103 49.5144 286.033 50.029C286.397 49.7516 286.761 49.4742 287.125 49.1967C287.263 49.0913 287.428 49.3058 287.289 49.412C286.853 49.7436 286.418 50.0759 285.982 50.4082C285.915 50.9052 285.848 51.4023 285.781 51.8993C285.827 51.8693 285.869 51.8429 285.891 51.8254C286.138 51.6372 286.385 51.4484 286.632 51.2603C287.003 50.9777 287.374 50.6944 287.746 50.4119C287.884 50.3065 288.049 50.5217 287.91 50.6271C287.183 51.1812 286.455 51.7353 285.727 52.2902C285.7 52.4959 285.672 52.7016 285.644 52.9065C285.85 52.9343 286.055 52.9622 286.261 52.99C286.989 52.4358 287.716 51.8817 288.443 51.3269C288.581 51.2215 288.746 51.4367 288.607 51.5421C288.256 51.8093 287.907 52.0764 287.556 52.3436C287.288 52.5478 287.02 52.7521 286.752 52.9563C286.729 52.9746 286.692 53.0075 286.652 53.0427C287.149 53.11 287.646 53.1766 288.143 53.244C288.579 52.9116 289.014 52.58 289.45 52.2477C289.588 52.1416 289.753 52.3575 289.614 52.4629C289.25 52.7404 288.886 53.0178 288.522 53.2952C289.037 53.3648 289.551 53.4343 290.065 53.5038C290.238 53.5273 290.202 53.7952 290.029 53.7717C289.515 53.7022 289.001 53.6327 288.486 53.5631C288.764 53.9269 289.041 54.2907 289.319 54.6545C289.424 54.7929 289.209 54.9576 289.103 54.8185C288.772 54.383 288.439 53.9474 288.107 53.5112C287.61 53.4438 287.113 53.3772 286.616 53.3099C286.646 53.356 286.672 53.397 286.69 53.4197C286.879 53.6671 287.067 53.9145 287.255 54.1612C287.538 54.5323 287.821 54.9034 288.104 55.2745C288.209 55.4129 287.994 55.5769 287.888 55.4385C287.334 54.7116 286.78 53.984 286.226 53.2572C286.02 53.2293 285.815 53.2015 285.609 53.1737C285.581 53.3794 285.553 53.5851 285.525 53.7901C286.08 54.5177 286.634 55.2445 287.189 55.9721C287.294 56.1105 287.079 56.2752 286.973 56.1361C286.706 55.7855 286.439 55.4349 286.172 55.085C285.968 54.817 285.763 54.5491 285.559 54.2812C285.541 54.2578 285.509 54.2212 285.473 54.1809C285.405 54.678 285.339 55.175 285.271 55.672C285.603 56.1076 285.935 56.5431 286.268 56.9794C286.373 57.1177 286.158 57.2824 286.052 57.1433C285.775 56.7795 285.498 56.4157 285.22 56.0512C285.151 56.5658 285.081 57.0797 285.012 57.5942C284.986 57.7677 284.718 57.7319 284.741 57.5591Z" fill="white"/>
<path d="M269.888 50.135C269.888 50.6342 269.483 51.039 268.984 51.039C268.485 51.039 268.08 50.6342 268.08 50.135C268.08 49.6358 268.485 49.231 268.984 49.231C269.484 49.231 269.888 49.6358 269.888 50.135Z" fill="white"/>
<path d="M263.537 76.5961V65.3599H257.825V76.5961L254.871 80.2861L258.956 79.5614L260.681 80.5613L262.406 79.5614L266.49 80.2861L263.537 76.5961Z" fill="#407BFF"/>
<path d="M267.072 67.6745L282.198 70.3595L260.681 43.4717L239.164 70.3595L254.292 67.6745L260.681 71.3792L267.072 67.6745Z" fill="#407BFF"/>
<path opacity="0.3" d="M267.072 67.6745L282.198 70.3595L260.681 43.4717L239.164 70.3595L254.292 67.6745L260.681 71.3792L267.072 67.6745Z" fill="white"/>
<path d="M266.434 55.5736L280.047 57.99L260.682 33.7915L241.316 57.99L254.932 55.5736L260.682 58.9079L266.434 55.5736Z" fill="#407BFF"/>
<path opacity="0.7" d="M266.434 55.5736L280.047 57.99L260.682 33.7915L241.316 57.99L254.932 55.5736L260.682 58.9079L266.434 55.5736Z" fill="white"/>
<path d="M264.771 42.6722L274.452 44.391L260.681 27.1831L246.91 44.391L256.592 42.6722L260.681 45.0439L264.771 42.6722Z" fill="#407BFF"/>
<path opacity="0.8" d="M264.771 42.6722L274.452 44.391L260.681 27.1831L246.91 44.391L256.592 42.6722L260.681 45.0439L264.771 42.6722Z" fill="white"/>
<path d="M260.68 16.9692L262.378 20.4089L266.173 20.9601L263.427 23.637L264.075 27.4171L260.68 25.6325L257.285 27.4171L257.934 23.637L255.188 20.9601L258.983 20.4089L260.68 16.9692Z" fill="white"/>
<path d="M251.982 38.0527C251.982 38.0527 256.697 49.1616 272.277 48.2817C272.277 48.2817 255.847 52.4695 251.982 38.0527Z" fill="white"/>
<path d="M253.883 35.6768C253.883 35.6768 261.127 39.7562 267.137 35.25C267.137 35.25 261.597 42.9126 253.883 35.6768Z" fill="white"/>
<path d="M273.583 49.9126C273.583 49.9126 264.392 60.8275 250.346 56.3871C250.346 56.3871 263.205 66.1894 273.583 49.9126Z" fill="white"/>
<path d="M257.467 39.8466C257.467 40.4263 256.997 40.8962 256.417 40.8962C255.837 40.8962 255.367 40.4263 255.367 39.8466C255.367 39.2668 255.837 38.7969 256.417 38.7969C256.997 38.7969 257.467 39.2668 257.467 39.8466Z" fill="white"/>
<path d="M267.224 38.786C267.224 39.3658 266.754 39.8357 266.175 39.8357C265.595 39.8357 265.125 39.3658 265.125 38.786C265.125 38.2063 265.595 37.7363 266.175 37.7363C266.754 37.7371 267.224 38.207 267.224 38.786Z" fill="white"/>
<path d="M254.933 45.6498C254.933 46.2295 254.463 46.6995 253.884 46.6995C253.304 46.6995 252.834 46.2295 252.834 45.6498C252.834 45.07 253.304 44.6001 253.884 44.6001C254.463 44.6008 254.933 45.07 254.933 45.6498Z" fill="white"/>
<path d="M262.609 49.9125C262.609 50.4922 262.139 50.9622 261.559 50.9622C260.98 50.9622 260.51 50.4922 260.51 49.9125C260.51 49.3327 260.98 48.8628 261.559 48.8628C262.139 48.8635 262.609 49.3335 262.609 49.9125Z" fill="white"/>
<path d="M251.394 59.3134C251.394 59.8931 250.924 60.3631 250.345 60.3631C249.765 60.3631 249.295 59.8931 249.295 59.3134C249.295 58.7336 249.765 58.2637 250.345 58.2637C250.924 58.2637 251.394 58.7336 251.394 59.3134Z" fill="white"/>
<path d="M260.451 61.4281C260.451 62.0078 259.981 62.4778 259.401 62.4778C258.821 62.4778 258.352 62.0078 258.352 61.4281C258.352 60.8484 258.821 60.3784 259.401 60.3784C259.981 60.3791 260.451 60.8484 260.451 61.4281Z" fill="white"/>
<path d="M268.984 56.945C268.984 57.4443 268.579 57.8491 268.08 57.8491C267.581 57.8491 267.176 57.4443 267.176 56.945C267.176 56.4458 267.581 56.041 268.08 56.041C268.579 56.041 268.984 56.4458 268.984 56.945Z" fill="white"/>
<path d="M127.42 187.372L100.519 185.13C92.9104 184.496 87.2564 177.815 87.8903 170.206L90.1317 143.305C90.7656 135.697 97.4473 130.043 105.056 130.677L131.957 132.918C139.565 133.552 145.219 140.234 144.585 147.842L142.344 174.743C141.711 182.352 135.029 188.006 127.42 187.372Z" fill="#407BFF"/>
<path opacity="0.5" d="M127.42 187.372L100.519 185.13C92.9104 184.496 87.2564 177.815 87.8903 170.206L90.1317 143.305C90.7656 135.697 97.4473 130.043 105.056 130.677L131.957 132.918C139.565 133.552 145.219 140.234 144.585 147.842L142.344 174.743C141.711 182.352 135.029 188.006 127.42 187.372Z" fill="white"/>
<path d="M132.503 181.528H129.426C126.865 181.528 124.789 179.452 124.789 176.892L125.561 155.798H136.368L137.139 176.892C137.139 179.452 135.063 181.528 132.503 181.528Z" fill="white"/>
<path d="M141.242 153.876C141.242 156.367 139.222 158.387 136.731 158.387C134.24 158.387 132.221 156.367 132.221 153.876C132.221 151.385 134.24 149.366 136.731 149.366C139.222 149.366 141.242 151.385 141.242 153.876Z" fill="#407BFF"/>
<path opacity="0.8" d="M141.242 153.876C141.242 156.367 139.222 158.387 136.731 158.387C134.24 158.387 132.221 156.367 132.221 153.876C132.221 151.385 134.24 149.366 136.731 149.366C139.222 149.366 141.242 151.385 141.242 153.876Z" fill="white"/>
<path d="M137.117 150.074V153.307L139.347 151.077C138.75 150.519 137.976 150.161 137.117 150.074Z" fill="#407BFF"/>
<path d="M135.799 153.852L133.605 151.658C133.163 152.279 132.898 153.033 132.893 153.852H135.799Z" fill="#407BFF"/>
<path d="M136.345 150.074C135.486 150.161 134.713 150.519 134.115 151.077L136.345 153.307V150.074Z" fill="#407BFF"/>
<path d="M135.799 154.624H132.965C133.106 155.339 133.452 155.978 133.931 156.491L135.799 154.624Z" fill="#407BFF"/>
<path d="M137.664 154.624L139.531 156.491C140.011 155.978 140.356 155.339 140.498 154.624H137.664Z" fill="#407BFF"/>
<path d="M137.664 153.852H140.572C140.566 153.033 140.301 152.279 139.859 151.658L137.664 153.852Z" fill="#407BFF"/>
<path d="M136.347 155.169L134.514 157.002C135.041 157.377 135.668 157.609 136.347 157.678V155.169Z" fill="#407BFF"/>
<path d="M137.117 155.169V157.678C137.796 157.609 138.422 157.377 138.95 157.002L137.117 155.169Z" fill="#407BFF"/>
<g opacity="0.4">
<path d="M137.117 150.074V153.307L139.347 151.077C138.75 150.519 137.976 150.161 137.117 150.074Z" fill="white"/>
<path d="M135.799 153.852L133.605 151.658C133.163 152.279 132.898 153.033 132.893 153.852H135.799Z" fill="white"/>
<path d="M136.345 150.074C135.486 150.161 134.713 150.519 134.115 151.077L136.345 153.307V150.074Z" fill="white"/>
<path d="M135.799 154.624H132.965C133.106 155.339 133.452 155.978 133.931 156.491L135.799 154.624Z" fill="white"/>
<path d="M137.664 154.624L139.531 156.491C140.011 155.978 140.356 155.339 140.498 154.624H137.664Z" fill="white"/>
<path d="M137.664 153.852H140.572C140.566 153.033 140.301 152.279 139.859 151.658L137.664 153.852Z" fill="white"/>
<path d="M136.347 155.169L134.514 157.002C135.041 157.377 135.668 157.609 136.347 157.678V155.169Z" fill="white"/>
<path d="M137.117 155.169V157.678C137.796 157.609 138.422 157.377 138.95 157.002L137.117 155.169Z" fill="white"/>
</g>
<path d="M135.717 159.141H126.209L125.559 176.919C125.559 179.022 127.293 180.757 129.424 180.757H132.502C134.632 180.757 136.366 179.022 136.366 176.892L135.717 159.141Z" fill="#407BFF"/>
<path opacity="0.3" d="M135.717 159.141H126.209L125.559 176.919C125.559 179.022 127.293 180.757 129.424 180.757H132.502C134.632 180.757 136.366 179.022 136.366 176.892L135.717 159.141Z" fill="white"/>
<path d="M121.442 150.716C122.643 150.716 123.844 150.716 125.045 150.716C126.56 150.716 128.124 150.51 128.749 152.286C129.503 154.433 129.568 157.063 129.954 159.313C130.08 160.046 131.195 159.735 131.07 159.005C130.844 157.686 130.618 156.367 130.391 155.048C130.186 153.847 130.174 152.321 129.607 151.214C128.284 148.63 123.776 149.557 121.442 149.557C120.697 149.558 120.696 150.716 121.442 150.716Z" fill="#407BFF"/>
<g opacity="0.3">
<path d="M121.442 150.716C122.643 150.716 123.844 150.716 125.045 150.716C126.56 150.716 128.124 150.51 128.749 152.286C129.503 154.433 129.568 157.063 129.954 159.313C130.08 160.046 131.195 159.735 131.07 159.005C130.844 157.686 130.618 156.367 130.391 155.048C130.186 153.847 130.174 152.321 129.607 151.214C128.284 148.63 123.776 149.557 121.442 149.557C120.697 149.558 120.696 150.716 121.442 150.716Z" fill="white"/>
</g>
<path d="M128.259 161.982L126.971 160.694C126.687 160.41 126.687 159.947 126.971 159.662L128.259 158.375C128.544 158.09 129.006 158.09 129.291 158.375L130.579 159.662C130.863 159.947 130.863 160.41 130.579 160.694L129.291 161.982C129.006 162.267 128.544 162.267 128.259 161.982Z" fill="#407BFF"/>
<path d="M134.074 163.539L132.299 163.135C131.905 163.046 131.659 162.655 131.749 162.262L132.153 160.486C132.242 160.093 132.633 159.847 133.026 159.936L134.802 160.34C135.195 160.43 135.441 160.821 135.352 161.214L134.948 162.989C134.858 163.383 134.467 163.628 134.074 163.539Z" fill="#407BFF"/>
<path d="M129.759 166.577L127.953 166.813C127.553 166.865 127.186 166.584 127.134 166.184L126.899 164.379C126.847 163.98 127.128 163.613 127.528 163.561L129.333 163.325C129.733 163.273 130.1 163.554 130.152 163.953L130.387 165.759C130.44 166.158 130.158 166.525 129.759 166.577Z" fill="#407BFF"/>
<path d="M132.934 168.794L131.357 167.883C131.008 167.682 130.889 167.235 131.09 166.886L132.001 165.309C132.202 164.96 132.648 164.841 132.998 165.042L134.574 165.953C134.923 166.154 135.043 166.601 134.841 166.95L133.931 168.526C133.73 168.876 133.283 168.995 132.934 168.794Z" fill="#407BFF"/>
<path opacity="0.8" d="M128.259 161.982L126.971 160.694C126.687 160.41 126.687 159.947 126.971 159.662L128.259 158.375C128.544 158.09 129.006 158.09 129.291 158.375L130.579 159.662C130.863 159.947 130.863 160.41 130.579 160.694L129.291 161.982C129.006 162.267 128.544 162.267 128.259 161.982Z" fill="white"/>
<path opacity="0.8" d="M134.074 163.539L132.299 163.135C131.905 163.046 131.659 162.655 131.749 162.262L132.153 160.486C132.242 160.093 132.633 159.847 133.026 159.936L134.802 160.34C135.195 160.43 135.441 160.821 135.352 161.214L134.948 162.989C134.858 163.383 134.467 163.628 134.074 163.539Z" fill="white"/>
<path opacity="0.8" d="M129.759 166.577L127.953 166.813C127.553 166.865 127.186 166.584 127.134 166.184L126.899 164.379C126.847 163.98 127.128 163.613 127.528 163.561L129.333 163.325C129.733 163.273 130.1 163.554 130.152 163.953L130.387 165.759C130.44 166.158 130.158 166.525 129.759 166.577Z" fill="white"/>
<path opacity="0.8" d="M132.934 168.794L131.357 167.883C131.008 167.682 130.889 167.235 131.09 166.886L132.001 165.309C132.202 164.96 132.648 164.841 132.998 165.042L134.574 165.953C134.923 166.154 135.043 166.601 134.841 166.95L133.931 168.526C133.73 168.876 133.283 168.995 132.934 168.794Z" fill="white"/>
<path d="M91.9102 181.529C93.9993 183.504 96.7428 184.815 99.8304 185.073L128.11 187.429C133.083 187.844 137.639 185.43 140.194 181.529H91.9102Z" fill="#407BFF"/>
<path opacity="0.2" d="M91.9102 181.529C93.9993 183.504 96.7428 184.815 99.8304 185.073L128.11 187.429C133.083 187.844 137.639 185.43 140.194 181.529H91.9102Z" fill="white"/>
<path d="M109.286 150.028C111.643 150.028 113.553 148.118 113.553 145.761C113.553 143.405 111.643 141.495 109.286 141.495C106.93 141.495 105.02 143.405 105.02 145.761C105.02 148.118 106.93 150.028 109.286 150.028Z" fill="white"/>
<path d="M105.402 142.406C105.566 142.216 105.743 142.039 105.932 141.876C105.033 140.976 104.133 140.077 103.234 139.178C102.892 138.836 102.362 139.366 102.704 139.708C103.603 140.607 104.503 141.507 105.402 142.406Z" fill="white"/>
<path d="M104.149 145.762C104.149 145.635 104.159 145.512 104.168 145.387C102.896 145.387 101.623 145.387 100.35 145.387C99.868 145.387 99.8672 146.137 100.35 146.137C101.623 146.137 102.895 146.137 104.168 146.137C104.159 146.012 104.149 145.889 104.149 145.762Z" fill="white"/>
<path d="M113.174 142.406C114.074 141.506 114.974 140.607 115.873 139.708C116.214 139.367 115.685 138.836 115.343 139.178C114.443 140.077 113.543 140.977 112.645 141.876C112.834 142.04 113.011 142.217 113.174 142.406Z" fill="white"/>
<path d="M109.287 140.623C109.414 140.623 109.537 140.634 109.662 140.642C109.662 139.37 109.662 138.097 109.662 136.825C109.662 136.343 108.912 136.342 108.912 136.825C108.912 138.097 108.912 139.37 108.912 140.642C109.037 140.634 109.16 140.623 109.287 140.623Z" fill="white"/>
<path d="M118.224 145.387C116.951 145.387 115.679 145.387 114.406 145.387C114.415 145.512 114.425 145.635 114.425 145.762C114.425 145.889 114.415 146.012 114.406 146.137C115.678 146.137 116.951 146.137 118.224 146.137C118.706 146.137 118.707 145.387 118.224 145.387Z" fill="white"/>
<path d="M113.174 149.117C113.011 149.307 112.834 149.483 112.645 149.647C113.544 150.547 114.444 151.446 115.343 152.345C115.684 152.687 116.214 152.157 115.873 151.815C114.974 150.916 114.074 150.017 113.174 149.117Z" fill="white"/>
<path d="M105.402 149.117C104.503 150.017 103.603 150.916 102.704 151.815C102.362 152.157 102.892 152.687 103.234 152.345C104.134 151.446 105.033 150.546 105.932 149.647C105.743 149.484 105.566 149.307 105.402 149.117Z" fill="white"/>
<path d="M109.287 150.9C109.16 150.9 109.037 150.89 108.912 150.881C108.912 152.153 108.912 153.425 108.912 154.698C108.912 155.181 109.662 155.181 109.662 154.698C109.662 153.426 109.662 152.154 109.662 150.881C109.537 150.89 109.414 150.9 109.287 150.9Z" fill="white"/>
<path d="M107.789 165.396C107.781 165.353 107.772 165.311 107.772 165.268C107.772 164.606 108.743 164.03 110.171 163.735C110.136 163.668 110.117 163.598 110.117 163.526C110.117 162.929 111.386 162.446 112.951 162.446C114.516 162.446 115.784 162.929 115.784 163.526C115.784 163.699 115.675 163.86 115.487 164.005C116.219 164.27 116.719 164.625 116.866 165.024C118.809 165.225 120.24 165.9 120.24 166.704C120.24 167.666 118.193 168.446 115.668 168.446C115.498 168.446 115.331 168.442 115.167 168.435C114.249 169.231 112.165 169.788 109.737 169.788C106.462 169.788 103.807 168.777 103.807 167.529C103.807 166.54 105.472 165.703 107.789 165.396Z" fill="#407BFF"/>
<path opacity="0.7" d="M107.789 165.396C107.781 165.353 107.772 165.311 107.772 165.268C107.772 164.606 108.743 164.03 110.171 163.735C110.136 163.668 110.117 163.598 110.117 163.526C110.117 162.929 111.386 162.446 112.951 162.446C114.516 162.446 115.784 162.929 115.784 163.526C115.784 163.699 115.675 163.86 115.487 164.005C116.219 164.27 116.719 164.625 116.866 165.024C118.809 165.225 120.24 165.9 120.24 166.704C120.24 167.666 118.193 168.446 115.668 168.446C115.498 168.446 115.331 168.442 115.167 168.435C114.249 169.231 112.165 169.788 109.737 169.788C106.462 169.788 103.807 168.777 103.807 167.529C103.807 166.54 105.472 165.703 107.789 165.396Z" fill="white"/>
<path d="M107.63 160.954C107.642 160.895 107.654 160.836 107.654 160.775C107.654 159.843 106.289 159.033 104.278 158.618C104.328 158.523 104.355 158.425 104.355 158.324C104.355 157.485 102.57 156.805 100.367 156.805C98.1655 156.805 96.3809 157.485 96.3809 158.324C96.3809 158.566 96.5339 158.794 96.7989 158.998C95.7697 159.37 95.0662 159.87 94.8591 160.432C92.1251 160.714 90.1113 161.664 90.1113 162.795C90.1113 164.148 92.991 165.245 96.5434 165.245C96.782 165.245 97.017 165.24 97.2483 165.23C98.5396 166.35 101.471 167.132 104.887 167.132C109.496 167.132 113.232 165.709 113.232 163.953C113.232 162.566 110.889 161.387 107.63 160.954Z" fill="#407BFF"/>
<path opacity="0.9" d="M107.63 160.954C107.642 160.895 107.654 160.836 107.654 160.775C107.654 159.843 106.289 159.033 104.278 158.618C104.328 158.523 104.355 158.425 104.355 158.324C104.355 157.485 102.57 156.805 100.367 156.805C98.1655 156.805 96.3809 157.485 96.3809 158.324C96.3809 158.566 96.5339 158.794 96.7989 158.998C95.7697 159.37 95.0662 159.87 94.8591 160.432C92.1251 160.714 90.1113 161.664 90.1113 162.795C90.1113 164.148 92.991 165.245 96.5434 165.245C96.782 165.245 97.017 165.24 97.2483 165.23C98.5396 166.35 101.471 167.132 104.887 167.132C109.496 167.132 113.232 165.709 113.232 163.953C113.232 162.566 110.889 161.387 107.63 160.954Z" fill="white"/>
<path d="M217.883 242.514L218.634 248.045L213.383 249.399L212.115 243.418L217.883 242.514Z" fill="#FAB27B"/>
<path d="M210.444 250.509C209.68 250.66 208.863 250.676 208.545 250.397C208.377 250.231 208.331 249.977 208.432 249.763C208.502 249.574 208.641 249.42 208.823 249.332C209.793 248.847 212.177 249.647 212.282 249.683C212.342 249.703 212.382 249.758 212.383 249.821C212.383 249.883 212.345 249.939 212.288 249.963C211.69 250.198 211.073 250.381 210.444 250.509ZM209.231 249.507C209.136 249.523 209.045 249.554 208.96 249.597C208.843 249.642 208.753 249.738 208.715 249.857C208.642 250.06 208.698 250.14 208.749 250.181C209.113 250.524 210.664 250.228 211.779 249.86C210.959 249.583 210.094 249.463 209.231 249.507Z" fill="#407BFF"/>
<path d="M212.264 249.965C212.245 249.975 212.223 249.978 212.202 249.972C211.404 249.791 209.664 248.751 209.659 248.035C209.64 247.865 209.726 247.638 210.118 247.518C210.404 247.429 210.715 247.461 210.978 247.607C211.887 248.095 212.378 249.719 212.401 249.795C212.415 249.847 212.401 249.901 212.362 249.939C212.334 249.96 212.298 249.97 212.264 249.965ZM210.27 247.775L210.185 247.784C209.928 247.858 209.932 247.967 209.928 248.006C209.973 248.429 211.146 249.28 211.997 249.58C211.786 248.898 211.371 248.297 210.809 247.858C210.645 247.766 210.454 247.736 210.27 247.775Z" fill="#407BFF"/>
<path d="M212.744 248.979L219.448 247.654C219.701 247.604 219.955 247.736 220.059 247.972L222.348 253.187C222.555 253.648 222.349 254.189 221.887 254.395C221.828 254.422 221.767 254.442 221.703 254.455C219.278 254.891 217.102 255.184 214.094 255.782C210.544 256.485 211.529 256.732 207.366 257.617C204.857 258.147 203.832 255.379 204.871 255.028C209.631 253.448 209.846 251.874 211.383 249.755C211.726 249.338 212.211 249.062 212.744 248.979Z" fill="#263238"/>
<path opacity="0.2" d="M212.8 246.646L218.324 245.756L217.941 242.935L212.305 244.309L212.8 246.646Z" fill="black"/>
<path d="M159.379 242.193L157.765 247.537L152.426 246.589L153.756 240.622L159.379 242.193Z" fill="#FAB27B"/>
<path d="M149.288 246.377C148.53 246.197 147.781 245.872 147.607 245.487C147.522 245.266 147.587 245.016 147.768 244.862C147.909 244.719 148.101 244.637 148.302 244.632C149.385 244.594 151.223 246.312 151.303 246.389C151.349 246.432 151.362 246.498 151.338 246.555C151.312 246.612 151.255 246.648 151.193 246.646C150.551 246.613 149.914 246.522 149.288 246.377ZM148.601 244.962C148.508 244.938 148.412 244.928 148.316 244.932C148.191 244.924 148.069 244.974 147.985 245.067C147.835 245.221 147.853 245.317 147.882 245.375C148.07 245.839 149.604 246.214 150.771 246.342C150.141 245.749 149.405 245.281 148.601 244.962Z" fill="#407BFF"/>
<path d="M151.172 246.639C151.151 246.64 151.13 246.633 151.113 246.62C150.461 246.124 149.311 244.456 149.603 243.801C149.658 243.64 149.83 243.468 150.237 243.522C150.534 243.56 150.803 243.719 150.982 243.959C151.606 244.781 151.379 246.463 151.369 246.541C151.36 246.594 151.324 246.639 151.273 246.656C151.238 246.663 151.202 246.658 151.172 246.639ZM150.268 243.819L150.188 243.792C149.923 243.752 149.881 243.853 149.862 243.887C149.726 244.291 150.441 245.552 151.09 246.178C151.182 245.47 151.054 244.751 150.724 244.118C150.613 243.967 150.451 243.861 150.268 243.819Z" fill="#407BFF"/>
<path d="M152.017 245.942L158.667 247.52C158.917 247.579 159.093 247.805 159.091 248.062L159.009 253.757C159.005 254.262 158.593 254.669 158.087 254.666C158.023 254.665 157.957 254.658 157.894 254.644C155.507 254.033 153.407 253.396 150.422 252.692C146.901 251.857 147.694 252.49 143.539 251.566C141.036 251.007 141.253 248.063 142.344 248.175C147.329 248.715 148.179 247.372 150.458 246.082C150.943 245.846 151.498 245.796 152.017 245.942Z" fill="#263238"/>
<path opacity="0.2" d="M158.632 244.663L159.337 242.328L154.717 240.891L153.755 240.622L153.221 243.02L158.632 244.663Z" fill="black"/>
<path d="M206.295 129.536L180.399 123.58L175.963 140.475L161.79 180.638L152.184 240.969L161.79 243.467L175.624 184.288L192.341 146.079L206.295 147.458V129.536Z" fill="#263238"/>
<path opacity="0.3" d="M190.196 150.976L188.855 142.589L187.566 156.988L190.196 150.976Z" fill="black"/>
<path d="M152.184 239.35L162.395 241.968L161.919 244.08L151.73 241.158L152.184 239.35Z" fill="#407BFF"/>
<path d="M209.693 182.285L205.641 139.714L203.237 132.796L196.934 133.043L187.957 136.98L195.558 184.498L208.995 244.648L219.557 242.296L209.693 182.285Z" fill="#263238"/>
<path d="M208.527 244.349L219.811 241.874L220.097 243.467L208.813 245.957L208.527 244.349Z" fill="#407BFF"/>
<path d="M206.312 118.511C206.952 111.227 209.081 90.2042 209.081 90.2042C209.081 90.2042 206.904 88.932 202.98 87.8084C200.454 89.0396 194.814 91.6748 192.938 91.6111C191.26 91.5547 190.209 88.2263 189.714 86.1387C187.249 86.1833 184.592 86.4124 181.754 86.9095L179.436 94.3517C179.436 94.3517 174.8 113.14 177.118 132.782C177.118 132.782 183.733 137.54 196.939 137.54C202.156 137.54 206.764 136.076 206.764 136.076C206.764 136.076 205.911 123.075 206.312 118.511Z" fill="#407BFF"/>
<path d="M200.857 87.261C199.076 85.1872 200.789 77.0898 200.789 77.0898L194.463 79.4081C194.463 79.4081 193.8 85.0189 192.214 86.1579C191.592 86.6051 190.659 86.1249 189.85 86.1374L191.522 91.4736L195.688 91.8828L203.326 87.9103C202.569 87.6855 201.453 87.9556 200.857 87.261Z" fill="#DD8C6A"/>
<path opacity="0.1" d="M193.688 83.2833C198.063 82.7131 199.877 79.9549 200.605 78.0532C200.71 77.458 200.787 77.0898 200.787 77.0898L194.46 79.4081C194.46 79.4081 194.22 81.4233 193.688 83.2833Z" fill="black"/>
<path d="M190.611 85.7461L193.327 91.7426L188.697 94.4371L188.578 85.7886L190.611 85.7461Z" fill="#407BFF"/>
<path opacity="0.5" d="M190.611 85.7461L193.327 91.7426L188.697 94.4371L188.578 85.7886L190.611 85.7461Z" fill="white"/>
<path d="M202.698 87.1895L192.541 91.4834L196.03 96.065L204.511 88.0086L202.698 87.1895Z" fill="#407BFF"/>
<path opacity="0.5" d="M202.698 87.1895L192.541 91.4834L196.03 96.065L204.511 88.0086L202.698 87.1895Z" fill="white"/>
<path d="M172.118 92.8888L160.04 99.1108C160.04 99.1108 154.916 93.3961 150.768 86.1274C150.768 86.1274 151.5 81.7866 150.158 80.5671C148.816 79.3468 146.742 75.4087 146.742 75.4087L143.691 76.3581L141.861 78.9808L144.057 83.0068L147.351 87.1902C147.351 87.1902 151.987 106.309 158.941 106.309C165.895 106.309 176.387 99.2324 176.387 99.2324L172.118 92.8888Z" fill="#DD8C6A"/>
<path d="M184.421 86.5145C184.421 86.5145 180.535 85.691 169.678 92.5227L174.679 101.795L181.39 98.501L186.514 90.4578L184.421 86.5145Z" fill="#407BFF"/>
<path d="M167.605 92.8888L169.68 91.8823L175.291 101.795L173.461 102.908L167.605 92.8888Z" fill="#407BFF"/>
<path opacity="0.5" d="M167.605 92.8888L169.68 91.8823L175.291 101.795L173.461 102.908L167.605 92.8888Z" fill="white"/>
<path opacity="0.2" d="M179.437 94.3531L179.551 93.9878C177.872 95.7892 176.761 99.7633 176.467 100.917L178.312 100.011C178.917 96.4693 179.437 94.3531 179.437 94.3531Z" fill="black"/>
<path d="M215.894 97.163L221.652 102.488C221.652 102.488 227.019 95.2247 231.045 90.4572C231.045 90.4572 230.191 87.1544 232.021 85.2022L232.997 82.1827L235.803 81.4199L239.463 86.4824L234.582 92.5222C234.582 92.5222 225.798 110.09 222.87 110.456C219.942 110.822 211.822 102.907 211.822 102.907L215.894 97.163Z" fill="#DD8C6A"/>
<path d="M205.025 88.7862C205.025 88.7862 208.994 88.6581 218.482 97.2913L211.929 105.54L205.902 101.118L202.271 92.2998L205.025 88.7862Z" fill="#407BFF"/>
<path d="M220.46 98.0161L218.595 96.6611L211.328 105.433L212.934 106.851L220.46 98.0161Z" fill="#407BFF"/>
<path opacity="0.5" d="M220.46 98.0161L218.595 96.6611L211.328 105.433L212.934 106.851L220.46 98.0161Z" fill="white"/>
<path opacity="0.2" d="M208.381 97.2329C208.218 98.8631 208.037 100.675 207.852 102.547L209.994 104.12C209.9 101.662 208.98 98.836 208.381 97.2329Z" fill="black"/>
<path d="M193.774 59.3038C193.774 59.3038 187.302 59.2203 191.569 65.5265L196.528 60.2627L193.774 59.3038Z" fill="#263238"/>
<path d="M211.748 63.6693C211.881 63.995 211.938 64.3669 211.921 64.7168C211.871 65.713 211.104 66.2459 210.203 66.4824C209.998 66.5366 210.085 66.8542 210.291 66.8001C211.213 66.5578 212.039 66.0249 212.217 65.0286C212.301 64.5587 212.247 64.0258 212.066 63.5815C211.987 63.3882 211.668 63.4724 211.748 63.6693Z" fill="#263238"/>
<path d="M205.721 69.8669C203.492 75.2829 202.661 77.6136 198.899 79.4919C193.237 82.3233 187.077 78.3932 187.642 72.4274C188.16 67.0538 191.733 59.075 197.893 58.7631C202.294 58.4945 206.079 61.8449 206.348 66.2464C206.423 67.4849 206.208 68.7249 205.721 69.8669Z" fill="#DD8C6A"/>
<path d="M196.415 68.2971C196.256 68.7451 195.893 69.0298 195.601 68.9332C195.31 68.8373 195.193 68.3813 195.343 67.9318C195.493 67.4824 195.865 67.1991 196.157 67.295C196.448 67.3916 196.538 67.8616 196.415 68.2971Z" fill="#263238"/>
<path d="M191.327 66.5664C191.168 67.0231 190.805 67.2991 190.513 67.2025C190.222 67.1066 190.105 66.6505 190.255 66.2011C190.405 65.7516 190.778 65.4684 191.067 65.573C191.358 65.6784 191.477 66.1169 191.327 66.5664Z" fill="#263238"/>
<path d="M192.617 67.9194C191.862 68.8088 190.988 69.5906 190.021 70.2428C190.377 70.731 190.926 71.0414 191.528 71.0934L192.617 67.9194Z" fill="#C13B37"/>
<path d="M198.807 67.9746C198.686 67.9563 198.592 67.8597 198.576 67.7389C198.333 66.8517 197.731 66.1066 196.914 65.6827C196.775 65.6125 196.718 65.4434 196.787 65.3036C196.856 65.1674 197.02 65.1125 197.156 65.1806C197.159 65.182 197.162 65.1835 197.165 65.1857C198.15 65.6879 198.868 66.5941 199.13 67.6679C199.15 67.8187 199.044 67.9571 198.893 67.9768C198.865 67.9841 198.836 67.9834 198.807 67.9746Z" fill="#263238"/>
<path d="M190.604 63.6994C190.504 63.6811 190.42 63.6115 190.384 63.5164C190.332 63.3714 190.405 63.2111 190.549 63.1555C191.393 62.8071 192.356 62.9022 193.116 63.4088C193.237 63.4915 193.268 63.6577 193.185 63.7792C193.181 63.785 193.176 63.7909 193.172 63.7967C193.082 63.919 192.91 63.9453 192.788 63.856C192.786 63.8553 192.786 63.8546 192.784 63.8531C192.178 63.479 191.43 63.4168 190.77 63.6847C190.718 63.7067 190.66 63.7118 190.604 63.6994Z" fill="#263238"/>
<path d="M191.807 73.5083C191.807 73.5083 193.971 74.0573 195.565 73.5083C195.565 73.5083 195.448 75.9546 192.379 75.4525C192.235 75.4291 191.807 75.3324 191.807 75.3324C191.807 75.3324 192.058 74.629 191.807 73.5083Z" fill="#263238"/>
<path d="M192.311 73.61V74.1715C192.311 74.1715 193.72 74.7146 195.378 74.2293C195.548 73.8377 195.566 73.5083 195.566 73.5083C194.444 73.8941 193.045 73.7374 192.311 73.61Z" fill="white"/>
<path d="M195.024 74.7819C194.78 74.7417 194.514 74.7197 194.233 74.7197C193.19 74.7197 192.338 75.0257 192.211 75.4203C192.278 75.4342 192.338 75.4459 192.377 75.4525C193.804 75.686 194.588 75.2812 195.024 74.7819Z" fill="#C13B37"/>
<path d="M203.332 66.0467C203.332 66.0467 202.608 66.8592 203.75 67.7215C203.75 67.7215 200.483 70.7768 201.752 74.0855C203.022 77.3941 206.148 74.1587 207.062 73.1741C207.976 72.1896 212.534 66.4734 208.837 62.8917C205.139 59.3101 196.301 56.8886 195.95 52.5288C195.95 52.5288 194.493 55.4363 196.147 56.3901C196.147 56.3901 192.252 58.174 191.689 55.3294C191.689 55.3294 189.673 58.387 192.406 58.6718C192.406 58.6718 190.853 60.837 193.64 60.8824C196.426 60.9292 201.44 62.6341 203.332 66.0467Z" fill="#263238"/>
<path d="M205.772 74.6347C205.085 75.5058 204.083 76.0709 202.982 76.207C201.517 76.3658 201.017 74.997 201.623 73.7292C202.177 72.5938 203.601 71.1401 204.981 71.542C205.974 71.8662 206.516 72.9335 206.192 73.9261C206.106 74.1903 205.962 74.4319 205.772 74.6347Z" fill="#DD8C6A"/>
</g>
<defs>
<clipPath id="clip0_108_3524">
<rect width="366" height="366" fill="white" transform="translate(0 -44)"/>
</clipPath>
</defs>
</svg>
