<svg width="831" height="496" viewBox="0 0 831 496" fill="none" xmlns="http://www.w3.org/2000/svg">
<path d="M137.913 493.861C137.913 493.861 16.6648 469.879 10.4839 385.156C3.3695 287.644 101.221 286.568 86.2101 215.885C65.259 117.23 106.23 58.4659 198.03 62.5189C275.437 65.9359 337.522 124.867 383.779 77.0002C431.858 27.2468 510.354 -23.2883 593.027 11.5238C675.702 46.3359 663.522 159.457 720.698 183.494C777.874 207.531 839.791 270.928 829.819 358.628C820.464 440.908 744.584 495.574 674.273 494.745C639.816 494.338 506.082 495.2 385.898 494.745C260.831 494.273 137.913 493.861 137.913 493.861Z" fill="#E4F2FF"/>
<path d="M740.668 166.436C740.668 166.436 718.259 123.242 756.505 102.445C797.678 80.0569 829.242 121.647 819.523 155.892C809.805 190.135 752.599 188.615 740.668 166.436Z" fill="#E4F2FF"/>
<path d="M32.5812 198.319C32.5812 198.319 13.6087 184.085 27.2852 165.195C40.9605 146.305 73.8376 155.957 68.5841 178.73C66.1904 189.108 52.7834 211.873 32.5812 198.319Z" fill="#E4F2FF"/>
<path d="M662.6 494.219C652.637 494.92 612.404 495.563 619.527 461.485C623.165 444.081 613.907 442.162 604.958 433.388C596.008 424.616 597.08 420.285 599.817 410.677C602.555 401.07 590.229 404.353 587.848 389.895C585.466 375.435 594.485 363.341 610.093 363.418C625.7 363.496 622.2 379.689 627.284 385.668C632.369 391.648 640.247 386.14 645.457 400.391C650.667 414.642 643.073 423.156 653.059 428.725C654.845 429.72 656.741 431.117 658.659 432.805" stroke="#92CDFE" stroke-width="1.21385" stroke-miterlimit="10"/>
<path d="M645.865 455.459C638.165 439.798 630.019 424.357 621.466 409.145C618.547 403.952 615.578 398.786 612.565 393.646C611.973 392.636 610.399 393.551 610.993 394.565C620.601 410.954 629.744 427.617 638.369 444.544C640.372 448.475 642.346 452.42 644.292 456.378C644.809 457.43 646.379 456.508 645.865 455.459Z" fill="#92CDFE"/>
<path d="M606.008 422.826C612.638 423.513 619.268 424.201 625.899 424.89C626.853 424.989 627.808 425.088 628.762 425.187C629.926 425.307 629.918 423.486 628.762 423.366C622.132 422.679 615.502 421.991 608.871 421.303C607.917 421.203 606.962 421.105 606.008 421.005C604.842 420.884 604.851 422.706 606.008 422.826Z" fill="#92CDFE"/>
<path d="M613.952 411.289C613.952 412.936 612.412 414.27 610.512 414.27C608.613 414.27 607.072 412.935 607.072 411.289C607.072 409.643 608.613 408.308 610.512 408.308C612.412 408.308 613.952 409.643 613.952 411.289Z" stroke="#92CDFE" stroke-width="1.21385" stroke-miterlimit="10"/>
<path d="M621.618 384.489C620.668 386.133 618.564 386.698 616.918 385.747C615.272 384.797 614.709 382.693 615.659 381.049C616.61 379.403 618.713 378.839 620.359 379.789C622.004 380.739 622.567 382.843 621.618 384.489Z" stroke="#92CDFE" stroke-width="1.21385" stroke-miterlimit="10"/>
<path d="M635.47 462.552C635.47 464.604 633.55 466.267 631.183 466.267C628.815 466.267 626.895 464.604 626.895 462.552C626.895 460.499 628.815 458.836 631.183 458.836C633.55 458.835 635.47 460.499 635.47 462.552Z" stroke="#92CDFE" stroke-width="1.21385" stroke-miterlimit="10"/>
<path d="M613.951 377.208C614.796 377.208 615.481 376.523 615.481 375.678C615.481 374.834 614.796 374.149 613.951 374.149C613.107 374.149 612.422 374.834 612.422 375.678C612.422 376.523 613.107 377.208 613.951 377.208Z" stroke="#92CDFE" stroke-width="1.21385" stroke-miterlimit="10"/>
<path d="M721.22 490.912C712.971 485.03 712.158 447.724 745.968 440.174C763.235 436.318 760.469 427.674 763.957 416.556C767.446 405.439 771.824 404.621 781.709 403.112C791.593 401.603 784.171 388.13 795.903 380.329C807.635 372.527 823.383 371.928 829.249 388.98C834.216 403.418 820.146 409.777 817.277 416.491C814.407 423.205 822.755 432.27 812.576 442.393C802.396 452.518 791.509 444.896 791.376 455.618C791.243 466.34 786.478 485.876 776.143 489.895C763.358 494.868 727.731 495.555 721.22 490.912Z" stroke="#92CDFE" stroke-width="1.21385" stroke-miterlimit="10"/>
<path d="M732.721 495.17C737.3 489.708 742.053 484.387 746.642 478.931C757.983 465.444 769.058 451.732 779.875 437.822C787.745 427.7 795.475 417.471 803.043 407.123C803.736 406.176 802.157 405.267 801.471 406.204C788.766 423.575 775.611 440.613 762.082 457.349C753.612 467.827 745.001 478.194 736.201 488.398C734.62 490.231 732.988 492.027 731.433 493.883C730.686 494.775 731.967 496.069 732.721 495.17Z" fill="#92CDFE"/>
<path d="M744.197 440.605C743.437 434.362 742.452 428.245 741.889 422.559C739.602 399.437 771.47 409.772 784.163 380.1C796.857 350.429 765.782 339.646 780.397 327.23C795.01 314.813 799.09 272.149 777.684 264.812C749.933 255.301 724.991 272.699 721.6 295.615C718.986 313.292 730.836 325.637 699.992 338.595C669.147 351.553 673.913 367.645 680.249 398.421C686.585 429.197 665.741 417.913 649.541 443.892C636.705 464.478 654.745 485.474 662.788 493.304L725.219 494.376" stroke="#92CDFE" stroke-width="1.21385" stroke-miterlimit="10"/>
<path d="M675.52 493.312C678.064 487.439 680.619 481.572 683.177 475.704C689.453 461.303 695.751 446.91 702.073 432.528C710.129 414.202 718.222 395.891 726.379 377.609C734.256 359.956 742.181 342.325 750.268 324.768C755.994 312.335 761.694 299.858 767.978 287.694C768.445 286.788 768.919 285.887 769.399 284.988C769.953 283.955 768.381 283.035 767.827 284.069C761.85 295.225 756.596 306.787 751.275 318.264C743.323 335.419 735.554 352.658 727.832 369.917C719.583 388.358 711.405 406.83 703.266 425.319C696.62 440.417 690.001 455.529 683.406 470.648C680.293 477.789 676.982 484.881 674.071 492.108C674.032 492.204 673.988 492.297 673.947 492.392C673.487 493.458 675.055 494.386 675.52 493.312Z" fill="#92CDFE"/>
<path d="M732.386 363.334C744.594 362.659 756.801 361.983 769.008 361.308C770.754 361.211 772.499 361.115 774.245 361.018C775.41 360.953 775.418 359.133 774.245 359.197C762.037 359.872 749.831 360.548 737.623 361.223C735.878 361.32 734.132 361.416 732.386 361.513C731.221 361.577 731.214 363.399 732.386 363.334Z" fill="#92CDFE"/>
<path d="M690.126 458.671C699.753 457.588 709.38 456.505 719.006 455.422C720.384 455.267 721.76 455.113 723.138 454.957C724.289 454.828 724.302 453.006 723.138 453.137C713.511 454.219 703.884 455.302 694.258 456.385C692.88 456.54 691.504 456.694 690.126 456.85C688.975 456.98 688.962 458.802 690.126 458.671Z" fill="#92CDFE"/>
<path d="M686.191 353.982C688.955 360.186 691.719 366.39 694.483 372.594C698.896 382.498 703.308 392.403 707.72 402.307C708.742 404.601 709.764 406.895 710.786 409.189C711.262 410.257 712.832 409.332 712.358 408.27C709.594 402.066 706.831 395.862 704.067 389.658C699.654 379.754 695.242 369.849 690.83 359.946C689.808 357.651 688.785 355.357 687.763 353.063C687.288 351.995 685.718 352.92 686.191 353.982Z" fill="#92CDFE"/>
<path d="M746.604 290.551C744.557 293.558 740.993 294.7 738.643 293.1C736.293 291.502 736.048 287.767 738.096 284.76C740.142 281.753 743.706 280.611 746.056 282.211C748.405 283.809 748.65 287.543 746.604 290.551Z" stroke="#92CDFE" stroke-width="1.21385" stroke-miterlimit="10"/>
<path d="M748.104 306.809C748.104 308.398 746.815 309.687 745.226 309.687C743.637 309.687 742.348 308.399 742.348 306.809C742.348 305.219 743.637 303.931 745.226 303.931C746.816 303.931 748.104 305.219 748.104 306.809Z" stroke="#92CDFE" stroke-width="1.21385" stroke-miterlimit="10"/>
<path d="M768.97 381.035C768.97 384.123 766.465 386.627 763.377 386.627C760.289 386.627 757.785 384.123 757.785 381.035C757.785 377.947 760.289 375.443 763.377 375.443C766.465 375.443 768.97 377.947 768.97 381.035Z" stroke="#92CDFE" stroke-width="1.21385" stroke-miterlimit="10"/>
<path d="M359.66 494.372C361.249 488.645 361.293 482.27 362.005 476.856C363.546 465.143 380.492 474.789 391.403 461.993C402.314 449.198 385.876 439.446 395.76 435.421C405.644 431.396 412.364 413.01 401.894 404.299C388.948 393.528 370.796 400.649 366.036 411.449C362.364 419.779 367.62 427.552 348.391 429.523C329.161 431.494 329.904 440.098 329.736 456.158C329.57 472.218 319.041 463.682 306.581 474.157C299.518 480.094 301.461 488.392 304.469 494.469" stroke="#92CDFE" stroke-width="1.21385" stroke-miterlimit="10"/>
<path d="M321.643 495.524C331.099 484.598 340.584 473.697 350.112 462.835C360.917 450.515 371.749 438.213 382.812 426.123C386.77 421.798 390.72 417.437 394.932 413.353C395.774 412.536 394.486 411.25 393.644 412.065C384.646 420.788 376.427 430.388 368.094 439.734C356.835 452.363 345.687 465.091 334.578 477.85C329.828 483.304 325.088 488.766 320.355 494.235C319.592 495.118 320.875 496.412 321.643 495.524Z" fill="#92CDFE"/>
<path d="M363.752 446.766C370.806 448.177 377.859 449.588 384.912 450.999C385.93 451.203 386.949 451.407 387.968 451.611C389.113 451.84 389.602 450.085 388.453 449.855C381.399 448.445 374.345 447.033 367.293 445.623C366.274 445.419 365.256 445.215 364.236 445.011C363.092 444.781 362.601 446.535 363.752 446.766Z" fill="#92CDFE"/>
<path d="M338.239 435.253C340.357 444.207 342.476 453.16 344.594 462.112C344.897 463.393 345.199 464.672 345.503 465.953C345.772 467.093 347.529 466.611 347.258 465.469C345.14 456.515 343.022 447.562 340.904 438.61C340.6 437.329 340.298 436.049 339.994 434.769C339.725 433.631 337.969 434.112 338.239 435.253Z" fill="#92CDFE"/>
<path d="M380.955 412.53C379.415 413.718 377.236 413.77 376.09 412.646C374.944 411.523 375.263 409.649 376.804 408.461C378.344 407.273 380.523 407.22 381.669 408.343C382.815 409.467 382.495 411.341 380.955 412.53Z" stroke="#92CDFE" stroke-width="1.21385" stroke-miterlimit="10"/>
<path d="M382.601 460.281C382.221 461.802 380.482 462.677 378.716 462.235C376.95 461.793 375.827 460.203 376.207 458.682C376.587 457.161 378.326 456.287 380.092 456.728C381.858 457.17 382.982 458.76 382.601 460.281Z" stroke="#92CDFE" stroke-width="1.21385" stroke-miterlimit="10"/>
<path d="M66.7524 493.239C60.1065 494.98 30.0552 499.968 30.5359 476.027C30.7811 463.8 27.2172 464.244 20.0518 459.453C12.8865 454.661 13.0612 451.597 13.6888 444.756C14.3164 437.913 7.49695 441.227 2.95471 432.23C-2.4797 421.467 4.06296 413.436 14.6235 411.503C25.184 409.571 24.8769 420.962 29.0744 424.357C33.2719 427.752 39.0753 420.451 47.1389 430.351C52.4034 436.813 44.2293 451.558 51.9737 450.184" stroke="#92CDFE" stroke-width="1.21385" stroke-miterlimit="10"/>
<path d="M52.9096 471.924C42.5918 457.982 31.6951 444.472 20.3104 431.388C19.5396 430.502 18.2565 431.795 19.0225 432.676C30.3052 445.642 41.1109 459.026 51.3376 472.842C52.0271 473.775 53.6075 472.867 52.9096 471.924Z" fill="#92CDFE"/>
<path d="M35.3751 430.762C34.9939 436.458 34.614 442.156 34.2329 447.854C34.1794 448.659 34.1248 449.463 34.0714 450.268C34.3749 449.965 34.6783 449.661 34.9818 449.358C29.755 449.791 24.5281 450.223 19.3013 450.657C18.142 450.752 18.1311 452.574 19.3013 452.477C24.5281 452.044 29.755 451.612 34.9818 451.179C35.4977 451.136 35.857 450.795 35.8922 450.268C36.2733 444.57 36.6533 438.874 37.0344 433.176C37.0878 432.371 37.1425 431.566 37.1959 430.762C37.2736 429.591 35.4528 429.596 35.3751 430.762Z" fill="#92CDFE"/>
<path d="M19.8191 351.659C6.71067 340.982 3.57651 307.999 22.2528 297.985C45.3439 285.602 69.5166 304.767 72.5573 324.474C74.9037 339.675 64.2715 350.29 91.9389 361.433C119.605 372.576 115.331 386.413 109.648 412.878C103.964 439.343 122.661 429.641 137.191 451.979C148.706 469.681 132.524 487.736 125.31 494.47L68.7203 494.194C66.8874 493.114 65.1297 491.909 63.4789 490.558C45.2031 475.62 52.4632 452.017 54.3604 433.634C56.4118 413.751 27.8268 422.639 16.4421 397.124C5.05498 371.609 32.9274 362.336 19.8191 351.659Z" stroke="#92CDFE" stroke-width="1.21385" stroke-miterlimit="10"/>
<path d="M115.38 493.622C113.111 488.602 110.833 483.586 108.553 478.57C102.916 466.17 97.2598 453.777 91.5826 441.395C84.3396 425.599 77.0649 409.818 69.7321 394.063C62.6529 378.854 55.5312 363.664 48.2651 348.543C43.1584 337.915 38.0724 327.25 32.4814 316.867C32.0517 316.068 31.6171 315.273 31.174 314.482C30.6023 313.459 29.0292 314.376 29.6021 315.401C34.9321 324.939 39.6334 334.848 44.388 344.68C51.5328 359.454 58.5148 374.305 65.4544 389.177C72.8699 405.068 80.221 420.989 87.5381 436.924C93.5066 449.923 99.4508 462.934 105.374 475.955C107.27 480.122 109.164 484.29 111.055 488.461C111.924 490.376 112.666 492.448 113.694 494.286C113.739 494.366 113.772 494.457 113.809 494.542C114.29 495.607 115.86 494.682 115.38 493.622Z" fill="#92CDFE"/>
<path d="M62.8747 381.012C51.9161 380.431 40.9574 379.849 29.9988 379.269C28.4426 379.187 26.8864 379.104 25.3303 379.022C24.1589 378.96 24.1626 380.78 25.3303 380.842C36.2889 381.424 47.2476 382.005 58.2062 382.585C59.7624 382.668 61.3186 382.751 62.8747 382.833C64.0461 382.895 64.0424 381.074 62.8747 381.012Z" fill="#92CDFE"/>
<path d="M100.783 462.993C88.4398 461.661 76.0949 460.331 63.7513 458.999C62.0215 458.812 60.2906 458.627 58.5608 458.44C57.3967 458.315 57.4065 460.135 58.5608 460.261C70.9045 461.592 83.2494 462.923 95.593 464.254C97.3228 464.441 99.0537 464.627 100.783 464.814C101.948 464.94 101.938 463.118 100.783 462.993Z" fill="#92CDFE"/>
<path d="M102.828 373.81C100.346 379.152 97.8635 384.495 95.38 389.837C91.4204 398.357 87.462 406.877 83.5024 415.397C82.5908 417.359 81.6792 419.322 80.7676 421.283C80.2772 422.339 81.8455 423.266 82.3396 422.202C84.8219 416.86 87.3042 411.517 89.7878 406.175C93.7473 397.654 97.7057 389.134 101.665 380.614C102.577 378.653 103.489 376.69 104.4 374.728C104.891 373.672 103.322 372.747 102.828 373.81Z" fill="#92CDFE"/>
<path d="M50.1314 320.119C51.968 322.704 55.164 323.686 57.2713 322.311C59.3785 320.936 59.5982 317.725 57.7629 315.138C55.9263 312.553 52.7303 311.571 50.623 312.946C48.5158 314.323 48.2961 317.533 50.1314 320.119Z" stroke="#92CDFE" stroke-width="1.21385" stroke-miterlimit="10"/>
<path d="M48.7871 334.1C48.7871 335.467 49.9427 336.575 51.369 336.575C52.794 336.575 53.9508 335.467 53.9508 334.1C53.9508 332.733 52.7952 331.625 51.369 331.625C49.9427 331.625 48.7871 332.733 48.7871 334.1Z" stroke="#92CDFE" stroke-width="1.21385" stroke-miterlimit="10"/>
<path d="M30.0703 397.927C30.0703 400.583 32.3159 402.735 35.0859 402.735C37.856 402.735 40.1016 400.582 40.1016 397.927C40.1016 395.271 37.856 393.119 35.0859 393.119C32.3159 393.119 30.0703 395.271 30.0703 397.927Z" stroke="#92CDFE" stroke-width="1.21385" stroke-miterlimit="10"/>
<path d="M148.411 494.283C149.543 493.615 150.63 492.87 151.65 492.036C162.945 482.805 158.458 468.216 157.286 456.856C156.019 444.568 173.684 450.061 180.721 434.292C187.758 418.523 170.532 412.792 178.633 406.193C186.734 399.595 188.672 379.211 177.129 373.021C162.858 365.369 147.919 377.213 146.04 389.391C144.591 398.785 151.16 405.346 134.062 412.232C128.19 414.597 124.646 417.158 122.666 420.165" stroke="#92CDFE" stroke-width="1.21385" stroke-miterlimit="10"/>
<path d="M139.186 454.487C148.517 434.205 157.81 413.883 167.748 393.888C169.406 390.551 171.073 387.214 172.889 383.96C173.46 382.935 171.888 382.017 171.317 383.041C167.568 389.762 164.282 396.755 160.948 403.687C155.97 414.039 151.101 424.443 146.26 434.86C143.365 441.091 140.485 447.328 137.614 453.568C137.127 454.625 138.696 455.552 139.186 454.487Z" fill="#92CDFE"/>
<path d="M152.021 425.807C158.782 425.449 165.544 425.09 172.305 424.732C173.278 424.679 174.252 424.628 175.225 424.576C176.391 424.514 176.398 422.694 175.225 422.755C168.464 423.114 161.703 423.473 154.942 423.831C153.968 423.883 152.995 423.934 152.021 423.986C150.856 424.048 150.849 425.87 152.021 425.807Z" fill="#92CDFE"/>
<path d="M139.492 475.3C143.921 474.823 148.349 474.344 152.779 473.867C153.416 473.798 154.053 473.73 154.692 473.661C155.845 473.537 155.857 471.715 154.692 471.84C150.263 472.317 145.834 472.795 141.405 473.272C140.768 473.342 140.131 473.41 139.492 473.479C138.34 473.603 138.327 475.425 139.492 475.3Z" fill="#92CDFE"/>
<path d="M126.064 420.625C130.047 429.195 134.029 437.764 138.01 446.333C138.573 447.544 139.135 448.755 139.698 449.965C140.191 451.027 141.762 450.104 141.27 449.046C137.288 440.477 133.306 431.908 129.324 423.338C128.76 422.128 128.198 420.916 127.635 419.706C127.144 418.645 125.574 419.568 126.064 420.625Z" fill="#92CDFE"/>
<path d="M159.898 386.701C158.763 388.298 156.788 388.905 155.485 388.055C154.183 387.205 154.047 385.221 155.182 383.622C156.317 382.025 158.292 381.418 159.594 382.268C160.895 383.117 161.031 385.102 159.898 386.701Z" stroke="#92CDFE" stroke-width="1.21385" stroke-miterlimit="10"/>
<path d="M172.296 434.788C172.296 436.43 170.909 437.76 169.196 437.76C167.483 437.76 166.096 436.43 166.096 434.788C166.096 433.147 167.483 431.817 169.196 431.817C170.907 431.816 172.296 433.147 172.296 434.788Z" stroke="#92CDFE" stroke-width="1.21385" stroke-miterlimit="10"/>
<path d="M215.37 82.2969H199.111V189.146H215.37V82.2969Z" fill="#92CDFE"/>
<path d="M258.181 102.088H241.922V189.147H258.181V102.088Z" fill="#92CDFE"/>
<path d="M193.961 115.024H177.703V189.147H193.961V115.024Z" fill="#6FBBEF"/>
<path d="M236.776 90.6509H220.518V189.148H236.776V90.6509Z" fill="#6FBBEF"/>
<path d="M279.59 112.898H263.33V189.146H279.59V112.898Z" fill="#6FBBEF"/>
<path d="M300.998 80.1577H284.738V189.146H300.998V80.1577Z" fill="#92CDFE"/>
<path d="M384.319 90.6445C360.615 92.5551 341.969 112.382 341.969 136.579C341.969 160.776 360.615 180.603 384.319 182.514V90.6445Z" fill="#92CDFE" stroke="#92CDFE" stroke-width="1.21385" stroke-miterlimit="10"/>
<path d="M389.729 90.5225V182.637C414.418 181.762 434.169 161.483 434.169 136.58C434.168 111.676 414.418 91.3976 389.729 90.5225Z" fill="#6FBBEF" stroke="#6FBBEF" stroke-width="1.21385" stroke-miterlimit="10"/>
<path d="M200.457 203.791H287.733" stroke="#92CDFE" stroke-width="2.4277" stroke-miterlimit="10" stroke-linecap="round"/>
<path d="M209.539 212.488H276.743" stroke="#92CDFE" stroke-width="2.4277" stroke-miterlimit="10" stroke-linecap="round"/>
<path d="M347.303 212.027H420.244" stroke="#92CDFE" stroke-width="2.4277" stroke-miterlimit="10" stroke-linecap="round"/>
<path d="M337.605 223.354H417.305" stroke="#92CDFE" stroke-width="2.4277" stroke-miterlimit="10" stroke-linecap="round"/>
<path d="M337.605 234.679H410.474" stroke="#92CDFE" stroke-width="2.4277" stroke-miterlimit="10" stroke-linecap="round"/>
<path d="M337.605 246.005H415.242" stroke="#92CDFE" stroke-width="2.4277" stroke-miterlimit="10" stroke-linecap="round"/>
<path d="M462.237 29.373H157.596C155.586 29.373 153.957 27.744 153.957 25.7338C153.957 23.7237 155.586 22.0947 157.596 22.0947H462.237C464.247 22.0947 465.876 23.7237 465.876 25.7338C465.876 27.7428 464.246 29.373 462.237 29.373Z" fill="#92CDFE"/>
<path d="M455.075 29.3726H163.625V256.353H455.075V29.3726Z" stroke="#92CDFE" stroke-width="1.21385" stroke-miterlimit="10"/>
<path d="M462.237 262.976H157.596C155.586 262.976 153.957 261.347 153.957 259.337C153.957 257.327 155.586 255.698 157.596 255.698H462.237C464.247 255.698 465.876 257.327 465.876 259.337C465.876 261.347 464.246 262.976 462.237 262.976Z" fill="#92CDFE"/>
<path d="M333.314 11.4263H377.781C383.461 11.4263 388.068 15.8034 388.068 21.2038V38.4588V44.494V63.3986L377.609 54.2716H333.314C327.633 54.2716 323.027 49.8945 323.027 44.494V21.2038C323.026 15.8034 327.631 11.4263 333.314 11.4263Z" fill="white" stroke="#92CDFE" stroke-width="1.21385" stroke-miterlimit="10"/>
<path d="M365.721 33.6249C365.721 35.9725 367.724 37.8759 370.194 37.8759C372.664 37.8759 374.667 35.9725 374.667 33.6249C374.667 31.2773 372.664 29.374 370.194 29.374C367.722 29.374 365.721 31.2773 365.721 33.6249Z" fill="#92CDFE"/>
<path d="M350.162 33.6249C350.162 35.9725 352.165 37.8759 354.635 37.8759C357.105 37.8759 359.108 35.9725 359.108 33.6249C359.108 31.2773 357.105 29.374 354.635 29.374C352.165 29.374 350.162 31.2773 350.162 33.6249Z" fill="#92CDFE"/>
<path d="M334.605 33.6249C334.605 35.9725 336.608 37.8759 339.079 37.8759C341.549 37.8759 343.552 35.9725 343.552 33.6249C343.552 31.2773 341.549 29.374 339.079 29.374C336.608 29.374 334.605 31.2773 334.605 33.6249Z" fill="#92CDFE"/>
<path d="M307.67 85.4852C307.67 85.4852 299.159 74.0641 299.713 70.6616C300.268 67.2592 304.063 68.3505 306.033 70.8449C308.003 73.3394 314.462 81.942 314.581 82.6509C314.699 83.361 307.67 85.4852 307.67 85.4852Z" fill="#A66957"/>
<path d="M323.567 85.8932C319.891 81.9494 316.86 78.7946 314.113 79.8155C312.671 80.3508 310.107 82.021 308.331 83.9693C307.831 83.6051 307.353 83.3296 306.933 83.2045C304.436 82.458 302.355 83.9705 302.53 86.9772C301.089 86.4552 298.536 87.6533 299.548 91.2257L299.219 90.8251C298.118 90.3663 294.928 91.8654 296.335 95.4681C297.741 99.0696 302.009 101.851 303.896 101.28C304.251 101.172 304.52 101.007 304.751 100.822L304.708 100.877L325.55 121.86L340.243 107.696C340.243 107.696 327.244 89.837 323.567 85.8932Z" fill="#A66957"/>
<path d="M339.338 105.698C336.332 101.864 333.328 98.0303 330.323 94.197C326.766 89.6596 323.183 85.0931 318.854 81.284C317.99 80.5241 317.007 79.7594 315.857 79.723C315.237 79.7036 314.631 79.9014 314.046 80.1114C312.212 80.7706 310.385 81.5948 308.99 82.9567C307.596 84.3186 306.693 86.3118 307.058 88.226C307.189 88.9155 307.52 89.6183 308.137 89.9509C308.867 90.3442 309.765 90.1196 310.548 89.8453C312.462 89.174 314.29 88.2564 315.973 87.1226" stroke="#7F4040" stroke-width="0.910389" stroke-miterlimit="10" stroke-linecap="round"/>
<path d="M313.413 89.8785C314.39 91.1615 313.872 93.293 312.413 93.9837C311.545 94.3952 310.504 94.3151 309.611 93.9594C308.719 93.605 307.949 92.9993 307.228 92.3645C305.235 90.6104 303.465 88.519 302.514 86.0391" stroke="#7F4040" stroke-width="0.910389" stroke-miterlimit="10" stroke-linecap="round"/>
<path d="M309.931 94.9761C309.563 96.383 308.983 97.967 307.616 98.4599C306.832 98.7427 305.939 98.58 305.202 98.1892C304.465 97.7995 303.86 97.2011 303.298 96.5845C301.65 94.771 300.277 92.705 299.244 90.4824" stroke="#7F4040" stroke-width="0.910389" stroke-miterlimit="10" stroke-linecap="round"/>
<path d="M305.821 99.2855C305.709 100.624 304.339 101.718 303.008 101.531C302.383 101.444 301.816 101.121 301.29 100.771C299.074 99.2976 297.274 97.2073 296.146 94.7979" stroke="#7F4040" stroke-width="0.910389" stroke-miterlimit="10" stroke-linecap="round"/>
<path d="M326.579 142.604L315.148 126.919L340.251 103.881L352.612 120.495L326.579 142.604Z" fill="white" stroke="#6FBBEF" stroke-width="1.21385" stroke-miterlimit="10"/>
<path d="M434.987 105.698L377.735 138.709L346.881 108.224L314.588 137.295C314.588 137.295 347.503 187.113 365.592 198.234C383.401 209.184 408.765 199.125 423.815 178.586C438.866 158.048 434.987 105.698 434.987 105.698Z" fill="#16004D"/>
<path d="M382.915 143.832L346.877 108.225L314.584 137.295C314.584 137.295 347.499 187.113 365.588 198.234C383.397 209.184 408.761 199.125 423.811 178.587" stroke="#2E4ECC" stroke-width="1.21385" stroke-miterlimit="10" stroke-linecap="round"/>
<path d="M407.952 425.696L402.387 456.044L421.753 462.151L429.643 428.283L407.952 425.696Z" fill="#A66957"/>
<path d="M356.072 493.671L427.469 493.332L430.125 451.643L395.794 453.258L391.241 470.02L356.072 493.671Z" fill="#16004D"/>
<path d="M376.287 476.129C377.58 478.977 378.874 481.825 380.167 484.673C380.351 485.081 380.537 485.489 380.722 485.896C380.89 486.267 381.433 486.362 381.759 486.167C382.142 485.942 382.202 485.506 382.031 485.13C380.739 482.282 379.445 479.433 378.152 476.585C377.967 476.177 377.782 475.77 377.597 475.363C377.428 474.991 376.886 474.898 376.559 475.091C376.177 475.317 376.117 475.753 376.287 476.129Z" fill="white"/>
<path d="M382.84 472.513C384.133 475.36 385.427 478.209 386.72 481.057C386.904 481.465 387.09 481.873 387.274 482.279C387.443 482.651 387.986 482.744 388.312 482.551C388.695 482.325 388.755 481.89 388.584 481.513C387.291 478.666 385.997 475.817 384.705 472.969C384.52 472.561 384.334 472.155 384.15 471.747C383.981 471.375 383.439 471.282 383.112 471.475C382.73 471.701 382.67 472.136 382.84 472.513Z" fill="white"/>
<path d="M515.11 425.696L520.677 456.044L501.311 462.151L493.42 428.283L515.11 425.696Z" fill="#A66957"/>
<path d="M566.987 493.67L495.59 493.332L492.936 451.642H526.826L531.818 470.02L566.987 493.67Z" fill="#16004D"/>
<path d="M545.469 475.362C544.176 478.21 542.882 481.059 541.589 483.907C541.405 484.314 541.219 484.722 541.035 485.129C540.863 485.504 540.93 485.941 541.306 486.167C541.631 486.361 542.176 486.266 542.344 485.895C543.637 483.047 544.931 480.198 546.224 477.351C546.408 476.943 546.594 476.535 546.779 476.128C546.948 475.752 546.883 475.316 546.507 475.09C546.183 474.896 545.638 474.99 545.469 475.362Z" fill="white"/>
<path d="M538.918 471.747C537.625 474.594 536.331 477.443 535.039 480.291C534.854 480.699 534.668 481.105 534.484 481.513C534.313 481.89 534.379 482.325 534.756 482.551C535.08 482.745 535.625 482.652 535.794 482.279C537.086 479.431 538.38 476.583 539.673 473.735C539.858 473.327 540.043 472.919 540.228 472.513C540.399 472.136 540.332 471.7 539.956 471.475C539.632 471.28 539.087 471.374 538.918 471.747Z" fill="white"/>
<path d="M456.164 278.365L438.412 473.735L381.385 470.15L414.602 211.648L453.114 216.887L456.164 278.365Z" fill="#2E4ECC"/>
<path d="M453.114 216.887L456.164 278.365L438.796 473.759L381.385 470.15" stroke="#161522" stroke-width="1.21385" stroke-miterlimit="10" stroke-linecap="round"/>
<path d="M441.457 260.023H454.344L479.03 470.529L533.475 468.102L499.567 212.771H439.572" fill="#2E4ECC"/>
<path d="M450.258 260.023H454.341L479.027 470.529L532.468 468.146" stroke="#161522" stroke-width="1.21385" stroke-miterlimit="10" stroke-linecap="round"/>
<path d="M442.367 143.834C442.367 143.834 439.752 121.915 440.842 115.555C441.931 109.196 445.417 101.789 450.973 101.461C456.529 101.135 470.471 101.57 473.086 105.165C475.7 108.759 480.819 113.66 478.968 126.515C477.117 139.369 469.165 186.391 469.165 186.391L463.473 200.151H453.379L442.367 143.834Z" fill="white"/>
<path d="M457.283 98.6016V181.764" stroke="#6FBBEF" stroke-width="1.21385" stroke-miterlimit="10"/>
<path d="M447.741 96.562L441.119 102.906L447.584 118.969L457.333 104.384L465.97 118.969L474.785 102.906L467.544 95.3057C467.544 95.3057 462.681 103.709 447.741 96.562Z" fill="white" stroke="#6FBBEF" stroke-width="1.21385" stroke-miterlimit="10"/>
<path d="M467.325 75.651V61.9078C467.325 54.0178 461.655 47.5625 454.724 47.5625H444.3C437.37 47.5625 431.699 54.0178 431.699 61.9078V78.0666C431.699 85.9566 437.369 92.4131 444.3 92.4131H447.64V99.1621C447.64 102.566 450.399 105.325 453.802 105.325H461.28C464.683 105.325 467.442 102.566 467.442 99.1621V93.4765V91.2806V90.7332V80.8961V76.8188C467.442 76.4194 467.397 76.031 467.325 75.651Z" fill="#A66957"/>
<path d="M465.866 69.9684C465.866 69.9684 463.509 56.355 462.874 58.3652C461.968 61.2335 462.076 77.1155 458.995 78.5115C454.918 80.3589 453.419 73.3829 445.207 73.1025C436.996 72.8221 432.275 76.8594 431.477 80.1465C430.68 83.4336 434.909 88.1203 437.488 90.2725C440.722 92.9721 450.105 92.4101 450.105 92.4101C450.105 92.4101 458.232 92.9029 461.631 88.107C465.167 83.1192 465.866 69.9684 465.866 69.9684Z" fill="#161522"/>
<path d="M452.335 67.1869C452.335 68.4845 451.284 69.537 449.985 69.537C448.687 69.537 447.635 68.4845 447.635 67.1869C447.635 65.8893 448.687 64.8369 449.985 64.8369C451.282 64.8369 452.335 65.8893 452.335 67.1869Z" fill="#161522"/>
<path d="M436.952 66.8422C436.952 67.9504 436.054 68.8475 434.947 68.8475C433.838 68.8475 432.941 67.9492 432.941 66.8422C432.941 65.7352 433.84 64.8369 434.947 64.8369C436.054 64.8369 436.952 65.7352 436.952 66.8422Z" fill="#161522"/>
<path d="M449.191 63.054C449.469 63.0564 449.747 63.0697 450.023 63.0977C450.083 63.1037 450.142 63.111 450.201 63.1171C450.345 63.1341 450.144 63.1062 450.276 63.128C450.413 63.1511 450.55 63.1729 450.686 63.2008C451.213 63.3064 451.726 63.463 452.224 63.6645C452.519 63.7835 452.904 63.5346 452.971 63.2409C453.051 62.8901 452.863 62.6218 452.547 62.4944C451.484 62.0659 450.337 61.8486 449.189 61.8413C448.871 61.8389 448.568 62.1217 448.583 62.4483C448.6 62.7772 448.851 63.0515 449.191 63.054Z" fill="#161522"/>
<path d="M433.898 63.4513C434.079 63.3433 434.265 63.2437 434.456 63.1527C434.507 63.1284 434.558 63.1054 434.608 63.0823C434.644 63.0665 434.761 63.0046 434.618 63.0762C434.712 63.0301 434.815 62.9973 434.913 62.9609C435.303 62.8189 435.705 62.7145 436.114 62.6453C436.428 62.5919 436.632 62.1889 436.537 61.8988C436.428 61.5601 436.127 61.4181 435.791 61.4752C434.91 61.6257 434.054 61.9473 433.285 62.4038C433.012 62.5652 432.89 62.9573 433.068 63.234C433.245 63.5084 433.606 63.6249 433.898 63.4513Z" fill="#161522"/>
<path d="M441.183 65.1965C440.146 66.902 439.234 68.6791 438.453 70.5156C438.371 70.7062 438.433 70.8871 438.634 70.9611C439.544 71.2986 440.453 71.636 441.364 71.9735C441.73 72.1094 441.888 71.5231 441.525 71.3884C440.615 71.0509 439.705 70.7135 438.795 70.376C438.856 70.5241 438.916 70.6734 438.976 70.8215C439.756 68.985 440.669 67.2079 441.706 65.5024C441.911 65.1686 441.387 64.8627 441.183 65.1965Z" fill="#161522"/>
<path d="M440.082 78.8302C440.082 78.8302 443.597 78.477 447.058 76.6089C447.058 76.6089 447.504 80.1339 444.848 80.9132C441.238 81.9717 440.082 78.8302 440.082 78.8302Z" fill="white"/>
<path d="M464.371 72.8389L462.447 60.1821C462.447 60.1821 427.429 64.5714 416.077 47.5617C404.725 30.552 416.654 23.8175 422.427 24.7801C428.199 25.7427 434.948 34.0151 434.948 34.0151C434.948 34.0151 429.575 26.704 434.948 25.5497C440.32 24.3953 446.255 29.9754 449.349 35.7472C449.349 35.7472 472.43 33.5951 480.233 47.5617C488.036 61.5283 481.712 71.4369 467.44 85.8672L466.139 77.7963L464.371 72.8389Z" fill="#161522"/>
<path d="M480.231 73.1042C480.231 77.6501 476.515 81.3353 471.932 81.3353C467.348 81.3353 463.633 77.6501 463.633 73.1042C463.633 68.5583 467.348 64.873 471.932 64.873C476.515 64.8718 480.231 68.5583 480.231 73.1042Z" fill="#A66957"/>
<path d="M467.943 74.1908C467.932 74.0136 467.938 73.8339 467.948 73.6567C467.953 73.5742 467.959 73.4916 467.967 73.4091C467.972 73.3629 467.977 73.318 467.982 73.2719C468.001 73.0971 467.968 73.335 467.991 73.2003C468.029 72.9709 468.072 72.7439 468.13 72.5193C468.16 72.4028 468.195 72.2863 468.233 72.1722C468.255 72.1066 468.278 72.0423 468.302 71.9779C468.316 71.9427 468.396 71.7534 468.345 71.8675C468.464 71.5992 468.602 71.3419 468.77 71.1015C468.79 71.0724 468.908 70.9183 468.84 71.0032C468.884 70.9486 468.929 70.8952 468.976 70.843C469.081 70.7252 469.194 70.6136 469.313 70.5092C469.338 70.4873 469.495 70.3647 469.42 70.4194C469.481 70.3744 469.544 70.3307 469.607 70.2883C469.754 70.1924 469.908 70.1086 470.066 70.0333C470.165 69.986 470.14 69.9969 470.274 69.9484C470.373 69.912 470.474 69.8792 470.576 69.8501C470.766 69.7954 471.022 69.7408 471.174 69.7202C471.717 69.6449 472.274 69.6643 472.818 69.7202C473.087 69.7481 473.319 69.4701 473.319 69.2189C473.319 68.9251 473.088 68.7455 472.818 68.7175C471.124 68.5415 469.287 68.8814 468.158 70.2603C467.415 71.1683 467.06 72.3033 466.96 73.4588C466.939 73.7004 466.924 73.9468 466.94 74.1896C466.982 74.8317 467.984 74.8366 467.943 74.1908Z" fill="#7F4040"/>
<path d="M472.386 99.8145L513.624 124.457L514.765 183.79L522.361 281.259C522.361 281.259 513.408 286.738 497.181 284.77C491.951 284.137 486.442 283.587 479.61 280.709C451.581 268.903 456.369 253.259 456.369 253.259L456.438 164.735C456.438 164.735 477.497 116.835 472.386 99.8145Z" fill="#16004D"/>
<path d="M455.672 192.772L456.439 259.195C456.439 259.195 459.124 276.287 486.872 282.846C514.619 289.404 522.362 281.259 522.362 281.259C522.362 281.259 512.81 167.98 513.848 162.133" stroke="#2E4ECC" stroke-width="1.21385" stroke-miterlimit="10" stroke-linecap="round"/>
<path d="M511.966 241.677C504.469 238.143 497.118 234.366 489.934 230.354" stroke="#2E4ECC" stroke-width="1.21385" stroke-miterlimit="10" stroke-linecap="round"/>
<path d="M484.599 114.119C492.463 128.892 493.806 135.411 493.806 135.411H478.866L486.645 152.575L456.438 192.77" stroke="#2E4ECC" stroke-width="1.21385" stroke-miterlimit="10" stroke-linecap="round"/>
<path d="M443.384 99.8145L405.588 124.457V182.827L397.58 281.259C397.58 281.259 404.92 286.844 419.766 284.893C424.569 284.262 430.483 283.595 436.762 280.709C462.451 268.903 458.061 253.259 458.061 253.259L457.998 164.735C457.998 164.735 438.699 116.835 443.384 99.8145Z" fill="#16004D"/>
<path d="M453.522 194.807C453.522 196.184 452.482 197.3 451.198 197.3C449.913 197.3 448.873 196.184 448.873 194.807C448.873 193.431 449.913 192.314 451.198 192.314C452.482 192.314 453.522 193.431 453.522 194.807Z" stroke="#2E4ECC" stroke-width="1.21385" stroke-miterlimit="10"/>
<path d="M453.522 213.159C453.522 214.536 452.482 215.653 451.198 215.653C449.913 215.653 448.873 214.536 448.873 213.159C448.873 211.783 449.913 210.666 451.198 210.666C452.482 210.666 453.522 211.782 453.522 213.159Z" stroke="#2E4ECC" stroke-width="1.21385" stroke-miterlimit="10"/>
<path d="M453.522 231.51C453.522 232.887 452.482 234.004 451.198 234.004C449.913 234.004 448.873 232.887 448.873 231.51C448.873 230.134 449.913 229.017 451.198 229.017C452.482 229.017 453.522 230.134 453.522 231.51Z" stroke="#2E4ECC" stroke-width="1.21385" stroke-miterlimit="10"/>
<path d="M405.323 179.37C406.275 185.217 397.586 281.257 397.586 281.257C397.586 281.257 404.683 289.402 430.114 282.844C455.544 276.285 458.005 259.193 458.005 259.193L457.289 162.766" stroke="#2E4ECC" stroke-width="1.21385" stroke-miterlimit="10" stroke-linecap="round"/>
<path d="M406.617 241.675C413.489 238.143 420.226 234.364 426.811 230.352" stroke="#2E4ECC" stroke-width="1.21385" stroke-miterlimit="10" stroke-linecap="round"/>
<path d="M432.187 114.118C424.979 128.893 423.748 135.41 423.748 135.41H437.44L430.31 152.574L457.489 190.903" stroke="#2E4ECC" stroke-width="1.21385" stroke-miterlimit="10" stroke-linecap="round"/>
<path d="M448.223 181.229C448.223 181.229 441.41 175.151 442.363 173.196C443.811 170.225 454.737 177.95 457.229 179.102C459.721 180.254 467.068 185.243 470.018 187.356C472.968 189.47 479.07 192.188 479.07 192.188L475.916 209.692C475.916 209.692 453.905 206.936 442.728 203.802C431.551 200.666 422.65 195.687 423.213 193.032C423.776 190.376 426.634 192.666 426.634 192.666C426.634 192.666 422.013 189.711 422.406 188.113C422.799 186.513 426.879 187.79 426.879 187.79C426.879 187.79 421.139 184.799 421.758 182.598C422.377 180.397 429.797 183.763 429.797 183.763C429.797 183.763 424.116 180.218 425.336 178.393C426.556 176.569 436.428 180.621 443.375 183.409C450.32 186.195 450.151 183.08 448.223 181.229Z" fill="#A66957"/>
<path d="M425.188 192.374C428.338 194.236 431.752 195.621 435.309 196.477C435.878 196.614 436.121 195.736 435.551 195.599C432.064 194.76 428.734 193.413 425.647 191.587C425.142 191.289 424.683 192.075 425.188 192.374Z" fill="#7F4040"/>
<path d="M424.637 186.694C428.121 188.509 431.734 190.067 435.444 191.358C435.999 191.551 436.236 190.672 435.685 190.48C432.049 189.215 428.512 187.687 425.096 185.908C424.577 185.638 424.116 186.423 424.637 186.694Z" fill="#7F4040"/>
<path d="M427.467 182.845C430.896 184.23 434.325 185.615 437.755 187C438.297 187.22 438.534 186.34 437.996 186.123C434.567 184.738 431.138 183.353 427.709 181.968C427.166 181.748 426.931 182.628 427.467 182.845Z" fill="#7F4040"/>
<path d="M484.038 217.41L465.344 212.196L471.395 179.522L490.746 183.921L484.038 217.41Z" fill="white" stroke="#6FBBEF" stroke-width="1.21385" stroke-miterlimit="10"/>
<path d="M568.195 190.437C572.287 141.877 475.68 101.784 475.68 101.784L505.975 166.112L516.933 174.839L530.282 174.644L476.151 175.439L467.096 216.515C533.372 248.96 566.628 209.034 568.195 190.437Z" fill="#16004D"/>
<path d="M568.195 190.438C566.628 209.035 533.372 248.961 467.096 216.516L476.151 175.44L530.282 174.645" stroke="#2E4ECC" stroke-width="1.21385" stroke-miterlimit="10" stroke-linecap="round"/>
<path d="M516.934 174.84L505.977 166.112" stroke="#2E4ECC" stroke-width="1.21385" stroke-miterlimit="10" stroke-linecap="round"/>
<path d="M544.808 123.504H589.453C595.157 123.504 599.781 127.899 599.781 133.32V150.644V156.704V175.685L589.28 166.522H544.808C539.104 166.522 534.48 162.126 534.48 156.705V133.322C534.48 127.898 539.104 123.504 544.808 123.504Z" fill="white" stroke="#92CDFE" stroke-width="1.21385" stroke-miterlimit="10"/>
<path d="M564.561 144.024L564.985 144.458L564.991 144.452L564.997 144.446L564.561 144.024ZM569.623 142.786L569.824 143.359L569.832 143.356L569.839 143.354L569.623 142.786ZM571.887 141.043L571.397 140.684L571.392 140.69L571.388 140.696L571.887 141.043ZM572.081 135.262L571.56 135.575L571.565 135.582L571.569 135.589L572.081 135.262ZM570.159 133.472L569.866 134.003L569.874 134.008L570.159 133.472ZM565.113 133.199L564.894 132.633L564.886 132.637L565.113 133.199ZM563.202 134.343L562.814 133.876L562.807 133.882L563.202 134.343ZM561.509 135.23L561.662 135.818L561.671 135.815L561.679 135.813L561.509 135.23ZM559.573 134.734L559.203 135.215L559.207 135.218L559.573 134.734ZM558.472 132.866L559.077 132.824L558.472 132.866ZM559.314 130.89L559.738 131.324L559.744 131.319L559.314 130.89ZM562.966 128.472L563.193 129.035L563.198 129.032L562.966 128.472ZM572.798 129.056L572.486 129.578L572.498 129.584L572.798 129.056ZM576.597 132.724L576.078 133.039L576.597 132.724ZM577.273 141.75L577.835 141.979L577.837 141.974L577.273 141.75ZM575.386 144.577L575.81 145.011L575.386 144.577ZM572.603 146.445L572.843 147.002L572.85 146.999L572.603 146.445ZM569.183 147.399L569.092 146.799L569.001 146.813L568.918 146.853L569.183 147.399ZM569.01 147.483L568.744 146.937L568.656 146.98L568.585 147.049L569.01 147.483ZM568.192 151.099L568.617 151.533L568.623 151.527L568.629 151.52L568.192 151.099ZM564.482 151.057L564.036 151.469L564.042 151.475L564.048 151.481L564.482 151.057ZM564.092 158.863L563.645 159.273L563.658 159.288L563.672 159.301L564.092 158.863ZM568.544 154.339L568.097 154.749L568.11 154.764L568.124 154.777L568.544 154.339ZM568.493 158.913L568.069 158.479L568.493 158.913ZM564.413 145.878C564.42 145.277 564.615 144.819 564.985 144.458L564.136 143.59C563.517 144.196 563.209 144.97 563.199 145.865L564.413 145.878ZM564.997 144.446C565.37 144.06 565.827 143.869 566.418 143.875L566.431 142.662C565.526 142.651 564.741 142.964 564.124 143.603L564.997 144.446ZM566.418 143.875C567.656 143.889 568.794 143.721 569.824 143.359L569.422 142.214C568.546 142.521 567.552 142.674 566.431 142.662L566.418 143.875ZM569.839 143.354C570.901 142.949 571.756 142.294 572.385 141.389L571.388 140.696C570.906 141.39 570.252 141.897 569.407 142.219L569.839 143.354ZM572.377 141.401C573.057 140.47 573.376 139.274 573.392 137.866L572.178 137.853C572.165 139.091 571.885 140.017 571.397 140.684L572.377 141.401ZM573.392 137.866C573.404 136.782 573.143 135.798 572.592 134.936L571.569 135.589C571.98 136.233 572.188 136.981 572.178 137.853L573.392 137.866ZM572.601 134.95C572.089 134.096 571.364 133.425 570.444 132.936L569.874 134.008C570.613 134.4 571.169 134.923 571.56 135.575L572.601 134.95ZM570.452 132.94C569.552 132.445 568.534 132.199 567.412 132.187L567.398 133.4C568.347 133.411 569.165 133.617 569.866 134.003L570.452 132.94ZM567.412 132.187C566.532 132.177 565.691 132.325 564.894 132.633L565.332 133.765C565.98 133.515 566.667 133.392 567.398 133.4L567.412 132.187ZM564.886 132.637C564.134 132.94 563.443 133.354 562.814 133.876L563.59 134.81C564.123 134.367 564.706 134.018 565.34 133.762L564.886 132.637ZM562.807 133.882C562.416 134.217 561.931 134.475 561.339 134.648L561.679 135.813C562.415 135.598 563.058 135.265 563.596 134.804L562.807 133.882ZM561.356 134.643C560.946 134.75 560.488 134.665 559.939 134.25L559.207 135.218C559.969 135.795 560.803 136.042 561.662 135.818L561.356 134.643ZM559.942 134.252C559.366 133.81 559.112 133.336 559.077 132.824L557.866 132.908C557.93 133.835 558.41 134.607 559.203 135.215L559.942 134.252ZM559.077 132.824C559.042 132.315 559.228 131.823 559.738 131.324L558.889 130.457C558.177 131.153 557.802 131.977 557.866 132.908L559.077 132.824ZM559.744 131.319C560.733 130.324 561.881 129.564 563.193 129.034L562.738 127.909C561.276 128.499 559.989 129.351 558.883 130.462L559.744 131.319ZM563.198 129.032C564.536 128.476 565.954 128.206 567.456 128.223L567.47 127.009C565.808 126.99 564.227 127.29 562.733 127.911L563.198 129.032ZM567.456 128.223C569.343 128.244 571.015 128.699 572.487 129.578L573.109 128.535C571.437 127.538 569.552 127.032 567.47 127.009L567.456 128.223ZM572.498 129.584C574.011 130.444 575.201 131.594 576.078 133.039L577.116 132.409C576.129 130.783 574.786 129.488 573.097 128.529L572.498 129.584ZM576.078 133.039C576.947 134.47 577.376 136.088 577.356 137.911L578.57 137.924C578.593 135.892 578.111 134.048 577.116 132.409L576.078 133.039ZM577.356 137.911C577.341 139.289 577.12 140.49 576.709 141.526L577.837 141.974C578.313 140.776 578.553 139.423 578.57 137.924L577.356 137.911ZM576.711 141.521C576.297 142.535 575.714 143.407 574.961 144.143L575.81 145.011C576.686 144.155 577.361 143.142 577.835 141.979L576.711 141.521ZM574.961 144.143C574.231 144.857 573.364 145.441 572.356 145.89L572.85 146.999C573.981 146.494 574.97 145.832 575.81 145.011L574.961 144.143ZM572.363 145.887C571.374 146.313 570.285 146.618 569.092 146.799L569.274 147.999C570.559 147.804 571.75 147.473 572.843 147.002L572.363 145.887ZM568.918 146.853C568.86 146.881 568.802 146.909 568.744 146.937L569.275 148.029C569.333 148.001 569.391 147.973 569.448 147.945L568.918 146.853ZM568.585 147.049C568.401 147.23 568.36 147.454 568.358 147.605L569.572 147.619C569.571 147.655 569.561 147.793 569.434 147.917L568.585 147.049ZM568.358 147.605L568.34 149.202L569.554 149.215L569.572 147.619L568.358 147.605ZM568.34 149.202C568.334 149.803 568.137 150.282 567.756 150.677L568.629 151.52C569.237 150.891 569.544 150.11 569.554 149.215L568.34 149.202ZM567.768 150.665C567.399 151.026 566.937 151.211 566.336 151.205L566.322 152.418C567.216 152.428 567.997 152.138 568.617 151.533L567.768 150.665ZM566.336 151.205C565.734 151.198 565.277 151.002 564.916 150.633L564.048 151.481C564.654 152.101 565.428 152.408 566.322 152.418L566.336 151.205ZM564.928 150.645C564.555 150.242 564.37 149.759 564.376 149.157L563.163 149.144C563.153 150.038 563.442 150.826 564.036 151.469L564.928 150.645ZM564.376 149.157L564.413 145.878L563.199 145.865L563.163 149.144L564.376 149.157ZM566.033 158.925C565.302 158.917 564.824 158.724 564.512 158.425L563.672 159.301C564.271 159.875 565.082 160.129 566.02 160.139L566.033 158.925ZM564.54 158.453C564.248 158.135 564.066 157.652 564.074 156.921L562.86 156.908C562.849 157.845 563.084 158.662 563.645 159.273L564.54 158.453ZM564.074 156.921L564.082 156.188L562.868 156.174L562.86 156.908L564.074 156.921ZM564.082 156.188C564.09 155.454 564.284 155.002 564.568 154.724L563.719 153.856C563.131 154.431 562.879 155.24 562.868 156.174L564.082 156.188ZM564.568 154.724C564.888 154.41 565.365 154.22 566.086 154.228L566.1 153.014C565.152 153.004 564.33 153.259 563.719 153.856L564.568 154.724ZM566.086 154.228L566.647 154.234L566.661 153.021L566.1 153.014L566.086 154.228ZM566.647 154.234C567.37 154.242 567.817 154.444 568.097 154.749L568.992 153.929C568.419 153.304 567.606 153.031 566.661 153.021L566.647 154.234ZM568.124 154.777C568.423 155.064 568.615 155.515 568.607 156.238L569.82 156.252C569.831 155.307 569.577 154.488 568.964 153.901L568.124 154.777ZM568.607 156.238L568.598 156.972L569.812 156.986L569.82 156.252L568.607 156.238ZM568.598 156.972C568.59 157.693 568.389 158.165 568.069 158.479L568.918 159.347C569.528 158.75 569.802 157.933 569.812 156.986L568.598 156.972ZM568.069 158.479C567.785 158.757 567.328 158.94 566.594 158.932L566.581 160.145C567.515 160.156 568.329 159.922 568.918 159.347L568.069 158.479ZM566.594 158.932L566.033 158.925L566.02 160.139L566.581 160.145L566.594 158.932Z" fill="#92CDFE"/>
<path d="M589.144 81.7603H618.068C621.763 81.7603 624.758 84.6079 624.758 88.1208V99.3441V103.27V115.566L617.956 109.629H589.144C585.449 109.629 582.453 106.781 582.453 103.27V88.1208C582.453 84.6067 585.449 81.7603 589.144 81.7603Z" stroke="#92CDFE" stroke-width="1.21385" stroke-miterlimit="10"/>
<path d="M594.92 95.6468C594.92 96.9978 593.825 98.094 592.473 98.094C591.122 98.094 590.025 96.9978 590.025 95.6468C590.025 94.2958 591.12 93.1997 592.473 93.1997C593.824 93.1997 594.92 94.2958 594.92 95.6468Z" fill="#92CDFE"/>
<path d="M602.338 98.094C603.689 98.094 604.785 96.9983 604.785 95.6468C604.785 94.2953 603.689 93.1997 602.338 93.1997C600.986 93.1997 599.891 94.2953 599.891 95.6468C599.891 96.9983 600.986 98.094 602.338 98.094Z" fill="#92CDFE"/>
<path d="M614.648 95.6468C614.648 96.9978 613.553 98.094 612.201 98.094C610.85 98.094 609.754 96.9978 609.754 95.6468C609.754 94.2958 610.849 93.1997 612.201 93.1997C613.553 93.1997 614.648 94.2958 614.648 95.6468Z" fill="#92CDFE"/>
<path d="M657.765 242.446L718.492 242.764C725.135 242.799 730.357 248.456 729.862 255.08L720.77 376.743C720.316 382.818 715.187 387.478 709.096 387.348L570.502 384.4C563.86 384.259 558.729 378.519 559.331 371.902C559.868 365.998 564.818 361.478 570.746 361.478L627.437 360.108C633.942 360.108 644.842 356.2 644.589 349.7L646.252 254.353C645.997 247.829 651.236 242.412 657.765 242.446Z" fill="white" stroke="#2E4ECC" stroke-width="1.21385" stroke-miterlimit="10" stroke-linecap="round"/>
<path d="M712.586 255.76L698.646 358.587" stroke="#2E4ECC" stroke-width="1.21385" stroke-miterlimit="10" stroke-linecap="round"/>
<path d="M640.48 357.811C640.643 357.62 680.502 357.811 680.502 357.811" stroke="#2E4ECC" stroke-width="1.21385" stroke-miterlimit="10" stroke-linecap="round"/>
<path d="M652.568 444.464H663.814V371.451H652.568V444.464Z" fill="white" stroke="#2E4ECC" stroke-width="1.21385" stroke-miterlimit="10"/>
<path d="M654.737 467.777H661.647C664.524 467.777 666.855 465.445 666.855 462.569V410.625C666.855 407.749 664.523 405.417 661.647 405.417H654.737C651.86 405.417 649.529 407.749 649.529 410.625V462.569C649.529 465.445 651.861 467.777 654.737 467.777Z" fill="#2E4ECC"/>
<path d="M613.818 462.554H616.578H699.813H706.357V470.059V478.504H699.813V470.059H616.578V478.504H610.033V470.059V462.554H613.818Z" fill="#2E4ECC"/>
<path d="M603.205 482.816C603.205 488.36 607.699 492.855 613.242 492.855C618.786 492.855 623.28 488.361 623.28 482.816C623.28 477.273 618.786 472.779 613.242 472.779C607.699 472.779 603.205 477.273 603.205 482.816Z" fill="white" stroke="#2E4ECC" stroke-width="1.21385" stroke-miterlimit="10"/>
<path d="M609.396 482.817C609.396 484.941 611.119 486.664 613.243 486.664C615.367 486.664 617.09 484.941 617.09 482.817C617.09 480.693 615.367 478.97 613.243 478.97C611.119 478.97 609.396 480.694 609.396 482.817Z" fill="#2E4ECC"/>
<path d="M693.391 482.816C693.391 488.36 697.884 492.855 703.428 492.855C708.972 492.855 713.465 488.361 713.465 482.816C713.465 477.273 708.972 472.779 703.428 472.779C697.884 472.779 693.391 477.273 693.391 482.816Z" fill="white" stroke="#2E4ECC" stroke-width="1.21385" stroke-miterlimit="10"/>
<path d="M699.582 482.817C699.582 484.941 701.304 486.664 703.429 486.664C705.553 486.664 707.274 484.941 707.274 482.817C707.274 480.693 705.552 478.97 703.429 478.97C701.303 478.971 699.582 480.694 699.582 482.817Z" fill="#2E4ECC"/>
<path d="M506.745 418.388L500.133 461.122H529.879L533.487 418.388H506.745Z" fill="#F6C8A6"/>
<path d="M452.764 494.039L535.87 494.882L534.246 454.048L497.376 455.543L492.487 471.041L452.764 494.039Z" fill="#161522"/>
<path d="M476.47 476.717C477.86 479.352 479.25 481.988 480.64 484.623C480.837 484.998 481.035 485.373 481.233 485.747C481.688 486.611 482.999 485.845 482.543 484.981C481.153 482.346 479.763 479.71 478.373 477.075C478.176 476.7 477.978 476.325 477.78 475.951C477.325 475.087 476.014 475.853 476.47 476.717Z" fill="white"/>
<path d="M483.505 473.375C484.895 476.01 486.285 478.645 487.674 481.281C487.872 481.656 488.07 482.031 488.268 482.406C488.723 483.27 490.034 482.504 489.578 481.64C488.188 479.005 486.798 476.369 485.408 473.734C485.21 473.359 485.012 472.984 484.815 472.609C484.359 471.745 483.05 472.511 483.505 473.375Z" fill="white"/>
<path d="M601.437 300.446C601.437 300.446 538.209 299.016 520.308 317.009C509.044 328.33 492.879 430.975 492.879 430.975H551.987L561.646 333.62L621.894 327.344L601.437 300.446Z" fill="#16004D"/>
<path d="M492.883 430.975H551.99" stroke="#6FBBEF" stroke-width="1.21385" stroke-miterlimit="10" stroke-linecap="round"/>
<path d="M554.113 419.82V462.552H583.86L584.053 419.82H554.113Z" fill="#F6C8A6"/>
<path d="M506.74 494.04L589.847 494.883L588.222 454.049L551.352 455.544L546.462 471.042L506.74 494.04Z" fill="#161522"/>
<path d="M551.352 455.543L546.462 471.042L506.74 494.04" stroke="white" stroke-width="1.21385" stroke-miterlimit="10" stroke-linecap="round"/>
<path d="M530.446 476.719C531.836 479.354 533.226 481.99 534.616 484.625C534.814 485 535.012 485.375 535.209 485.749C535.665 486.613 536.976 485.847 536.519 484.983C535.129 482.348 533.739 479.712 532.35 477.077C532.152 476.702 531.954 476.327 531.756 475.953C531.301 475.089 529.991 475.855 530.446 476.719Z" fill="white"/>
<path d="M537.488 473.377C538.877 476.012 540.267 478.647 541.657 481.283C541.855 481.658 542.053 482.033 542.251 482.408C542.706 483.272 544.017 482.506 543.561 481.642C542.171 479.007 540.781 476.371 539.391 473.736C539.193 473.361 538.995 472.986 538.797 472.611C538.342 471.747 537.031 472.513 537.488 473.377Z" fill="white"/>
<path d="M674.742 307.349H625.044C563.981 302.999 539.754 317.719 539.754 340.574C539.754 356.027 542.884 437.639 542.884 437.639L597.127 436.041L593.619 361.948C593.619 361.948 632.73 367.23 657.068 360.264C681.408 353.298 674.742 307.349 674.742 307.349Z" fill="#16004D"/>
<path d="M668.482 351.753C665.772 355.747 662.077 358.83 657.068 360.263C632.729 367.228 593.619 361.948 593.619 361.948" stroke="#6FBBEF" stroke-width="1.21385" stroke-miterlimit="10" stroke-linecap="round"/>
<path d="M597.127 436.04L542.884 437.639C542.884 437.639 539.754 356.026 539.754 340.573C539.754 317.719 563.981 303 625.044 307.349" stroke="#6FBBEF" stroke-width="1.21385" stroke-miterlimit="10" stroke-linecap="round"/>
<path d="M593.137 351.752L594.392 378.267" stroke="#6FBBEF" stroke-width="1.21385" stroke-miterlimit="10" stroke-linecap="round"/>
<path d="M563.038 190.046C560.251 185.288 558.861 183.01 557.308 183.727C555.756 184.445 555.871 187.457 555.871 187.457C549.326 179.656 544.489 176.796 543.361 178.465C543.004 178.993 543.182 179.689 543.59 180.391C542.292 179.24 540.868 178.67 540.21 179.518C539.417 180.54 540.06 181.627 540.397 182.286C538.706 180.771 536.86 180.205 536.283 181.922C535.766 183.463 536.723 184.84 537.581 185.706C535.693 184.381 534.703 185.214 534.499 186.631C534.257 188.305 537.012 192.193 542.879 199.579C548.747 206.965 559.65 222.46 559.65 222.46L574.64 209.74C574.64 209.74 565.824 194.805 563.038 190.046Z" fill="#F6C8A6"/>
<path d="M555.747 201.268C555.747 201.268 555.53 196.764 556.218 195.111C556.905 193.457 554.964 185.687 556.64 184.032C558.315 182.376 560.263 185.048 561.491 187.342C562.72 189.636 573.76 208.225 573.76 208.225" stroke="#EF8576" stroke-width="1.21385" stroke-miterlimit="10" stroke-linecap="round"/>
<path d="M536.688 185.153L544.69 192.96" stroke="#EF8576" stroke-width="1.21385" stroke-miterlimit="10" stroke-linecap="round"/>
<path d="M539.344 181.552L547.415 190.339" stroke="#EF8576" stroke-width="1.21385" stroke-miterlimit="10" stroke-linecap="round"/>
<path d="M543.268 179.753L550.138 187.829" stroke="#EF8576" stroke-width="1.21385" stroke-miterlimit="10" stroke-linecap="round"/>
<path d="M561.781 230.212L581.804 211.373L575.207 206.05L558.152 222.103C558.152 222.103 559.501 225.453 561.781 230.212Z" fill="white" stroke="#6FBBEF" stroke-width="1.21385" stroke-miterlimit="10"/>
<path d="M622.709 240.414L581.437 208.812L559.865 229.117C559.865 229.117 562.942 236.764 567.824 246.112C574.266 258.446 584.076 273.29 593.655 278.34C616.213 290.232 637.453 284.094 651.475 277.166C665.495 270.238 622.709 240.414 622.709 240.414Z" fill="#2E4ECC"/>
<path d="M622.712 240.414L581.439 208.812L559.869 229.117" stroke="#16004D" stroke-width="1.21385" stroke-miterlimit="10" stroke-linecap="round" stroke-linejoin="round"/>
<path d="M650.496 196.458C626.286 199.682 614.309 245.972 614.309 245.972L598.342 300.418C598.342 300.418 606.008 315.124 631.189 321.058C661.514 328.202 683.719 316.912 683.719 316.912V245.814L663.517 196.459L650.496 196.458Z" fill="#2E4ECC"/>
<path d="M683.976 286.729L683.721 316.911C683.721 316.911 668.804 324.762 643.35 323.426C617.896 322.09 600.468 306.238 596.99 298.318" stroke="#16004D" stroke-width="1.21385" stroke-miterlimit="10" stroke-linecap="round"/>
<path d="M607.1 265.481C607.1 265.481 618.676 229.131 624.903 219.411" stroke="#16004D" stroke-width="1.21385" stroke-miterlimit="10" stroke-linecap="round" stroke-linejoin="round"/>
<path d="M732.394 267.692C711.886 207.882 663.516 196.458 663.516 196.458L655.903 198.615L669.157 241.417L680.502 263.878L679.36 263.845L629.935 262.408L627.869 294.206C627.869 294.206 753.323 328.73 732.394 267.692Z" fill="#2E4ECC"/>
<path d="M732.394 267.691C753.323 328.731 627.869 294.204 627.869 294.204L629.935 262.406L679.36 263.843L686.947 264.064" stroke="#16004D" stroke-width="1.21385" stroke-miterlimit="10" stroke-linecap="round"/>
<path d="M669.154 241.417L680.5 263.878" stroke="#16004D" stroke-width="1.21385" stroke-miterlimit="10" stroke-linecap="round"/>
<path d="M641.661 145.196L651.654 145.357C658.299 145.464 663.635 151.741 663.514 159.307L663.264 174.799C663.256 175.236 663.227 175.666 663.185 176.092C663.285 176.551 663.34 177.025 663.333 177.513L663.181 186.945L663.173 187.471L663.021 196.901C662.966 200.324 660.121 203.078 656.699 203.024L652.735 202.959C649.313 202.903 646.557 200.059 646.613 196.636L646.748 188.291L640.969 188.198C634.324 188.091 628.988 181.814 629.109 174.248L629.359 158.756C629.481 151.19 635.017 145.089 641.661 145.196Z" fill="#F6C8A6"/>
<path d="M668.742 175.122C668.742 175.122 677.923 169.078 679.352 158.697C679.352 158.697 679.989 142.83 666.78 136.747C653.571 130.665 640.426 132.806 635.135 134.702C625.212 138.257 620.939 144.04 624.616 152.18C627.352 158.236 641.535 155.311 646.485 151.639C646.485 151.639 647.248 158.001 659.399 159.973L663.298 176.793L663.467 182.281L668.742 175.122Z" fill="#161522"/>
<path d="M649.283 164.139C649.263 165.383 648.238 166.376 646.994 166.356C645.75 166.335 644.758 165.311 644.778 164.066C644.797 162.822 645.823 161.83 647.067 161.85C648.311 161.871 649.304 162.895 649.283 164.139Z" fill="#161522"/>
<path d="M634.538 163.571C634.521 164.633 633.646 165.48 632.584 165.463C631.522 165.446 630.675 164.571 630.692 163.509C630.709 162.447 631.584 161.6 632.646 161.618C633.708 161.635 634.555 162.509 634.538 163.571Z" fill="#161522"/>
<path d="M636.537 172.825C636.537 172.825 637.616 176.142 640.006 176.407C642.396 176.671 644.314 174.049 644.478 171.981L636.537 172.825Z" fill="white"/>
<path d="M656.644 172.222C656.572 175.117 654.166 177.406 651.271 177.333C648.376 177.262 646.087 174.857 646.16 171.961C646.232 169.066 648.637 166.778 651.532 166.849C654.427 166.922 656.717 169.327 656.644 172.222Z" fill="#EF8576"/>
<path d="M630.178 168.046C629.859 168.039 629.549 168.072 629.25 168.136L629.115 173.573C629.095 174.385 629.105 175.172 629.251 175.941C629.469 175.984 629.75 176.021 629.979 176.026C632.182 176.081 634.013 174.339 634.069 172.135C634.124 169.932 632.381 168.101 630.178 168.046Z" fill="#EF8576"/>
<path d="M656.214 163.418C656.14 167.984 652.981 171.636 649.16 171.574C645.338 171.512 642.298 167.761 642.372 163.196C642.446 158.63 645.605 154.978 649.427 155.04C653.249 155.101 656.288 158.852 656.214 163.418Z" stroke="#EB3341" stroke-width="0.910389" stroke-miterlimit="10"/>
<path d="M638.151 162.337C638.082 166.618 635.267 170.042 631.862 169.988C628.458 169.933 625.754 166.419 625.824 162.138C625.893 157.858 628.709 154.432 632.112 154.487C635.516 154.542 638.221 158.057 638.151 162.337Z" stroke="#EB3341" stroke-width="0.910389" stroke-miterlimit="10"/>
<path d="M656.213 163.418L665.124 165.622" stroke="#EB3341" stroke-width="0.910389" stroke-miterlimit="10"/>
<path d="M639.72 160.375C639.124 162.751 638.03 164.981 636.487 166.888C636.281 167.143 636.294 167.489 636.589 167.675C637.677 168.365 638.766 169.055 639.853 169.746C640.399 170.092 640.903 169.225 640.359 168.88C639.272 168.189 638.183 167.5 637.095 166.809C637.129 167.071 637.163 167.334 637.197 167.596C638.851 165.552 640.046 163.192 640.687 160.64C640.844 160.015 639.877 159.748 639.72 160.375Z" fill="#010001"/>
<path d="M642.118 164.511C639.704 163.138 637.583 164.335 637.518 164.386L637.588 163.509C637.675 163.436 639.568 161.783 642.664 163.546L642.118 164.511Z" fill="#EB3341"/>
<path d="M631.262 160.268C632.368 159.945 633.469 159.606 634.565 159.253C634.942 159.131 635.225 158.721 635.095 158.319C634.973 157.942 634.566 157.659 634.162 157.789C633.066 158.142 631.965 158.481 630.859 158.804C630.478 158.915 630.201 159.343 630.328 159.737C630.455 160.124 630.854 160.386 631.262 160.268Z" fill="#161522"/>
<path d="M646.613 158.956C648.446 159.71 650.318 160.364 652.22 160.917C652.614 161.031 653.046 160.778 653.154 160.386C653.264 159.986 653.019 159.568 652.623 159.453C650.72 158.901 648.849 158.246 647.017 157.493C646.638 157.337 646.183 157.661 646.083 158.023C645.964 158.459 646.234 158.8 646.613 158.956Z" fill="#161522"/>
<path d="M675.934 170.241C675.864 174.6 672.245 178.075 667.85 178.005C663.456 177.935 659.95 174.343 660.021 169.985C660.091 165.626 663.709 162.151 668.105 162.221C672.499 162.292 676.005 165.882 675.934 170.241Z" fill="#F6C8A6"/>
<path d="M664.156 171.086C664.148 170.918 664.158 170.75 664.169 170.583C664.175 170.503 664.182 170.423 664.19 170.344C664.195 170.301 664.201 170.256 664.206 170.212C664.184 170.394 664.211 170.188 664.217 170.148C664.254 169.926 664.302 169.706 664.363 169.489C664.394 169.376 664.43 169.263 664.47 169.152C664.49 169.095 664.512 169.038 664.534 168.981C664.536 168.975 664.582 168.863 664.551 168.939C664.521 169.009 664.58 168.874 664.586 168.861C664.7 168.613 664.837 168.38 664.993 168.157C665.073 168.042 664.971 168.174 665.061 168.067C665.104 168.015 665.148 167.963 665.194 167.913C665.299 167.799 665.412 167.696 665.527 167.594C665.549 167.576 665.571 167.557 665.594 167.539C665.506 167.61 665.62 167.52 665.631 167.512C665.692 167.47 665.753 167.427 665.816 167.389C665.96 167.299 666.111 167.217 666.267 167.149C666.248 167.158 666.188 167.181 666.282 167.143C666.335 167.122 666.39 167.102 666.445 167.083C666.533 167.052 666.624 167.024 666.715 166.999C666.9 166.949 667.162 166.897 667.292 166.882C667.821 166.821 668.358 166.842 668.886 166.907C669.155 166.939 669.387 166.653 669.387 166.405C669.387 166.108 669.155 165.937 668.886 165.904C667.259 165.709 665.481 166.013 664.377 167.328C663.65 168.196 663.296 169.282 663.183 170.395C663.16 170.624 663.143 170.857 663.154 171.087C663.184 171.728 664.187 171.732 664.156 171.086Z" fill="#EF8576"/>
<path d="M663.573 190.276L651.388 194.99L649.204 193.668L646.298 191.886L640.211 200.634C641.462 203.274 647.675 206.952 647.675 206.952L649.167 202.125C649.536 202.319 649.924 202.497 650.321 202.658C650.719 202.839 651.196 203.004 651.738 203.089C651.761 203.092 651.786 203.102 651.809 203.107C651.825 203.109 651.835 203.11 651.849 203.113C651.853 203.113 651.855 203.114 651.858 203.114C652.66 203.243 653.204 203.284 653.569 203.284L654.544 206.953C654.544 206.953 665.601 203.351 669.53 198.616L663.573 190.276Z" fill="white"/>
<path d="M669.646 198.614L663.665 190.276L651.416 194.997L654.602 206.953C654.602 206.953 665.701 203.35 669.646 198.614Z" stroke="#6FBBEF" stroke-width="0.910389" stroke-miterlimit="10"/>
<path d="M646.323 191.886L651.414 194.997L647.705 206.953C647.705 206.953 641.468 203.275 640.213 200.635L646.323 191.886Z" stroke="#6FBBEF" stroke-width="0.910389" stroke-miterlimit="10"/>
<path d="M649.24 202.004C649.24 202.004 651.236 203.618 653.553 203.02" stroke="#6FBBEF" stroke-width="0.910389" stroke-miterlimit="10"/>
<path d="M639.438 205.039C639.438 205.039 644.454 209.093 651.768 209.53C656.213 209.796 661.626 209.028 666.931 204.332" stroke="#161522" stroke-width="0.910389" stroke-miterlimit="10" stroke-linecap="round"/>
<path d="M288.127 241.343H354.514L339.095 304.314H260.926L288.127 241.343Z" fill="#16004D"/>
<path d="M290.529 245.206H348.771L335.244 300.45H266.666L290.529 245.206Z" fill="#5069FF"/>
<path d="M266.666 300.45H327.632L341.965 247.404H289.581L266.666 300.45Z" fill="white"/>
<path d="M276.201 251.703H336.061L336.301 250.813H276.677L276.201 251.703Z" fill="#161522"/>
<path d="M334.924 255.909H274.486V256.799H334.684L334.924 255.909Z" fill="#161522"/>
<path d="M333.546 261.005H274.486V261.895H333.306L333.546 261.005Z" fill="#161522"/>
<path d="M332.169 266.101H272.691V266.991H331.929L332.169 266.101Z" fill="#161522"/>
<path d="M330.798 271.197H270.637V272.086H330.557L330.798 271.197Z" fill="#161522"/>
<path d="M257.119 287.373H298.343V286.483H257.595L257.119 287.373Z" fill="#161522"/>
<path d="M308.077 276.292H263.05L262.574 277.182H307.836L308.077 276.292Z" fill="#161522"/>
<path d="M306.695 281.389H260.32L259.844 282.277H306.454L306.695 281.389Z" fill="#161522"/>
<path d="M655.903 304.251L642.51 246.816H540.777L556.231 305.294L655.903 304.251Z" fill="#16004D"/>
<path d="M274.746 386.783L283.765 465.745C283.765 465.745 265.928 471.282 261.92 465.807C257.912 460.334 244.484 388.387 244.484 388.387L274.746 386.783Z" fill="#F6C8A6"/>
<path d="M244.48 388.387L261.516 470.756" stroke="#EF8576" stroke-width="1.21385" stroke-miterlimit="10"/>
<path d="M262.71 492.308L255.896 450.906L284.014 450.189L285.29 463.951C285.29 463.951 307.048 490.662 300.635 493.167C290.184 497.249 277.555 484.611 277.555 484.611L276.738 493.048L262.71 492.308Z" fill="#16004D"/>
<path d="M284.012 450.19L255.895 450.907L262.987 493.099" stroke="#6FBBEF" stroke-width="1.21385" stroke-miterlimit="10" stroke-linecap="round"/>
<path d="M299.347 386.783L308.366 465.745C308.366 465.745 290.53 471.281 286.522 465.807C282.514 460.334 269.086 388.386 269.086 388.386L299.347 386.783Z" fill="#F6C8A6"/>
<path d="M269.082 388.387L286.117 470.755" stroke="#EF8576" stroke-width="1.21385" stroke-miterlimit="10"/>
<path d="M287.309 492.308L280.496 450.906L308.614 450.189L309.89 463.951C309.89 463.951 339.894 491.474 333.481 493.979C323.029 498.061 302.155 484.611 302.155 484.611L301.339 493.048L287.309 492.308Z" fill="#16004D"/>
<path d="M308.61 450.191L280.492 450.908L287.585 493.1" stroke="#6FBBEF" stroke-width="1.21385" stroke-miterlimit="10" stroke-linecap="round"/>
<path d="M209.042 316.243C209.042 316.243 251.854 312.137 274.777 320.642C299.628 329.861 307.918 416.202 307.918 416.202L219.443 415.446L183.783 325.501L209.042 316.243Z" fill="#16004D"/>
<path d="M123.948 315.251H111.199V493.771H123.948V315.251Z" fill="white" stroke="#2E4ECC" stroke-width="1.21385" stroke-miterlimit="10" stroke-linecap="round"/>
<path d="M731.083 315.251H718.334V493.771H731.083V315.251Z" fill="white" stroke="#2E4ECC" stroke-width="1.21385" stroke-miterlimit="10" stroke-linecap="round"/>
<path d="M761.305 304.869H80.9805V318.493H761.305V304.869Z" fill="white" stroke="#2E4ECC" stroke-width="1.21385" stroke-miterlimit="10" stroke-linecap="round"/>
<path d="M279.939 119.953H239.655C234.508 119.953 230.336 123.918 230.336 128.81V144.442V149.909V167.036L239.811 158.767H279.939C285.086 158.767 289.258 154.801 289.258 149.909V128.81C289.259 123.918 285.086 119.953 279.939 119.953Z" fill="white" stroke="#92CDFE" stroke-width="1.21385" stroke-miterlimit="10"/>
<path d="M256.8 140.337C256.807 139.663 257.034 139.107 257.48 138.671C257.927 138.209 258.487 137.981 259.162 137.989C260.226 138.001 261.188 137.856 262.048 137.554C262.909 137.226 263.589 136.702 264.091 135.98C264.618 135.259 264.888 134.302 264.902 133.108C264.912 132.226 264.7 131.445 264.266 130.765C263.858 130.085 263.28 129.547 262.532 129.149C261.81 128.752 260.981 128.548 260.047 128.537C259.32 128.529 258.631 128.651 257.979 128.903C257.353 129.156 256.778 129.5 256.254 129.935C255.835 130.294 255.326 130.561 254.727 130.736C254.154 130.885 253.572 130.736 252.98 130.288C252.362 129.814 252.031 129.252 251.986 128.603C251.942 127.953 252.195 127.359 252.746 126.82C253.691 125.87 254.789 125.143 256.041 124.638C257.319 124.107 258.672 123.849 260.099 123.865C261.89 123.885 263.495 124.319 264.913 125.165C266.357 125.986 267.5 127.089 268.341 128.474C269.182 129.859 269.593 131.421 269.573 133.16C269.559 134.458 269.351 135.611 268.951 136.619C268.55 137.601 267.983 138.451 267.248 139.17C266.539 139.862 265.702 140.424 264.737 140.855C263.798 141.259 262.769 141.546 261.651 141.716C261.599 141.741 261.547 141.766 261.495 141.792C261.469 141.817 261.455 141.856 261.455 141.908L261.438 143.349C261.431 144.023 261.204 144.592 260.757 145.054C260.311 145.49 259.751 145.705 259.076 145.697C258.401 145.69 257.846 145.463 257.409 145.017C256.973 144.545 256.759 143.971 256.767 143.296L256.8 140.337ZM258.803 152.664C258.05 152.655 257.469 152.454 257.058 152.06C256.673 151.641 256.485 151.054 256.493 150.302L256.501 149.64C256.509 148.887 256.71 148.318 257.104 147.933C257.524 147.523 258.11 147.322 258.863 147.33L259.369 147.336C260.122 147.344 260.69 147.558 261.075 147.978C261.486 148.372 261.687 148.945 261.679 149.698L261.671 150.36C261.663 151.112 261.449 151.694 261.029 152.105C260.635 152.49 260.062 152.678 259.309 152.669L258.803 152.664Z" fill="white"/>
<path d="M257.48 138.671L257.905 139.105L257.911 139.099L257.917 139.092L257.48 138.671ZM262.048 137.554L262.249 138.126L262.257 138.124L262.265 138.121L262.048 137.554ZM264.091 135.98L263.601 135.622L263.597 135.628L263.592 135.634L264.091 135.98ZM264.266 130.765L263.746 131.077L263.75 131.084L263.754 131.091L264.266 130.765ZM262.532 129.149L262.239 129.681L262.247 129.685L262.532 129.149ZM257.979 128.903L257.76 128.337L257.752 128.34L257.979 128.903ZM256.254 129.935L255.866 129.468L255.86 129.474L256.254 129.935ZM254.727 130.736L254.88 131.323L254.889 131.321L254.897 131.318L254.727 130.736ZM252.98 130.288L252.61 130.769L252.614 130.772L252.98 130.288ZM251.986 128.603L252.592 128.561L251.986 128.603ZM252.746 126.82L253.17 127.254L253.176 127.248L252.746 126.82ZM256.041 124.638L256.268 125.2L256.274 125.198L256.041 124.638ZM264.913 125.165L264.602 125.686L264.613 125.693L264.913 125.165ZM268.341 128.474L267.822 128.789L268.341 128.474ZM268.951 136.619L269.513 136.848L269.515 136.843L268.951 136.619ZM267.248 139.17L267.672 139.603L267.672 139.603L267.248 139.17ZM264.737 140.855L264.977 141.412L264.984 141.409L264.737 140.855ZM261.651 141.716L261.561 141.116L261.469 141.129L261.386 141.17L261.651 141.716ZM261.495 141.792L261.229 141.246L261.141 141.289L261.07 141.358L261.495 141.792ZM260.757 145.054L261.182 145.488L261.188 145.482L261.194 145.476L260.757 145.054ZM257.409 145.017L256.963 145.428L256.969 145.435L256.975 145.441L257.409 145.017ZM257.058 152.06L256.61 152.47L256.624 152.485L256.638 152.498L257.058 152.06ZM257.104 147.933L256.68 147.5L257.104 147.933ZM261.075 147.978L260.628 148.388L260.641 148.402L260.655 148.416L261.075 147.978ZM261.029 152.105L260.604 151.671L261.029 152.105ZM257.407 140.344C257.413 139.816 257.583 139.419 257.905 139.105L257.056 138.237C256.485 138.795 256.202 139.509 256.193 140.331L257.407 140.344ZM257.917 139.092C258.241 138.757 258.638 138.59 259.155 138.596L259.169 137.382C258.337 137.373 257.613 137.66 257.044 138.249L257.917 139.092ZM259.155 138.596C260.279 138.608 261.313 138.455 262.249 138.126L261.847 136.981C261.064 137.256 260.174 137.393 259.169 137.382L259.155 138.596ZM262.265 138.121C263.233 137.752 264.015 137.153 264.589 136.327L263.592 135.634C263.164 136.25 262.584 136.7 261.832 136.987L262.265 138.121ZM264.581 136.339C265.204 135.486 265.494 134.393 265.508 133.115L264.295 133.101C264.282 134.211 264.032 135.033 263.601 135.622L264.581 136.339ZM265.508 133.115C265.52 132.126 265.281 131.227 264.778 130.438L263.754 131.091C264.119 131.662 264.303 132.325 264.295 133.101L265.508 133.115ZM264.786 130.453C264.318 129.672 263.655 129.059 262.817 128.613L262.247 129.685C262.905 130.035 263.399 130.499 263.746 131.077L264.786 130.453ZM262.824 128.617C262.003 128.165 261.074 127.942 260.054 127.93L260.04 129.144C260.888 129.153 261.616 129.338 262.239 129.681L262.824 128.617ZM260.054 127.93C259.253 127.921 258.487 128.056 257.76 128.337L258.198 129.469C258.775 129.246 259.387 129.137 260.04 129.144L260.054 127.93ZM257.752 128.34C257.067 128.617 256.438 128.993 255.866 129.468L256.642 130.402C257.118 130.006 257.639 129.695 258.206 129.466L257.752 128.34ZM255.86 129.474C255.514 129.77 255.084 129.999 254.557 130.153L254.897 131.318C255.568 131.122 256.156 130.818 256.649 130.396L255.86 129.474ZM254.574 130.149C254.226 130.239 253.831 130.171 253.346 129.804L252.614 130.772C253.312 131.301 254.083 131.531 254.88 131.323L254.574 130.149ZM253.349 129.807C252.84 129.416 252.622 129.003 252.592 128.561L251.381 128.644C251.44 129.501 251.884 130.212 252.61 130.769L253.349 129.807ZM252.592 128.561C252.562 128.122 252.72 127.694 253.17 127.254L252.322 126.386C251.669 127.024 251.322 127.784 251.381 128.644L252.592 128.561ZM253.176 127.248C254.063 126.357 255.092 125.675 256.268 125.2L255.814 124.075C254.487 124.61 253.319 125.383 252.316 126.392L253.176 127.248ZM256.274 125.198C257.473 124.7 258.744 124.457 260.092 124.472L260.106 123.258C258.599 123.242 257.164 123.514 255.808 124.077L256.274 125.198ZM260.092 124.472C261.785 124.491 263.283 124.899 264.602 125.686L265.224 124.644C263.706 123.738 261.995 123.28 260.106 123.258L260.092 124.472ZM264.613 125.693C265.97 126.464 267.036 127.495 267.822 128.789L268.86 128.159C267.964 126.683 266.745 125.508 265.213 124.638L264.613 125.693ZM267.822 128.789C268.6 130.07 268.985 131.519 268.967 133.154L270.18 133.167C270.201 131.324 269.764 129.648 268.86 128.159L267.822 128.789ZM268.967 133.154C268.953 134.391 268.755 135.468 268.387 136.395L269.515 136.843C269.948 135.754 270.165 134.525 270.18 133.167L268.967 133.154ZM268.389 136.39C268.019 137.297 267.497 138.077 266.823 138.736L267.672 139.603C268.468 138.825 269.082 137.904 269.513 136.848L268.389 136.39ZM266.823 138.736C266.17 139.375 265.394 139.897 264.49 140.3L264.984 141.409C266.011 140.951 266.909 140.35 267.672 139.603L266.823 138.736ZM264.497 140.297C263.61 140.679 262.633 140.953 261.561 141.116L261.742 142.316C262.906 142.14 263.986 141.839 264.977 141.412L264.497 140.297ZM261.386 141.17C261.334 141.195 261.282 141.221 261.229 141.246L261.76 142.338C261.812 142.312 261.864 142.287 261.917 142.261L261.386 141.17ZM261.07 141.358C260.889 141.536 260.849 141.756 260.848 141.901L262.061 141.915C262.061 141.957 262.048 142.099 261.919 142.226L261.07 141.358ZM260.848 141.901L260.832 143.342L262.045 143.355L262.061 141.915L260.848 141.901ZM260.832 143.342C260.826 143.87 260.654 144.288 260.321 144.632L261.194 145.476C261.754 144.896 262.036 144.177 262.045 143.355L260.832 143.342ZM260.333 144.62C260.012 144.934 259.611 145.096 259.083 145.09L259.069 146.304C259.89 146.313 260.61 146.047 261.182 145.488L260.333 144.62ZM259.083 145.09C258.554 145.084 258.157 144.913 257.843 144.592L256.975 145.441C257.534 146.012 258.248 146.295 259.069 146.304L259.083 145.09ZM257.855 144.605C257.53 144.253 257.368 143.831 257.373 143.303L256.16 143.289C256.151 144.111 256.417 144.836 256.963 145.428L257.855 144.605ZM257.373 143.303L257.407 140.344L256.193 140.331L256.16 143.289L257.373 143.303ZM258.81 152.057C258.16 152.05 257.745 151.879 257.478 151.622L256.638 152.498C257.192 153.03 257.94 153.261 258.796 153.271L258.81 152.057ZM257.505 151.65C257.255 151.377 257.093 150.958 257.1 150.309L255.887 150.295C255.877 151.151 256.092 151.904 256.61 152.47L257.505 151.65ZM257.1 150.309L257.108 149.647L255.894 149.633L255.887 150.295L257.1 150.309ZM257.108 149.647C257.115 148.994 257.287 148.604 257.528 148.367L256.68 147.5C256.134 148.033 255.904 148.78 255.894 149.633L257.108 149.647ZM257.528 148.367C257.803 148.099 258.217 147.93 258.856 147.937L258.87 146.723C258.004 146.714 257.245 146.947 256.68 147.5L257.528 148.367ZM258.856 147.937L259.362 147.943L259.376 146.729L258.87 146.723L258.856 147.937ZM259.362 147.943C260.004 147.95 260.39 148.128 260.628 148.388L261.522 147.568C260.991 146.988 260.24 146.739 259.376 146.729L259.362 147.943ZM260.655 148.416C260.909 148.66 261.079 149.05 261.072 149.691L262.286 149.705C262.295 148.841 262.063 148.084 261.495 147.54L260.655 148.416ZM261.072 149.691L261.064 150.353L262.278 150.367L262.286 149.705L261.072 149.691ZM261.064 150.353C261.057 150.992 260.879 151.402 260.604 151.671L261.453 152.539C262.018 151.986 262.269 151.233 262.278 150.367L261.064 150.353ZM260.604 151.671C260.363 151.907 259.968 152.07 259.316 152.063L259.302 153.276C260.156 153.286 260.907 153.072 261.453 152.539L260.604 151.671ZM259.316 152.063L258.81 152.057L258.796 153.271L259.302 153.276L259.316 152.063Z" fill="#92CDFE"/>
<path d="M276.744 238.22L294.142 219.436C294.142 219.436 301.19 201.4 305.25 202.841C307.821 203.754 304.143 217.06 304.143 217.06L320.65 211.309C320.65 211.309 330.604 202.278 332.481 202.471C336.432 202.88 332.147 214.472 328.363 219.451C325.02 223.852 307.495 231.135 307.495 231.135L292.17 252.785L276.744 238.22Z" fill="#F6C8A6"/>
<path d="M333.897 203.791L325.027 216.345" stroke="#EF8576" stroke-width="0.910389" stroke-miterlimit="10" stroke-linecap="round"/>
<path d="M333.049 210.116L328.857 216.075" stroke="#EF8576" stroke-width="0.910389" stroke-miterlimit="10" stroke-linecap="round"/>
<path d="M198.27 172.667L205.672 179.729L201.462 183.803L198.27 172.667Z" fill="#F6C8A6" stroke="#EF8576" stroke-width="0.910389" stroke-miterlimit="10" stroke-linecap="round" stroke-linejoin="round"/>
<path d="M169.981 191.899C170.074 192.319 170.187 192.728 170.312 193.131C170.306 193.593 170.346 194.062 170.449 194.532L169.981 191.899L188.596 201.737L188.578 201.653L194.134 200.423C200.522 199.008 204.431 191.9 202.82 184.625L199.522 169.73C197.911 162.457 191.366 157.663 184.979 159.078L175.37 161.205C168.982 162.62 165.073 169.728 166.682 177.001L169.981 191.899Z" fill="white"/>
<path d="M202.817 184.626L199.519 169.731C197.909 162.458 191.363 157.664 184.975 159.078L175.366 161.206C168.978 162.621 165.069 169.729 166.679 177.003L169.977 191.899C170.07 192.319 170.183 192.728 170.308 193.131C170.302 193.593 170.342 194.062 170.446 194.531L171.415 194.983L172.02 215.071H191.688L190.767 201.169L194.132 200.424C200.518 199.008 204.428 191.9 202.817 184.626Z" fill="#F6C8A6"/>
<path d="M189.976 179.389C190.043 180.598 191.077 181.523 192.286 181.456C193.495 181.389 194.42 180.355 194.352 179.146C194.285 177.937 193.251 177.012 192.042 177.079C190.833 177.146 189.908 178.18 189.976 179.389Z" fill="#161522"/>
<path d="M202.429 191.664C202.389 191.69 202.348 191.713 202.307 191.736C202.261 191.762 202.212 191.786 202.165 191.809C202.137 191.822 202.11 191.834 202.082 191.848C201.967 191.901 202.109 191.839 202.03 191.87C201.646 192.02 201.234 192.126 200.84 192.157C199.288 192.281 197.893 191.529 196.784 190.496C196.355 190.097 195.709 190.739 196.14 191.139C197.399 192.31 199.013 193.188 200.78 193.071C201.491 193.024 202.284 192.848 202.89 192.45C203.377 192.131 202.921 191.343 202.429 191.664Z" fill="#161522"/>
<path d="M187.653 176.99C188.589 175.894 189.625 174.889 190.75 173.988C190.942 173.834 190.911 173.505 190.75 173.345C190.561 173.156 190.299 173.191 190.107 173.345C188.982 174.246 187.944 175.251 187.009 176.347C186.85 176.534 186.826 176.807 187.009 176.99C187.173 177.153 187.492 177.178 187.653 176.99Z" fill="#161522"/>
<path d="M191.215 188.087C191.215 191.063 188.801 193.476 185.825 193.476C182.849 193.476 180.436 191.063 180.436 188.087C180.436 185.11 182.849 182.697 185.825 182.697C188.803 182.697 191.215 185.11 191.215 188.087Z" fill="#EF8576"/>
<path d="M170.835 186.095L172.433 180.923C172.433 180.923 191.219 177.951 199.559 158.026C202.658 150.621 197.411 143.557 188.874 143.493C178.075 143.411 168.442 149.497 168.442 149.497C168.442 149.497 143.43 160.976 151.507 186.286C151.507 186.286 155.796 201.095 172.118 201.738" fill="#7F4040"/>
<path d="M153.768 155.683C156.022 146.134 150.109 136.565 140.561 134.311C131.012 132.056 121.443 137.969 119.188 147.518C116.933 157.067 122.846 166.635 132.395 168.89C141.944 171.145 151.513 165.232 153.768 155.683Z" fill="#7F4040"/>
<path d="M160.756 190.099C161.264 194.06 164.912 196.856 168.906 196.345C172.9 195.834 175.725 192.208 175.218 188.247C174.711 184.286 171.062 181.491 167.068 182.002C163.075 182.513 160.249 186.138 160.756 190.099Z" fill="#F6C8A6"/>
<path d="M172.522 189.619C172.407 187.809 171.342 185.953 169.545 185.393C168.607 185.101 167.592 185.184 166.649 185.405C166.022 185.552 166.287 186.52 166.916 186.372C167.316 186.278 167.717 186.214 168.129 186.206C168.302 186.203 168.477 186.209 168.651 186.226C168.778 186.238 168.908 186.26 169.089 186.305C169.42 186.389 169.55 186.441 169.819 186.594C169.931 186.658 170.04 186.731 170.144 186.809C170.211 186.858 170.057 186.733 170.158 186.822C170.18 186.84 170.201 186.857 170.223 186.877C170.275 186.921 170.326 186.969 170.375 187.016C170.462 187.101 170.541 187.192 170.621 187.284C170.713 187.391 170.608 187.256 170.688 187.371C170.725 187.424 170.763 187.476 170.798 187.531C170.928 187.729 171.036 187.939 171.137 188.152C171.198 188.283 171.12 188.101 171.162 188.211C171.181 188.259 171.2 188.306 171.218 188.354C171.256 188.456 171.29 188.558 171.321 188.662C171.372 188.828 171.415 188.996 171.45 189.166C171.466 189.242 171.48 189.32 171.494 189.398C171.499 189.428 171.503 189.46 171.508 189.491C171.53 189.625 171.499 189.38 171.505 189.46C171.508 189.512 171.517 189.564 171.52 189.616C171.537 189.887 171.739 190.118 172.022 190.118C172.279 190.12 172.54 189.889 172.522 189.619Z" fill="#EF8576"/>
<path d="M162.195 219.827L171.711 208.537L195.865 209.35L204.639 219.174C204.639 219.174 188.258 219.827 162.195 219.827Z" fill="#16004D"/>
<path d="M215.442 287.917C238.081 300.82 259.118 307.722 266.995 302.697C282.713 292.668 307.58 240.53 307.58 240.53L282.127 224.929L253.154 253.433C253.154 253.433 223.36 225.517 208.347 219.417C201.834 216.771 165.81 218.009 165.81 218.009C165.81 218.009 162.267 219.094 160.598 219.827C140.637 228.594 135.918 258.319 129.413 299.764L129.264 304.347L215.826 305.118L215.442 287.917Z" fill="#16004D"/>
<path d="M307.578 240.53L282.124 224.93L253.152 253.433C253.152 253.433 223.358 225.517 208.345 219.418C201.832 216.771 168.787 217.923 168.787 217.923" stroke="#6FBBEF" stroke-width="1.21385" stroke-miterlimit="10" stroke-linecap="round"/>
<path d="M252.455 252.786L259.106 259.503" stroke="#6FBBEF" stroke-width="1.21385" stroke-miterlimit="10" stroke-linecap="round"/>
<path d="M276.738 230.227L303.908 247.925" stroke="#6FBBEF" stroke-width="1.21385" stroke-miterlimit="10" stroke-linecap="round"/>
<path d="M212.707 444.086H223.953V371.073H212.707V444.086Z" fill="white" stroke="#2E4ECC" stroke-width="1.21385" stroke-miterlimit="10"/>
<path d="M214.875 467.396H221.786C224.661 467.396 226.993 465.065 226.993 462.189V410.245C226.993 407.368 224.661 405.037 221.786 405.037H214.875C212 405.037 209.668 407.369 209.668 410.245V462.189C209.668 465.065 212 467.396 214.875 467.396Z" fill="#2E4ECC"/>
<path d="M173.952 462.174H176.712H259.947H266.492V469.68V478.123H259.947V469.68H176.712V478.123H170.168V469.68V462.174H173.952Z" fill="#2E4ECC"/>
<path d="M163.344 482.437C163.344 487.98 167.837 492.474 173.382 492.474C178.926 492.474 183.42 487.98 183.42 482.437C183.42 476.893 178.926 472.399 173.382 472.399C167.839 472.399 163.344 476.893 163.344 482.437Z" fill="white" stroke="#2E4ECC" stroke-width="1.21385" stroke-miterlimit="10"/>
<path d="M169.535 482.437C169.535 484.561 171.258 486.283 173.382 486.283C175.506 486.283 177.229 484.561 177.229 482.437C177.229 480.312 175.506 478.59 173.382 478.59C171.258 478.591 169.535 480.312 169.535 482.437Z" fill="#2E4ECC"/>
<path d="M253.527 482.436C253.527 487.98 258.021 492.474 263.565 492.474C269.108 492.474 273.602 487.98 273.602 482.436C273.602 476.893 269.108 472.399 263.565 472.399C258.021 472.399 253.527 476.893 253.527 482.436Z" fill="white" stroke="#2E4ECC" stroke-width="1.21385" stroke-miterlimit="10"/>
<path d="M259.719 482.436C259.719 484.56 261.441 486.283 263.565 486.283C265.69 486.283 267.412 484.56 267.412 482.436C267.412 480.312 265.69 478.589 263.565 478.589C261.441 478.589 259.719 480.312 259.719 482.436Z" fill="#2E4ECC"/>
<path d="M322.306 379.933H128.945C124.96 379.933 121.655 376.848 121.381 372.873L112.909 250.407C112.606 246.024 116.08 242.301 120.474 242.301H222.379C226.097 242.301 229.268 244.997 229.864 248.668L247.687 358.399C248.283 362.07 251.453 364.766 255.171 364.766H322.306C325.578 364.766 328.482 366.864 329.506 369.973C331.126 374.879 327.472 379.933 322.306 379.933Z" fill="white" stroke="#2E4ECC" stroke-width="1.21385" stroke-miterlimit="10" stroke-linecap="round"/>
<path d="M121.869 270.696H209.548" stroke="#2E4ECC" stroke-width="1.21385" stroke-miterlimit="10" stroke-linecap="round"/>
<path d="M121.869 298.641H214.541" stroke="#2E4ECC" stroke-width="1.21385" stroke-miterlimit="10" stroke-linecap="round"/>
<path d="M127.527 326.585H220.199" stroke="#2E4ECC" stroke-width="1.21385" stroke-miterlimit="10" stroke-linecap="round"/>
<path d="M127.527 354.53H220.199" stroke="#2E4ECC" stroke-width="1.21385" stroke-miterlimit="10" stroke-linecap="round"/>
<path d="M216.205 248.16L234.04 366.44" stroke="#2E4ECC" stroke-width="1.21385" stroke-miterlimit="10" stroke-linecap="round"/>
<path d="M7.8583 495.933C15.0674 495.933 22.2776 495.933 29.4867 495.933C48.9314 495.933 68.3749 495.933 87.8196 495.933C116.647 495.933 145.475 495.933 174.303 495.933C209.474 495.933 244.646 495.933 279.816 495.933C318.204 495.933 356.592 495.933 394.979 495.933C433.992 495.933 473.005 495.933 512.017 495.933C548.145 495.933 584.273 495.933 620.401 495.933C651.041 495.933 681.68 495.933 712.32 495.933C734.349 495.933 756.377 495.933 778.406 495.933C788.813 495.933 799.234 496.084 809.642 495.933C810.097 495.927 810.552 495.933 811.007 495.933C812.96 495.933 812.963 492.898 811.007 492.898C803.798 492.898 796.588 492.898 789.379 492.898C769.934 492.898 750.491 492.898 731.046 492.898C702.218 492.898 673.39 492.898 644.563 492.898C609.391 492.898 574.22 492.898 539.05 492.898C500.662 492.898 462.274 492.898 423.887 492.898C384.873 492.898 345.861 492.898 306.848 492.898C270.72 492.898 234.593 492.898 198.465 492.898C167.825 492.898 137.186 492.898 106.546 492.898C84.5167 492.898 62.4889 492.898 40.4599 492.898C30.0512 492.898 19.6302 492.748 9.22389 492.898C8.76869 492.905 8.3135 492.898 7.8583 492.898C5.90522 492.898 5.90279 495.933 7.8583 495.933Z" fill="#161522"/>
</svg>
