<svg width="315" height="309" viewBox="0 0 315 309" fill="none" xmlns="http://www.w3.org/2000/svg">
<path d="M247.422 195.973C236.104 186.103 235.036 169.933 237.057 155.726C237.394 153.354 237.409 150.809 238.763 148.845C240.118 146.881 242.921 145.734 244.942 146.967C246.619 147.992 247.171 150.128 247.974 151.942C249.056 154.352 250.795 156.409 252.991 157.876C254.425 158.823 256.245 159.511 257.829 158.844C259.98 157.934 260.56 155.117 260.797 152.751C261.246 148.336 261.695 143.918 262.144 139.498C262.381 137.133 262.639 134.71 263.614 132.546C264.589 130.381 266.445 128.467 268.767 128.073C271.09 127.679 273.735 129.284 273.957 131.657C273.941 132.646 273.857 133.632 273.706 134.61C273.67 135.599 274.007 136.76 274.91 137.112C275.813 137.463 276.845 136.925 277.634 136.309C280.336 134.158 282.322 131.291 284.207 128.381C286.092 125.471 287.927 122.511 290.428 120.146C292.93 117.78 296.213 116.038 299.624 116.21C303.036 116.382 306.427 118.87 306.921 122.289C307.416 125.708 305.115 128.897 302.699 131.37C299.125 135.045 295.038 138.184 290.564 140.688C289.708 141.051 288.987 141.676 288.507 142.473C287.826 143.993 289.152 145.727 290.658 146.408C292.356 147.189 294.292 147.211 296.112 147.627C297.933 148.042 299.854 149.06 300.363 150.895C301.079 153.418 298.771 155.74 296.6 157.188C292.25 160.085 287.435 162.214 282.365 163.482C280.558 163.926 278.659 164.292 277.125 165.359C275.591 166.427 274.509 168.47 275.182 170.234C275.856 171.997 277.971 172.764 279.834 172.62C281.698 172.477 283.418 171.66 285.239 171.187C288.629 170.312 292.808 170.986 294.557 174.054C295.732 176.047 295.575 178.634 294.643 180.763C293.616 182.85 292.18 184.71 290.421 186.232C284.596 191.871 277.378 195.864 269.506 197.801C261.679 199.6 254.604 199.557 247.4 196.009" fill="#F5F5F5"/>
<path d="M252.066 187.422C255.272 179.909 258.905 172.586 262.947 165.488L266.101 159.883C267.14 158.048 268.165 156.228 269.283 154.507C271.442 151.196 273.785 148.009 276.3 144.96C278.666 142.043 281.017 139.362 283.239 136.868C285.461 134.373 287.575 132.101 289.597 130.101C292.766 126.936 296.182 124.026 299.811 121.4C301.094 120.468 302.111 119.78 302.807 119.321L303.602 118.805C303.692 118.744 303.785 118.689 303.882 118.64C303.808 118.718 303.723 118.786 303.631 118.841L302.857 119.393C302.176 119.873 301.18 120.59 299.911 121.543C296.33 124.216 292.954 127.153 289.812 130.331C287.812 132.338 285.719 134.631 283.504 137.119C281.289 139.606 278.967 142.308 276.609 145.225C274.128 148.263 271.814 151.433 269.677 154.722C268.567 156.428 267.527 158.235 266.509 160.077L263.37 165.682C259.331 172.764 255.694 180.067 252.475 187.558" fill="#E0E0E0"/>
<path d="M269.407 154.5C269.33 154.161 269.29 153.815 269.286 153.468C269.235 152.801 269.185 151.827 269.149 150.601C269.071 148.207 269.071 144.903 269.085 141.283C269.099 137.663 269.085 134.33 268.942 131.965C268.884 130.768 268.827 129.814 268.784 129.141C268.747 128.793 268.747 128.442 268.784 128.094C268.88 128.429 268.943 128.772 268.97 129.119C269.071 129.786 269.171 130.746 269.271 131.943C269.465 134.33 269.558 137.677 269.544 141.304C269.529 144.931 269.501 148.157 269.479 150.622V153.489C269.497 153.828 269.473 154.167 269.407 154.5Z" fill="#E0E0E0"/>
<path d="M300.471 152.128C300.061 152.166 299.648 152.166 299.238 152.128C298.45 152.128 297.31 152.085 295.898 152.128C293.074 152.128 289.182 152.264 284.889 152.601C280.595 152.938 276.724 153.432 273.929 153.855C272.531 154.063 271.406 154.257 270.632 154.386C270.229 154.479 269.819 154.534 269.406 154.55C269.793 154.408 270.191 154.298 270.596 154.221C271.37 154.034 272.488 153.791 273.886 153.547C276.667 153.038 280.552 152.508 284.853 152.164C288.528 151.857 292.218 151.74 295.905 151.812C297.339 151.812 298.457 151.92 299.245 151.984C299.658 151.995 300.068 152.043 300.471 152.128Z" fill="#E0E0E0"/>
<path d="M252.497 186.905C252.423 186.782 252.367 186.65 252.332 186.511C252.225 186.195 252.088 185.794 251.931 185.349C251.587 184.346 251.128 182.877 250.576 181.049C249.487 177.4 248.132 172.319 246.72 166.713C245.308 161.108 244.003 155.962 242.985 152.328C242.484 150.543 242.075 149.081 241.774 147.991C241.638 147.518 241.538 147.131 241.444 146.809C241.351 146.486 241.344 146.393 241.366 146.386C241.436 146.51 241.492 146.642 241.53 146.78C241.638 147.095 241.774 147.497 241.932 147.941C242.276 148.945 242.742 150.414 243.286 152.242C244.376 155.883 245.731 160.972 247.143 166.577C248.555 172.182 249.859 177.329 250.877 180.963C251.379 182.748 251.787 184.21 252.088 185.263C252.225 185.737 252.325 186.131 252.418 186.446C252.511 186.762 252.519 186.898 252.497 186.905Z" fill="#E0E0E0"/>
<path d="M294.363 178.225C294.23 178.283 294.09 178.324 293.947 178.347L292.729 178.612L288.242 179.551C284.457 180.347 279.239 181.501 273.476 182.784C267.713 184.067 262.481 185.171 258.682 185.887C256.775 186.246 255.234 186.518 254.166 186.683L252.933 186.869C252.788 186.887 252.641 186.887 252.496 186.869C252.631 186.811 252.773 186.77 252.919 186.747L254.137 186.482L258.617 185.543C262.402 184.748 267.62 183.594 273.383 182.311C279.146 181.028 284.378 179.924 288.184 179.207C290.084 178.849 291.625 178.576 292.693 178.411L293.925 178.225C294.071 178.208 294.218 178.208 294.363 178.225Z" fill="#E0E0E0"/>
<path d="M11.4965 73.4192C11.4965 73.4192 7.03104 75.2254 12.1775 84.7083C17.3239 94.1912 20.8576 98.8646 20.8576 98.8646C20.8576 98.8646 21.7822 101.079 19.9114 101.474C18.0407 101.868 13.8905 101.316 13.1164 103.624C12.3423 105.932 14.0984 108.233 17.6608 110.111C21.2231 111.989 28.8711 116.404 29.5663 116.805C30.2616 117.207 30.9354 118.239 29.7097 118.698C28.484 119.156 19.2018 120.382 20.0404 124.747C20.8791 129.112 31.6593 132.775 32.8348 133.162C34.0103 133.549 34.2684 134.065 34.2182 134.703C34.168 135.341 30.9784 135.456 28.355 135.907C25.7316 136.359 22.7642 137.341 23.4594 139.821C24.1547 142.301 30.6272 147.383 46.0306 148.494L53.1983 148.537L56.9685 142.38C64.1362 128.718 63.2833 120.547 61.5415 118.647C59.7998 116.748 57.4058 118.741 55.6282 120.726C53.8506 122.712 52.0945 125.335 51.5067 125.063C50.919 124.79 50.6681 124.288 50.9333 123.077C51.1985 121.866 53.8004 110.799 50.5749 107.774C47.3495 104.749 41.3716 111.989 40.3179 112.791C39.2643 113.594 38.7697 112.455 38.7912 111.673C38.8127 110.892 39.1209 102.047 39.4076 98.0546C39.6943 94.0622 38.7697 91.3528 36.304 90.7651C33.8383 90.1773 32.1969 94.0192 30.8709 95.3954C29.5448 96.7716 28.1615 94.8148 28.1615 94.8148C28.1615 94.8148 26.0613 89.3602 20.7357 79.9705C15.4101 70.5808 11.4177 73.5195 11.4177 73.5195" fill="#EBEBEB"/>
<path d="M53.6155 150.214C49.7306 143.304 43.0359 130.904 37.2372 120.289C31.4385 109.673 26.1488 100.069 22.3212 93.1374L17.7554 84.9375C17.2249 83.9699 16.802 83.2244 16.5153 82.7012C16.3792 82.4575 16.2716 82.264 16.2 82.1206C16.1628 82.0557 16.1292 81.9887 16.0996 81.9199L16.2215 82.1135L16.5583 82.6797L17.8342 84.8945C18.938 86.8155 20.5221 89.6037 22.4574 93.0657C26.3423 99.9754 31.6249 109.551 37.4307 120.181C43.2366 130.811 49.9097 143.204 53.7516 150.135" fill="#E0E0E0"/>
<path d="M18.8945 104.641C19.0664 104.664 19.2348 104.707 19.3963 104.77C19.7188 104.863 20.1776 105.014 20.7438 105.2C21.8691 105.58 23.4174 106.146 25.1089 106.806L29.4096 108.497L30.7213 109.006C30.8881 109.056 31.0491 109.123 31.2015 109.207C31.0278 109.186 30.857 109.145 30.6926 109.085C30.3772 108.992 29.9185 108.841 29.3522 108.648C28.2269 108.254 26.6858 107.666 24.9943 107.014L20.6506 105.351L19.3318 104.849C19.1794 104.795 19.0329 104.725 18.8945 104.641Z" fill="#E0E0E0"/>
<path d="M31.7113 108.742C31.6539 108.742 32.6861 105.48 34.0121 101.502C35.3381 97.5241 36.4563 94.3345 36.5136 94.3345C36.571 94.3345 35.546 97.5886 34.22 101.567C32.8939 105.545 31.7758 108.756 31.7113 108.742Z" fill="#E0E0E0"/>
<path d="M39.8887 125.442C39.9611 125.28 40.0552 125.128 40.1682 124.991L40.9853 123.808C41.7021 122.804 42.6267 121.421 43.6159 119.851C44.605 118.282 45.458 116.841 46.0601 115.787L46.7769 114.54C46.8521 114.38 46.9485 114.23 47.0636 114.096C47.0055 114.264 46.9336 114.427 46.8485 114.583C46.7052 114.891 46.4758 115.3 46.1891 115.866C45.6228 116.941 44.7556 118.404 43.7951 119.973C42.8346 121.543 41.8311 122.919 41.1072 123.901C40.7488 124.389 40.4478 124.776 40.2327 125.041C40.132 125.186 40.0167 125.32 39.8887 125.442Z" fill="#E0E0E0"/>
<path d="M27.4805 124.288C27.6425 124.271 27.8059 124.271 27.9679 124.288L29.2939 124.36C30.4192 124.432 31.9675 124.539 33.6734 124.675C35.3793 124.811 36.9275 124.955 38.0457 125.062L39.3717 125.206C39.5343 125.214 39.6954 125.24 39.852 125.284C39.6899 125.302 39.5266 125.302 39.3645 125.284L38.0385 125.213C36.9132 125.141 35.365 125.034 33.659 124.89C31.9531 124.747 30.4049 124.618 29.2867 124.51L27.9607 124.367C27.7979 124.361 27.6366 124.335 27.4805 124.288Z" fill="#E0E0E0"/>
<path d="M32.8203 139.943C33.0302 139.925 33.2412 139.925 33.4511 139.943L35.1498 140.029C36.5834 140.108 38.576 140.237 40.7693 140.387C42.9626 140.538 44.9409 140.696 46.3745 140.818L48.0732 140.975C48.2831 140.987 48.4916 141.016 48.6968 141.061C48.4894 141.08 48.2807 141.08 48.0732 141.061L46.3673 140.975C44.9338 140.896 42.9411 140.767 40.7478 140.61C38.5545 140.452 36.5762 140.309 35.1427 140.187L33.4439 140.029C33.234 140.017 33.0255 139.989 32.8203 139.943Z" fill="#E0E0E0"/>
<path d="M48.3242 140.931C48.4189 140.728 48.5316 140.534 48.6611 140.351L49.6502 138.817C50.4817 137.52 51.6142 135.72 52.8184 133.692C54.0226 131.664 55.0619 129.814 55.8073 128.467C56.1657 127.822 56.4667 127.284 56.6889 126.868C56.7909 126.668 56.9083 126.477 57.0402 126.295C56.9656 126.507 56.8746 126.713 56.7678 126.911C56.5814 127.298 56.3019 127.857 55.9507 128.546C55.2339 129.915 54.2161 131.785 53.0119 133.807C51.8077 135.828 50.6466 137.627 49.7793 138.903C49.3492 139.541 48.9908 140.057 48.7328 140.401C48.613 140.59 48.4762 140.767 48.3242 140.931Z" fill="#E0E0E0"/>
<path d="M253.888 224.264L246.025 264.751L306.094 276.416L313.956 235.93L253.888 224.264Z" fill="#EBEBEB"/>
<path d="M314.062 236.464C313.852 236.626 313.629 236.77 313.395 236.894L311.424 238.034L304.17 242.141L280.079 255.552L279.879 255.659L279.735 255.487L279.377 255.071L261.329 233.74L255.91 227.232L254.476 225.447C254.296 225.245 254.135 225.027 253.996 224.795C254.2 224.973 254.39 225.167 254.562 225.376L256.089 227.089L261.651 233.482C266.332 238.951 272.74 246.441 279.821 254.706L280.18 255.129L279.836 255.064L304.005 241.804L311.345 237.847C312.176 237.41 312.843 237.059 313.352 236.801C313.578 236.668 313.816 236.556 314.062 236.464Z" fill="#E0E0E0"/>
<path d="M246.124 265.284C246.031 265.169 251.622 260.496 258.618 254.848C265.613 249.199 271.369 244.727 271.469 244.849C271.57 244.97 265.972 249.637 258.969 255.285C251.966 260.933 246.196 265.377 246.124 265.284Z" fill="#E0E0E0"/>
<path d="M291.534 248.218C291.67 248.147 295.067 254.526 299.11 262.461C303.152 270.395 306.335 276.882 306.199 276.954C306.062 277.025 302.665 270.646 298.615 262.712C294.565 254.777 291.397 248.29 291.534 248.218Z" fill="#E0E0E0"/>
<path d="M287.828 47.9377C287.49 47.9922 287.147 48.0162 286.803 48.0094L283.865 48.0667L273.041 48.1742L237.353 48.2746H234.486V47.9377C234.522 34.6058 234.558 22.65 234.587 13.9412C234.63 9.64058 234.666 6.20725 234.694 3.72721C234.694 2.58038 234.737 1.65574 234.752 0.960475C234.74 0.638653 234.764 0.316534 234.823 0C234.872 0.317692 234.894 0.639054 234.888 0.960475L234.945 3.72721C234.945 6.20725 235.01 9.67642 235.053 13.9412C235.053 22.65 235.117 34.6058 235.153 47.9377L234.823 47.6008H237.368L273.056 47.7012L283.879 47.8087L286.818 47.8732C287.156 47.8676 287.494 47.8892 287.828 47.9377Z" fill="#E0E0E0"/>
<path d="M281.935 11.6401C281.451 12.183 280.923 12.6864 280.358 13.1454L275.879 17.0804C272.08 20.3776 266.804 24.8933 260.948 29.8461L260.059 30.5629L259.83 30.7564L259.615 30.5557L252.971 24.3843H253.365L243.631 32.4695L240.8 34.7274C240.479 35.0203 240.125 35.2752 239.746 35.4871C240.026 35.1536 240.338 34.8487 240.678 34.5768C241.385 33.9461 242.291 33.1457 243.394 32.1757L252.992 23.9399L253.2 23.7608L253.401 23.9543L260.074 30.0898H259.629L260.518 29.3731C266.374 24.413 271.7 19.9547 275.57 16.7507L280.186 12.9805C280.732 12.4865 281.317 12.0382 281.935 11.6401Z" fill="#E0E0E0"/>
<path d="M281.935 22.7361C281.75 21.6449 281.673 20.5381 281.705 19.4318C281.641 17.3818 281.605 14.5363 281.598 11.3681L281.935 11.705H281.361C278.064 11.705 275.082 11.6692 272.918 11.6047C271.747 11.6407 270.575 11.5614 269.42 11.3681C270.576 11.1793 271.747 11.1001 272.918 11.1316C275.068 11.0743 278.064 11.0312 281.361 11.0312H282.272V11.3681C282.272 14.5363 282.229 17.3818 282.171 19.4318C282.204 20.5384 282.124 21.6454 281.935 22.7361Z" fill="#E0E0E0"/>
<path d="M9.28935 224.651C10.3 224.03 11.3898 223.548 12.5292 223.217L13.1958 220.013L18.6074 219.913L19.3887 223.096C20.5351 223.379 21.639 223.813 22.6715 224.386L25.4095 222.594L29.3016 226.357L27.5814 229.181C28.2013 230.187 28.6835 231.272 29.0149 232.406L32.2189 233.073L32.3121 238.485L29.1368 239.266C28.8549 240.413 28.421 241.517 27.8466 242.549L29.6385 245.287L25.8755 249.186L23.08 247.487C22.0694 248.108 20.9796 248.591 19.8402 248.921L19.1736 252.125L13.762 252.225L12.9807 249.043C11.8339 248.761 10.7298 248.327 9.69791 247.753L6.95984 249.544L3.0606 245.781L4.75935 242.986C4.1382 241.975 3.65601 240.886 3.3258 239.746L0.121832 239.08L0.0214844 233.668L3.21112 232.872C3.49429 231.726 3.92813 230.622 4.50131 229.59L2.70938 226.851L6.47243 222.952L9.26784 224.651H9.28935ZM12.1564 231.862C11.3685 232.693 10.844 233.739 10.649 234.867C10.454 235.996 10.5971 237.157 11.0605 238.205C11.5238 239.252 12.2867 240.139 13.253 240.754C14.2193 241.369 15.3458 241.684 16.491 241.66C17.6361 241.637 18.7486 241.275 19.6884 240.62C20.6283 239.965 21.3535 239.047 21.7728 237.981C22.1921 236.916 22.2868 235.749 22.045 234.63C21.8031 233.51 21.2355 232.487 20.4136 231.69C19.8628 231.158 19.2122 230.74 18.4994 230.461C17.7865 230.182 17.0255 230.046 16.26 230.062C15.4945 230.078 14.7398 230.245 14.0392 230.554C13.3387 230.863 12.7061 231.307 12.1779 231.862H12.1564Z" fill="#E0E0E0"/>
<path d="M12.1766 231.861C12.4789 231.49 12.8396 231.171 13.2446 230.915C14.3632 230.185 15.7018 229.868 17.0292 230.019C18.0179 230.126 18.9636 230.48 19.7782 231.051C20.5929 231.621 21.2499 232.388 21.6882 233.281C22.21 234.34 22.407 235.529 22.2544 236.7C22.0889 237.961 21.5223 239.136 20.6383 240.051C19.7542 240.966 18.5996 241.573 17.3446 241.782C16.7535 241.878 16.1508 241.878 15.5598 241.782C14.9897 241.707 14.4339 241.548 13.9112 241.308C13.0034 240.903 12.213 240.275 11.6138 239.481C11.0147 238.688 10.6264 237.755 10.485 236.771C10.2869 235.447 10.5582 234.096 11.252 232.951C11.4903 232.53 11.7981 232.152 12.1623 231.833C12.1623 231.833 11.8111 232.22 11.3595 233.015C10.738 234.15 10.5134 235.459 10.7216 236.735C10.858 237.608 11.1994 238.436 11.7179 239.151C12.3075 239.973 13.1071 240.622 14.0331 241.029C14.5316 241.252 15.0607 241.399 15.6028 241.466C16.165 241.544 16.7359 241.531 17.2944 241.43C18.4775 241.228 19.565 240.653 20.398 239.789C21.2311 238.925 21.766 237.818 21.9247 236.628C22.018 236.068 22.018 235.496 21.9247 234.936C21.843 234.398 21.6786 233.876 21.4373 233.388C20.9965 232.475 20.3181 231.698 19.4734 231.138C18.7359 230.652 17.893 230.349 17.0148 230.256C15.7331 230.088 14.4323 230.358 13.3235 231.023C12.5278 231.503 12.2053 231.897 12.1766 231.861Z" fill="#E0E0E0"/>
<path d="M9.28936 224.651L9.11017 224.558L8.57259 224.25L6.46528 223.003H6.52979L2.78824 226.916V226.816L4.64468 229.54V229.59V229.64C4.0808 230.669 3.65427 231.768 3.37599 232.908V232.973H3.31149L0.136186 233.761L0.229367 233.647C0.265205 235.345 0.301045 237.159 0.336884 239.058L0.229367 238.929L3.4405 239.589H3.51935V239.668C3.84159 240.793 4.31159 241.87 4.91706 242.872L4.96006 242.943L4.91706 243.015L3.21114 245.846V245.66C4.43682 246.842 5.75568 248.118 7.11038 249.416H6.91685L9.64775 247.617L9.73376 247.566L9.81261 247.609C10.8191 248.177 11.8965 248.608 13.0166 248.892H13.1098V248.986C13.3535 249.982 13.6187 251.064 13.891 252.161L13.7262 252.039L19.145 251.939L18.9801 252.075C19.1952 251.057 19.4174 249.968 19.6467 248.871V248.771H19.7471C20.868 248.453 21.9409 247.985 22.9367 247.38L23.0227 247.33L23.1087 247.38L25.9041 249.079H25.6963L29.4593 245.18V245.387L27.6674 242.649L27.6101 242.563L27.6602 242.477C28.2567 241.466 28.7125 240.379 29.0149 239.245V239.144H29.1153L32.2906 238.37L32.1687 238.528C32.1401 236.679 32.1114 234.872 32.0827 233.109L32.2046 233.26L29.0149 232.564H28.9289V232.478C28.6143 231.353 28.1489 230.275 27.5455 229.274L27.4954 229.196L27.5455 229.124L29.2443 226.328V226.5L25.3594 222.73H25.5171L22.736 224.522L22.6787 224.565L22.6142 224.529C21.5918 223.956 20.4974 223.522 19.36 223.239H19.2955V223.175L18.5286 219.992L18.6217 220.064L13.2101 220.136L13.2818 220.078C13.0094 221.354 12.78 222.401 12.565 223.275C11.71 223.513 10.8796 223.833 10.085 224.228L9.50439 224.529L9.31087 224.63L9.49006 224.508C9.61191 224.429 9.80544 224.314 10.0635 224.178C10.8506 223.759 11.6794 223.422 12.5363 223.175L12.4933 223.21C12.6725 222.336 12.8876 221.282 13.1456 220.007V219.949H13.2101L18.6217 219.834H18.7006V219.906C18.9514 220.888 19.2095 221.927 19.4962 223.081L19.4102 223.003C20.5696 223.284 21.6858 223.721 22.7288 224.3H22.607L25.3379 222.501L25.4239 222.444L25.4956 222.515L29.402 226.271L29.4808 226.35L29.4235 226.443L27.7319 229.246V229.095C28.3511 230.117 28.833 231.216 29.1654 232.364L29.0508 232.263L32.2619 232.923H32.3766V233.123C32.4053 234.882 32.4387 236.686 32.4769 238.535V238.664H32.3551L29.1726 239.445L29.2945 239.324C29.0075 240.485 28.5689 241.603 27.9899 242.649V242.484C28.5777 243.388 29.1798 244.298 29.7819 245.215L29.8535 245.33L29.7604 245.423L26.0045 249.322L25.9113 249.416L25.7966 249.344L23.0012 247.652H23.1661C22.144 248.276 21.042 248.758 19.8904 249.086L20.0123 248.957C19.7829 250.054 19.5535 251.15 19.3457 252.161V252.29H19.2095L13.7979 252.383H13.6688V252.254L12.8947 249.072L13.0166 249.193C11.8546 248.906 10.7361 248.465 9.69076 247.882H9.85561L7.11755 249.674L7.01003 249.745L6.92402 249.659L3.03194 245.889L2.94593 245.81L3.01044 245.71C3.5982 244.735 4.17878 243.775 4.70919 242.915V243.058C4.08826 242.034 3.60619 240.933 3.27565 239.782L3.38316 239.883L0.179193 239.209H0.0788453V239.101C0.0501745 237.19 0.0238924 235.386 0 233.69V233.597H0.0860119L3.21114 232.765L3.13229 232.844C3.42099 231.69 3.85957 230.579 4.43682 229.54V229.64L2.65206 226.895V226.845L2.69506 226.794L6.47962 222.917L8.54392 224.2L9.07433 224.536L9.28936 224.651Z" fill="#E0E0E0"/>
<path d="M48.2737 209.469C48.8781 209.104 49.529 208.822 50.209 208.631L50.6104 206.71L53.8502 206.652L54.3161 208.559C55.0052 208.727 55.6683 208.987 56.2872 209.333L57.9215 208.258L60.251 210.509L59.2403 212.186C59.6058 212.79 59.8879 213.441 60.0789 214.121L61.9856 214.487L62.0429 217.726L60.1363 218.192C59.9699 218.88 59.7094 219.54 59.3622 220.156L60.4373 221.798L58.1867 224.127L56.5094 223.117C55.9036 223.479 55.253 223.761 54.5741 223.955L54.1727 225.876L50.9329 225.934L50.467 224.027C49.7799 223.861 49.119 223.6 48.5031 223.253L46.8617 224.328L44.5322 222.077L45.5428 220.4C45.1803 219.794 44.8983 219.144 44.7042 218.465L42.7976 218.071L42.7402 214.831L44.6468 214.365C44.8144 213.676 45.0748 213.013 45.421 212.394L44.3458 210.759L46.5965 208.43L48.2737 209.469ZM50.0011 213.77C49.5237 214.265 49.2038 214.89 49.0816 215.566C48.9595 216.243 49.0406 216.94 49.3149 217.571C49.5891 218.201 50.0441 218.736 50.6224 219.108C51.2006 219.48 51.8761 219.672 52.5634 219.66C53.2508 219.648 53.9192 219.432 54.484 219.04C55.0489 218.648 55.4849 218.098 55.7369 217.458C55.989 216.819 56.0457 216.119 55.9 215.447C55.7542 214.775 55.4126 214.162 54.9182 213.684C54.5898 213.367 54.202 213.117 53.7771 212.95C53.3522 212.782 52.8985 212.7 52.4418 212.708C51.9852 212.716 51.5346 212.814 51.1158 212.996C50.6971 213.178 50.3183 213.441 50.0011 213.77Z" fill="#F5F5F5"/>
<path d="M50.0023 213.77C50.1838 213.544 50.4019 213.35 50.6474 213.196C51.3213 212.764 52.1237 212.576 52.9196 212.666C53.4694 212.722 53.9979 212.908 54.4606 213.211C54.9966 213.569 55.4272 214.064 55.7078 214.644C55.8608 214.952 55.9671 215.28 56.0232 215.619C56.0806 215.973 56.0806 216.333 56.0232 216.687C55.9202 217.441 55.5799 218.143 55.0516 218.69C54.5232 219.238 53.8343 219.603 53.0844 219.733C52.7308 219.791 52.3701 219.791 52.0165 219.733C51.6739 219.694 51.3399 219.599 51.0273 219.454C50.4521 219.188 49.9574 218.775 49.5938 218.257C49.2766 217.805 49.0703 217.284 48.9917 216.737C48.8756 215.945 49.0377 215.137 49.4504 214.451C49.592 214.199 49.7763 213.973 49.9952 213.784C49.9952 213.784 49.7873 214.006 49.5149 214.501C49.1445 215.181 49.0108 215.965 49.135 216.73C49.2226 217.291 49.4505 217.82 49.7977 218.268C50.1449 218.717 50.5999 219.071 51.1205 219.296C51.4153 219.433 51.7297 219.522 52.0523 219.561C52.3894 219.615 52.733 219.615 53.0701 219.561C53.7771 219.44 54.4271 219.097 54.9258 218.581C55.4246 218.066 55.7462 217.405 55.844 216.694C55.898 216.359 55.898 216.018 55.844 215.684C55.7919 215.36 55.6929 215.046 55.5501 214.752C55.2822 214.208 54.877 213.743 54.3746 213.404C53.8317 213.045 53.1982 212.847 52.5475 212.834C51.8968 212.82 51.2554 212.99 50.6976 213.325C50.4567 213.459 50.2245 213.607 50.0023 213.77Z" fill="#F5F5F5"/>
<path d="M48.2757 209.47L48.1682 209.412L47.8457 209.226C47.5518 209.054 47.1289 208.81 46.5842 208.509L44.3478 210.853V210.789C44.6775 211.283 45.0646 211.835 45.4302 212.423C45.0926 213.039 44.8372 213.697 44.6704 214.38V214.415L42.7709 214.888L42.8211 214.817C42.8211 215.835 42.8641 216.917 42.8856 218.057L42.8283 217.978L44.7421 218.379H44.7851V218.429C44.9791 219.101 45.2611 219.745 45.6237 220.343V220.386V220.429C45.3083 220.952 44.9643 221.526 44.6059 222.106V221.999C45.3226 222.716 46.1326 223.432 46.9425 224.25H46.8279L48.4621 223.174H48.5123H48.5624C49.1743 223.511 49.8273 223.766 50.5049 223.934H50.5622V223.992C50.7128 224.586 50.8705 225.239 51.0281 225.891L50.935 225.819L54.1748 225.762L54.0816 225.841C54.2034 225.232 54.3396 224.579 54.4758 223.92V223.862H54.5332C55.2058 223.673 55.8496 223.394 56.4469 223.031H56.5043H56.5545L58.2245 224.042H58.1027L60.3534 221.705V221.827L59.2782 220.193V220.142V220.092C59.6218 219.483 59.8799 218.829 60.0451 218.15V218.092H60.1025L62.0091 217.627L61.9374 217.72C61.9374 216.616 61.9374 215.534 61.8801 214.48L61.9517 214.566L60.038 214.165H59.9806V214.107C59.7925 213.434 59.5127 212.79 59.1492 212.193V212.15V212.1L60.1742 210.43V210.531L57.8518 208.28H57.945L56.3036 209.348C55.6912 209.006 55.0354 208.748 54.354 208.581V208.545C54.1891 207.828 54.0386 207.226 53.8952 206.638L53.9526 206.681L50.7128 206.724L50.7558 206.689C50.5909 207.456 50.4547 208.122 50.3472 208.61C49.8373 208.752 49.3427 208.944 48.8707 209.183L48.5194 209.362L48.4048 209.42L48.5123 209.348C48.584 209.305 48.6986 209.233 48.8563 209.154C49.3266 208.902 49.8213 208.698 50.3329 208.545C50.4404 208.022 50.5622 207.391 50.7199 206.624V206.588L53.9597 206.517H54.0028V206.56C54.1461 207.147 54.3038 207.771 54.4758 208.459L54.4256 208.416C55.1188 208.585 55.7865 208.845 56.4111 209.19H56.2534L57.8877 208.115H57.9378L57.9808 208.158C58.6976 208.875 59.5004 209.592 60.3175 210.409L60.3677 210.452V210.509C60.038 211.054 59.7083 211.613 59.357 212.186V212.093C59.7278 212.707 60.0146 213.367 60.21 214.057L60.1455 213.993L62.0664 214.387H62.1381V214.458C62.1381 215.519 62.1381 216.609 62.1955 217.705V217.777H62.1238L60.2243 218.243L60.2888 218.171C60.1202 218.868 59.8573 219.538 59.5076 220.164V220.064L60.5827 221.698L60.6257 221.762L60.5684 221.82L58.3177 224.156L58.2604 224.214L58.1959 224.171L56.5186 223.153H56.619C56.0086 223.523 55.3502 223.808 54.6622 223.999L54.7339 223.927C54.5905 224.586 54.4543 225.239 54.3325 225.841V225.92H54.2536L51.0066 225.977H50.9278V225.905C50.7701 225.246 50.6053 224.594 50.4619 223.999L50.5336 224.07C49.8386 223.896 49.169 223.634 48.5409 223.289H48.6413L46.9354 224.436L46.878 224.472L46.8207 224.422L44.4912 222.171L44.441 222.121V222.056C44.7994 221.476 45.1578 220.902 45.4588 220.386V220.472C45.0906 219.861 44.8061 219.203 44.613 218.515L44.6775 218.573L42.7566 218.171H42.6993V218.071C42.6993 216.938 42.6993 215.849 42.6562 214.831V214.774H42.7136L44.6202 214.315L44.57 214.365C44.7438 213.674 45.009 213.008 45.3585 212.387V212.444L44.2905 210.803V210.767L46.5555 208.452L47.7955 209.219L48.1109 209.42L48.2757 209.47Z" fill="#F5F5F5"/>
<path d="M58.6881 294.343L57.2115 288.322C55.039 287.792 52.9485 286.97 50.9971 285.878L45.8005 289.282L38.3963 282.115L41.6074 276.818C40.4513 274.905 39.557 272.847 38.9482 270.696L32.8628 269.428L32.6836 259.142L38.7045 257.665C39.2521 255.482 40.091 253.382 41.1988 251.422L37.7942 246.226L44.9619 238.822L50.2588 242.04C52.1749 240.884 54.2357 239.988 56.3872 239.373L57.6488 233.295L67.9344 233.109L69.4038 239.13C71.5766 239.666 73.6687 240.488 75.6254 241.574L80.8148 238.169L88.2119 245.337L85.0008 250.634C86.1569 252.549 87.0513 254.61 87.66 256.762L93.7454 258.031L93.9246 268.31L87.9037 269.786C87.3662 271.956 86.5444 274.046 85.4595 276.001L88.8642 281.19L81.6965 288.587L76.378 285.448C74.4631 286.604 72.402 287.498 70.2496 288.107L68.9881 294.192L58.6881 294.343ZM50.9899 285.82C52.9451 286.911 55.0376 287.736 57.2115 288.272L58.6881 294.285L68.9307 294.106L70.1923 288.035C72.3473 287.424 74.4109 286.527 76.3278 285.369L81.6248 288.58L88.7352 281.211L85.3377 276.022C86.4279 274.064 87.2523 271.969 87.789 269.793L93.8099 268.36L93.6307 258.117L87.6242 256.777C87.0126 254.622 86.1159 252.558 84.9578 250.641L88.1689 245.344L80.7933 238.234L75.6039 241.631C73.6472 240.545 71.5551 239.723 69.3823 239.187L67.8843 233.123L57.6416 233.302L56.3801 239.373C54.2212 239.98 52.1548 240.877 50.2373 242.04L44.9189 238.857L37.8085 246.226L41.1988 251.422C40.1086 253.38 39.2842 255.475 38.7475 257.651L32.7266 259.128L32.9058 269.37L38.984 270.632C39.5983 272.786 40.4949 274.849 41.6504 276.767L38.4464 282.057L45.8149 289.175L50.9899 285.82ZM63.6195 274.431C61.4529 274.43 59.3344 273.792 57.5281 272.595C55.7218 271.399 54.3075 269.697 53.4615 267.703C52.6155 265.708 52.3752 263.508 52.7706 261.378C53.1659 259.248 54.1794 257.281 55.6848 255.723C56.6913 254.68 57.8938 253.845 59.2234 253.267C60.553 252.689 61.9835 252.379 63.4331 252.354H63.6338C66.515 252.399 69.2645 253.569 71.2947 255.614C73.325 257.659 74.4752 260.416 74.4995 263.298C74.5238 266.179 73.4204 268.956 71.425 271.035C69.4295 273.114 66.7002 274.33 63.8202 274.424L63.6195 274.431ZM55.735 255.737C54.2396 257.29 53.233 259.247 52.8402 261.366C52.4474 263.485 52.6857 265.673 53.5255 267.658C54.3653 269.643 55.7696 271.338 57.5641 272.531C59.3586 273.725 61.4642 274.366 63.6195 274.373H63.8202C66.6908 274.28 69.4111 273.068 71.3999 270.996C73.3888 268.923 74.4885 266.156 74.4642 263.284C74.4398 260.412 73.2934 257.663 71.2697 255.625C69.246 253.587 66.5056 252.421 63.6338 252.376H63.4188C61.9739 252.395 60.5474 252.702 59.2222 253.278C57.8969 253.854 56.6994 254.687 55.6991 255.73L55.735 255.737Z" fill="#E0E0E0"/>
<path d="M55.7006 255.737C56.2801 255.029 56.9728 254.421 57.7506 253.938C59.8723 252.562 62.4046 251.962 64.9183 252.24C66.794 252.44 68.5882 253.113 70.1337 254.195C71.6791 255.276 72.9253 256.732 73.7561 258.425C74.2438 259.401 74.5821 260.445 74.7596 261.522C74.9579 262.642 74.9773 263.786 74.8169 264.912C74.5053 267.306 73.4306 269.536 71.7523 271.271C70.0739 273.006 67.8811 274.154 65.4989 274.546C63.2897 274.921 61.0187 274.629 58.9763 273.707C57.2568 272.937 55.76 271.744 54.6246 270.24C53.4893 268.737 52.7524 266.97 52.4823 265.106C52.1102 262.597 52.6166 260.037 53.9159 257.859C54.3716 257.064 54.9552 256.35 55.6433 255.745C55.1014 256.464 54.5966 257.21 54.1309 257.981C52.9458 260.129 52.5166 262.613 52.9124 265.034C53.1951 266.81 53.9187 268.486 55.0169 269.91C56.1151 271.334 57.5528 272.459 59.1985 273.184C61.137 274.044 63.2878 274.309 65.3771 273.943C67.623 273.562 69.6879 272.471 71.2702 270.832C72.8525 269.193 73.8692 267.091 74.1718 264.833C74.4592 262.734 74.1201 260.597 73.197 258.691C72.4158 257.071 71.2407 255.673 69.7793 254.625C68.318 253.577 66.6171 252.912 64.8323 252.691C62.4011 252.372 59.933 252.877 57.8223 254.125C57.0888 254.627 56.3807 255.165 55.7006 255.737Z" fill="#E0E0E0"/>
<path d="M50.2245 242.061L49.8804 241.874L48.8626 241.287L44.863 238.929H44.992L37.896 246.361V246.161L41.3222 251.343L41.3795 251.436L41.3293 251.529C40.2539 253.478 39.4416 255.56 38.9138 257.722V257.844H38.792L32.7639 259.342L32.9359 259.12C33.0005 262.353 33.0721 265.786 33.1438 269.384L32.9431 269.148L39.05 270.395H39.2077L39.2507 270.553C39.8641 272.684 40.7558 274.725 41.9028 276.624L41.9888 276.76L41.9028 276.903L38.6916 282.214L38.6486 281.863L46.0099 289.031H45.6443L50.8266 285.619L50.9843 285.519L51.142 285.612C53.0782 286.686 55.1487 287.499 57.299 288.027L57.4782 288.07L57.5212 288.25C57.9871 290.142 58.496 292.199 59.0049 294.278L58.6967 294.041L68.9681 293.862L68.667 294.113C69.0684 292.192 69.4985 290.12 69.9285 288.035L69.9715 287.841L70.1507 287.791C72.2792 287.185 74.3182 286.301 76.2146 285.16L76.3795 285.067L76.5443 285.167L81.8485 288.379L81.4614 288.429L88.6291 281.046L88.5933 281.433C87.4536 279.684 86.3139 277.957 85.1958 276.244L85.0954 276.086L85.1814 275.921C86.2609 273.986 87.0781 271.915 87.6113 269.764L87.6543 269.585L87.8335 269.542L93.8615 268.073L93.6322 268.366C93.5748 264.864 93.5199 261.44 93.4673 258.095L93.6967 258.375L87.6185 257.106L87.4536 257.07L87.4034 256.905C86.8006 254.771 85.9159 252.727 84.7729 250.827L84.6869 250.684L84.7729 250.54C85.8839 248.727 86.9232 246.956 87.9984 245.243L88.0414 245.566L80.6658 238.398H80.9668L75.7702 241.788L75.6556 241.86L75.5337 241.796C73.5953 240.706 71.5197 239.882 69.3623 239.344H69.2404V239.222L67.8069 233.187L67.9933 233.331L57.7219 233.467L57.8581 233.352C57.3349 235.775 56.9048 237.767 56.5536 239.423V239.488H56.4962C54.8747 239.931 53.3019 240.536 51.8014 241.294L50.6904 241.867C50.5749 241.943 50.4525 242.008 50.3248 242.061C50.4306 241.97 50.5459 241.89 50.6689 241.824C50.9054 241.681 51.2566 241.466 51.7512 241.201C53.2425 240.402 54.8138 239.763 56.4389 239.294L56.3672 239.366C56.7041 237.71 57.084 235.71 57.5929 233.28V233.173H57.7076L67.9789 232.951H68.1223V233.094C68.5882 234.958 69.0756 236.929 69.6203 239.115L69.4698 238.964C71.6679 239.499 73.7845 240.326 75.7631 241.423H75.5265L80.7088 238.004L80.8736 237.904L81.0098 238.033L88.4141 245.157L88.5646 245.301L88.4571 245.48C87.4178 247.207 86.3498 248.971 85.2459 250.791V250.512C86.4199 252.448 87.3287 254.533 87.9482 256.712L87.7332 256.511L93.8114 257.772L94.0407 257.816V258.052C94.0981 261.397 94.1602 264.821 94.2271 268.323V268.56L93.9906 268.617L87.9625 270.101L88.1847 269.879C87.6469 272.083 86.8152 274.204 85.7119 276.186V275.864L89.1165 281.053L89.2527 281.261L89.0807 281.44L81.9488 288.837L81.7768 289.017L81.5617 288.888L76.2505 285.669H76.573C74.6311 286.843 72.5412 287.751 70.3586 288.371L70.5808 288.128C70.1507 290.221 69.7135 292.292 69.3193 294.206L69.2619 294.457H69.0111L58.7469 294.636H58.496L58.4387 294.4C57.9298 292.321 57.428 290.257 56.9621 288.371L57.1915 288.594C54.9884 288.047 52.8675 287.21 50.8839 286.106H51.1921L46.0027 289.504L45.802 289.633L45.6371 289.475L38.2544 282.308L38.0895 282.15L38.2114 281.956L41.4369 276.659V276.939C40.2669 274.997 39.3629 272.907 38.749 270.725L38.9425 270.911L32.8356 269.678L32.6421 269.635V269.442C32.5847 265.858 32.5345 262.403 32.4844 259.17V258.926L32.6564 258.883L38.6916 257.45L38.5411 257.6C39.0914 255.41 39.9276 253.301 41.0283 251.329V251.522L37.6523 246.318L37.5806 246.211L37.6666 246.118L44.8344 238.771L44.8845 238.714L44.9562 238.757L48.8626 241.186L49.8733 241.824C49.9983 241.891 50.1161 241.97 50.2245 242.061Z" fill="#E0E0E0"/>
<path d="M255.451 17.557L40.541 33.4521L60.8291 307.757L275.74 291.862L255.451 17.557Z" fill="white"/>
<path d="M60.5523 308.133V307.775L40.1602 33.1435H40.5185L255.787 17.1523V17.5107L276.121 292.171H275.763L60.5523 308.133ZM40.9271 33.7743L61.1831 307.366L275.376 291.511L255.12 17.9193L40.9271 33.7743Z" fill="#263238"/>
<path d="M236.486 29.5262L178.586 33.8086L178.861 37.5257L236.761 33.2432L236.486 29.5262Z" fill="#FF725E"/>
<path d="M235.795 58.0593L235.444 58.1238L234.419 58.2313L230.663 58.5753L218.241 59.6075C213.389 60.0017 209.002 60.3242 205.82 60.5249L202.049 60.7471L201.024 60.7902C200.905 60.8027 200.785 60.8027 200.666 60.7902C200.779 60.7513 200.898 60.7296 201.017 60.7256L202.042 60.611L205.798 60.2741L218.241 59.2348C223.087 58.8334 227.473 58.518 230.656 58.3101L234.426 58.0879L235.451 58.0449C235.566 58.0309 235.682 58.0358 235.795 58.0593Z" fill="#FF725E"/>
<path d="M239.265 72.0715C239.265 72.179 226.65 73.1968 211.074 74.3508C195.499 75.5048 182.855 76.3506 182.848 76.2503C182.84 76.1499 195.463 75.1321 211.045 73.9781C226.628 72.8241 239.258 71.9711 239.265 72.0715Z" fill="#263238"/>
<path d="M240.219 89.9416C240.219 90.0491 227.604 91.0669 212.029 92.2209C196.453 93.3749 183.838 94.2279 183.838 94.1204C183.838 94.0129 196.453 93.0022 212.036 91.8482C227.618 90.6942 240.212 89.8413 240.219 89.9416Z" fill="#263238"/>
<path d="M240.219 81.01C240.219 81.1104 227.604 82.1282 212.029 83.2822C196.453 84.4362 183.838 85.2892 183.838 85.1888C183.838 85.0885 196.453 84.0635 212.036 82.9095C227.618 81.7555 240.212 80.9097 240.219 81.01Z" fill="#263238"/>
<path d="M121.8 206.129C121.8 206.23 115.263 206.803 107.185 207.398C99.1066 207.993 92.5482 208.402 92.541 208.294C92.5339 208.186 99.078 207.627 107.156 207.025C115.234 206.423 121.792 206.029 121.8 206.129Z" fill="#FF725E"/>
<path d="M109.573 223.304C109.573 223.411 100.814 224.142 89.9904 224.945C79.1672 225.748 70.3939 226.307 70.3867 226.206C70.3796 226.106 79.1385 225.375 89.9689 224.572C100.799 223.769 109.565 223.203 109.573 223.304Z" fill="#FF725E"/>
<path d="M180.969 224.758C180.969 224.858 156.341 226.765 125.95 229.015C95.5587 231.266 70.9017 233.008 70.8945 232.907C70.8874 232.807 95.5156 230.893 125.921 228.642C156.327 226.392 180.969 224.657 180.969 224.758Z" fill="#263238"/>
<path d="M110.805 239.968C110.805 240.069 102.046 240.8 91.23 241.602C80.4139 242.405 71.6263 242.971 71.6191 242.864C71.612 242.756 80.3781 242.032 91.2013 241.23C102.025 240.427 110.798 239.861 110.805 239.968Z" fill="#FF725E"/>
<path d="M182.19 241.417C182.19 241.524 157.562 243.431 127.17 245.682C96.7794 247.932 72.1224 249.667 72.1152 249.566C72.1081 249.466 96.7363 247.559 127.142 245.309C157.547 243.058 182.183 241.316 182.19 241.417Z" fill="#263238"/>
<path d="M112.036 256.626C112.036 256.726 103.277 257.457 92.4605 258.26C81.6444 259.063 72.8568 259.629 72.8496 259.529C72.8424 259.428 81.6086 258.69 92.4318 257.887C103.255 257.085 112.028 256.518 112.036 256.626Z" fill="#FF725E"/>
<path d="M183.42 258.074C183.42 258.181 158.792 260.088 128.401 262.339C98.0098 264.589 73.3529 266.331 73.3457 266.224C73.3385 266.116 97.9668 264.217 128.372 261.966C158.778 259.715 183.413 257.974 183.42 258.074Z" fill="#263238"/>
<path d="M114.761 273.492C114.761 273.592 105.995 274.323 95.1786 275.126C84.3625 275.929 75.6035 276.495 75.6035 276.387C75.6035 276.28 84.3625 275.556 95.1857 274.753C106.009 273.95 114.746 273.384 114.761 273.492Z" fill="#FF725E"/>
<path d="M186.144 274.94C186.144 275.048 161.509 276.954 131.118 279.241C100.727 281.527 76.0697 283.233 76.0625 283.126C76.0553 283.018 100.691 281.119 131.089 278.868C161.487 276.617 186.13 274.84 186.144 274.94Z" fill="#263238"/>
<path d="M85.1886 202.816L71.75 203.81L72.3813 212.345L85.8199 211.351L85.1886 202.816Z" fill="#FF725E"/>
<path d="M81.7953 211.654L76.3984 212.053L76.5962 214.726L81.9931 214.327L81.7953 211.654Z" fill="#FF725E"/>
<path d="M84.0697 214.071C82.5882 214.393 81.0826 214.592 79.5684 214.666C78.0648 214.865 76.547 214.937 75.0312 214.881C76.5134 214.564 78.0187 214.368 79.5326 214.293C81.0366 214.099 82.5539 214.024 84.0697 214.071Z" fill="#FF725E"/>
<path d="M193.777 193.113L202.178 188.504L210.449 191.644L202.701 196.518L193.777 193.113Z" fill="#FF725E"/>
<path d="M195.793 195.04L196.13 200.273L209.075 199.133L208.63 194.087L202.652 197.699L195.793 195.04Z" fill="#FF725E"/>
<path d="M246.913 194.13C246.913 194.238 240.376 194.804 232.298 195.399C224.22 195.994 217.661 196.402 217.654 196.302C217.647 196.202 224.191 195.628 232.269 195.026C240.347 194.424 246.913 194.03 246.913 194.13Z" fill="#FF725E"/>
<path d="M216.9 212.123C216.9 212.223 212.406 212.639 206.865 213.047C201.324 213.456 196.794 213.714 196.787 213.606C196.78 213.499 201.281 213.09 206.822 212.674C212.363 212.259 216.893 212.015 216.9 212.123Z" fill="#263238"/>
<path d="M253.822 216.637C253.822 216.744 241.185 217.762 225.588 218.916C209.991 220.07 197.326 220.923 197.318 220.823C197.311 220.722 209.955 219.697 225.559 218.543C241.163 217.389 253.814 216.565 253.822 216.637Z" fill="#263238"/>
<path d="M218.406 230.73C218.406 230.837 213.919 231.253 208.372 231.661C202.824 232.07 198.337 232.328 198.301 232.22C198.265 232.113 202.788 231.704 208.336 231.289C213.884 230.873 218.399 230.629 218.406 230.73Z" fill="#263238"/>
<path d="M255.327 235.273C255.327 235.381 242.691 236.398 227.094 237.552C211.497 238.706 198.839 239.559 198.824 239.459C198.81 239.359 211.461 238.334 227.065 237.18C242.669 236.026 255.32 235.18 255.327 235.273Z" fill="#263238"/>
<path d="M219.554 249.121C219.554 249.229 215.06 249.644 209.52 250.053C203.979 250.462 199.485 250.712 199.442 250.612C199.399 250.512 203.936 250.096 209.477 249.68C215.017 249.265 219.547 249.021 219.554 249.121Z" fill="#263238"/>
<path d="M256.474 253.672C256.474 253.779 243.837 254.797 228.24 255.951C212.643 257.105 199.978 257.958 199.971 257.858C199.964 257.757 212.607 256.732 228.212 255.578C243.816 254.424 256.467 253.571 256.474 253.672Z" fill="#263238"/>
<path d="M221.604 268.575C221.604 268.675 217.117 269.091 211.569 269.507C206.021 269.922 201.534 270.166 201.498 270.066C201.462 269.965 205.985 269.542 211.533 269.134C217.081 268.725 221.597 268.474 221.604 268.575Z" fill="#263238"/>
<path d="M258.525 273.126C258.525 273.226 245.889 274.244 230.292 275.405C214.695 276.566 202.036 277.412 202.029 277.305C202.022 277.197 214.659 276.186 230.263 275.032C245.867 273.878 258.518 273.018 258.525 273.126Z" fill="#263238"/>
<path d="M189.162 57.5132C189.726 57.2117 190.19 56.7518 190.495 56.1901C190.801 55.6284 190.936 54.9895 190.883 54.3522C190.882 53.9309 190.795 53.5142 190.627 53.1279C190.458 52.7417 190.212 52.3941 189.904 52.1068C189.596 51.8196 189.232 51.5987 188.835 51.4579C188.438 51.3172 188.016 51.2595 187.596 51.2886C187.175 51.3176 186.766 51.4327 186.392 51.6267C186.018 51.8208 185.687 52.0896 185.422 52.4165C185.156 52.7435 184.96 53.1215 184.847 53.5272C184.733 53.933 184.704 54.3577 184.761 54.7751C184.802 55.4105 185.027 56.0203 185.409 56.5297C185.791 57.039 186.313 57.4257 186.912 57.6422C182.26 58.6959 182.855 63.7993 182.855 63.7993L193.986 63.0252C193.986 63.0252 193.872 57.8787 189.162 57.5132Z" fill="#FF725E"/>
<path d="M207.298 129.778C207.298 129.886 202.775 130.302 197.177 130.717C191.579 131.133 187.035 131.384 187.027 131.284C187.02 131.183 191.55 130.76 197.148 130.345C202.746 129.929 207.29 129.678 207.298 129.778Z" fill="#263238"/>
<path d="M208.063 138.732C208.063 138.832 203.54 139.255 197.942 139.671C192.344 140.087 187.8 140.338 187.793 140.23C187.786 140.123 192.316 139.707 197.914 139.298C203.512 138.89 208.056 138.632 208.063 138.732Z" fill="#263238"/>
<path d="M247.386 127.865L214.415 130.309C214.119 130.331 213.827 130.234 213.603 130.041C213.378 129.847 213.24 129.573 213.218 129.277C213.196 128.981 213.293 128.689 213.486 128.465C213.68 128.24 213.954 128.102 214.25 128.08L247.222 125.636C247.368 125.624 247.515 125.642 247.655 125.687C247.795 125.733 247.924 125.806 248.036 125.902C248.147 125.998 248.238 126.115 248.304 126.247C248.37 126.378 248.409 126.521 248.419 126.668C248.43 126.815 248.413 126.962 248.367 127.102C248.321 127.241 248.248 127.371 248.152 127.482C248.056 127.593 247.939 127.685 247.808 127.75C247.676 127.816 247.533 127.855 247.386 127.865Z" fill="#E0E0E0"/>
<path d="M242.57 128.223L214.393 130.309C214.098 130.331 213.806 130.234 213.581 130.041C213.357 129.847 213.218 129.573 213.196 129.277C213.175 128.981 213.271 128.689 213.465 128.465C213.658 128.24 213.933 128.102 214.229 128.08L242.405 125.994C242.7 125.973 242.992 126.069 243.217 126.263C243.441 126.456 243.58 126.731 243.602 127.026C243.622 127.322 243.524 127.613 243.331 127.837C243.138 128.061 242.865 128.2 242.57 128.223Z" fill="#FF725E"/>
<path d="M248.011 136.287L215.039 138.724C214.744 138.746 214.452 138.649 214.227 138.456C214.003 138.262 213.864 137.987 213.842 137.692C213.823 137.397 213.92 137.106 214.113 136.882C214.306 136.658 214.58 136.519 214.875 136.495L247.846 134.058C247.993 134.046 248.14 134.063 248.28 134.109C248.419 134.155 248.549 134.228 248.66 134.324C248.771 134.42 248.863 134.537 248.928 134.668C248.994 134.8 249.033 134.943 249.043 135.09C249.065 135.385 248.968 135.678 248.775 135.902C248.581 136.126 248.306 136.265 248.011 136.287Z" fill="#E0E0E0"/>
<path d="M238.168 137.011L215.016 138.724C214.72 138.746 214.428 138.649 214.204 138.456C213.979 138.262 213.841 137.987 213.819 137.692C213.799 137.397 213.896 137.106 214.089 136.882C214.283 136.658 214.556 136.519 214.851 136.495L238.003 134.782C238.298 134.76 238.591 134.857 238.815 135.05C239.039 135.244 239.178 135.518 239.2 135.814C239.222 136.11 239.125 136.402 238.931 136.626C238.738 136.851 238.463 136.989 238.168 137.011Z" fill="#FF725E"/>
<path d="M209.04 147.87C209.04 147.97 204.517 148.393 198.919 148.802C193.321 149.21 188.777 149.469 188.77 149.368C188.762 149.268 193.292 148.845 198.89 148.429C204.488 148.013 209.033 147.763 209.04 147.87Z" fill="#263238"/>
<path d="M209.805 156.816C209.805 156.924 205.283 157.339 199.685 157.755C194.087 158.171 189.542 158.422 189.535 158.321C189.528 158.221 194.058 157.798 199.656 157.382C205.254 156.967 209.798 156.716 209.805 156.816Z" fill="#263238"/>
<path d="M249.129 145.949L216.157 148.394C215.861 148.415 215.569 148.319 215.345 148.125C215.12 147.932 214.982 147.657 214.96 147.361C214.938 147.066 215.035 146.774 215.228 146.549C215.422 146.325 215.697 146.186 215.992 146.164L248.964 143.72C249.259 143.699 249.551 143.795 249.776 143.989C250 144.182 250.139 144.457 250.161 144.752C250.172 144.899 250.155 145.046 250.109 145.186C250.064 145.326 249.991 145.455 249.895 145.567C249.799 145.678 249.681 145.769 249.55 145.835C249.418 145.901 249.275 145.939 249.129 145.949Z" fill="#E0E0E0"/>
<path d="M244.305 146.308L216.136 148.394C215.84 148.415 215.548 148.319 215.323 148.125C215.099 147.932 214.961 147.657 214.939 147.362C214.917 147.066 215.013 146.774 215.207 146.549C215.4 146.325 215.675 146.186 215.971 146.164L244.14 144.079C244.435 144.057 244.728 144.153 244.952 144.347C245.176 144.541 245.315 144.815 245.337 145.111C245.349 145.257 245.331 145.405 245.285 145.545C245.24 145.684 245.167 145.814 245.071 145.925C244.975 146.036 244.858 146.127 244.726 146.193C244.595 146.259 244.451 146.298 244.305 146.308Z" fill="#FF725E"/>
<path d="M249.779 154.371L216.807 156.815C216.512 156.837 216.22 156.74 215.995 156.547C215.771 156.353 215.632 156.078 215.61 155.783C215.589 155.487 215.685 155.195 215.879 154.971C216.072 154.746 216.347 154.608 216.643 154.586L249.614 152.142C249.91 152.12 250.202 152.216 250.426 152.41C250.651 152.604 250.789 152.878 250.811 153.174C250.833 153.469 250.736 153.762 250.543 153.986C250.349 154.21 250.075 154.349 249.779 154.371Z" fill="#E0E0E0"/>
<path d="M239.91 155.103L216.759 156.816C216.463 156.837 216.171 156.741 215.946 156.547C215.722 156.354 215.584 156.079 215.562 155.784C215.54 155.488 215.636 155.196 215.83 154.971C216.023 154.747 216.298 154.609 216.594 154.587L239.745 152.845C240.041 152.823 240.333 152.92 240.558 153.113C240.782 153.307 240.92 153.581 240.942 153.877C240.957 154.026 240.942 154.176 240.898 154.318C240.854 154.461 240.781 154.593 240.685 154.708C240.589 154.822 240.471 154.916 240.338 154.984C240.205 155.051 240.059 155.092 239.91 155.103Z" fill="#FF725E"/>
<path d="M210.961 166.355C210.961 166.463 206.431 166.878 200.833 167.294C195.235 167.71 190.691 167.961 190.684 167.86C190.676 167.76 195.206 167.337 200.804 166.921C206.402 166.506 210.954 166.255 210.961 166.355Z" fill="#263238"/>
<path d="M251.05 164.441L218.078 166.878C217.782 166.9 217.49 166.803 217.266 166.61C217.041 166.416 216.903 166.142 216.881 165.846C216.863 165.551 216.961 165.261 217.154 165.038C217.347 164.814 217.619 164.675 217.913 164.649L250.885 162.212C251.181 162.19 251.474 162.287 251.699 162.48C251.925 162.673 252.065 162.948 252.089 163.244C252.109 163.54 252.01 163.833 251.816 164.057C251.621 164.281 251.346 164.419 251.05 164.441Z" fill="#E0E0E0"/>
<path d="M236.355 165.524L218.049 166.878C217.753 166.9 217.461 166.804 217.237 166.61C217.012 166.417 216.874 166.142 216.852 165.846C216.834 165.552 216.932 165.262 217.124 165.038C217.317 164.814 217.59 164.675 217.884 164.649L236.162 163.295C236.457 163.275 236.748 163.372 236.972 163.565C237.196 163.758 237.335 164.032 237.359 164.327C237.381 164.618 237.288 164.906 237.1 165.129C236.913 165.353 236.645 165.495 236.355 165.524Z" fill="#FF725E"/>
<path d="M196.322 120.661L195.161 118.618C195.895 117.457 196.167 116.063 195.924 114.711C195.682 113.359 194.942 112.147 193.85 111.313C192.758 110.479 191.394 110.084 190.026 110.206C188.658 110.328 187.385 110.958 186.457 111.971C185.53 112.984 185.016 114.308 185.016 115.682C185.016 117.056 185.53 118.379 186.457 119.393C187.384 120.407 188.657 121.036 190.025 121.158C191.393 121.28 192.758 120.885 193.85 120.052L196.322 120.661Z" fill="#FF725E"/>
<path d="M238.691 112.884C238.691 112.992 231.058 113.644 221.618 114.318C212.178 114.992 204.523 115.501 204.516 115.4C204.508 115.3 212.149 114.648 221.589 113.967C231.029 113.286 238.684 112.784 238.691 112.884Z" fill="#FF725E"/>
<path d="M44.8477 33.4166L58.538 195.371L179.336 186.383L166.29 24.1416L44.8477 33.4166Z" fill="#EBEBEB"/>
<path d="M169.383 19.4436L49.6602 27.8242L61.0456 190.474L180.768 182.094L169.383 19.4436Z" fill="#FAFAFA"/>
<path d="M61.2696 189.98V189.622L49.2422 27.0582H49.5934L169.344 18.1631V18.5215L181.379 181.085H181.021L61.2696 189.98ZM50.0091 27.7177L61.9864 189.214L180.662 180.426L168.685 18.9372L50.0091 27.7177Z" fill="#263238"/>
<path d="M144.996 43.1074C144.972 43.0181 144.955 42.927 144.946 42.8351C144.946 42.6344 144.881 42.3692 144.831 42.0323C144.738 41.3155 144.602 40.2619 144.437 38.9358C144.272 37.6098 144.064 35.9326 143.828 34.0259C143.732 33.0093 143.577 31.9993 143.362 31.0012C143.237 30.4662 143.016 29.9585 142.709 29.5031C142.393 29.0304 141.929 28.6752 141.39 28.4925C140.8 28.3292 140.178 28.3227 139.585 28.4735C138.991 28.6243 138.448 28.9273 138.007 29.3526C137.062 30.3321 136.455 31.5876 136.273 32.9364C135.829 35.9172 135.916 38.953 136.531 41.9033C136.81 43.473 137.111 45.0929 137.47 46.7271C137.793 48.3914 138.387 49.9918 139.226 51.465C140.106 52.9725 141.489 54.122 143.132 54.712C143.962 55.0056 144.856 55.07 145.72 54.8983C146.593 54.7173 147.397 54.2952 148.042 53.6798C149.329 52.4199 150.133 50.7483 150.314 48.9563C150.477 47.2034 150.432 45.4373 150.178 43.6952C149.791 40.226 149.418 36.8859 149.06 33.6604C148.881 32.0691 148.709 30.5138 148.544 29.0085C148.379 27.5033 148.228 26.0339 147.956 24.6434C147.728 23.2982 147.316 21.9909 146.73 20.7585C146.19 19.6289 145.404 18.6345 144.43 17.8484C142.698 16.5328 140.551 15.884 138.38 16.0206C136.739 16.073 135.16 16.6622 133.886 17.6979C133.104 18.3758 132.511 19.2451 132.166 20.2209C131.936 20.8947 131.886 21.2674 131.857 21.2674C131.897 20.9038 131.976 20.5456 132.094 20.1994C132.415 19.1945 132.999 18.2938 133.786 17.5904C135.074 16.5088 136.685 15.8838 138.366 15.8128C140.592 15.6497 142.803 16.299 144.587 17.6405C145.604 18.4423 146.425 19.4643 146.988 20.6295C147.593 21.8838 148.022 23.2151 148.264 24.586C148.537 26.0196 148.694 27.4531 148.874 28.9727C149.053 30.4922 149.218 32.0333 149.404 33.6245C149.762 36.807 150.121 40.1543 150.536 43.6163C150.8 45.3888 150.848 47.1866 150.68 48.9706C150.49 50.8504 149.645 52.6035 148.293 53.9235C147.596 54.5816 146.73 55.0333 145.791 55.228C144.866 55.4089 143.909 55.3422 143.018 55.0345C141.293 54.4095 139.841 53.203 138.91 51.6227C138.059 50.1115 137.456 48.473 137.126 46.7701C136.767 45.1216 136.473 43.5088 136.194 41.9248C135.57 38.927 135.485 35.8421 135.943 32.8146C136.154 31.4133 136.801 30.1141 137.792 29.1017C138.271 28.6446 138.861 28.3213 139.504 28.164C140.147 28.0068 140.819 28.0212 141.455 28.2057C142.041 28.4131 142.545 28.8055 142.889 29.3239C143.207 29.8043 143.435 30.3387 143.562 30.9008C143.771 31.9136 143.92 32.9381 144.007 33.9686C144.215 35.8752 144.401 37.5525 144.551 38.8785C144.702 40.2045 144.802 41.251 144.881 41.9821C144.881 42.3262 144.939 42.5914 144.953 42.7921C144.977 42.8955 144.992 43.0012 144.996 43.1074Z" fill="#263238"/>
<path d="M95.8338 37.3511L86.3581 33.416C83.7992 35.0431 79.6204 39.5229 78.4736 44.526C77.8135 47.2669 77.5719 50.0919 77.7568 52.905C77.9145 55.937 77.6421 59.1481 75.9649 61.6783C74.7679 63.4774 72.8398 65.0472 72.8039 67.2118C72.7681 69.699 75.3413 71.8422 74.8181 74.2792C74.3952 76.2288 72.2233 77.2108 71.0908 78.8522C69.4423 81.2319 70.2379 84.486 71.313 87.1739C73.9078 93.6607 68.3886 102.993 73.2483 108.01C78.0435 104.075 92.2213 96.7786 97.0165 92.8436C98.1445 92.0496 99.0781 91.0106 99.7474 89.8045C100.579 87.9767 100.127 85.8622 99.6972 83.9054C96.3291 68.6306 95.0297 52.9722 95.8338 37.3511Z" fill="#263238"/>
<path d="M152.499 149.218L147.826 144.487L97.8665 158.579C97.8665 158.579 95.1213 180.541 95.4008 181.946C95.6804 183.351 95.4008 187.365 95.4008 187.365L164.347 181.989C164.347 181.989 165.128 163.288 152.499 149.218Z" fill="#263238"/>
<path d="M111.378 168.314C111.312 168.514 111.215 168.703 111.091 168.873C110.883 169.21 110.582 169.704 110.152 170.306C109.655 170.989 109.083 171.615 108.446 172.17C107.638 172.832 106.708 173.329 105.708 173.632C103.918 174.203 102.047 174.482 100.167 174.456C99.6021 174.454 99.0374 174.421 98.4758 174.356C98.2652 174.355 98.0565 174.316 97.8594 174.241C97.8594 174.184 98.7482 174.241 100.167 174.191C102.01 174.137 103.836 173.828 105.593 173.274C106.55 172.964 107.439 172.478 108.217 171.84C108.846 171.308 109.423 170.715 109.937 170.07C110.833 169.016 111.328 168.278 111.378 168.314Z" fill="#455A64"/>
<path d="M127.815 184.885C127.721 184.667 127.656 184.438 127.621 184.204C127.521 183.767 127.385 183.121 127.241 182.319C126.94 180.72 126.589 178.505 126.317 176.04C126.044 173.574 125.901 171.323 125.844 169.703C125.844 168.894 125.801 168.27 125.808 167.775C125.784 167.536 125.799 167.294 125.851 167.059C125.988 167.925 126.074 168.798 126.109 169.675C126.238 171.288 126.417 173.524 126.69 175.982C126.962 178.441 127.27 180.656 127.499 182.261C127.664 183.128 127.769 184.004 127.815 184.885Z" fill="#455A64"/>
<path d="M132.587 183.738C132.48 183.738 132.057 180.025 131.641 175.431C131.225 170.836 130.924 167.102 131.06 167.087C131.197 167.073 131.591 170.8 132.007 175.395C132.422 179.989 132.688 183.731 132.587 183.738Z" fill="#455A64"/>
<path d="M156.815 158.105C156.682 158.312 156.526 158.502 156.349 158.672C156.033 159.023 155.567 159.517 154.915 160.105C154.2 160.795 153.42 161.415 152.586 161.954C151.548 162.624 150.389 163.082 149.174 163.302C147.946 163.498 146.687 163.357 145.533 162.893C144.607 162.515 143.737 162.014 142.945 161.402C142.413 160.998 141.906 160.563 141.426 160.098C141.237 159.94 141.068 159.76 140.924 159.56C140.967 159.51 141.741 160.22 143.074 161.187C143.862 161.755 144.72 162.22 145.626 162.571C146.728 162.994 147.922 163.118 149.088 162.929C150.254 162.721 151.368 162.29 152.371 161.66C153.201 161.144 153.985 160.556 154.715 159.904C156.026 158.793 156.772 158.062 156.815 158.105Z" fill="#455A64"/>
<path d="M160.635 172.012C160.432 172.168 160.211 172.298 159.975 172.399L158.133 173.359C156.578 174.176 154.449 175.345 152.177 176.75C149.905 178.154 147.876 179.545 146.443 180.57L144.758 181.788C144.563 181.955 144.346 182.095 144.113 182.204C144.278 182.009 144.463 181.831 144.665 181.674C145.038 181.351 145.59 180.9 146.285 180.355C149.938 177.54 153.875 175.116 158.033 173.123C158.829 172.743 159.467 172.449 159.94 172.263C160.158 172.147 160.392 172.062 160.635 172.012Z" fill="#455A64"/>
<path d="M115.062 166.155C115.012 166.155 114.84 165.811 114.61 165.202C114.316 164.401 114.105 163.572 113.98 162.729C113.858 161.872 113.906 161 114.123 160.163C114.192 159.809 114.342 159.475 114.56 159.188C114.313 160.334 114.243 161.511 114.352 162.679C114.474 163.503 114.644 164.319 114.861 165.123C114.986 165.453 115.054 165.802 115.062 166.155Z" fill="#455A64"/>
<path d="M118.073 166.335C117.902 166.015 117.783 165.669 117.722 165.31C117.49 164.466 117.334 163.602 117.256 162.73C117.227 162.251 117.251 161.77 117.328 161.296C117.405 160.9 117.538 160.516 117.722 160.157C118.038 159.547 118.36 159.268 118.389 159.296C118.269 159.629 118.126 159.952 117.959 160.264C117.669 161.054 117.556 161.898 117.629 162.737C117.694 163.726 117.887 164.622 117.987 165.281C118.075 165.625 118.104 165.982 118.073 166.335Z" fill="#455A64"/>
<path d="M136.53 164.6C136.522 162.812 136.151 161.044 135.44 159.403C134.729 157.762 133.693 156.282 132.395 155.053C132.867 155.306 133.29 155.644 133.642 156.049C134.546 156.979 135.274 158.064 135.792 159.253C136.308 160.442 136.602 161.715 136.659 163.009C136.711 163.543 136.667 164.082 136.53 164.6Z" fill="#455A64"/>
<path d="M139.85 163.44C139.526 161.828 139.085 160.242 138.531 158.695C137.853 157.206 137.067 155.768 136.18 154.394C136.563 154.701 136.892 155.069 137.154 155.484C138.555 157.406 139.461 159.644 139.792 161.999C139.886 162.473 139.905 162.959 139.85 163.44Z" fill="#455A64"/>
<path d="M127.154 160.966C127.154 160.966 127.283 160.772 127.656 160.6C128.189 160.368 128.791 160.345 129.34 160.536C129.729 160.663 130.075 160.894 130.344 161.202C130.647 161.568 130.821 162.025 130.838 162.5C130.858 163.02 130.721 163.535 130.444 163.976C130.294 164.218 130.098 164.427 129.866 164.591C129.635 164.756 129.373 164.874 129.096 164.937C128.563 165.046 128.008 164.976 127.519 164.736C127.03 164.496 126.634 164.1 126.394 163.611C126.213 163.176 126.168 162.696 126.265 162.235C126.32 161.827 126.486 161.443 126.745 161.124C127.15 160.706 127.693 160.451 128.272 160.407C128.378 160.389 128.485 160.393 128.589 160.419C128.693 160.445 128.79 160.492 128.874 160.557C128.679 160.541 128.482 160.541 128.287 160.557C127.766 160.65 127.293 160.918 126.946 161.317C126.738 161.603 126.609 161.94 126.573 162.292C126.498 162.693 126.542 163.107 126.702 163.482C126.919 163.89 127.26 164.218 127.677 164.417C128.094 164.615 128.564 164.675 129.018 164.586C129.46 164.46 129.847 164.188 130.115 163.815C130.383 163.441 130.517 162.988 130.494 162.528C130.489 162.124 130.353 161.732 130.107 161.41C129.877 161.14 129.584 160.931 129.254 160.801C128.759 160.607 128.212 160.589 127.706 160.751C127.348 160.858 127.211 160.995 127.154 160.966Z" fill="#455A64"/>
<path d="M82.5002 91.3813C82.106 91.8616 70.609 99.187 68.8816 103.903C67.1542 108.62 69.9352 127.858 70.4155 131.184C70.8957 134.51 77.4183 147.067 77.4183 147.067C77.4183 147.067 76.0493 152.486 77.8412 155.826C79.0057 157.892 80.75 159.572 82.8586 160.657L94.413 154.328L87.2453 121.887L82.5002 91.3813Z" fill="#FF725E"/>
<path d="M83.7536 125.457C84.0834 124.992 84.5278 124.691 84.8001 124.339C85.0725 123.988 85.6603 123.83 85.9398 124.167C86.2193 124.504 85.9398 125.128 85.5742 125.501C86.7354 125.544 87.617 123.952 88.7424 124.268C88.9143 124.345 89.0693 124.456 89.1985 124.593C89.3276 124.731 89.4283 124.892 89.4949 125.069C89.5615 125.245 89.5926 125.433 89.5865 125.621C89.5803 125.81 89.5371 125.995 89.4591 126.167C89.0979 126.847 88.5274 127.392 87.8321 127.722C87.1363 128.045 86.5105 128.5 85.99 129.063C85.7463 129.378 85.5886 129.858 85.8538 130.16C86.3054 130.676 87.3518 130.066 87.7532 130.618C88.0184 130.991 87.6959 131.493 87.3877 131.837C86.2552 133.06 85.1275 134.291 84.0045 135.528C83.7336 135.881 83.3754 136.158 82.9652 136.331C82.7581 136.408 82.5297 136.404 82.3253 136.32C82.1209 136.236 81.9554 136.079 81.8614 135.879C81.8293 135.664 81.8661 135.444 81.9665 135.251C82.0669 135.058 82.2258 134.902 82.4204 134.804C82.8183 134.628 83.1997 134.417 83.5601 134.173C83.7362 134.048 83.8564 133.859 83.8952 133.646C83.934 133.433 83.8884 133.213 83.768 133.034C83.3881 132.647 82.743 132.969 82.3344 133.306L78.3922 136.403C78.1219 136.657 77.7873 136.833 77.4245 136.912C77.2436 136.942 77.058 136.901 76.906 136.798C76.754 136.696 76.6471 136.539 76.6074 136.36C76.6117 136.168 76.6715 135.981 76.7795 135.822C77.4934 134.572 78.4719 133.493 79.6465 132.661C80.1225 132.388 80.551 132.039 80.9152 131.629C81.0923 131.42 81.1993 131.161 81.2212 130.889C81.2431 130.616 81.1787 130.343 81.0371 130.109C80.2625 130.839 79.4063 131.476 78.4854 132.009C78.1628 132.202 77.6898 132.36 77.4461 132.066C77.2024 131.772 77.4461 131.349 77.7113 131.027L81.7897 126.239C81.9365 126.015 82.126 125.823 82.3474 125.673C82.5689 125.523 82.8178 125.418 83.0799 125.364L83.7536 125.457Z" fill="white"/>
<path d="M89.4382 80.8881L88.5064 86.5578L80.0199 93.3528C80.0199 93.3528 78.0129 106.154 79.9267 119.157C79.9267 119.157 92.3627 152.845 92.6637 154.278C93.23 157.009 98.2474 159.296 98.2474 159.296C98.2474 159.296 117.192 159.475 123.7 158.536C130.208 157.597 145.92 147.67 147.425 146.351C148.93 145.032 150.629 138.696 150.629 138.696L139.046 106.255L138.394 83.4327L121.084 78.9887L115.206 74.4443L89.4382 80.8881Z" fill="#FF725E"/>
<path d="M140.486 104.556C140.816 104.09 141.26 103.789 141.525 103.438C141.791 103.087 142.393 102.929 142.672 103.266C142.952 103.603 142.672 104.226 142.3 104.599C143.468 104.642 144.349 103.051 145.475 103.366C145.647 103.444 145.802 103.554 145.931 103.692C146.06 103.829 146.161 103.991 146.227 104.167C146.294 104.344 146.325 104.532 146.319 104.72C146.313 104.909 146.27 105.094 146.192 105.266C145.83 105.945 145.26 106.491 144.565 106.821C143.869 107.143 143.243 107.599 142.722 108.161C142.479 108.484 142.321 108.957 142.586 109.258C143.031 109.774 144.084 109.165 144.486 109.717C144.751 110.09 144.428 110.591 144.12 110.935C142.988 112.163 141.86 113.394 140.737 114.627C140.466 114.98 140.108 115.257 139.698 115.43C139.491 115.508 139.262 115.505 139.057 115.421C138.852 115.337 138.686 115.179 138.594 114.978C138.561 114.764 138.598 114.544 138.698 114.352C138.799 114.16 138.958 114.005 139.153 113.91C139.549 113.729 139.931 113.515 140.293 113.272C140.467 113.145 140.586 112.956 140.625 112.744C140.664 112.532 140.619 112.313 140.5 112.132C140.121 111.745 139.475 112.068 139.067 112.405L135.096 115.501C134.829 115.757 134.497 115.933 134.135 116.01C133.955 116.04 133.769 116 133.617 115.897C133.465 115.794 133.358 115.637 133.318 115.458C133.323 115.266 133.382 115.08 133.49 114.921C134.204 113.671 135.183 112.592 136.357 111.76C136.833 111.487 137.262 111.138 137.626 110.728C137.803 110.519 137.91 110.26 137.932 109.987C137.954 109.715 137.89 109.442 137.748 109.208C136.973 109.937 136.117 110.575 135.196 111.107C134.867 111.301 134.401 111.459 134.157 111.165C133.913 110.871 134.157 110.448 134.422 110.125C135.784 108.525 137.144 106.929 138.501 105.337C138.647 105.114 138.837 104.921 139.058 104.771C139.28 104.621 139.529 104.516 139.791 104.463L140.486 104.556Z" fill="white"/>
<path d="M138.114 83.5405C138.114 83.5405 147.698 86.9022 150.206 92.6364C152.715 98.3705 162.32 125.608 161.718 130.625C161.115 135.643 159.517 141.377 155.173 141.635C150.83 141.893 145.855 137.47 145.855 137.47L141.956 131.127L142.164 124.483L137.734 106.793L138.114 83.5405Z" fill="#FF725E"/>
<path d="M89.8027 83.6628C89.8027 83.7058 109.6 107.918 109.6 107.918L112.288 85.4834L116.037 74.438L90.2328 80.8101L89.8027 83.6628Z" fill="#967262"/>
<g opacity="0.3">
<path d="M130.661 81.9194C129.493 81.3316 128.088 81.7975 126.905 82.3495C120.211 85.5104 112.935 89.3452 110.971 96.477L110.893 100.778C111.509 103.372 114.19 105.078 116.849 105.308C119.508 105.537 122.124 104.548 124.504 103.344C126.642 102.269 128.681 101.007 130.597 99.5735C131.657 98.7779 132.747 97.8031 132.955 96.4914C133.22 94.6994 131.715 93.1369 131.378 91.3593C131.055 89.7035 131.765 88.0406 132.095 86.3849C132.424 84.7291 132.174 82.672 130.661 81.9194Z" fill="black"/>
</g>
<path d="M79.9043 119.192C79.9866 119.322 80.0516 119.462 80.0978 119.608L80.5852 120.827C80.9938 121.895 81.5815 123.436 82.284 125.349C83.7175 129.177 85.5023 134.517 87.5308 140.402C88.5557 143.34 89.5521 146.136 90.4695 148.666C90.9283 149.935 91.3511 151.146 91.7955 152.25C92.2062 153.275 92.7126 154.259 93.3079 155.189C94.1824 156.528 95.3336 157.664 96.6839 158.522C97.6516 159.117 98.2465 159.346 98.225 159.382C98.0763 159.345 97.9321 159.292 97.7949 159.224C97.3864 159.061 96.991 158.867 96.6122 158.644C95.2031 157.821 93.9995 156.689 93.0929 155.332C92.4693 154.399 91.9387 153.408 91.5088 152.372C91.0429 151.254 90.6129 150.049 90.1398 148.788C89.208 146.258 88.1973 143.469 87.1795 140.524C85.1726 134.66 83.3591 129.349 82.0331 125.471C81.3737 123.572 80.8361 122.031 80.449 120.905L80.0261 119.658C79.9702 119.507 79.9293 119.351 79.9043 119.192Z" fill="#263238"/>
<path d="M109.508 108.684C109.438 108.62 109.375 108.548 109.322 108.469L108.813 107.817C108.369 107.251 107.723 106.384 106.878 105.38C104.573 102.558 102.075 99.8999 99.4017 97.424L99.6884 97.3021C99.6096 100.585 99.5235 104.269 99.4304 108.154C99.4304 108.498 99.4304 108.871 99.4304 109.158V109.924L99.1006 109.208C96.0544 102.965 93.3235 97.3523 91.3308 93.2524C90.3704 91.2454 89.5962 89.6112 89.03 88.4356C88.7791 87.8909 88.5784 87.4537 88.4279 87.1168C88.3516 86.9666 88.2869 86.8109 88.2344 86.6509C88.3369 86.7862 88.4234 86.933 88.4924 87.0881C88.6644 87.4107 88.8866 87.8049 89.159 88.3711L91.5674 93.1377C93.5887 97.2233 96.3554 102.814 99.4519 109.043L99.1006 109.122C99.1006 108.799 99.1006 108.462 99.1006 108.118C99.2082 104.233 99.3013 100.549 99.3873 97.2663V96.8864L99.6597 97.1444C102.327 99.6475 104.802 102.348 107.064 105.222C107.888 106.276 108.498 107.136 108.928 107.724L109.393 108.405C109.444 108.493 109.482 108.587 109.508 108.684Z" fill="#263238"/>
<path d="M137.69 126.195C137.769 126.267 131.956 132.453 124.788 140.008C117.62 147.562 111.686 153.626 111.614 153.562C111.542 153.497 117.312 147.312 124.516 139.75C131.719 132.188 137.618 126.124 137.69 126.195Z" fill="#263238"/>
<path d="M126.948 157.368C126.711 156.633 126.524 155.884 126.389 155.124C126.066 153.734 125.579 151.827 124.912 149.763C124.245 147.698 123.514 145.863 122.955 144.552C122.624 143.853 122.334 143.135 122.088 142.401C122.522 143.043 122.894 143.725 123.199 144.437C123.999 146.125 124.689 147.863 125.263 149.641C125.843 151.415 126.305 153.225 126.647 155.06C126.825 155.817 126.926 156.59 126.948 157.368Z" fill="#263238"/>
<path d="M78.4203 118.002C76.752 117.096 75.1453 116.081 73.6108 114.963C72.0026 113.953 70.4629 112.837 69.002 111.623C70.6731 112.526 72.2822 113.539 73.8187 114.655C75.4246 115.668 76.9619 116.786 78.4203 118.002Z" fill="#263238"/>
<path d="M155.167 141.592C155.167 141.592 155.081 141.592 154.916 141.592H154.199C153.805 141.595 153.412 141.564 153.024 141.499C152.494 141.428 151.971 141.313 151.461 141.155C150.093 140.701 148.833 139.969 147.763 139.004C146.396 137.763 145.315 136.239 144.594 134.539C143.921 131.815 143.161 128.805 142.387 125.608C140.953 119.544 139.598 114.061 138.631 110.033L137.527 105.302L137.247 104.012C137.208 103.864 137.184 103.713 137.176 103.56C137.245 103.699 137.295 103.846 137.326 103.997C137.412 104.327 137.527 104.75 137.67 105.266C137.971 106.427 138.387 108.018 138.882 109.968C139.885 113.989 141.247 119.465 142.752 125.522C143.526 128.704 144.265 131.736 144.903 134.46C145.599 136.118 146.637 137.61 147.949 138.84C148.985 139.793 150.204 140.524 151.533 140.99C152.714 141.34 153.935 141.542 155.167 141.592Z" fill="#263238"/>
<path d="M85.1585 142.037C84.6869 142.169 84.2084 142.274 83.725 142.352C81.4669 142.913 79.4838 144.263 78.1342 146.158C77.885 146.573 77.6146 146.975 77.3242 147.363C77.4265 146.878 77.6265 146.42 77.912 146.015C78.5438 144.995 79.3841 144.121 80.3777 143.449C81.3645 142.767 82.4865 142.305 83.6677 142.094C84.1546 141.967 84.6633 141.948 85.1585 142.037Z" fill="#263238"/>
<path d="M85.2873 141.219C84.2477 141.832 83.1108 142.264 81.9257 142.494C80.766 142.85 79.5532 143.001 78.3418 142.939C78.3418 142.831 79.9115 142.609 81.8181 142.136C83.7247 141.663 85.2443 141.118 85.2873 141.219Z" fill="#263238"/>
<path d="M83.0433 101.402C83.3802 100.936 83.8246 100.635 84.0898 100.283C84.355 99.9322 84.95 99.7673 85.2367 100.111C85.5234 100.455 85.2367 101.065 84.8639 101.437C86.0323 101.488 86.9139 99.8963 88.0393 100.212C88.2112 100.289 88.3662 100.4 88.4953 100.537C88.6245 100.675 88.7252 100.836 88.7918 101.013C88.8584 101.189 88.8895 101.377 88.8834 101.565C88.8772 101.754 88.834 101.939 88.756 102.111C88.3948 102.791 87.8243 103.336 87.1289 103.667C86.4365 103.991 85.8134 104.446 85.294 105.007C85.0503 105.322 84.8926 105.803 85.1578 106.104C85.6022 106.62 86.6559 106.01 87.0501 106.562C87.3225 106.935 86.9999 107.437 86.6846 107.774L83.3086 111.472C83.0376 111.825 82.6794 112.102 82.2692 112.275C82.0621 112.352 81.8338 112.348 81.6294 112.264C81.425 112.181 81.2594 112.023 81.1654 111.823C81.1333 111.608 81.1701 111.388 81.2705 111.195C81.371 111.002 81.5298 110.846 81.7245 110.748C82.1201 110.568 82.5012 110.357 82.8642 110.118C83.0391 109.991 83.1578 109.801 83.1953 109.588C83.2328 109.376 83.186 109.157 83.0649 108.978C82.6921 108.584 82.047 108.913 81.6313 109.243L77.6819 112.347C77.4151 112.602 77.0825 112.778 76.7214 112.856C76.5405 112.886 76.3549 112.845 76.2029 112.742C76.0509 112.64 75.944 112.483 75.9043 112.304C75.9074 112.111 75.9672 111.924 76.0763 111.766C76.7987 110.511 77.7901 109.431 78.9793 108.605C79.4514 108.33 79.8772 107.981 80.2408 107.573C80.419 107.365 80.5273 107.107 80.5505 106.834C80.5736 106.561 80.5104 106.288 80.3698 106.053C79.592 106.779 78.7362 107.416 77.8181 107.953C77.4884 108.146 77.0225 108.297 76.7788 108.01C76.5351 107.723 76.7788 107.293 77.0368 106.964L81.1224 102.183C81.4192 101.73 81.883 101.413 82.4126 101.301L83.0433 101.402Z" fill="white"/>
<path d="M113.164 111.136C113.494 110.67 113.938 110.369 114.21 110.018C114.483 109.667 115.07 109.502 115.35 109.846C115.629 110.19 115.35 110.799 114.977 111.172C116.146 111.222 117.027 109.631 118.153 109.946C118.324 110.024 118.479 110.134 118.609 110.272C118.738 110.409 118.839 110.571 118.905 110.747C118.972 110.924 119.003 111.111 118.997 111.3C118.991 111.488 118.947 111.674 118.869 111.846C118.507 112.523 117.936 113.065 117.242 113.394C116.548 113.721 115.922 114.178 115.4 114.741C115.156 115.057 114.999 115.537 115.264 115.838C115.716 116.347 116.762 115.745 117.163 116.297C117.429 116.669 117.106 117.171 116.798 117.508L113.415 121.207C113.146 121.565 112.787 121.847 112.375 122.024C112.167 122.1 111.938 122.095 111.734 122.01C111.529 121.925 111.364 121.766 111.272 121.565C111.24 121.351 111.277 121.132 111.377 120.94C111.478 120.748 111.637 120.593 111.831 120.497C112.226 120.315 112.607 120.104 112.97 119.866C113.3 119.587 113.479 119.035 113.178 118.727C112.877 118.418 112.153 118.662 111.745 118.992L107.802 122.095C107.529 122.346 107.196 122.521 106.835 122.604C106.654 122.634 106.468 122.594 106.316 122.491C106.164 122.388 106.057 122.231 106.018 122.052C106.021 121.86 106.081 121.673 106.19 121.515C106.9 120.262 107.879 119.182 109.057 118.354C109.531 118.078 109.959 117.73 110.325 117.322C110.502 117.113 110.609 116.854 110.631 116.582C110.653 116.309 110.589 116.036 110.447 115.802C109.671 116.529 108.815 117.166 107.896 117.702C107.573 117.888 107.1 118.046 106.856 117.759C106.613 117.472 106.856 117.042 107.121 116.712C108.483 115.121 109.843 113.525 111.2 111.924C111.501 111.477 111.963 111.164 112.49 111.05L113.164 111.136Z" fill="white"/>
<path d="M101.688 139.671C102.025 139.205 102.469 138.904 102.734 138.553C103 138.202 103.594 138.044 103.881 138.381C104.168 138.718 103.881 139.342 103.508 139.707C104.677 139.757 105.558 138.166 106.684 138.482C106.856 138.559 107.011 138.67 107.14 138.807C107.269 138.944 107.37 139.106 107.436 139.283C107.503 139.459 107.534 139.647 107.528 139.835C107.522 140.024 107.478 140.209 107.401 140.381C107.039 141.061 106.469 141.606 105.773 141.936C105.081 142.26 104.458 142.716 103.939 143.277C103.695 143.592 103.537 144.072 103.802 144.373C104.247 144.889 105.3 144.28 105.695 144.832C105.967 145.205 105.644 145.707 105.329 146.043L101.953 149.742C101.682 150.095 101.324 150.372 100.914 150.545C100.707 150.621 100.478 150.618 100.274 150.534C100.07 150.45 99.9039 150.293 99.8099 150.093C99.7779 149.878 99.8147 149.658 99.9151 149.465C100.015 149.272 100.174 149.115 100.369 149.018C100.767 148.842 101.148 148.631 101.509 148.387C101.684 148.261 101.802 148.071 101.84 147.858C101.877 147.645 101.831 147.426 101.709 147.248C101.337 146.853 100.692 147.183 100.276 147.513L96.3264 150.616C96.0596 150.872 95.7271 151.048 95.366 151.125C95.185 151.155 94.9994 151.115 94.8474 151.012C94.6954 150.91 94.5885 150.753 94.5488 150.573C94.5519 150.381 94.6118 150.194 94.7209 150.036C95.4348 148.786 96.4133 147.707 97.5879 146.875C98.063 146.604 98.4894 146.255 98.8495 145.843C99.0276 145.635 99.136 145.377 99.1591 145.104C99.1823 144.831 99.1191 144.558 98.9785 144.323C98.2026 145.051 97.3465 145.688 96.4268 146.223C96.0971 146.416 95.6312 146.574 95.3875 146.28C95.1438 145.986 95.3875 145.563 95.6455 145.241L99.7311 140.453C100.028 140 100.492 139.683 101.021 139.571L101.688 139.671Z" fill="white"/>
<path d="M135.928 137.163C136.258 136.697 136.709 136.396 136.975 136.045C137.24 135.693 137.835 135.529 138.121 135.873C138.408 136.217 138.086 136.826 137.749 137.199C138.917 137.249 139.799 135.658 140.924 135.973C141.096 136.05 141.251 136.161 141.38 136.298C141.509 136.436 141.61 136.597 141.677 136.774C141.743 136.95 141.774 137.138 141.768 137.327C141.762 137.515 141.719 137.701 141.641 137.872C141.278 138.549 140.708 139.092 140.014 139.421C139.322 139.75 138.7 140.207 138.179 140.768C137.935 141.084 137.777 141.564 138.043 141.865C138.487 142.374 139.541 141.772 139.935 142.324C140.207 142.696 139.878 143.198 139.569 143.535L136.186 147.233C135.917 147.588 135.558 147.865 135.147 148.036C134.939 148.111 134.71 148.105 134.506 148.02C134.302 147.935 134.137 147.777 134.043 147.577C134.011 147.362 134.048 147.143 134.15 146.95C134.252 146.758 134.413 146.604 134.609 146.509C135.003 146.329 135.381 146.118 135.742 145.879C136.071 145.599 136.251 145.047 135.95 144.739C135.649 144.431 134.932 144.675 134.516 145.004L130.574 148.108C130.302 148.361 129.968 148.537 129.606 148.617C129.425 148.647 129.24 148.606 129.088 148.504C128.936 148.401 128.829 148.244 128.789 148.065C128.792 147.871 128.854 147.684 128.968 147.527C129.688 146.271 130.68 145.191 131.871 144.366C132.342 144.089 132.768 143.741 133.133 143.334C133.311 143.126 133.419 142.868 133.442 142.595C133.466 142.323 133.402 142.049 133.262 141.815C132.484 142.54 131.628 143.177 130.71 143.714C130.38 143.908 129.907 144.058 129.664 143.771C129.42 143.485 129.664 143.055 129.929 142.725L134.014 137.944C134.16 137.719 134.35 137.525 134.571 137.374C134.793 137.223 135.042 137.117 135.305 137.062L135.928 137.163Z" fill="white"/>
<path d="M122.854 140.997C122.776 140.908 122.711 140.809 122.661 140.703L122.159 139.821C121.729 139.061 121.127 137.936 120.417 136.538C118.984 133.743 117.113 129.815 115.271 125.392C113.429 120.97 111.966 116.87 110.97 113.881C110.483 112.383 110.11 111.172 109.866 110.297C109.759 109.91 109.673 109.58 109.601 109.322C109.561 109.209 109.537 109.091 109.529 108.971C109.591 109.075 109.639 109.185 109.673 109.301C109.759 109.559 109.873 109.874 110.01 110.254C110.311 111.136 110.726 112.326 111.221 113.766C112.253 116.727 113.751 120.798 115.586 125.235C117.421 129.672 119.249 133.585 120.603 136.402C121.27 137.778 121.822 138.904 122.238 139.742L122.675 140.653C122.751 140.758 122.812 140.874 122.854 140.997Z" fill="#263238"/>
<path d="M161.746 130.008C161.746 130.546 159.266 131.671 158.736 131.614L158.112 131.42C157.711 131.829 157.223 132.058 156.908 132.366C156.593 132.675 155.976 132.739 155.747 132.366C155.517 131.994 155.926 131.427 156.32 131.112C155.173 130.89 154.055 132.323 152.994 131.829C152.677 131.62 152.456 131.293 152.379 130.921C152.302 130.548 152.377 130.161 152.586 129.843C153.049 129.228 153.697 128.778 154.435 128.56C155.169 128.347 155.856 127.994 156.456 127.521C156.743 127.241 156.973 126.804 156.757 126.453C156.399 125.88 155.267 126.317 154.958 125.736C154.751 125.328 155.145 124.883 155.51 124.597C156.808 123.55 158.592 122.095 159.897 121.048C159.897 121.013 161.696 127.557 161.746 130.008Z" fill="white"/>
<g opacity="0.3">
<path d="M111.799 153.161C122.192 147.491 131.467 138.36 136.499 127.644L111.799 153.161Z" fill="black"/>
</g>
<g opacity="0.3">
<path d="M77.3457 147.361C79.3813 142.989 83.3881 141.792 87.2802 141.842C87.3188 141.615 87.2721 141.382 87.1491 141.187C87.026 140.993 86.8352 140.85 86.6136 140.788C86.1654 140.666 85.6927 140.666 85.2445 140.788C83.3533 141.061 81.5299 141.686 79.8687 142.63C79.1046 143.123 78.4782 143.802 78.0482 144.603C77.6181 145.404 77.3986 146.301 77.4102 147.21" fill="black"/>
</g>
<g opacity="0.3">
<path d="M88.3092 86.8018C90.9523 96.4894 95.0615 105.716 100.494 114.161C102.498 111.052 103.35 107.339 102.903 103.667C104.41 105.627 106.477 107.082 108.83 107.839C106.071 104.047 103.204 100.442 99.6199 97.4243C99.6199 97.4243 99.3117 109.609 99.3189 109.273C95.5701 101.739 91.9218 94.3207 88.2949 86.8018" fill="black"/>
</g>
<path d="M119.893 52.9707C118.825 56.4471 117.305 59.1206 113.937 60.4897C110.991 61.6867 107.658 61.4573 104.547 60.8194C94.4332 58.7336 83.8178 53.3435 78.4492 44.5272L81.3163 38.2769C84.3483 33.5104 91.7597 27.8622 100.361 30.6576C102.688 29.9922 105.146 29.9286 107.504 30.4727C109.862 31.0168 112.043 32.1508 113.843 33.7684C120.438 39.3807 119.893 52.9707 119.893 52.9707Z" fill="#263238"/>
<path d="M95.5954 35.4169C89.6892 34.7002 82.0627 41.8679 81.5753 47.8099C81.0306 54.4042 80.6292 62.4751 81.3101 67.4136C82.6935 77.3481 90.2626 78.753 90.2626 78.753L89.8971 83.8062L112.518 79.4626L113.493 44.0326L113.615 40.8357L95.5954 35.4169Z" fill="#967262"/>
<path d="M85.2525 54.963C85.2427 55.2936 85.3623 55.6149 85.5858 55.8586C85.8094 56.1023 86.1193 56.249 86.4495 56.2675C86.6113 56.2843 86.7749 56.2685 86.9305 56.221C87.0861 56.1735 87.2306 56.0954 87.3556 55.9912C87.4805 55.887 87.5833 55.7588 87.6579 55.6142C87.7325 55.4696 87.7774 55.3116 87.7899 55.1494C87.7997 54.8188 87.6801 54.4975 87.4566 54.2538C87.233 54.0101 86.9231 53.8634 86.5929 53.8449C86.4311 53.8281 86.2675 53.8439 86.1119 53.8914C85.9563 53.9389 85.8118 54.017 85.6868 54.1212C85.5619 54.2254 85.4591 54.3536 85.3845 54.4982C85.3099 54.6428 85.2651 54.8008 85.2525 54.963Z" fill="#263238"/>
<path d="M83.5904 52.0596C83.7409 52.2244 84.7157 51.5363 86.0847 51.565C87.4538 51.5937 88.4429 52.2818 88.5934 52.1313C88.7439 51.9807 88.5146 51.7585 88.0845 51.4145C87.4982 50.9956 86.7981 50.7655 86.0776 50.7551C85.3665 50.7409 84.6691 50.9516 84.0849 51.3572C83.662 51.6869 83.49 51.9807 83.5904 52.0596Z" fill="#263238"/>
<path d="M98.0101 55.4572C98.0021 55.7873 98.1223 56.1076 98.3456 56.3509C98.5688 56.5942 98.8776 56.7414 99.2072 56.7617C99.3684 56.7775 99.5312 56.7609 99.686 56.713C99.8407 56.665 99.9844 56.5867 100.109 56.4826C100.233 56.3785 100.335 56.2507 100.409 56.1066C100.483 55.9625 100.528 55.8051 100.54 55.6436C100.55 55.3123 100.431 54.9901 100.208 54.7453C99.9841 54.5005 99.6742 54.3522 99.3433 54.3319C99.1815 54.3162 99.0182 54.333 98.863 54.3814C98.7078 54.4297 98.5638 54.5087 98.4396 54.6135C98.3153 54.7184 98.2133 54.8471 98.1396 54.992C98.0658 55.1369 98.0218 55.2951 98.0101 55.4572Z" fill="#263238"/>
<path d="M97.0143 52.5754C97.172 52.7402 98.1468 52.0521 99.5158 52.0808C100.885 52.1095 101.867 52.7976 102.017 52.647C102.168 52.4965 101.939 52.2743 101.508 51.9303C100.925 51.5115 100.227 51.2814 99.5087 51.2708C98.7974 51.2552 98.0996 51.466 97.5161 51.8729C97.1075 52.2026 96.9426 52.4965 97.0143 52.5754Z" fill="#263238"/>
<path d="M91.8599 62.611C91.1416 62.378 90.3981 62.2312 89.6451 62.1738C89.3011 62.1308 88.9714 62.0519 88.9284 61.8154C88.9056 61.4529 88.9957 61.0923 89.1864 60.7832C89.5304 59.9446 89.9032 59.063 90.2687 58.1455C91.7739 54.3896 92.8706 51.3003 92.7201 51.243C92.5696 51.1857 91.222 54.1746 89.7168 57.9305C89.3513 58.8551 89 59.7439 88.6775 60.5897C88.446 61.0037 88.3722 61.4874 88.4696 61.9516C88.5163 62.0771 88.5919 62.1899 88.6903 62.2808C88.7886 62.3717 88.907 62.4382 89.0359 62.4748C89.2272 62.53 89.4246 62.5613 89.6236 62.568C90.3642 62.6778 91.1157 62.6923 91.8599 62.611Z" fill="#263238"/>
<path d="M90.2632 78.7812C95.0339 78.9482 99.7598 77.8107 103.932 75.4912C103.932 75.4912 100.312 82.3292 90.084 81.2254L90.2632 78.7812Z" fill="#77574A"/>
<path d="M92.3768 65.9217C92.6414 65.5981 92.9847 65.3478 93.3737 65.1947C93.7627 65.0416 94.1845 64.9908 94.5987 65.0473C94.8994 65.0791 95.1904 65.1718 95.4541 65.3197C95.7178 65.4676 95.9487 65.6675 96.1326 65.9074C96.3109 66.1392 96.414 66.4201 96.4281 66.7122C96.4422 67.0043 96.3666 67.2937 96.2115 67.5416C95.9873 67.7826 95.6962 67.9509 95.3756 68.025C95.055 68.0991 94.7195 68.0756 94.4124 67.9574C93.7698 67.7195 93.1822 67.3537 92.685 66.8822C92.5351 66.7697 92.4064 66.6313 92.3051 66.4737C92.2539 66.3987 92.2266 66.31 92.2266 66.2192C92.2266 66.1284 92.2539 66.0397 92.3051 65.9647" fill="#77574A"/>
<path d="M95.8593 63.6349C95.6371 63.6349 95.6084 65.0684 94.3183 66.1292C93.0281 67.1901 91.4512 66.9679 91.4512 67.1757C91.4512 67.2617 91.7952 67.4696 92.4618 67.4983C93.3326 67.5285 94.1859 67.2491 94.8702 66.7098C95.5259 66.1941 95.9552 65.4435 96.0672 64.6168C96.1245 64.0004 95.9668 63.6277 95.8593 63.6349Z" fill="#263238"/>
<path d="M96.7686 47.2149C96.8905 47.5876 98.2595 47.4371 99.8579 47.6593C101.456 47.8815 102.725 48.3761 102.969 48.0177C103.069 47.86 102.847 47.5088 102.331 47.1361C101.644 46.6761 100.858 46.384 100.037 46.2831C99.2193 46.1688 98.386 46.2523 97.6073 46.5268C97.0123 46.7633 96.7113 47.0357 96.7686 47.2149Z" fill="#263238"/>
<path d="M84.206 48.11C84.4354 48.4253 85.3887 48.11 86.514 48.11C87.6393 48.11 88.607 48.3608 88.8292 48.0383C88.9295 47.8806 88.7862 47.5724 88.3704 47.2642C87.8189 46.8919 87.1648 46.7014 86.4997 46.7194C85.8354 46.7217 85.1877 46.9268 84.6432 47.3072C84.206 47.6441 84.0626 47.9594 84.206 48.11Z" fill="#263238"/>
<path d="M112.695 39.8462C111.9 38.1761 109.943 37.488 108.208 36.8572C105.757 35.9684 103.377 34.8718 100.876 34.1407C98.3878 33.3121 95.7258 33.1514 93.1562 33.6748C90.54 34.3055 88.2749 35.9326 86.2752 37.7317C83.6374 40.1042 81.2577 43.0143 80.584 46.4978V47.6948C86.268 46.0821 91.9233 40.1401 96.0376 35.9039C99.5856 40.8497 105.492 49.6301 110.724 51.7804C111.075 49.2502 112.875 45.5804 113.075 43.0358C113.217 41.9576 113.087 40.861 112.695 39.8462Z" fill="#263238"/>
<path d="M131.813 79.8417C131.426 77.8634 129.469 76.6664 127.756 75.6056C126.043 74.5448 124.208 73.0252 124.308 71.0111C124.409 68.997 126.652 67.2624 126.458 65.1622C126.265 63.0621 123.663 61.9439 122.28 60.2165C120.273 57.7222 119.886 56.1668 119.886 52.97C119.886 46.7125 117.384 38.5413 111.872 35.5596L104.676 41.602C106.769 47.4436 108.89 53.5505 108.159 59.722C107.722 63.3775 106.289 66.9327 106.496 70.6097C106.719 74.5591 108.804 78.1573 109.514 82.0422C110.188 85.7264 109.607 89.5182 109.794 93.2597C109.98 97.0013 111.227 101.044 114.395 103.029L126.358 97.2951C127.655 96.6715 129.118 95.8616 129.304 94.4281C129.49 92.9945 128.222 91.733 127.871 90.2994C127.01 86.5507 132.544 83.612 131.813 79.8417Z" fill="#263238"/>
<path d="M119.694 49.2637C119.126 49.5211 118.533 49.7182 117.923 49.8514C116.467 50.2614 114.974 50.5279 113.465 50.647C111.948 50.7402 110.426 50.5754 108.964 50.1596C108.351 50.0191 107.762 49.7897 107.215 49.4787C107.251 49.3282 109.946 50.5109 113.444 50.2743C114.931 50.1428 116.406 49.9033 117.859 49.5576C118.46 49.4027 119.074 49.3043 119.694 49.2637Z" fill="#455A64"/>
<path d="M119.922 51.5645C119.432 51.9378 118.888 52.2351 118.309 52.4461C116.935 53.0249 115.464 53.341 113.973 53.3779C112.484 53.3906 111.002 53.1878 109.572 52.7758C108.975 52.6406 108.397 52.4311 107.852 52.1522C108.455 52.2299 109.051 52.3521 109.636 52.5178C111.046 52.8474 112.489 53.011 113.937 53.0052C115.387 52.9637 116.822 52.6927 118.187 52.2024C118.754 51.959 119.333 51.746 119.922 51.5645Z" fill="#455A64"/>
<path d="M77.8984 47.8601C78.5279 47.7704 79.1622 47.7177 79.7979 47.7024C80.4222 47.5652 81.0541 47.4647 81.6902 47.4014C81.1362 47.7647 80.5057 47.9952 79.848 48.0748C79.1903 48.1543 78.5231 48.0809 77.8984 47.8601Z" fill="#455A64"/>
<path d="M77.5371 48.9923C77.6016 48.9063 78.3614 49.4295 79.4151 49.7879C80.4687 50.1463 81.3862 50.2108 81.3862 50.3255C80.6871 50.4965 79.9511 50.431 79.2932 50.1391C78.5955 49.9652 77.9768 49.5612 77.5371 48.9923Z" fill="#455A64"/>
<path d="M111.05 98.2205C110.872 98.1949 110.698 98.1442 110.534 98.07C110.046 97.8647 109.609 97.5567 109.251 97.1668C108.68 96.5466 108.306 95.7708 108.176 94.9377C108.097 94.4124 108.137 93.8762 108.291 93.3679C108.47 92.8112 108.723 92.281 109.043 91.791C109.388 91.2704 109.697 90.7267 109.968 90.164C110.229 89.5518 110.368 88.8943 110.376 88.2287C110.324 86.7403 109.882 85.2918 109.093 84.0284C108.193 82.6308 107.217 81.2836 106.169 79.993C105.017 78.5751 104.223 76.9009 103.854 75.1117C103.582 73.3079 103.689 71.4672 104.169 69.7073C104.608 68.0869 105.171 66.5029 105.854 64.9694C106.47 63.5 107.072 62.1023 107.524 60.7763C107.959 59.543 108.264 58.2673 108.434 56.9702C108.728 55.0971 108.613 53.1824 108.097 51.3579C107.885 50.6968 107.589 50.0656 107.215 49.48C107.344 49.6075 107.457 49.7494 107.552 49.9029C107.85 50.3491 108.091 50.8306 108.269 51.3364C108.845 53.1754 109.002 55.1201 108.728 57.0276C108.572 58.3454 108.276 59.6429 107.846 60.8982C107.402 62.2529 106.807 63.6506 106.198 65.1271C105.529 66.6471 104.981 68.2168 104.556 69.822C104.09 71.5305 103.985 73.3174 104.248 75.0687C104.607 76.8021 105.377 78.4242 106.491 79.7994C107.544 81.1032 108.523 82.4648 109.423 83.8779C110.231 85.1985 110.677 86.7093 110.713 88.2573C110.699 88.9613 110.545 89.6555 110.262 90.3001C109.975 90.8607 109.652 91.4018 109.294 91.92C108.982 92.389 108.73 92.8946 108.541 93.4253C108.399 93.8889 108.355 94.3772 108.412 94.8588C108.52 95.6554 108.859 96.403 109.387 97.0091C109.835 97.5415 110.406 97.9572 111.05 98.2205Z" fill="#263238"/>
<path d="M100.742 30.549C99.6776 31.029 98.7069 31.694 97.8748 32.5129C97.131 33.409 96.5489 34.4277 96.1545 35.5234C96.113 35.1674 96.1649 34.8067 96.3051 34.4769C96.5709 33.6526 97.0124 32.8958 97.5989 32.2585C98.1854 31.6213 98.9031 31.1187 99.7025 30.7855C100.023 30.6186 100.381 30.5371 100.742 30.549Z" fill="#455A64"/>
<path d="M138.722 97.925L133.841 90.234L133.504 82.6721L135.418 77.497C135.418 77.497 136.944 77.1314 137.195 78.9305C137.286 80.2979 137.093 81.6694 136.629 82.9588L137.676 86.6286C137.676 86.6286 138.02 87.0229 138.342 85.4961C138.665 83.9694 138.106 72.6516 138.098 71.8775C138.091 71.1034 138.156 69.2469 139.31 69.419C140.464 69.591 140.829 71.132 140.829 71.9133C140.829 72.6946 141.675 80.2924 141.675 80.2924C141.675 80.2924 141.947 80.9733 142.22 80.873C142.492 80.7726 141.976 72.7233 141.926 71.4546C141.876 70.1859 141.589 67.3618 143.08 67.3618C144.571 67.3618 144.571 68.7954 144.657 70.3293C144.743 71.8631 145.711 80.6006 145.711 80.6006C145.711 80.6006 145.94 81.1453 146.155 80.4142C146.37 79.6831 146.635 70.2074 146.8 69.763C146.965 69.3186 147.839 68.7308 148.513 69.806C149.187 70.8812 149.029 73.3899 148.936 77.798C148.85 81.7761 148.728 83.4247 149.18 83.7401C149.631 84.0554 151.33 81.5897 151.33 81.5897C151.33 81.5897 153.366 76.343 155.093 76.5293C156.82 76.7157 155.659 78.0561 155.365 79.2746C155.115 80.3067 152.097 86.4423 152.032 86.5211C151.968 86.6 149.001 97.5308 149.001 97.5308L155.552 110.053C156.712 112.231 157.156 114.719 156.82 117.163C156.426 119.837 155.057 122.818 151.136 124.037C148.269 124.94 146.119 123.65 144.686 122.13C143.472 120.783 142.669 119.117 142.37 117.328C141.532 112.497 138.708 97.9106 138.708 97.9106L138.722 97.925Z" fill="#967262"/>
<path d="M143.598 92.4064C143.533 92.4064 143.598 91.8187 143.44 90.9299C143.228 89.7694 142.674 88.6987 141.849 87.8549C141.197 87.1676 140.33 86.7248 139.391 86.6006C138.804 86.5311 138.212 86.6652 137.713 86.9805L137.642 87.0235V86.959C137.548 86.7583 137.505 86.6436 137.527 86.6364C137.548 86.6292 137.62 86.7081 137.756 86.8945H137.656C137.9 86.6844 138.184 86.5254 138.49 86.427C138.797 86.3285 139.12 86.2924 139.441 86.321C140.47 86.4012 141.433 86.861 142.143 87.6112C143.024 88.5038 143.583 89.6634 143.734 90.9084C143.815 91.4112 143.768 91.9264 143.598 92.4064Z" fill="#77574A"/>
<path d="M147.717 86.5938C147.781 86.6869 147.122 87.2532 146.477 88.0918C146.129 88.6391 145.746 89.1634 145.33 89.6615C145.48 89.0068 145.771 88.3928 146.183 87.8628C146.595 87.3328 147.119 86.8996 147.717 86.5938Z" fill="#77574A"/>
<path d="M81.4891 155.067C81.5803 158.262 82.8224 161.316 84.9869 163.668C86.5918 165.408 88.2856 167.063 90.0616 168.628L102.404 174.161C102.404 174.161 105.623 174.649 108.855 171.502C109.89 170.597 110.742 169.502 111.364 168.277C111.364 168.277 115.063 169.932 116.511 169.868C118.948 169.76 118.56 168.04 118.56 168.04C118.56 168.04 110.411 163.553 108.476 161.819C106.54 160.084 100.964 158.951 97.0072 159.46L94.7135 159.009L93.882 155.927C93.882 155.927 89.4094 149.268 85.2808 151.626C81.1522 153.984 81.4891 155.067 81.4891 155.067Z" fill="#967262"/>
</svg>
